0
SECTION
2
HEADER
9
$ACADVER
1
AC1009
9
$INSUNITS
70
4
9
$EXTMIN
10
0.0000
20
0.0000
30
0.0
9
$EXTMAX
10
186.9141
20
186.9446
30
0.0
0
ENDSEC
0
SECTION
2
ENTITIES
0
POLYLINE
8
PATTERN
66
1
70
1
10
0.0
20
0.0
30
0.0
0
VERTEX
8
PATTERN
10
123.7764
20
103.1408
30
0.0
0
VERTEX
8
PATTERN
10
124.7470
20
103.8456
30
0.0
0
VERTEX
8
PATTERN
10
125.7098
20
104.5612
30
0.0
0
VERTEX
8
PATTERN
10
126.8070
20
105.0221
30
0.0
0
VERTEX
8
PATTERN
10
127.9747
20
104.8372
30
0.0
0
VERTEX
8
PATTERN
10
129.0076
20
104.2302
30
0.0
0
VERTEX
8
PATTERN
10
130.0212
20
103.5891
30
0.0
0
VERTEX
8
PATTERN
10
131.1189
20
103.1094
30
0.0
0
VERTEX
8
PATTERN
10
132.2851
20
102.8330
30
0.0
0
VERTEX
8
PATTERN
10
133.4768
20
102.6973
30
0.0
0
VERTEX
8
PATTERN
10
134.6749
20
102.6324
30
0.0
0
VERTEX
8
PATTERN
10
135.8743
20
102.5992
30
0.0
0
VERTEX
8
PATTERN
10
137.0740
20
102.5828
30
0.0
0
VERTEX
8
PATTERN
10
138.2739
20
102.5809
30
0.0
0
VERTEX
8
PATTERN
10
139.4737
20
102.5942
30
0.0
0
VERTEX
8
PATTERN
10
140.6733
20
102.6210
30
0.0
0
VERTEX
8
PATTERN
10
141.8726
20
102.6583
30
0.0
0
VERTEX
8
PATTERN
10
143.0716
20
102.7031
30
0.0
0
VERTEX
8
PATTERN
10
144.2706
20
102.7509
30
0.0
0
VERTEX
8
PATTERN
10
145.4697
20
102.7923
30
0.0
0
VERTEX
8
PATTERN
10
146.6694
20
102.8114
30
0.0
0
VERTEX
8
PATTERN
10
147.8691
20
102.7944
30
0.0
0
VERTEX
8
PATTERN
10
149.0678
20
102.7415
30
0.0
0
VERTEX
8
PATTERN
10
150.2657
20
102.6723
30
0.0
0
VERTEX
8
PATTERN
10
151.4643
20
102.6172
30
0.0
0
VERTEX
8
PATTERN
10
152.6640
20
102.5998
30
0.0
0
VERTEX
8
PATTERN
10
153.8636
20
102.6222
30
0.0
0
VERTEX
8
PATTERN
10
155.0627
20
102.6643
30
0.0
0
VERTEX
8
PATTERN
10
156.2621
20
102.6981
30
0.0
0
VERTEX
8
PATTERN
10
157.4620
20
102.7080
30
0.0
0
VERTEX
8
PATTERN
10
158.6618
20
102.7009
30
0.0
0
VERTEX
8
PATTERN
10
159.8617
20
102.6994
30
0.0
0
VERTEX
8
PATTERN
10
161.0613
20
102.7240
30
0.0
0
VERTEX
8
PATTERN
10
162.2599
20
102.7799
30
0.0
0
VERTEX
8
PATTERN
10
163.4575
20
102.8530
30
0.0
0
VERTEX
8
PATTERN
10
164.6557
20
102.9169
30
0.0
0
VERTEX
8
PATTERN
10
165.8551
20
102.9474
30
0.0
0
VERTEX
8
PATTERN
10
167.0549
20
102.9341
30
0.0
0
VERTEX
8
PATTERN
10
168.2537
20
102.8858
30
0.0
0
VERTEX
8
PATTERN
10
169.4520
20
102.8238
30
0.0
0
VERTEX
8
PATTERN
10
170.6507
20
102.7707
30
0.0
0
VERTEX
8
PATTERN
10
171.8502
20
102.7422
30
0.0
0
VERTEX
8
PATTERN
10
173.0501
20
102.7457
30
0.0
0
VERTEX
8
PATTERN
10
174.2493
20
102.7839
30
0.0
0
VERTEX
8
PATTERN
10
175.4468
20
102.8587
30
0.0
0
VERTEX
8
PATTERN
10
176.6416
20
102.9687
30
0.0
0
VERTEX
8
PATTERN
10
177.8343
20
103.0997
30
0.0
0
VERTEX
8
PATTERN
10
179.0281
20
103.2196
30
0.0
0
VERTEX
8
PATTERN
10
180.2258
20
103.2893
30
0.0
0
VERTEX
8
PATTERN
10
181.4256
20
103.2907
30
0.0
0
VERTEX
8
PATTERN
10
182.6249
20
103.2544
30
0.0
0
VERTEX
8
PATTERN
10
183.8240
20
103.2709
30
0.0
0
VERTEX
8
PATTERN
10
185.0004
20
103.4887
30
0.0
0
VERTEX
8
PATTERN
10
186.0169
20
104.1043
30
0.0
0
VERTEX
8
PATTERN
10
186.5986
20
105.1374
30
0.0
0
VERTEX
8
PATTERN
10
186.6388
20
106.3276
30
0.0
0
VERTEX
8
PATTERN
10
186.2116
20
107.4405
30
0.0
0
VERTEX
8
PATTERN
10
185.3977
20
108.3122
30
0.0
0
VERTEX
8
PATTERN
10
184.3426
20
108.8757
30
0.0
0
VERTEX
8
PATTERN
10
183.1875
20
109.1954
30
0.0
0
VERTEX
8
PATTERN
10
181.9983
20
109.3484
30
0.0
0
VERTEX
8
PATTERN
10
180.8000
20
109.3290
30
0.0
0
VERTEX
8
PATTERN
10
179.6255
20
109.0941
30
0.0
0
VERTEX
8
PATTERN
10
178.5089
20
108.6577
30
0.0
0
VERTEX
8
PATTERN
10
177.4282
20
108.1366
30
0.0
0
VERTEX
8
PATTERN
10
176.3287
20
107.6571
30
0.0
0
VERTEX
8
PATTERN
10
175.1840
20
107.2999
30
0.0
0
VERTEX
8
PATTERN
10
174.0044
20
107.0840
30
0.0
0
VERTEX
8
PATTERN
10
172.8090
20
106.9858
30
0.0
0
VERTEX
8
PATTERN
10
171.6093
20
106.9742
30
0.0
0
VERTEX
8
PATTERN
10
170.4107
20
107.0265
30
0.0
0
VERTEX
8
PATTERN
10
169.2148
20
107.1238
30
0.0
0
VERTEX
8
PATTERN
10
168.0205
20
107.2397
30
0.0
0
VERTEX
8
PATTERN
10
166.8245
20
107.3349
30
0.0
0
VERTEX
8
PATTERN
10
165.6253
20
107.3668
30
0.0
0
VERTEX
8
PATTERN
10
164.4268
20
107.3137
30
0.0
0
VERTEX
8
PATTERN
10
163.2328
20
107.1952
30
0.0
0
VERTEX
8
PATTERN
10
162.0403
20
107.0633
30
0.0
0
VERTEX
8
PATTERN
10
160.8440
20
106.9727
30
0.0
0
VERTEX
8
PATTERN
10
159.6445
20
106.9522
30
0.0
0
VERTEX
8
PATTERN
10
158.4452
20
106.9903
30
0.0
0
VERTEX
8
PATTERN
10
157.2464
20
107.0415
30
0.0
0
VERTEX
8
PATTERN
10
156.0468
20
107.0528
30
0.0
0
VERTEX
8
PATTERN
10
154.8479
20
107.0065
30
0.0
0
VERTEX
8
PATTERN
10
153.6491
20
106.9554
30
0.0
0
VERTEX
8
PATTERN
10
152.4555
20
107.0520
30
0.0
0
VERTEX
8
PATTERN
10
151.4253
20
107.6205
30
0.0
0
VERTEX
8
PATTERN
10
151.1608
20
108.7556
30
0.0
0
VERTEX
8
PATTERN
10
151.5233
20
109.8949
30
0.0
0
VERTEX
8
PATTERN
10
152.0610
20
110.9675
30
0.0
0
VERTEX
8
PATTERN
10
152.5777
20
112.0501
30
0.0
0
VERTEX
8
PATTERN
10
152.9920
20
113.1756
30
0.0
0
VERTEX
8
PATTERN
10
153.3200
20
114.3297
30
0.0
0
VERTEX
8
PATTERN
10
153.6535
20
115.4821
30
0.0
0
VERTEX
8
PATTERN
10
154.1311
20
116.5806
30
0.0
0
VERTEX
8
PATTERN
10
154.8787
20
117.5116
30
0.0
0
VERTEX
8
PATTERN
10
155.9062
20
118.1165
30
0.0
0
VERTEX
8
PATTERN
10
157.0817
20
118.3242
30
0.0
0
VERTEX
8
PATTERN
10
158.2593
20
118.1308
30
0.0
0
VERTEX
8
PATTERN
10
159.2395
20
117.4667
30
0.0
0
VERTEX
8
PATTERN
10
159.5309
20
116.3388
30
0.0
0
VERTEX
8
PATTERN
10
159.1032
20
115.2250
30
0.0
0
VERTEX
8
PATTERN
10
158.5139
20
114.1800
30
0.0
0
VERTEX
8
PATTERN
10
158.1640
20
113.0416
30
0.0
0
VERTEX
8
PATTERN
10
158.5609
20
111.9490
30
0.0
0
VERTEX
8
PATTERN
10
159.6313
20
111.4582
30
0.0
0
VERTEX
8
PATTERN
10
160.8211
20
111.5392
30
0.0
0
VERTEX
8
PATTERN
10
161.9494
20
111.9414
30
0.0
0
VERTEX
8
PATTERN
10
163.0313
20
112.4600
30
0.0
0
VERTEX
8
PATTERN
10
164.1513
20
112.8848
30
0.0
0
VERTEX
8
PATTERN
10
165.3415
20
112.9618
30
0.0
0
VERTEX
8
PATTERN
10
166.5002
20
112.6619
30
0.0
0
VERTEX
8
PATTERN
10
167.6113
20
112.2093
30
0.0
0
VERTEX
8
PATTERN
10
168.7322
20
111.7821
30
0.0
0
VERTEX
8
PATTERN
10
169.8924
20
111.4799
30
0.0
0
VERTEX
8
PATTERN
10
171.0833
20
111.3436
30
0.0
0
VERTEX
8
PATTERN
10
172.2811
20
111.3873
30
0.0
0
VERTEX
8
PATTERN
10
173.4566
20
111.6207
30
0.0
0
VERTEX
8
PATTERN
10
174.5791
20
112.0414
30
0.0
0
VERTEX
8
PATTERN
10
175.6416
20
112.5979
30
0.0
0
VERTEX
8
PATTERN
10
176.6793
20
113.2004
30
0.0
0
VERTEX
8
PATTERN
10
177.7505
20
113.7396
30
0.0
0
VERTEX
8
PATTERN
10
178.8908
20
114.1070
30
0.0
0
VERTEX
8
PATTERN
10
180.0807
20
114.2452
30
0.0
0
VERTEX
8
PATTERN
10
181.2794
20
114.2046
30
0.0
0
VERTEX
8
PATTERN
10
182.4773
20
114.1443
30
0.0
0
VERTEX
8
PATTERN
10
183.6539
20
114.3362
30
0.0
0
VERTEX
8
PATTERN
10
184.5155
20
115.1334
30
0.0
0
VERTEX
8
PATTERN
10
184.7554
20
116.2973
30
0.0
0
VERTEX
8
PATTERN
10
184.5538
20
117.4750
30
0.0
0
VERTEX
8
PATTERN
10
183.9972
20
118.5308
30
0.0
0
VERTEX
8
PATTERN
10
183.0694
20
119.2734
30
0.0
0
VERTEX
8
PATTERN
10
181.9051
20
119.5285
30
0.0
0
VERTEX
8
PATTERN
10
180.7101
20
119.4453
30
0.0
0
VERTEX
8
PATTERN
10
179.5338
20
119.2106
30
0.0
0
VERTEX
8
PATTERN
10
178.3721
20
118.9105
30
0.0
0
VERTEX
8
PATTERN
10
177.2241
20
118.5620
30
0.0
0
VERTEX
8
PATTERN
10
176.0994
20
118.1449
30
0.0
0
VERTEX
8
PATTERN
10
175.0124
20
117.6376
30
0.0
0
VERTEX
8
PATTERN
10
173.9611
20
117.0594
30
0.0
0
VERTEX
8
PATTERN
10
172.9022
20
116.4960
30
0.0
0
VERTEX
8
PATTERN
10
171.7697
20
116.1110
30
0.0
0
VERTEX
8
PATTERN
10
170.5841
20
116.1664
30
0.0
0
VERTEX
8
PATTERN
10
169.6596
20
116.8900
30
0.0
0
VERTEX
8
PATTERN
10
169.3513
20
118.0355
30
0.0
0
VERTEX
8
PATTERN
10
169.3858
20
119.2343
30
0.0
0
VERTEX
8
PATTERN
10
169.3052
20
120.4267
30
0.0
0
VERTEX
8
PATTERN
10
168.6705
20
121.4160
30
0.0
0
VERTEX
8
PATTERN
10
167.5453
20
121.7772
30
0.0
0
VERTEX
8
PATTERN
10
166.3548
20
121.6544
30
0.0
0
VERTEX
8
PATTERN
10
165.1818
20
121.4022
30
0.0
0
VERTEX
8
PATTERN
10
163.9900
20
121.2818
30
0.0
0
VERTEX
8
PATTERN
10
162.7997
20
121.4145
30
0.0
0
VERTEX
8
PATTERN
10
161.6399
20
121.7197
30
0.0
0
VERTEX
8
PATTERN
10
160.4926
20
122.0712
30
0.0
0
VERTEX
8
PATTERN
10
159.3349
20
122.3860
30
0.0
0
VERTEX
8
PATTERN
10
158.1587
20
122.6214
30
0.0
0
VERTEX
8
PATTERN
10
156.9663
20
122.7495
30
0.0
0
VERTEX
8
PATTERN
10
155.7675
20
122.7371
30
0.0
0
VERTEX
8
PATTERN
10
154.5846
20
122.5442
30
0.0
0
VERTEX
8
PATTERN
10
153.4553
20
122.1441
30
0.0
0
VERTEX
8
PATTERN
10
152.4154
20
121.5487
30
0.0
0
VERTEX
8
PATTERN
10
151.4900
20
120.7872
30
0.0
0
VERTEX
8
PATTERN
10
150.7009
20
119.8851
30
0.0
0
VERTEX
8
PATTERN
10
150.0712
20
118.8654
30
0.0
0
VERTEX
8
PATTERN
10
149.6017
20
117.7623
30
0.0
0
VERTEX
8
PATTERN
10
149.2489
20
116.6158
30
0.0
0
VERTEX
8
PATTERN
10
148.9344
20
115.4578
30
0.0
0
VERTEX
8
PATTERN
10
148.5834
20
114.3106
30
0.0
0
VERTEX
8
PATTERN
10
148.1612
20
113.1877
30
0.0
0
VERTEX
8
PATTERN
10
147.6799
20
112.0887
30
0.0
0
VERTEX
8
PATTERN
10
147.1689
20
111.0031
30
0.0
0
VERTEX
8
PATTERN
10
146.6335
20
109.9293
30
0.0
0
VERTEX
8
PATTERN
10
146.0216
20
108.8981
30
0.0
0
VERTEX
8
PATTERN
10
145.2283
20
108.0025
30
0.0
0
VERTEX
8
PATTERN
10
144.2068
20
107.3820
30
0.0
0
VERTEX
8
PATTERN
10
143.0569
20
107.0466
30
0.0
0
VERTEX
8
PATTERN
10
141.8691
20
106.8808
30
0.0
0
VERTEX
8
PATTERN
10
140.6722
20
106.7979
30
0.0
0
VERTEX
8
PATTERN
10
139.4730
20
106.7570
30
0.0
0
VERTEX
8
PATTERN
10
138.2732
20
106.7472
30
0.0
0
VERTEX
8
PATTERN
10
137.0737
20
106.7736
30
0.0
0
VERTEX
8
PATTERN
10
135.8766
20
106.8533
30
0.0
0
VERTEX
8
PATTERN
10
134.6887
20
107.0200
30
0.0
0
VERTEX
8
PATTERN
10
133.5282
20
107.3208
30
0.0
0
VERTEX
8
PATTERN
10
132.4268
20
107.7933
30
0.0
0
VERTEX
8
PATTERN
10
131.4107
20
108.4295
30
0.0
0
VERTEX
8
PATTERN
10
130.4688
20
109.1724
30
0.0
0
VERTEX
8
PATTERN
10
129.5466
20
109.9399
30
0.0
0
VERTEX
8
PATTERN
10
128.5639
20
110.6261
30
0.0
0
VERTEX
8
PATTERN
10
127.4425
20
111.0316
30
0.0
0
VERTEX
8
PATTERN
10
126.2612
20
110.9078
30
0.0
0
VERTEX
8
PATTERN
10
125.2048
20
110.3480
30
0.0
0
VERTEX
8
PATTERN
10
124.2690
20
109.5981
30
0.0
0
VERTEX
8
PATTERN
10
123.3847
20
108.7871
30
0.0
0
VERTEX
8
PATTERN
10
122.4981
20
107.9787
30
0.0
0
VERTEX
8
PATTERN
10
121.5732
20
107.2148
30
0.0
0
VERTEX
8
PATTERN
10
120.5898
20
106.5281
30
0.0
0
VERTEX
8
PATTERN
10
119.5414
20
105.9459
30
0.0
0
VERTEX
8
PATTERN
10
118.4290
20
105.4990
30
0.0
0
VERTEX
8
PATTERN
10
117.2607
20
105.2331
30
0.0
0
VERTEX
8
PATTERN
10
116.0634
20
105.1978
30
0.0
0
VERTEX
8
PATTERN
10
114.8773
20
105.3713
30
0.0
0
VERTEX
8
PATTERN
10
113.7116
20
105.6550
30
0.0
0
VERTEX
8
PATTERN
10
112.5413
20
105.9187
30
0.0
0
VERTEX
8
PATTERN
10
111.3488
20
106.0384
30
0.0
0
VERTEX
8
PATTERN
10
110.1581
20
105.9126
30
0.0
0
VERTEX
8
PATTERN
10
109.0221
20
105.5329
30
0.0
0
VERTEX
8
PATTERN
10
107.9596
20
104.9766
30
0.0
0
VERTEX
8
PATTERN
10
106.9281
20
104.3637
30
0.0
0
VERTEX
8
PATTERN
10
105.8490
20
103.8435
30
0.0
0
VERTEX
8
PATTERN
10
104.6715
20
103.6919
30
0.0
0
VERTEX
8
PATTERN
10
103.6977
20
104.3249
30
0.0
0
VERTEX
8
PATTERN
10
103.5084
20
105.4835
30
0.0
0
VERTEX
8
PATTERN
10
103.9521
20
106.5903
30
0.0
0
VERTEX
8
PATTERN
10
104.6914
20
107.5325
30
0.0
0
VERTEX
8
PATTERN
10
105.5708
20
108.3477
30
0.0
0
VERTEX
8
PATTERN
10
106.5299
20
109.0680
30
0.0
0
VERTEX
8
PATTERN
10
107.5509
20
109.6973
30
0.0
0
VERTEX
8
PATTERN
10
108.6371
20
110.2049
30
0.0
0
VERTEX
8
PATTERN
10
109.7896
20
110.5322
30
0.0
0
VERTEX
8
PATTERN
10
110.9840
20
110.6233
30
0.0
0
VERTEX
8
PATTERN
10
112.1761
20
110.4984
30
0.0
0
VERTEX
8
PATTERN
10
113.3490
20
110.2465
30
0.0
0
VERTEX
8
PATTERN
10
114.5195
20
109.9830
30
0.0
0
VERTEX
8
PATTERN
10
115.7084
20
109.8311
30
0.0
0
VERTEX
8
PATTERN
10
116.9031
20
109.9069
30
0.0
0
VERTEX
8
PATTERN
10
118.0442
20
110.2682
30
0.0
0
VERTEX
8
PATTERN
10
119.0890
20
110.8548
30
0.0
0
VERTEX
8
PATTERN
10
120.0472
20
111.5762
30
0.0
0
VERTEX
8
PATTERN
10
120.9531
20
112.3628
30
0.0
0
VERTEX
8
PATTERN
10
121.8383
20
113.1729
30
0.0
0
VERTEX
8
PATTERN
10
122.7238
20
113.9825
30
0.0
0
VERTEX
8
PATTERN
10
123.6263
20
114.7732
30
0.0
0
VERTEX
8
PATTERN
10
124.5670
20
115.5176
30
0.0
0
VERTEX
8
PATTERN
10
125.5805
20
116.1577
30
0.0
0
VERTEX
8
PATTERN
10
126.7048
20
116.5636
30
0.0
0
VERTEX
8
PATTERN
10
127.8955
20
116.5439
30
0.0
0
VERTEX
8
PATTERN
10
129.0001
20
116.0885
30
0.0
0
VERTEX
8
PATTERN
10
129.9796
20
115.3975
30
0.0
0
VERTEX
8
PATTERN
10
130.8865
20
114.6122
30
0.0
0
VERTEX
8
PATTERN
10
131.7728
20
113.8035
30
0.0
0
VERTEX
8
PATTERN
10
132.6795
20
113.0177
30
0.0
0
VERTEX
8
PATTERN
10
133.6428
20
112.3032
30
0.0
0
VERTEX
8
PATTERN
10
134.6870
20
111.7145
30
0.0
0
VERTEX
8
PATTERN
10
135.8095
20
111.2943
30
0.0
0
VERTEX
8
PATTERN
10
136.9836
20
111.0518
30
0.0
0
VERTEX
8
PATTERN
10
138.1797
20
110.9683
30
0.0
0
VERTEX
8
PATTERN
10
139.3765
20
111.0380
30
0.0
0
VERTEX
8
PATTERN
10
140.5484
20
111.2879
30
0.0
0
VERTEX
8
PATTERN
10
141.6450
20
111.7683
30
0.0
0
VERTEX
8
PATTERN
10
142.5990
20
112.4911
30
0.0
0
VERTEX
8
PATTERN
10
143.3679
20
113.4094
30
0.0
0
VERTEX
8
PATTERN
10
143.9581
20
114.4525
30
0.0
0
VERTEX
8
PATTERN
10
144.3966
20
115.5685
30
0.0
0
VERTEX
8
PATTERN
10
144.7235
20
116.7226
30
0.0
0
VERTEX
8
PATTERN
10
145.0021
20
117.8897
30
0.0
0
VERTEX
8
PATTERN
10
145.3140
20
119.0481
30
0.0
0
VERTEX
8
PATTERN
10
145.7312
20
120.1724
30
0.0
0
VERTEX
8
PATTERN
10
146.2850
20
121.2358
30
0.0
0
VERTEX
8
PATTERN
10
146.9640
20
122.2242
30
0.0
0
VERTEX
8
PATTERN
10
147.7400
20
123.1388
30
0.0
0
VERTEX
8
PATTERN
10
148.5893
20
123.9860
30
0.0
0
VERTEX
8
PATTERN
10
149.4977
20
124.7695
30
0.0
0
VERTEX
8
PATTERN
10
150.4594
20
125.4867
30
0.0
0
VERTEX
8
PATTERN
10
151.4750
20
126.1250
30
0.0
0
VERTEX
8
PATTERN
10
152.5498
20
126.6566
30
0.0
0
VERTEX
8
PATTERN
10
153.6857
20
127.0395
30
0.0
0
VERTEX
8
PATTERN
10
154.8680
20
127.2354
30
0.0
0
VERTEX
8
PATTERN
10
156.0668
20
127.2433
30
0.0
0
VERTEX
8
PATTERN
10
157.2592
20
127.1125
30
0.0
0
VERTEX
8
PATTERN
10
158.4421
20
126.9116
30
0.0
0
VERTEX
8
PATTERN
10
159.6224
20
126.6958
30
0.0
0
VERTEX
8
PATTERN
10
160.8071
20
126.5062
30
0.0
0
VERTEX
8
PATTERN
10
161.9999
20
126.3785
30
0.0
0
VERTEX
8
PATTERN
10
163.1989
20
126.3443
30
0.0
0
VERTEX
8
PATTERN
10
164.3966
20
126.4120
30
0.0
0
VERTEX
8
PATTERN
10
165.5894
20
126.5417
30
0.0
0
VERTEX
8
PATTERN
10
166.7845
20
126.6456
30
0.0
0
VERTEX
8
PATTERN
10
167.9830
20
126.6221
30
0.0
0
VERTEX
8
PATTERN
10
169.1615
20
126.4050
30
0.0
0
VERTEX
8
PATTERN
10
170.2856
20
125.9894
30
0.0
0
VERTEX
8
PATTERN
10
171.3410
20
125.4203
30
0.0
0
VERTEX
8
PATTERN
10
172.3415
20
124.7583
30
0.0
0
VERTEX
8
PATTERN
10
173.3360
20
124.0873
30
0.0
0
VERTEX
8
PATTERN
10
174.3954
20
123.5271
30
0.0
0
VERTEX
8
PATTERN
10
175.5504
20
123.2146
30
0.0
0
VERTEX
8
PATTERN
10
176.7475
20
123.1813
30
0.0
0
VERTEX
8
PATTERN
10
177.9335
20
123.3565
30
0.0
0
VERTEX
8
PATTERN
10
179.0869
20
123.6842
30
0.0
0
VERTEX
8
PATTERN
10
180.1694
20
124.1965
30
0.0
0
VERTEX
8
PATTERN
10
181.0401
20
125.0085
30
0.0
0
VERTEX
8
PATTERN
10
181.4017
20
126.1369
30
0.0
0
VERTEX
8
PATTERN
10
181.2695
20
127.3247
30
0.0
0
VERTEX
8
PATTERN
10
180.9126
20
128.4695
30
0.0
0
VERTEX
8
PATTERN
10
180.4773
20
129.5876
30
0.0
0
VERTEX
8
PATTERN
10
180.0034
20
130.6898
30
0.0
0
VERTEX
8
PATTERN
10
179.4536
20
131.7556
30
0.0
0
VERTEX
8
PATTERN
10
178.7172
20
132.6972
30
0.0
0
VERTEX
8
PATTERN
10
177.6601
20
133.2171
30
0.0
0
VERTEX
8
PATTERN
10
176.5341
20
132.8883
30
0.0
0
VERTEX
8
PATTERN
10
175.6979
20
132.0337
30
0.0
0
VERTEX
8
PATTERN
10
174.9539
20
131.0928
30
0.0
0
VERTEX
8
PATTERN
10
174.0131
20
130.3647
30
0.0
0
VERTEX
8
PATTERN
10
172.8389
20
130.2295
30
0.0
0
VERTEX
8
PATTERN
10
171.7396
20
130.6847
30
0.0
0
VERTEX
8
PATTERN
10
170.9270
20
131.5542
30
0.0
0
VERTEX
8
PATTERN
10
170.6125
20
132.6985
30
0.0
0
VERTEX
8
PATTERN
10
170.8551
20
133.8643
30
0.0
0
VERTEX
8
PATTERN
10
171.4658
20
134.8933
30
0.0
0
VERTEX
8
PATTERN
10
172.2581
20
135.7934
30
0.0
0
VERTEX
8
PATTERN
10
173.1155
20
136.6327
30
0.0
0
VERTEX
8
PATTERN
10
173.9485
20
137.4959
30
0.0
0
VERTEX
8
PATTERN
10
174.6289
20
138.4807
30
0.0
0
VERTEX
8
PATTERN
10
174.9573
20
139.6262
30
0.0
0
VERTEX
8
PATTERN
10
174.7824
20
140.8038
30
0.0
0
VERTEX
8
PATTERN
10
174.1313
20
141.7999
30
0.0
0
VERTEX
8
PATTERN
10
173.0839
20
142.3438
30
0.0
0
VERTEX
8
PATTERN
10
171.9249
20
142.1280
30
0.0
0
VERTEX
8
PATTERN
10
170.9703
20
141.4087
30
0.0
0
VERTEX
8
PATTERN
10
170.1590
20
140.5254
30
0.0
0
VERTEX
8
PATTERN
10
169.3921
20
139.6025
30
0.0
0
VERTEX
8
PATTERN
10
168.6290
20
138.6766
30
0.0
0
VERTEX
8
PATTERN
10
167.8763
20
137.7423
30
0.0
0
VERTEX
8
PATTERN
10
167.1701
20
136.7725
30
0.0
0
VERTEX
8
PATTERN
10
166.5497
20
135.7460
30
0.0
0
VERTEX
8
PATTERN
10
166.0218
20
134.6688
30
0.0
0
VERTEX
8
PATTERN
10
165.5341
20
133.5725
30
0.0
0
VERTEX
8
PATTERN
10
164.9724
20
132.5136
30
0.0
0
VERTEX
8
PATTERN
10
164.1913
20
131.6094
30
0.0
0
VERTEX
8
PATTERN
10
163.1474
20
131.0318
30
0.0
0
VERTEX
8
PATTERN
10
161.9720
20
130.8089
30
0.0
0
VERTEX
8
PATTERN
10
160.7747
20
130.8490
30
0.0
0
VERTEX
8
PATTERN
10
159.6082
20
131.1192
30
0.0
0
VERTEX
8
PATTERN
10
158.5788
20
131.7182
30
0.0
0
VERTEX
8
PATTERN
10
158.0928
20
132.7779
30
0.0
0
VERTEX
8
PATTERN
10
158.4955
20
133.8885
30
0.0
0
VERTEX
8
PATTERN
10
159.3101
20
134.7661
30
0.0
0
VERTEX
8
PATTERN
10
160.2238
20
135.5437
30
0.0
0
VERTEX
8
PATTERN
10
161.1137
20
136.3480
30
0.0
0
VERTEX
8
PATTERN
10
161.9259
20
137.2306
30
0.0
0
VERTEX
8
PATTERN
10
162.6680
20
138.1732
30
0.0
0
VERTEX
8
PATTERN
10
163.3844
20
139.1358
30
0.0
0
VERTEX
8
PATTERN
10
164.1138
20
140.0885
30
0.0
0
VERTEX
8
PATTERN
10
164.8677
20
141.0219
30
0.0
0
VERTEX
8
PATTERN
10
165.6344
20
141.9449
30
0.0
0
VERTEX
8
PATTERN
10
166.3945
20
142.8733
30
0.0
0
VERTEX
8
PATTERN
10
167.1314
20
143.8202
30
0.0
0
VERTEX
8
PATTERN
10
167.8288
20
144.7964
30
0.0
0
VERTEX
8
PATTERN
10
168.4553
20
145.8193
30
0.0
0
VERTEX
8
PATTERN
10
168.9378
20
146.9161
30
0.0
0
VERTEX
8
PATTERN
10
169.1428
20
148.0931
30
0.0
0
VERTEX
8
PATTERN
10
168.8768
20
149.2505
30
0.0
0
VERTEX
8
PATTERN
10
168.0121
20
150.0436
30
0.0
0
VERTEX
8
PATTERN
10
166.8436
20
149.9867
30
0.0
0
VERTEX
8
PATTERN
10
165.8719
20
149.2959
30
0.0
0
VERTEX
8
PATTERN
10
165.0921
20
148.3855
30
0.0
0
VERTEX
8
PATTERN
10
164.3881
20
147.4139
30
0.0
0
VERTEX
8
PATTERN
10
163.6855
20
146.4413
30
0.0
0
VERTEX
8
PATTERN
10
162.9518
20
145.4920
30
0.0
0
VERTEX
8
PATTERN
10
162.1864
20
144.5680
30
0.0
0
VERTEX
8
PATTERN
10
161.4065
20
143.6561
30
0.0
0
VERTEX
8
PATTERN
10
160.6294
20
142.7419
30
0.0
0
VERTEX
8
PATTERN
10
159.8581
20
141.8228
30
0.0
0
VERTEX
8
PATTERN
10
159.0760
20
140.9128
30
0.0
0
VERTEX
8
PATTERN
10
158.2586
20
140.0347
30
0.0
0
VERTEX
8
PATTERN
10
157.3959
20
139.2009
30
0.0
0
VERTEX
8
PATTERN
10
156.5083
20
138.3935
30
0.0
0
VERTEX
8
PATTERN
10
155.6415
20
137.5641
30
0.0
0
VERTEX
8
PATTERN
10
154.8471
20
136.6657
30
0.0
0
VERTEX
8
PATTERN
10
154.1543
20
135.6867
30
0.0
0
VERTEX
8
PATTERN
10
153.5429
20
134.6544
30
0.0
0
VERTEX
8
PATTERN
10
152.9475
20
133.6127
30
0.0
0
VERTEX
8
PATTERN
10
152.2870
20
132.6118
30
0.0
0
VERTEX
8
PATTERN
10
151.5078
20
131.7008
30
0.0
0
VERTEX
8
PATTERN
10
150.6154
20
130.8998
30
0.0
0
VERTEX
8
PATTERN
10
149.6551
20
130.1808
30
0.0
0
VERTEX
8
PATTERN
10
148.6720
20
129.4929
30
0.0
0
VERTEX
8
PATTERN
10
147.6968
20
128.7938
30
0.0
0
VERTEX
8
PATTERN
10
146.7476
20
128.0600
30
0.0
0
VERTEX
8
PATTERN
10
145.8341
20
127.2822
30
0.0
0
VERTEX
8
PATTERN
10
144.9575
20
126.4630
30
0.0
0
VERTEX
8
PATTERN
10
144.1024
20
125.6213
30
0.0
0
VERTEX
8
PATTERN
10
143.2254
20
124.8028
30
0.0
0
VERTEX
8
PATTERN
10
142.2488
20
124.1099
30
0.0
0
VERTEX
8
PATTERN
10
141.1040
20
123.8015
30
0.0
0
VERTEX
8
PATTERN
10
140.0689
20
124.3246
30
0.0
0
VERTEX
8
PATTERN
10
139.7314
20
125.4529
30
0.0
0
VERTEX
8
PATTERN
10
139.9746
20
126.6213
30
0.0
0
VERTEX
8
PATTERN
10
140.5269
20
127.6841
30
0.0
0
VERTEX
8
PATTERN
10
141.2432
20
128.6456
30
0.0
0
VERTEX
8
PATTERN
10
142.0552
20
129.5285
30
0.0
0
VERTEX
8
PATTERN
10
142.9257
20
130.3540
30
0.0
0
VERTEX
8
PATTERN
10
143.8334
20
131.1386
30
0.0
0
VERTEX
8
PATTERN
10
144.7655
20
131.8941
30
0.0
0
VERTEX
8
PATTERN
10
145.7111
20
132.6328
30
0.0
0
VERTEX
8
PATTERN
10
146.6544
20
133.3743
30
0.0
0
VERTEX
8
PATTERN
10
147.5669
20
134.1530
30
0.0
0
VERTEX
8
PATTERN
10
148.3973
20
135.0177
30
0.0
0
VERTEX
8
PATTERN
10
149.0593
20
136.0151
30
0.0
0
VERTEX
8
PATTERN
10
149.3977
20
137.1589
30
0.0
0
VERTEX
8
PATTERN
10
149.1473
20
138.3113
30
0.0
0
VERTEX
8
PATTERN
10
148.1634
20
138.9281
30
0.0
0
VERTEX
8
PATTERN
10
146.9894
20
138.7548
30
0.0
0
VERTEX
8
PATTERN
10
145.9286
20
138.1986
30
0.0
0
VERTEX
8
PATTERN
10
144.9541
20
137.4990
30
0.0
0
VERTEX
8
PATTERN
10
144.0154
20
136.7517
30
0.0
0
VERTEX
8
PATTERN
10
143.0856
20
135.9933
30
0.0
0
VERTEX
8
PATTERN
10
142.1556
20
135.2351
30
0.0
0
VERTEX
8
PATTERN
10
141.2273
20
134.4748
30
0.0
0
VERTEX
8
PATTERN
10
140.3084
20
133.7033
30
0.0
0
VERTEX
8
PATTERN
10
139.4113
20
132.9066
30
0.0
0
VERTEX
8
PATTERN
10
138.5524
20
132.0690
30
0.0
0
VERTEX
8
PATTERN
10
137.7494
20
131.1778
30
0.0
0
VERTEX
8
PATTERN
10
137.0181
20
130.2270
30
0.0
0
VERTEX
8
PATTERN
10
136.3707
20
129.2173
30
0.0
0
VERTEX
8
PATTERN
10
135.8187
20
128.1525
30
0.0
0
VERTEX
8
PATTERN
10
135.3791
20
127.0367
30
0.0
0
VERTEX
8
PATTERN
10
135.0814
20
125.8753
30
0.0
0
VERTEX
8
PATTERN
10
134.9733
20
124.6820
30
0.0
0
VERTEX
8
PATTERN
10
135.1069
20
123.4922
30
0.0
0
VERTEX
8
PATTERN
10
135.5148
20
122.3671
30
0.0
0
VERTEX
8
PATTERN
10
136.1692
20
121.3641
30
0.0
0
VERTEX
8
PATTERN
10
136.9924
20
120.4928
30
0.0
0
VERTEX
8
PATTERN
10
137.9010
20
119.7092
30
0.0
0
VERTEX
8
PATTERN
10
138.8043
20
118.9200
30
0.0
0
VERTEX
8
PATTERN
10
139.5519
20
117.9877
30
0.0
0
VERTEX
8
PATTERN
10
139.7594
20
116.8313
30
0.0
0
VERTEX
8
PATTERN
10
139.0778
20
115.8843
30
0.0
0
VERTEX
8
PATTERN
10
137.9360
20
115.5693
30
0.0
0
VERTEX
8
PATTERN
10
136.7576
20
115.7620
30
0.0
0
VERTEX
8
PATTERN
10
135.6674
20
116.2580
30
0.0
0
VERTEX
8
PATTERN
10
134.6706
20
116.9242
30
0.0
0
VERTEX
8
PATTERN
10
133.7475
20
117.6903
30
0.0
0
VERTEX
8
PATTERN
10
132.8858
20
118.5249
30
0.0
0
VERTEX
8
PATTERN
10
132.0945
20
119.4263
30
0.0
0
VERTEX
8
PATTERN
10
131.4120
20
120.4120
30
0.0
0
VERTEX
8
PATTERN
10
130.8976
20
121.4941
30
0.0
0
VERTEX
8
PATTERN
10
130.5987
20
122.6541
30
0.0
0
VERTEX
8
PATTERN
10
130.5080
20
123.8493
30
0.0
0
VERTEX
8
PATTERN
10
130.5776
20
125.0464
30
0.0
0
VERTEX
8
PATTERN
10
130.7661
20
126.2310
30
0.0
0
VERTEX
8
PATTERN
10
131.0511
20
127.3962
30
0.0
0
VERTEX
8
PATTERN
10
131.4226
20
128.5368
30
0.0
0
VERTEX
8
PATTERN
10
131.8722
20
129.6490
30
0.0
0
VERTEX
8
PATTERN
10
132.3899
20
130.7313
30
0.0
0
VERTEX
8
PATTERN
10
132.9689
20
131.7820
30
0.0
0
VERTEX
8
PATTERN
10
133.6098
20
132.7961
30
0.0
0
VERTEX
8
PATTERN
10
134.3187
20
133.7639
30
0.0
0
VERTEX
8
PATTERN
10
135.0984
20
134.6756
30
0.0
0
VERTEX
8
PATTERN
10
135.9412
20
135.5294
30
0.0
0
VERTEX
8
PATTERN
10
136.8297
20
136.3355
30
0.0
0
VERTEX
8
PATTERN
10
137.7453
20
137.1111
30
0.0
0
VERTEX
8
PATTERN
10
138.6729
20
137.8722
30
0.0
0
VERTEX
8
PATTERN
10
139.6032
20
138.6300
30
0.0
0
VERTEX
8
PATTERN
10
140.5316
20
139.3901
30
0.0
0
VERTEX
8
PATTERN
10
141.4565
20
140.1544
30
0.0
0
VERTEX
8
PATTERN
10
142.3778
20
140.9231
30
0.0
0
VERTEX
8
PATTERN
10
143.2941
20
141.6979
30
0.0
0
VERTEX
8
PATTERN
10
144.1991
20
142.4856
30
0.0
0
VERTEX
8
PATTERN
10
145.0828
20
143.2972
30
0.0
0
VERTEX
8
PATTERN
10
145.9389
20
144.1378
30
0.0
0
VERTEX
8
PATTERN
10
146.7812
20
144.9924
30
0.0
0
VERTEX
8
PATTERN
10
147.6580
20
145.8108
30
0.0
0
VERTEX
8
PATTERN
10
148.6565
20
146.4695
30
0.0
0
VERTEX
8
PATTERN
10
149.8234
20
146.6451
30
0.0
0
VERTEX
8
PATTERN
10
150.8106
20
146.0077
30
0.0
0
VERTEX
8
PATTERN
10
151.4222
20
144.9790
30
0.0
0
VERTEX
8
PATTERN
10
151.9648
20
143.9096
30
0.0
0
VERTEX
8
PATTERN
10
152.7689
20
143.0351
30
0.0
0
VERTEX
8
PATTERN
10
153.9223
20
142.8264
30
0.0
0
VERTEX
8
PATTERN
10
155.0069
20
143.3174
30
0.0
0
VERTEX
8
PATTERN
10
155.9150
20
144.0989
30
0.0
0
VERTEX
8
PATTERN
10
156.7359
20
144.9738
30
0.0
0
VERTEX
8
PATTERN
10
157.5392
20
145.8651
30
0.0
0
VERTEX
8
PATTERN
10
158.3480
20
146.7514
30
0.0
0
VERTEX
8
PATTERN
10
159.1492
20
147.6445
30
0.0
0
VERTEX
8
PATTERN
10
159.9125
20
148.5701
30
0.0
0
VERTEX
8
PATTERN
10
160.6076
20
149.5477
30
0.0
0
VERTEX
8
PATTERN
10
161.2107
20
150.5844
30
0.0
0
VERTEX
8
PATTERN
10
161.6928
20
151.6822
30
0.0
0
VERTEX
8
PATTERN
10
161.9963
20
152.8409
30
0.0
0
VERTEX
8
PATTERN
10
161.9930
20
154.0346
30
0.0
0
VERTEX
8
PATTERN
10
161.4567
20
155.0855
30
0.0
0
VERTEX
8
PATTERN
10
160.3595
20
155.4700
30
0.0
0
VERTEX
8
PATTERN
10
159.2718
20
155.0050
30
0.0
0
VERTEX
8
PATTERN
10
158.4514
20
154.1338
30
0.0
0
VERTEX
8
PATTERN
10
157.7764
20
153.1420
30
0.0
0
VERTEX
8
PATTERN
10
157.0886
20
152.1593
30
0.0
0
VERTEX
8
PATTERN
10
156.2384
20
151.3181
30
0.0
0
VERTEX
8
PATTERN
10
155.1237
20
150.9386
30
0.0
0
VERTEX
8
PATTERN
10
154.1223
20
151.5165
30
0.0
0
VERTEX
8
PATTERN
10
153.6914
20
152.6273
30
0.0
0
VERTEX
8
PATTERN
10
153.5066
20
153.8125
30
0.0
0
VERTEX
8
PATTERN
10
153.2375
20
154.9794
30
0.0
0
VERTEX
8
PATTERN
10
152.5156
20
155.9064
30
0.0
0
VERTEX
8
PATTERN
10
151.3553
20
155.9691
30
0.0
0
VERTEX
8
PATTERN
10
150.3484
20
155.3307
30
0.0
0
VERTEX
8
PATTERN
10
149.5199
20
154.4643
30
0.0
0
VERTEX
8
PATTERN
10
148.7536
20
153.5410
30
0.0
0
VERTEX
8
PATTERN
10
147.9739
20
152.6291
30
0.0
0
VERTEX
8
PATTERN
10
147.1572
20
151.7501
30
0.0
0
VERTEX
8
PATTERN
10
146.3170
20
150.8935
30
0.0
0
VERTEX
8
PATTERN
10
145.4787
20
150.0351
30
0.0
0
VERTEX
8
PATTERN
10
144.6586
20
149.1593
30
0.0
0
VERTEX
8
PATTERN
10
143.8542
20
148.2689
30
0.0
0
VERTEX
8
PATTERN
10
143.0481
20
147.3802
30
0.0
0
VERTEX
8
PATTERN
10
142.2204
20
146.5116
30
0.0
0
VERTEX
8
PATTERN
10
141.3610
20
145.6744
30
0.0
0
VERTEX
8
PATTERN
10
140.4720
20
144.8685
30
0.0
0
VERTEX
8
PATTERN
10
139.5633
20
144.0850
30
0.0
0
VERTEX
8
PATTERN
10
138.6451
20
143.3126
30
0.0
0
VERTEX
8
PATTERN
10
137.7242
20
142.5434
30
0.0
0
VERTEX
8
PATTERN
10
136.8022
20
141.7755
30
0.0
0
VERTEX
8
PATTERN
10
135.8777
20
141.0107
30
0.0
0
VERTEX
8
PATTERN
10
134.9493
20
140.2505
30
0.0
0
VERTEX
8
PATTERN
10
134.0213
20
139.4900
30
0.0
0
VERTEX
8
PATTERN
10
133.1065
20
138.7135
30
0.0
0
VERTEX
8
PATTERN
10
132.2273
20
137.8972
30
0.0
0
VERTEX
8
PATTERN
10
131.4094
20
137.0198
30
0.0
0
VERTEX
8
PATTERN
10
130.6673
20
136.0774
30
0.0
0
VERTEX
8
PATTERN
10
129.9953
20
135.0836
30
0.0
0
VERTEX
8
PATTERN
10
129.3740
20
134.0572
30
0.0
0
VERTEX
8
PATTERN
10
128.7888
20
133.0097
30
0.0
0
VERTEX
8
PATTERN
10
128.2411
20
131.9422
30
0.0
0
VERTEX
8
PATTERN
10
127.7464
20
130.8493
30
0.0
0
VERTEX
8
PATTERN
10
127.3226
20
129.7270
30
0.0
0
VERTEX
8
PATTERN
10
126.9762
20
128.5785
30
0.0
0
VERTEX
8
PATTERN
10
126.6955
20
127.4120
30
0.0
0
VERTEX
8
PATTERN
10
126.4515
20
126.2372
30
0.0
0
VERTEX
8
PATTERN
10
126.2009
20
125.0638
30
0.0
0
VERTEX
8
PATTERN
10
125.8880
20
123.9059
30
0.0
0
VERTEX
8
PATTERN
10
125.4497
20
122.7900
30
0.0
0
VERTEX
8
PATTERN
10
124.8477
20
121.7537
30
0.0
0
VERTEX
8
PATTERN
10
124.0976
20
120.8185
30
0.0
0
VERTEX
8
PATTERN
10
123.2517
20
119.9680
30
0.0
0
VERTEX
8
PATTERN
10
122.3599
20
119.1653
30
0.0
0
VERTEX
8
PATTERN
10
121.4530
20
118.3798
30
0.0
0
VERTEX
8
PATTERN
10
120.5438
20
117.5967
30
0.0
0
VERTEX
8
PATTERN
10
119.6305
20
116.8185
30
0.0
0
VERTEX
8
PATTERN
10
118.6960
20
116.0661
30
0.0
0
VERTEX
8
PATTERN
10
117.7076
20
115.3868
30
0.0
0
VERTEX
8
PATTERN
10
116.6268
20
114.8707
30
0.0
0
VERTEX
8
PATTERN
10
115.4480
20
114.6870
30
0.0
0
VERTEX
8
PATTERN
10
114.3277
20
115.0650
30
0.0
0
VERTEX
8
PATTERN
10
113.7239
20
116.0648
30
0.0
0
VERTEX
8
PATTERN
10
113.9498
20
117.2229
30
0.0
0
VERTEX
8
PATTERN
10
114.6689
20
118.1774
30
0.0
0
VERTEX
8
PATTERN
10
115.5664
20
118.9726
30
0.0
0
VERTEX
8
PATTERN
10
116.5148
20
119.7075
30
0.0
0
VERTEX
8
PATTERN
10
117.4627
20
120.4432
30
0.0
0
VERTEX
8
PATTERN
10
118.3878
20
121.2072
30
0.0
0
VERTEX
8
PATTERN
10
119.2772
20
122.0123
30
0.0
0
VERTEX
8
PATTERN
10
120.1112
20
122.8745
30
0.0
0
VERTEX
8
PATTERN
10
120.8545
20
123.8154
30
0.0
0
VERTEX
8
PATTERN
10
121.4661
20
124.8464
30
0.0
0
VERTEX
8
PATTERN
10
121.9287
20
125.9526
30
0.0
0
VERTEX
8
PATTERN
10
122.2689
20
127.1029
30
0.0
0
VERTEX
8
PATTERN
10
122.5429
20
128.2710
30
0.0
0
VERTEX
8
PATTERN
10
122.8107
20
129.4406
30
0.0
0
VERTEX
8
PATTERN
10
123.1220
20
130.5992
30
0.0
0
VERTEX
8
PATTERN
10
123.5072
20
131.7353
30
0.0
0
VERTEX
8
PATTERN
10
123.9686
20
132.8427
30
0.0
0
VERTEX
8
PATTERN
10
124.4750
20
133.9305
30
0.0
0
VERTEX
8
PATTERN
10
124.9593
20
135.0281
30
0.0
0
VERTEX
8
PATTERN
10
125.2930
20
136.1781
30
0.0
0
VERTEX
8
PATTERN
10
125.2092
20
137.3609
30
0.0
0
VERTEX
8
PATTERN
10
124.3997
20
138.1987
30
0.0
0
VERTEX
8
PATTERN
10
123.2247
20
138.2121
30
0.0
0
VERTEX
8
PATTERN
10
122.2055
20
137.5951
30
0.0
0
VERTEX
8
PATTERN
10
121.3996
20
136.7089
30
0.0
0
VERTEX
8
PATTERN
10
120.7284
20
135.7151
30
0.0
0
VERTEX
8
PATTERN
10
120.1404
20
134.6694
30
0.0
0
VERTEX
8
PATTERN
10
119.6263
20
133.5856
30
0.0
0
VERTEX
8
PATTERN
10
119.1959
20
132.4659
30
0.0
0
VERTEX
8
PATTERN
10
118.8505
20
131.3171
30
0.0
0
VERTEX
8
PATTERN
10
118.5630
20
130.1522
30
0.0
0
VERTEX
8
PATTERN
10
118.2774
20
128.9868
30
0.0
0
VERTEX
8
PATTERN
10
117.9249
20
127.8403
30
0.0
0
VERTEX
8
PATTERN
10
117.4446
20
126.7418
30
0.0
0
VERTEX
8
PATTERN
10
116.8100
20
125.7249
30
0.0
0
VERTEX
8
PATTERN
10
116.0354
20
124.8098
30
0.0
0
VERTEX
8
PATTERN
10
115.1531
20
123.9976
30
0.0
0
VERTEX
8
PATTERN
10
114.1965
20
123.2739
30
0.0
0
VERTEX
8
PATTERN
10
113.1965
20
122.6109
30
0.0
0
VERTEX
8
PATTERN
10
112.1878
20
121.9612
30
0.0
0
VERTEX
8
PATTERN
10
111.2180
20
121.2556
30
0.0
0
VERTEX
8
PATTERN
10
110.3547
20
120.4247
30
0.0
0
VERTEX
8
PATTERN
10
109.6581
20
119.4500
30
0.0
0
VERTEX
8
PATTERN
10
109.1188
20
118.3790
30
0.0
0
VERTEX
8
PATTERN
10
108.6413
20
117.2782
30
0.0
0
VERTEX
8
PATTERN
10
108.1070
20
116.2044
30
0.0
0
VERTEX
8
PATTERN
10
107.4271
20
115.2174
30
0.0
0
VERTEX
8
PATTERN
10
106.6015
20
114.3482
30
0.0
0
VERTEX
8
PATTERN
10
105.6851
20
113.5741
30
0.0
0
VERTEX
8
PATTERN
10
104.7320
20
112.8452
30
0.0
0
VERTEX
8
PATTERN
10
103.7755
20
112.1208
30
0.0
0
VERTEX
8
PATTERN
10
102.8329
20
111.3783
30
0.0
0
VERTEX
8
PATTERN
10
101.9093
20
110.6124
30
0.0
0
VERTEX
8
PATTERN
10
100.9918
20
109.8392
30
0.0
0
VERTEX
8
PATTERN
10
100.0396
20
109.1100
30
0.0
0
VERTEX
8
PATTERN
10
98.9790
20
108.5572
30
0.0
0
VERTEX
8
PATTERN
10
97.8018
20
108.5315
30
0.0
0
VERTEX
8
PATTERN
10
96.9805
20
109.3576
30
0.0
0
VERTEX
8
PATTERN
10
96.8669
20
110.5365
30
0.0
0
VERTEX
8
PATTERN
10
97.2733
20
111.6583
30
0.0
0
VERTEX
8
PATTERN
10
97.9843
20
112.6214
30
0.0
0
VERTEX
8
PATTERN
10
98.8511
20
113.4499
30
0.0
0
VERTEX
8
PATTERN
10
99.7833
20
114.2052
30
0.0
0
VERTEX
8
PATTERN
10
100.7304
20
114.9419
30
0.0
0
VERTEX
8
PATTERN
10
101.6602
20
115.7002
30
0.0
0
VERTEX
8
PATTERN
10
102.5449
20
116.5103
30
0.0
0
VERTEX
8
PATTERN
10
103.3545
20
117.3951
30
0.0
0
VERTEX
8
PATTERN
10
104.0618
20
118.3635
30
0.0
0
VERTEX
8
PATTERN
10
104.6607
20
119.4027
30
0.0
0
VERTEX
8
PATTERN
10
105.1825
20
120.4830
30
0.0
0
VERTEX
8
PATTERN
10
105.6920
20
121.5693
30
0.0
0
VERTEX
8
PATTERN
10
106.2708
20
122.6197
30
0.0
0
VERTEX
8
PATTERN
10
106.9913
20
123.5771
30
0.0
0
VERTEX
8
PATTERN
10
107.8758
20
124.3854
30
0.0
0
VERTEX
8
PATTERN
10
108.8743
20
125.0496
30
0.0
0
VERTEX
8
PATTERN
10
109.9174
20
125.6426
30
0.0
0
VERTEX
8
PATTERN
10
110.9497
20
126.2537
30
0.0
0
VERTEX
8
PATTERN
10
111.9204
20
126.9576
30
0.0
0
VERTEX
8
PATTERN
10
112.7721
20
127.8003
30
0.0
0
VERTEX
8
PATTERN
10
113.4524
20
128.7862
30
0.0
0
VERTEX
8
PATTERN
10
113.9435
20
129.8794
30
0.0
0
VERTEX
8
PATTERN
10
114.2873
20
131.0284
30
0.0
0
VERTEX
8
PATTERN
10
114.5691
20
132.1947
30
0.0
0
VERTEX
8
PATTERN
10
114.8740
20
133.3550
30
0.0
0
VERTEX
8
PATTERN
10
115.2624
20
134.4899
30
0.0
0
VERTEX
8
PATTERN
10
115.7520
20
135.5849
30
0.0
0
VERTEX
8
PATTERN
10
116.3215
20
136.6407
30
0.0
0
VERTEX
8
PATTERN
10
116.9349
20
137.6720
30
0.0
0
VERTEX
8
PATTERN
10
117.5663
20
138.6922
30
0.0
0
VERTEX
8
PATTERN
10
118.2148
20
139.7018
30
0.0
0
VERTEX
8
PATTERN
10
118.9054
20
140.6828
30
0.0
0
VERTEX
8
PATTERN
10
119.6810
20
141.5973
30
0.0
0
VERTEX
8
PATTERN
10
120.5844
20
142.3843
30
0.0
0
VERTEX
8
PATTERN
10
121.6362
20
142.9543
30
0.0
0
VERTEX
8
PATTERN
10
122.8038
20
143.2114
30
0.0
0
VERTEX
8
PATTERN
10
123.9989
20
143.1463
30
0.0
0
VERTEX
8
PATTERN
10
125.1646
20
142.8654
30
0.0
0
VERTEX
8
PATTERN
10
126.3094
20
142.5061
30
0.0
0
VERTEX
8
PATTERN
10
127.4695
20
142.2017
30
0.0
0
VERTEX
8
PATTERN
10
128.6614
20
142.0850
30
0.0
0
VERTEX
8
PATTERN
10
129.8448
20
142.2602
30
0.0
0
VERTEX
8
PATTERN
10
130.9551
20
142.7092
30
0.0
0
VERTEX
8
PATTERN
10
131.9761
20
143.3380
30
0.0
0
VERTEX
8
PATTERN
10
132.9337
20
144.0606
30
0.0
0
VERTEX
8
PATTERN
10
133.8594
20
144.8240
30
0.0
0
VERTEX
8
PATTERN
10
134.7752
20
145.5992
30
0.0
0
VERTEX
8
PATTERN
10
135.6918
20
146.3736
30
0.0
0
VERTEX
8
PATTERN
10
136.6096
20
147.1465
30
0.0
0
VERTEX
8
PATTERN
10
137.5208
20
147.9271
30
0.0
0
VERTEX
8
PATTERN
10
138.4117
20
148.7307
30
0.0
0
VERTEX
8
PATTERN
10
139.2668
20
149.5723
30
0.0
0
VERTEX
8
PATTERN
10
140.0772
20
150.4570
30
0.0
0
VERTEX
8
PATTERN
10
140.8511
20
151.3739
30
0.0
0
VERTEX
8
PATTERN
10
141.6169
20
152.2976
30
0.0
0
VERTEX
8
PATTERN
10
142.4089
20
153.1988
30
0.0
0
VERTEX
8
PATTERN
10
143.2421
20
154.0620
30
0.0
0
VERTEX
8
PATTERN
10
144.0958
20
154.9052
30
0.0
0
VERTEX
8
PATTERN
10
144.9144
20
155.7819
30
0.0
0
VERTEX
8
PATTERN
10
145.6054
20
156.7603
30
0.0
0
VERTEX
8
PATTERN
10
146.0005
20
157.8860
30
0.0
0
VERTEX
8
PATTERN
10
145.7599
20
159.0326
30
0.0
0
VERTEX
8
PATTERN
10
144.7431
20
159.6022
30
0.0
0
VERTEX
8
PATTERN
10
143.5475
20
159.5657
30
0.0
0
VERTEX
8
PATTERN
10
142.3564
20
159.4230
30
0.0
0
VERTEX
8
PATTERN
10
141.1832
20
159.6030
30
0.0
0
VERTEX
8
PATTERN
10
140.4559
20
160.5050
30
0.0
0
VERTEX
8
PATTERN
10
140.5367
20
161.6850
30
0.0
0
VERTEX
8
PATTERN
10
141.1243
20
162.7237
30
0.0
0
VERTEX
8
PATTERN
10
141.9888
20
163.5512
30
0.0
0
VERTEX
8
PATTERN
10
143.0043
20
164.1878
30
0.0
0
VERTEX
8
PATTERN
10
144.0839
20
164.7110
30
0.0
0
VERTEX
8
PATTERN
10
145.1562
20
165.2482
30
0.0
0
VERTEX
8
PATTERN
10
146.1016
20
165.9783
30
0.0
0
VERTEX
8
PATTERN
10
146.6345
20
167.0346
30
0.0
0
VERTEX
8
PATTERN
10
146.4863
20
168.2099
30
0.0
0
VERTEX
8
PATTERN
10
145.8534
20
169.2229
30
0.0
0
VERTEX
8
PATTERN
10
145.0096
20
170.0744
30
0.0
0
VERTEX
8
PATTERN
10
144.0960
20
170.8520
30
0.0
0
VERTEX
8
PATTERN
10
143.1739
20
171.6198
30
0.0
0
VERTEX
8
PATTERN
10
142.2640
20
172.4020
30
0.0
0
VERTEX
8
PATTERN
10
141.3656
20
173.1974
30
0.0
0
VERTEX
8
PATTERN
10
140.4715
20
173.9976
30
0.0
0
VERTEX
8
PATTERN
10
139.5719
20
174.7915
30
0.0
0
VERTEX
8
PATTERN
10
138.6453
20
175.5536
30
0.0
0
VERTEX
8
PATTERN
10
137.6463
20
176.2160
30
0.0
0
VERTEX
8
PATTERN
10
136.5244
20
176.6236
30
0.0
0
VERTEX
8
PATTERN
10
135.3478
20
176.4975
30
0.0
0
VERTEX
8
PATTERN
10
134.4205
20
175.7577
30
0.0
0
VERTEX
8
PATTERN
10
133.8871
20
174.6910
30
0.0
0
VERTEX
8
PATTERN
10
133.7483
20
173.5056
30
0.0
0
VERTEX
8
PATTERN
10
134.0531
20
172.3543
30
0.0
0
VERTEX
8
PATTERN
10
134.7985
20
171.4244
30
0.0
0
VERTEX
8
PATTERN
10
135.7999
20
170.7676
30
0.0
0
VERTEX
8
PATTERN
10
136.8684
20
170.2218
30
0.0
0
VERTEX
8
PATTERN
10
137.8576
20
169.5490
30
0.0
0
VERTEX
8
PATTERN
10
138.4610
20
168.5339
30
0.0
0
VERTEX
8
PATTERN
10
138.3691
20
167.3526
30
0.0
0
VERTEX
8
PATTERN
10
137.8658
20
166.2660
30
0.0
0
VERTEX
8
PATTERN
10
137.2506
20
165.2359
30
0.0
0
VERTEX
8
PATTERN
10
136.6644
20
164.1893
30
0.0
0
VERTEX
8
PATTERN
10
136.1824
20
163.0913
30
0.0
0
VERTEX
8
PATTERN
10
135.8438
20
161.9412
30
0.0
0
VERTEX
8
PATTERN
10
135.6760
20
160.7545
30
0.0
0
VERTEX
8
PATTERN
10
135.7031
20
159.5564
30
0.0
0
VERTEX
8
PATTERN
10
135.9273
20
158.3789
30
0.0
0
VERTEX
8
PATTERN
10
136.2898
20
157.2354
30
0.0
0
VERTEX
8
PATTERN
10
136.6672
20
156.0966
30
0.0
0
VERTEX
8
PATTERN
10
136.8666
20
154.9163
30
0.0
0
VERTEX
8
PATTERN
10
136.6803
20
153.7377
30
0.0
0
VERTEX
8
PATTERN
10
136.1133
20
152.6845
30
0.0
0
VERTEX
8
PATTERN
10
135.3374
20
151.7707
30
0.0
0
VERTEX
8
PATTERN
10
134.4681
20
150.9440
30
0.0
0
VERTEX
8
PATTERN
10
133.5630
20
150.1562
30
0.0
0
VERTEX
8
PATTERN
10
132.6471
20
149.3811
30
0.0
0
VERTEX
8
PATTERN
10
131.7226
20
148.6163
30
0.0
0
VERTEX
8
PATTERN
10
130.7686
20
147.8889
30
0.0
0
VERTEX
8
PATTERN
10
129.7415
20
147.2712
30
0.0
0
VERTEX
8
PATTERN
10
128.5995
20
146.9227
30
0.0
0
VERTEX
8
PATTERN
10
127.4393
20
147.1334
30
0.0
0
VERTEX
8
PATTERN
10
126.7732
20
148.0840
30
0.0
0
VERTEX
8
PATTERN
10
126.9406
20
149.2565
30
0.0
0
VERTEX
8
PATTERN
10
127.5422
20
150.2906
30
0.0
0
VERTEX
8
PATTERN
10
128.3171
20
151.2057
30
0.0
0
VERTEX
8
PATTERN
10
129.1534
20
152.0660
30
0.0
0
VERTEX
8
PATTERN
10
129.9730
20
152.9420
30
0.0
0
VERTEX
8
PATTERN
10
130.6836
20
153.9069
30
0.0
0
VERTEX
8
PATTERN
10
131.1598
20
155.0041
30
0.0
0
VERTEX
8
PATTERN
10
131.3401
20
156.1875
30
0.0
0
VERTEX
8
PATTERN
10
131.3139
20
157.3866
30
0.0
0
VERTEX
8
PATTERN
10
131.2308
20
158.5836
30
0.0
0
VERTEX
8
PATTERN
10
131.1978
20
159.7827
30
0.0
0
VERTEX
8
PATTERN
10
131.2669
20
160.9802
30
0.0
0
VERTEX
8
PATTERN
10
131.4280
20
162.1690
30
0.0
0
VERTEX
8
PATTERN
10
131.6195
20
163.3535
30
0.0
0
VERTEX
8
PATTERN
10
131.7458
20
164.5462
30
0.0
0
VERTEX
8
PATTERN
10
131.6675
20
165.7402
30
0.0
0
VERTEX
8
PATTERN
10
131.1737
20
166.8195
30
0.0
0
VERTEX
8
PATTERN
10
130.1235
20
167.3142
30
0.0
0
VERTEX
8
PATTERN
10
129.0447
20
166.8513
30
0.0
0
VERTEX
8
PATTERN
10
128.3147
20
165.9061
30
0.0
0
VERTEX
8
PATTERN
10
127.8194
20
164.8145
30
0.0
0
VERTEX
8
PATTERN
10
127.4463
20
163.6745
30
0.0
0
VERTEX
8
PATTERN
10
127.1492
20
162.5121
30
0.0
0
VERTEX
8
PATTERN
10
126.9223
20
161.3341
30
0.0
0
VERTEX
8
PATTERN
10
126.7676
20
160.1444
30
0.0
0
VERTEX
8
PATTERN
10
126.6586
20
158.9495
30
0.0
0
VERTEX
8
PATTERN
10
126.5240
20
157.7574
30
0.0
0
VERTEX
8
PATTERN
10
126.2693
20
156.5861
30
0.0
0
VERTEX
8
PATTERN
10
125.8292
20
155.4715
30
0.0
0
VERTEX
8
PATTERN
10
125.2211
20
154.4381
30
0.0
0
VERTEX
8
PATTERN
10
124.5205
20
153.4642
30
0.0
0
VERTEX
8
PATTERN
10
123.7940
20
152.5092
30
0.0
0
VERTEX
8
PATTERN
10
123.0776
20
151.5468
30
0.0
0
VERTEX
8
PATTERN
10
122.3714
20
150.5767
30
0.0
0
VERTEX
8
PATTERN
10
121.6474
20
149.6200
30
0.0
0
VERTEX
8
PATTERN
10
120.8700
20
148.7063
30
0.0
0
VERTEX
8
PATTERN
10
120.0228
20
147.8571
30
0.0
0
VERTEX
8
PATTERN
10
119.1207
20
147.0662
30
0.0
0
VERTEX
8
PATTERN
10
118.2000
20
146.2967
30
0.0
0
VERTEX
8
PATTERN
10
117.3043
20
145.4986
30
0.0
0
VERTEX
8
PATTERN
10
116.4745
20
144.6326
30
0.0
0
VERTEX
8
PATTERN
10
115.7328
20
143.6900
30
0.0
0
VERTEX
8
PATTERN
10
115.0680
20
142.6914
30
0.0
0
VERTEX
8
PATTERN
10
114.4428
20
141.6673
30
0.0
0
VERTEX
8
PATTERN
10
113.8181
20
140.6429
30
0.0
0
VERTEX
8
PATTERN
10
113.1736
20
139.6308
30
0.0
0
VERTEX
8
PATTERN
10
112.5173
20
138.6263
30
0.0
0
VERTEX
8
PATTERN
10
111.8839
20
137.6073
30
0.0
0
VERTEX
8
PATTERN
10
111.3241
20
136.5465
30
0.0
0
VERTEX
8
PATTERN
10
110.8792
20
135.4329
30
0.0
0
VERTEX
8
PATTERN
10
110.5459
20
134.2806
30
0.0
0
VERTEX
8
PATTERN
10
110.2612
20
133.1150
30
0.0
0
VERTEX
8
PATTERN
10
109.9155
20
131.9668
30
0.0
0
VERTEX
8
PATTERN
10
109.3657
20
130.9047
30
0.0
0
VERTEX
8
PATTERN
10
108.4595
20
130.1408
30
0.0
0
VERTEX
8
PATTERN
10
107.3023
20
130.1748
30
0.0
0
VERTEX
8
PATTERN
10
106.5444
20
131.0746
30
0.0
0
VERTEX
8
PATTERN
10
106.2533
20
132.2345
30
0.0
0
VERTEX
8
PATTERN
10
106.1865
20
133.4318
30
0.0
0
VERTEX
8
PATTERN
10
106.2236
20
134.6309
30
0.0
0
VERTEX
8
PATTERN
10
106.3272
20
135.8261
30
0.0
0
VERTEX
8
PATTERN
10
106.5199
20
137.0099
30
0.0
0
VERTEX
8
PATTERN
10
106.8614
20
138.1588
30
0.0
0
VERTEX
8
PATTERN
10
107.3980
20
139.2302
30
0.0
0
VERTEX
8
PATTERN
10
108.0915
20
140.2083
30
0.0
0
VERTEX
8
PATTERN
10
108.8560
20
141.1329
30
0.0
0
VERTEX
8
PATTERN
10
109.6108
20
142.0655
30
0.0
0
VERTEX
8
PATTERN
10
110.3015
20
143.0463
30
0.0
0
VERTEX
8
PATTERN
10
110.9113
20
144.0794
30
0.0
0
VERTEX
8
PATTERN
10
111.4697
20
145.1414
30
0.0
0
VERTEX
8
PATTERN
10
112.0448
20
146.1942
30
0.0
0
VERTEX
8
PATTERN
10
112.7139
20
147.1892
30
0.0
0
VERTEX
8
PATTERN
10
113.5124
20
148.0836
30
0.0
0
VERTEX
8
PATTERN
10
114.4097
20
148.8795
30
0.0
0
VERTEX
8
PATTERN
10
115.3505
20
149.6242
30
0.0
0
VERTEX
8
PATTERN
10
116.2852
20
150.3765
30
0.0
0
VERTEX
8
PATTERN
10
117.1769
20
151.1789
30
0.0
0
VERTEX
8
PATTERN
10
118.0051
20
152.0467
30
0.0
0
VERTEX
8
PATTERN
10
118.7698
20
152.9711
30
0.0
0
VERTEX
8
PATTERN
10
119.4845
20
153.9348
30
0.0
0
VERTEX
8
PATTERN
10
120.1570
20
154.9284
30
0.0
0
VERTEX
8
PATTERN
10
120.7730
20
155.9578
30
0.0
0
VERTEX
8
PATTERN
10
121.2940
20
157.0379
30
0.0
0
VERTEX
8
PATTERN
10
121.6804
20
158.1729
30
0.0
0
VERTEX
8
PATTERN
10
121.9382
20
159.3443
30
0.0
0
VERTEX
8
PATTERN
10
122.1359
20
160.5277
30
0.0
0
VERTEX
8
PATTERN
10
122.3571
20
161.7070
30
0.0
0
VERTEX
8
PATTERN
10
122.6401
20
162.8728
30
0.0
0
VERTEX
8
PATTERN
10
122.9449
20
164.0333
30
0.0
0
VERTEX
8
PATTERN
10
123.1393
20
165.2156
30
0.0
0
VERTEX
8
PATTERN
10
122.9221
20
166.3795
30
0.0
0
VERTEX
8
PATTERN
10
121.9512
20
166.9998
30
0.0
0
VERTEX
8
PATTERN
10
120.7918
20
166.7587
30
0.0
0
VERTEX
8
PATTERN
10
119.8139
20
166.0722
30
0.0
0
VERTEX
8
PATTERN
10
119.0387
20
165.1596
30
0.0
0
VERTEX
8
PATTERN
10
118.4552
20
164.1129
30
0.0
0
VERTEX
8
PATTERN
10
118.0414
20
162.9876
30
0.0
0
VERTEX
8
PATTERN
10
117.7502
20
161.8239
30
0.0
0
VERTEX
8
PATTERN
10
117.5081
20
160.6487
30
0.0
0
VERTEX
8
PATTERN
10
117.2341
20
159.4808
30
0.0
0
VERTEX
8
PATTERN
10
116.8657
20
158.3394
30
0.0
0
VERTEX
8
PATTERN
10
116.3744
20
157.2454
30
0.0
0
VERTEX
8
PATTERN
10
115.7637
20
156.2133
30
0.0
0
VERTEX
8
PATTERN
10
115.0474
20
155.2514
30
0.0
0
VERTEX
8
PATTERN
10
114.2374
20
154.3669
30
0.0
0
VERTEX
8
PATTERN
10
113.3414
20
153.5698
30
0.0
0
VERTEX
8
PATTERN
10
112.3636
20
152.8756
30
0.0
0
VERTEX
8
PATTERN
10
111.3039
20
152.3152
30
0.0
0
VERTEX
8
PATTERN
10
110.1621
20
151.9537
30
0.0
0
VERTEX
8
PATTERN
10
108.9688
20
151.8886
30
0.0
0
VERTEX
8
PATTERN
10
107.8342
20
152.2485
30
0.0
0
VERTEX
8
PATTERN
10
107.0418
20
153.1202
30
0.0
0
VERTEX
8
PATTERN
10
107.0767
20
154.2840
30
0.0
0
VERTEX
8
PATTERN
10
107.8409
20
155.1952
30
0.0
0
VERTEX
8
PATTERN
10
108.8313
20
155.8707
30
0.0
0
VERTEX
8
PATTERN
10
109.8509
20
156.5030
30
0.0
0
VERTEX
8
PATTERN
10
110.8110
20
157.2211
30
0.0
0
VERTEX
8
PATTERN
10
111.6415
20
158.0845
30
0.0
0
VERTEX
8
PATTERN
10
112.2961
20
159.0878
30
0.0
0
VERTEX
8
PATTERN
10
112.7646
20
160.1911
30
0.0
0
VERTEX
8
PATTERN
10
113.0819
20
161.3477
30
0.0
0
VERTEX
8
PATTERN
10
113.3208
20
162.5235
30
0.0
0
VERTEX
8
PATTERN
10
113.5672
20
163.6977
30
0.0
0
VERTEX
8
PATTERN
10
113.8978
20
164.8506
30
0.0
0
VERTEX
8
PATTERN
10
114.3567
20
165.9584
30
0.0
0
VERTEX
8
PATTERN
10
114.9479
20
167.0017
30
0.0
0
VERTEX
8
PATTERN
10
115.6520
20
167.9726
30
0.0
0
VERTEX
8
PATTERN
10
116.4476
20
168.8702
30
0.0
0
VERTEX
8
PATTERN
10
117.3252
20
169.6876
30
0.0
0
VERTEX
8
PATTERN
10
118.2859
20
170.4054
30
0.0
0
VERTEX
8
PATTERN
10
119.3321
20
170.9905
30
0.0
0
VERTEX
8
PATTERN
10
120.4546
20
171.4108
30
0.0
0
VERTEX
8
PATTERN
10
121.6275
20
171.6592
30
0.0
0
VERTEX
8
PATTERN
10
122.8214
20
171.7755
30
0.0
0
VERTEX
8
PATTERN
10
124.0194
20
171.8413
30
0.0
0
VERTEX
8
PATTERN
10
125.2122
20
171.9660
30
0.0
0
VERTEX
8
PATTERN
10
126.3683
20
172.2778
30
0.0
0
VERTEX
8
PATTERN
10
127.4074
20
172.8690
30
0.0
0
VERTEX
8
PATTERN
10
128.2307
20
173.7362
30
0.0
0
VERTEX
8
PATTERN
10
128.7872
20
174.7947
30
0.0
0
VERTEX
8
PATTERN
10
129.0248
20
175.9655
30
0.0
0
VERTEX
8
PATTERN
10
128.7933
20
177.1292
30
0.0
0
VERTEX
8
PATTERN
10
127.8849
20
177.8557
30
0.0
0
VERTEX
8
PATTERN
10
126.6989
20
177.8113
30
0.0
0
VERTEX
8
PATTERN
10
125.5676
20
177.4145
30
0.0
0
VERTEX
8
PATTERN
10
124.4563
20
176.9621
30
0.0
0
VERTEX
8
PATTERN
10
123.3196
20
176.5791
30
0.0
0
VERTEX
8
PATTERN
10
122.1531
20
176.2996
30
0.0
0
VERTEX
8
PATTERN
10
120.9729
20
176.0833
30
0.0
0
VERTEX
8
PATTERN
10
119.7961
20
175.8500
30
0.0
0
VERTEX
8
PATTERN
10
118.6428
20
175.5212
30
0.0
0
VERTEX
8
PATTERN
10
117.5395
20
175.0519
30
0.0
0
VERTEX
8
PATTERN
10
116.5035
20
174.4480
30
0.0
0
VERTEX
8
PATTERN
10
115.5298
20
173.7473
30
0.0
0
VERTEX
8
PATTERN
10
114.6021
20
172.9865
30
0.0
0
VERTEX
8
PATTERN
10
113.7084
20
172.1859
30
0.0
0
VERTEX
8
PATTERN
10
112.8455
20
171.3523
30
0.0
0
VERTEX
8
PATTERN
10
112.0069
20
170.4941
30
0.0
0
VERTEX
8
PATTERN
10
111.1626
20
169.6418
30
0.0
0
VERTEX
8
PATTERN
10
110.2452
20
168.8705
30
0.0
0
VERTEX
8
PATTERN
10
109.1672
20
168.3601
30
0.0
0
VERTEX
8
PATTERN
10
107.9865
20
168.4185
30
0.0
0
VERTEX
8
PATTERN
10
107.0468
20
169.1385
30
0.0
0
VERTEX
8
PATTERN
10
106.5408
20
170.2170
30
0.0
0
VERTEX
8
PATTERN
10
106.4501
20
171.4076
30
0.0
0
VERTEX
8
PATTERN
10
106.7650
20
172.5584
30
0.0
0
VERTEX
8
PATTERN
10
107.4710
20
173.5203
30
0.0
0
VERTEX
8
PATTERN
10
108.4263
20
174.2421
30
0.0
0
VERTEX
8
PATTERN
10
109.4696
20
174.8342
30
0.0
0
VERTEX
8
PATTERN
10
110.5138
20
175.4251
30
0.0
0
VERTEX
8
PATTERN
10
111.5083
20
176.0954
30
0.0
0
VERTEX
8
PATTERN
10
112.4227
20
176.8713
30
0.0
0
VERTEX
8
PATTERN
10
113.2537
20
177.7363
30
0.0
0
VERTEX
8
PATTERN
10
114.0413
20
178.6415
30
0.0
0
VERTEX
8
PATTERN
10
114.8771
20
179.5010
30
0.0
0
VERTEX
8
PATTERN
10
115.8692
20
180.1676
30
0.0
0
VERTEX
8
PATTERN
10
117.0169
20
180.5001
30
0.0
0
VERTEX
8
PATTERN
10
118.2137
20
180.5659
30
0.0
0
VERTEX
8
PATTERN
10
119.4132
20
180.5403
30
0.0
0
VERTEX
8
PATTERN
10
120.6118
20
180.5782
30
0.0
0
VERTEX
8
PATTERN
10
121.7830
20
180.8237
30
0.0
0
VERTEX
8
PATTERN
10
122.7930
20
181.4488
30
0.0
0
VERTEX
8
PATTERN
10
123.1119
20
182.5538
30
0.0
0
VERTEX
8
PATTERN
10
122.4197
20
183.5065
30
0.0
0
VERTEX
8
PATTERN
10
121.3790
20
184.0969
30
0.0
0
VERTEX
8
PATTERN
10
120.2481
20
184.4960
30
0.0
0
VERTEX
8
PATTERN
10
119.0895
20
184.8074
30
0.0
0
VERTEX
8
PATTERN
10
117.9229
20
185.0883
30
0.0
0
VERTEX
8
PATTERN
10
116.7571
20
185.3720
30
0.0
0
VERTEX
8
PATTERN
10
115.5948
20
185.6699
30
0.0
0
VERTEX
8
PATTERN
10
114.4312
20
185.9628
30
0.0
0
VERTEX
8
PATTERN
10
113.2522
20
186.1817
30
0.0
0
VERTEX
8
PATTERN
10
112.0582
20
186.1569
30
0.0
0
VERTEX
8
PATTERN
10
111.0469
20
185.5586
30
0.0
0
VERTEX
8
PATTERN
10
110.5696
20
184.4698
30
0.0
0
VERTEX
8
PATTERN
10
110.3815
20
183.2854
30
0.0
0
VERTEX
8
PATTERN
10
110.1850
20
182.1023
30
0.0
0
VERTEX
8
PATTERN
10
109.7822
20
180.9759
30
0.0
0
VERTEX
8
PATTERN
10
109.0382
20
180.0458
30
0.0
0
VERTEX
8
PATTERN
10
107.9366
20
179.6347
30
0.0
0
VERTEX
8
PATTERN
10
106.9057
20
180.1681
30
0.0
0
VERTEX
8
PATTERN
10
106.3950
20
181.2441
30
0.0
0
VERTEX
8
PATTERN
10
106.1775
20
182.4231
30
0.0
0
VERTEX
8
PATTERN
10
106.0441
20
183.6155
30
0.0
0
VERTEX
8
PATTERN
10
105.8550
20
184.7998
30
0.0
0
VERTEX
8
PATTERN
10
105.4648
20
185.9307
30
0.0
0
VERTEX
8
PATTERN
10
104.6838
20
186.8213
30
0.0
0
VERTEX
8
PATTERN
10
103.5312
20
186.9446
30
0.0
0
VERTEX
8
PATTERN
10
102.6437
20
186.1703
30
0.0
0
VERTEX
8
PATTERN
10
102.2022
20
185.0599
30
0.0
0
VERTEX
8
PATTERN
10
102.0139
20
183.8761
30
0.0
0
VERTEX
8
PATTERN
10
101.9520
20
182.6781
30
0.0
0
VERTEX
8
PATTERN
10
101.9572
20
181.4783
30
0.0
0
VERTEX
8
PATTERN
10
102.0008
20
180.2793
30
0.0
0
VERTEX
8
PATTERN
10
102.0632
20
179.0810
30
0.0
0
VERTEX
8
PATTERN
10
102.1218
20
177.8826
30
0.0
0
VERTEX
8
PATTERN
10
102.1520
20
176.6831
30
0.0
0
VERTEX
8
PATTERN
10
102.1397
20
175.4834
30
0.0
0
VERTEX
8
PATTERN
10
102.0915
20
174.2845
30
0.0
0
VERTEX
8
PATTERN
10
102.0315
20
173.0861
30
0.0
0
VERTEX
8
PATTERN
10
101.9864
20
171.8871
30
0.0
0
VERTEX
8
PATTERN
10
101.9746
20
170.6873
30
0.0
0
VERTEX
8
PATTERN
10
102.0088
20
169.4880
30
0.0
0
VERTEX
8
PATTERN
10
102.1139
20
168.2931
30
0.0
0
VERTEX
8
PATTERN
10
102.3476
20
167.1173
30
0.0
0
VERTEX
8
PATTERN
10
102.8086
20
166.0134
30
0.0
0
VERTEX
8
PATTERN
10
103.5732
20
165.0955
30
0.0
0
VERTEX
8
PATTERN
10
104.5694
20
164.4316
30
0.0
0
VERTEX
8
PATTERN
10
105.6555
20
163.9224
30
0.0
0
VERTEX
8
PATTERN
10
106.7370
20
163.4037
30
0.0
0
VERTEX
8
PATTERN
10
107.6807
20
162.6731
30
0.0
0
VERTEX
8
PATTERN
10
108.0601
20
161.5717
30
0.0
0
VERTEX
8
PATTERN
10
107.4477
20
160.5785
30
0.0
0
VERTEX
8
PATTERN
10
106.3719
20
160.0635
30
0.0
0
VERTEX
8
PATTERN
10
105.2035
20
159.7932
30
0.0
0
VERTEX
8
PATTERN
10
104.0414
20
159.4996
30
0.0
0
VERTEX
8
PATTERN
10
103.0113
20
158.9031
30
0.0
0
VERTEX
8
PATTERN
10
102.3614
20
157.9070
30
0.0
0
VERTEX
8
PATTERN
10
102.0757
20
156.7443
30
0.0
0
VERTEX
8
PATTERN
10
101.9657
20
155.5499
30
0.0
0
VERTEX
8
PATTERN
10
101.9294
20
154.3506
30
0.0
0
VERTEX
8
PATTERN
10
101.9384
20
153.1509
30
0.0
0
VERTEX
8
PATTERN
10
102.0237
20
151.9545
30
0.0
0
VERTEX
8
PATTERN
10
102.2698
20
150.7822
30
0.0
0
VERTEX
8
PATTERN
10
102.8052
20
149.7142
30
0.0
0
VERTEX
8
PATTERN
10
103.6559
20
148.8750
30
0.0
0
VERTEX
8
PATTERN
10
104.6666
20
148.2299
30
0.0
0
VERTEX
8
PATTERN
10
105.6715
20
147.5763
30
0.0
0
VERTEX
8
PATTERN
10
106.4286
20
146.6632
30
0.0
0
VERTEX
8
PATTERN
10
106.4050
20
145.5012
30
0.0
0
VERTEX
8
PATTERN
10
105.5797
20
144.6539
30
0.0
0
VERTEX
8
PATTERN
10
104.4854
20
144.1668
30
0.0
0
VERTEX
8
PATTERN
10
103.3726
20
143.7207
30
0.0
0
VERTEX
8
PATTERN
10
102.4771
20
142.9420
30
0.0
0
VERTEX
8
PATTERN
10
102.0696
20
141.8230
30
0.0
0
VERTEX
8
PATTERN
10
101.9799
20
140.6277
30
0.0
0
VERTEX
8
PATTERN
10
101.9935
20
139.4280
30
0.0
0
VERTEX
8
PATTERN
10
102.0147
20
138.2283
30
0.0
0
VERTEX
8
PATTERN
10
102.0106
20
137.0285
30
0.0
0
VERTEX
8
PATTERN
10
101.9800
20
135.8290
30
0.0
0
VERTEX
8
PATTERN
10
101.9353
20
134.6300
30
0.0
0
VERTEX
8
PATTERN
10
101.8953
20
133.4307
30
0.0
0
VERTEX
8
PATTERN
10
101.8836
20
132.2310
30
0.0
0
VERTEX
8
PATTERN
10
101.9230
20
131.0319
30
0.0
0
VERTEX
8
PATTERN
10
102.0207
20
129.8361
30
0.0
0
VERTEX
8
PATTERN
10
102.1520
20
128.6434
30
0.0
0
VERTEX
8
PATTERN
10
102.2566
20
127.4483
30
0.0
0
VERTEX
8
PATTERN
10
102.2603
20
126.2490
30
0.0
0
VERTEX
8
PATTERN
10
102.1222
20
125.0579
30
0.0
0
VERTEX
8
PATTERN
10
101.8502
20
123.8898
30
0.0
0
VERTEX
8
PATTERN
10
101.4693
20
122.7524
30
0.0
0
VERTEX
8
PATTERN
10
100.9866
20
121.6544
30
0.0
0
VERTEX
8
PATTERN
10
100.3902
20
120.6141
30
0.0
0
VERTEX
8
PATTERN
10
99.6690
20
119.6563
30
0.0
0
VERTEX
8
PATTERN
10
98.8315
20
118.7982
30
0.0
0
VERTEX
8
PATTERN
10
97.9019
20
118.0404
30
0.0
0
VERTEX
8
PATTERN
10
96.9094
20
117.3666
30
0.0
0
VERTEX
8
PATTERN
10
95.8847
20
116.7424
30
0.0
0
VERTEX
8
PATTERN
10
94.8688
20
116.1042
30
0.0
0
VERTEX
8
PATTERN
10
93.9321
20
115.3570
30
0.0
0
VERTEX
8
PATTERN
10
93.1874
20
114.4209
30
0.0
0
VERTEX
8
PATTERN
10
92.6925
20
113.3306
30
0.0
0
VERTEX
8
PATTERN
10
92.3639
20
112.1769
30
0.0
0
VERTEX
8
PATTERN
10
92.0454
20
111.0204
30
0.0
0
VERTEX
8
PATTERN
10
91.5585
20
109.9273
30
0.0
0
VERTEX
8
PATTERN
10
90.7098
20
109.1001
30
0.0
0
VERTEX
8
PATTERN
10
89.5506
20
109.0134
30
0.0
0
VERTEX
8
PATTERN
10
88.6971
20
109.8191
30
0.0
0
VERTEX
8
PATTERN
10
88.3279
20
110.9552
30
0.0
0
VERTEX
8
PATTERN
10
88.1966
20
112.1473
30
0.0
0
VERTEX
8
PATTERN
10
88.1293
20
113.3453
30
0.0
0
VERTEX
8
PATTERN
10
87.9948
20
114.5369
30
0.0
0
VERTEX
8
PATTERN
10
87.6756
20
115.6914
30
0.0
0
VERTEX
8
PATTERN
10
87.1251
20
116.7551
30
0.0
0
VERTEX
8
PATTERN
10
86.4084
20
117.7165
30
0.0
0
VERTEX
8
PATTERN
10
85.6267
20
118.6267
30
0.0
0
VERTEX
8
PATTERN
10
84.8520
20
119.5428
30
0.0
0
VERTEX
8
PATTERN
10
84.1298
20
120.5007
30
0.0
0
VERTEX
8
PATTERN
10
83.4925
20
121.5167
30
0.0
0
VERTEX
8
PATTERN
10
82.9726
20
122.5972
30
0.0
0
VERTEX
8
PATTERN
10
82.6129
20
123.7406
30
0.0
0
VERTEX
8
PATTERN
10
82.4412
20
124.9268
30
0.0
0
VERTEX
8
PATTERN
10
82.4325
20
126.1260
30
0.0
0
VERTEX
8
PATTERN
10
82.5100
20
127.3234
30
0.0
0
VERTEX
8
PATTERN
10
82.5880
20
128.5207
30
0.0
0
VERTEX
8
PATTERN
10
82.6106
20
129.7201
30
0.0
0
VERTEX
8
PATTERN
10
82.5619
20
130.9188
30
0.0
0
VERTEX
8
PATTERN
10
82.4613
20
132.1145
30
0.0
0
VERTEX
8
PATTERN
10
82.3502
20
133.3092
30
0.0
0
VERTEX
8
PATTERN
10
82.2723
20
134.5064
30
0.0
0
VERTEX
8
PATTERN
10
82.2528
20
135.7060
30
0.0
0
VERTEX
8
PATTERN
10
82.2853
20
136.9054
30
0.0
0
VERTEX
8
PATTERN
10
82.3410
20
138.1040
30
0.0
0
VERTEX
8
PATTERN
10
82.3908
20
139.3028
30
0.0
0
VERTEX
8
PATTERN
10
82.4203
20
140.5023
30
0.0
0
VERTEX
8
PATTERN
10
82.4305
20
141.7021
30
0.0
0
VERTEX
8
PATTERN
10
82.4301
20
142.9020
30
0.0
0
VERTEX
8
PATTERN
10
82.4262
20
144.1019
30
0.0
0
VERTEX
8
PATTERN
10
82.4219
20
145.3018
30
0.0
0
VERTEX
8
PATTERN
10
82.4172
20
146.5016
30
0.0
0
VERTEX
8
PATTERN
10
82.4089
20
147.7015
30
0.0
0
VERTEX
8
PATTERN
10
82.3885
20
148.9012
30
0.0
0
VERTEX
8
PATTERN
10
82.3419
20
150.1001
30
0.0
0
VERTEX
8
PATTERN
10
82.2537
20
151.2967
30
0.0
0
VERTEX
8
PATTERN
10
82.1199
20
152.4890
30
0.0
0
VERTEX
8
PATTERN
10
81.9608
20
153.6783
30
0.0
0
VERTEX
8
PATTERN
10
81.8244
20
154.8703
30
0.0
0
VERTEX
8
PATTERN
10
81.7678
20
156.0685
30
0.0
0
VERTEX
8
PATTERN
10
81.8168
20
157.2670
30
0.0
0
VERTEX
8
PATTERN
10
81.9426
20
158.4602
30
0.0
0
VERTEX
8
PATTERN
10
82.0873
20
159.6513
30
0.0
0
VERTEX
8
PATTERN
10
82.2059
20
160.8452
30
0.0
0
VERTEX
8
PATTERN
10
82.2808
20
162.0427
30
0.0
0
VERTEX
8
PATTERN
10
82.3148
20
163.2420
30
0.0
0
VERTEX
8
PATTERN
10
82.3192
20
164.4419
30
0.0
0
VERTEX
8
PATTERN
10
82.3060
20
165.6417
30
0.0
0
VERTEX
8
PATTERN
10
82.2832
20
166.8414
30
0.0
0
VERTEX
8
PATTERN
10
82.2521
20
168.0408
30
0.0
0
VERTEX
8
PATTERN
10
82.2081
20
169.2399
30
0.0
0
VERTEX
8
PATTERN
10
82.1476
20
170.4383
30
0.0
0
VERTEX
8
PATTERN
10
82.0758
20
171.6360
30
0.0
0
VERTEX
8
PATTERN
10
82.0089
20
172.8340
30
0.0
0
VERTEX
8
PATTERN
10
81.9672
20
174.0331
30
0.0
0
VERTEX
8
PATTERN
10
81.9605
20
175.2329
30
0.0
0
VERTEX
8
PATTERN
10
81.9746
20
176.4327
30
0.0
0
VERTEX
8
PATTERN
10
81.9633
20
177.6324
30
0.0
0
VERTEX
8
PATTERN
10
81.8448
20
178.8254
30
0.0
0
VERTEX
8
PATTERN
10
81.4879
20
179.9667
30
0.0
0
VERTEX
8
PATTERN
10
80.7089
20
180.8577
30
0.0
0
VERTEX
8
PATTERN
10
79.5547
20
181.0101
30
0.0
0
VERTEX
8
PATTERN
10
78.5736
20
180.3474
30
0.0
0
VERTEX
8
PATTERN
10
77.8758
20
179.3734
30
0.0
0
VERTEX
8
PATTERN
10
77.2234
20
178.3670
30
0.0
0
VERTEX
8
PATTERN
10
76.3778
20
177.5250
30
0.0
0
VERTEX
8
PATTERN
10
75.2563
20
177.1394
30
0.0
0
VERTEX
8
PATTERN
10
74.0810
20
177.3305
30
0.0
0
VERTEX
8
PATTERN
10
73.0321
20
177.9062
30
0.0
0
VERTEX
8
PATTERN
10
72.0967
20
178.6567
30
0.0
0
VERTEX
8
PATTERN
10
71.1800
20
179.4308
30
0.0
0
VERTEX
8
PATTERN
10
70.1807
20
180.0917
30
0.0
0
VERTEX
8
PATTERN
10
69.0541
20
180.4916
30
0.0
0
VERTEX
8
PATTERN
10
67.8608
20
180.4991
30
0.0
0
VERTEX
8
PATTERN
10
66.7631
20
180.0394
30
0.0
0
VERTEX
8
PATTERN
10
66.0201
20
179.1172
30
0.0
0
VERTEX
8
PATTERN
10
65.8966
20
177.9407
30
0.0
0
VERTEX
8
PATTERN
10
66.3518
20
176.8404
30
0.0
0
VERTEX
8
PATTERN
10
67.1334
20
175.9341
30
0.0
0
VERTEX
8
PATTERN
10
68.0635
20
175.1774
30
0.0
0
VERTEX
8
PATTERN
10
69.0600
20
174.5096
30
0.0
0
VERTEX
8
PATTERN
10
70.0952
20
173.9032
30
0.0
0
VERTEX
8
PATTERN
10
71.1653
20
173.3608
30
0.0
0
VERTEX
8
PATTERN
10
72.2709
20
172.8953
30
0.0
0
VERTEX
8
PATTERN
10
73.4045
20
172.5024
30
0.0
0
VERTEX
8
PATTERN
10
74.5472
20
172.1366
30
0.0
0
VERTEX
8
PATTERN
10
75.6629
20
171.6979
30
0.0
0
VERTEX
8
PATTERN
10
76.6598
20
171.0390
30
0.0
0
VERTEX
8
PATTERN
10
77.3673
20
170.0794
30
0.0
0
VERTEX
8
PATTERN
10
77.7422
20
168.9431
30
0.0
0
VERTEX
8
PATTERN
10
77.9147
20
167.7564
30
0.0
0
VERTEX
8
PATTERN
10
77.9998
20
166.5596
30
0.0
0
VERTEX
8
PATTERN
10
78.0506
20
165.3609
30
0.0
0
VERTEX
8
PATTERN
10
78.0760
20
164.1613
30
0.0
0
VERTEX
8
PATTERN
10
78.0576
20
162.9617
30
0.0
0
VERTEX
8
PATTERN
10
77.9676
20
161.7654
30
0.0
0
VERTEX
8
PATTERN
10
77.7875
20
160.5794
30
0.0
0
VERTEX
8
PATTERN
10
77.5285
20
159.4079
30
0.0
0
VERTEX
8
PATTERN
10
77.2439
20
158.2423
30
0.0
0
VERTEX
8
PATTERN
10
77.0224
20
157.0637
30
0.0
0
VERTEX
8
PATTERN
10
76.9579
20
155.8669
30
0.0
0
VERTEX
8
PATTERN
10
77.0849
20
154.6749
30
0.0
0
VERTEX
8
PATTERN
10
77.3374
20
153.5021
30
0.0
0
VERTEX
8
PATTERN
10
77.6225
20
152.3366
30
0.0
0
VERTEX
8
PATTERN
10
77.8704
20
151.1627
30
0.0
0
VERTEX
8
PATTERN
10
78.0489
20
149.9764
30
0.0
0
VERTEX
8
PATTERN
10
78.1577
20
148.7816
30
0.0
0
VERTEX
8
PATTERN
10
78.2137
20
147.5831
30
0.0
0
VERTEX
8
PATTERN
10
78.2365
20
146.3834
30
0.0
0
VERTEX
8
PATTERN
10
78.2414
20
145.1836
30
0.0
0
VERTEX
8
PATTERN
10
78.2369
20
143.9837
30
0.0
0
VERTEX
8
PATTERN
10
78.2250
20
142.7839
30
0.0
0
VERTEX
8
PATTERN
10
78.1998
20
141.5843
30
0.0
0
VERTEX
8
PATTERN
10
78.1416
20
140.3859
30
0.0
0
VERTEX
8
PATTERN
10
78.0061
20
139.1941
30
0.0
0
VERTEX
8
PATTERN
10
77.7147
20
138.0318
30
0.0
0
VERTEX
8
PATTERN
10
77.1723
20
136.9655
30
0.0
0
VERTEX
8
PATTERN
10
76.3759
20
136.0719
30
0.0
0
VERTEX
8
PATTERN
10
75.4317
20
135.3324
30
0.0
0
VERTEX
8
PATTERN
10
74.4421
20
134.6539
30
0.0
0
VERTEX
8
PATTERN
10
73.4574
20
133.9685
30
0.0
0
VERTEX
8
PATTERN
10
72.4887
20
133.2603
30
0.0
0
VERTEX
8
PATTERN
10
71.5138
20
132.5610
30
0.0
0
VERTEX
8
PATTERN
10
70.4914
20
131.9343
30
0.0
0
VERTEX
8
PATTERN
10
69.3904
20
131.4617
30
0.0
0
VERTEX
8
PATTERN
10
68.2157
20
131.2334
30
0.0
0
VERTEX
8
PATTERN
10
67.0266
20
131.3420
30
0.0
0
VERTEX
8
PATTERN
10
65.9895
20
131.9171
30
0.0
0
VERTEX
8
PATTERN
10
65.5992
20
133.0083
30
0.0
0
VERTEX
8
PATTERN
10
66.1448
20
134.0538
30
0.0
0
VERTEX
8
PATTERN
10
67.0689
20
134.8148
30
0.0
0
VERTEX
8
PATTERN
10
68.0849
20
135.4526
30
0.0
0
VERTEX
8
PATTERN
10
69.1086
20
136.0785
30
0.0
0
VERTEX
8
PATTERN
10
70.1048
20
136.7471
30
0.0
0
VERTEX
8
PATTERN
10
71.0536
20
137.4810
30
0.0
0
VERTEX
8
PATTERN
10
71.9325
20
138.2969
30
0.0
0
VERTEX
8
PATTERN
10
72.7003
20
139.2174
30
0.0
0
VERTEX
8
PATTERN
10
73.2963
20
140.2566
30
0.0
0
VERTEX
8
PATTERN
10
73.6862
20
141.3896
30
0.0
0
VERTEX
8
PATTERN
10
73.8947
20
142.5703
30
0.0
0
VERTEX
8
PATTERN
10
73.9826
20
143.7668
30
0.0
0
VERTEX
8
PATTERN
10
74.0050
20
144.9664
30
0.0
0
VERTEX
8
PATTERN
10
73.9935
20
146.1662
30
0.0
0
VERTEX
8
PATTERN
10
73.9543
20
147.3654
30
0.0
0
VERTEX
8
PATTERN
10
73.8734
20
148.5624
30
0.0
0
VERTEX
8
PATTERN
10
73.7255
20
149.7529
30
0.0
0
VERTEX
8
PATTERN
10
73.4892
20
150.9289
30
0.0
0
VERTEX
8
PATTERN
10
73.1662
20
152.0843
30
0.0
0
VERTEX
8
PATTERN
10
72.7920
20
153.2243
30
0.0
0
VERTEX
8
PATTERN
10
72.4361
20
154.3700
30
0.0
0
VERTEX
8
PATTERN
10
72.1967
20
155.5447
30
0.0
0
VERTEX
8
PATTERN
10
72.1784
20
156.7422
30
0.0
0
VERTEX
8
PATTERN
10
72.3948
20
157.9207
30
0.0
0
VERTEX
8
PATTERN
10
72.7576
20
159.0641
30
0.0
0
VERTEX
8
PATTERN
10
73.1452
20
160.1996
30
0.0
0
VERTEX
8
PATTERN
10
73.4646
20
161.3557
30
0.0
0
VERTEX
8
PATTERN
10
73.6568
20
162.5393
30
0.0
0
VERTEX
8
PATTERN
10
73.6912
20
163.7377
30
0.0
0
VERTEX
8
PATTERN
10
73.5380
20
164.9261
30
0.0
0
VERTEX
8
PATTERN
10
73.1554
20
166.0605
30
0.0
0
VERTEX
8
PATTERN
10
72.5026
20
167.0626
30
0.0
0
VERTEX
8
PATTERN
10
71.6182
20
167.8692
30
0.0
0
VERTEX
8
PATTERN
10
70.6030
20
168.5071
30
0.0
0
VERTEX
8
PATTERN
10
69.5391
20
169.0617
30
0.0
0
VERTEX
8
PATTERN
10
68.4689
20
169.6044
30
0.0
0
VERTEX
8
PATTERN
10
67.4048
20
170.1587
30
0.0
0
VERTEX
8
PATTERN
10
66.3269
20
170.6854
30
0.0
0
VERTEX
8
PATTERN
10
65.1882
20
171.0552
30
0.0
0
VERTEX
8
PATTERN
10
64.0070
20
170.9758
30
0.0
0
VERTEX
8
PATTERN
10
63.1356
20
170.1886
30
0.0
0
VERTEX
8
PATTERN
10
62.8093
20
169.0431
30
0.0
0
VERTEX
8
PATTERN
10
62.8699
20
167.8482
30
0.0
0
VERTEX
8
PATTERN
10
63.2174
20
166.7031
30
0.0
0
VERTEX
8
PATTERN
10
63.8693
20
165.7027
30
0.0
0
VERTEX
8
PATTERN
10
64.8420
20
165.0142
30
0.0
0
VERTEX
8
PATTERN
10
65.9888
20
164.6703
30
0.0
0
VERTEX
8
PATTERN
10
67.1603
20
164.4123
30
0.0
0
VERTEX
8
PATTERN
10
68.2281
20
163.8859
30
0.0
0
VERTEX
8
PATTERN
10
68.8273
20
162.8748
30
0.0
0
VERTEX
8
PATTERN
10
68.7251
20
161.6941
30
0.0
0
VERTEX
8
PATTERN
10
68.1024
20
160.6782
30
0.0
0
VERTEX
8
PATTERN
10
67.1558
20
159.9502
30
0.0
0
VERTEX
8
PATTERN
10
66.0382
20
159.5219
30
0.0
0
VERTEX
8
PATTERN
10
64.8569
20
159.3201
30
0.0
0
VERTEX
8
PATTERN
10
63.6584
20
159.2802
30
0.0
0
VERTEX
8
PATTERN
10
62.4647
20
159.3903
30
0.0
0
VERTEX
8
PATTERN
10
61.3138
20
159.7181
30
0.0
0
VERTEX
8
PATTERN
10
60.3286
20
160.3889
30
0.0
0
VERTEX
8
PATTERN
10
59.6732
20
161.3860
30
0.0
0
VERTEX
8
PATTERN
10
59.2972
20
162.5236
30
0.0
0
VERTEX
8
PATTERN
10
59.0443
20
163.6963
30
0.0
0
VERTEX
8
PATTERN
10
58.8167
20
164.8744
30
0.0
0
VERTEX
8
PATTERN
10
58.5824
20
166.0512
30
0.0
0
VERTEX
8
PATTERN
10
58.3574
20
167.2298
30
0.0
0
VERTEX
8
PATTERN
10
58.1781
20
168.4161
30
0.0
0
VERTEX
8
PATTERN
10
58.0694
20
169.6108
30
0.0
0
VERTEX
8
PATTERN
10
58.0143
20
170.8094
30
0.0
0
VERTEX
8
PATTERN
10
57.9422
20
172.0069
30
0.0
0
VERTEX
8
PATTERN
10
57.7320
20
173.1864
30
0.0
0
VERTEX
8
PATTERN
10
57.2381
20
174.2737
30
0.0
0
VERTEX
8
PATTERN
10
56.3811
20
175.1009
30
0.0
0
VERTEX
8
PATTERN
10
55.2653
20
175.5202
30
0.0
0
VERTEX
8
PATTERN
10
54.0712
20
175.5143
30
0.0
0
VERTEX
8
PATTERN
10
52.9463
20
175.1134
30
0.0
0
VERTEX
8
PATTERN
10
52.0341
20
174.3457
30
0.0
0
VERTEX
8
PATTERN
10
51.5060
20
173.2788
30
0.0
0
VERTEX
8
PATTERN
10
51.4467
20
172.0873
30
0.0
0
VERTEX
8
PATTERN
10
51.7443
20
170.9277
30
0.0
0
VERTEX
8
PATTERN
10
52.2280
20
169.8302
30
0.0
0
VERTEX
8
PATTERN
10
52.7751
20
168.7623
30
0.0
0
VERTEX
8
PATTERN
10
53.3069
20
167.6868
30
0.0
0
VERTEX
8
PATTERN
10
53.7758
20
166.5827
30
0.0
0
VERTEX
8
PATTERN
10
54.1580
20
165.4456
30
0.0
0
VERTEX
8
PATTERN
10
54.4488
20
164.2818
30
0.0
0
VERTEX
8
PATTERN
10
54.6583
20
163.1005
30
0.0
0
VERTEX
8
PATTERN
10
54.8127
20
161.9107
30
0.0
0
VERTEX
8
PATTERN
10
54.9583
20
160.7197
30
0.0
0
VERTEX
8
PATTERN
10
55.1609
20
159.5374
30
0.0
0
VERTEX
8
PATTERN
10
55.4977
20
158.3870
30
0.0
0
VERTEX
8
PATTERN
10
56.0394
20
157.3191
30
0.0
0
VERTEX
8
PATTERN
10
56.8221
20
156.4144
30
0.0
0
VERTEX
8
PATTERN
10
57.8123
20
155.7430
30
0.0
0
VERTEX
8
PATTERN
10
58.9318
20
155.3169
30
0.0
0
VERTEX
8
PATTERN
10
60.1068
20
155.0785
30
0.0
0
VERTEX
8
PATTERN
10
61.3003
20
154.9575
30
0.0
0
VERTEX
8
PATTERN
10
62.4983
20
154.8917
30
0.0
0
VERTEX
8
PATTERN
10
63.6961
20
154.8213
30
0.0
0
VERTEX
8
PATTERN
10
64.8855
20
154.6683
30
0.0
0
VERTEX
8
PATTERN
10
66.0341
20
154.3299
30
0.0
0
VERTEX
8
PATTERN
10
67.0605
20
153.7168
30
0.0
0
VERTEX
8
PATTERN
10
67.8886
20
152.8529
30
0.0
0
VERTEX
8
PATTERN
10
68.5174
20
151.8329
30
0.0
0
VERTEX
8
PATTERN
10
68.9886
20
150.7304
30
0.0
0
VERTEX
8
PATTERN
10
69.3293
20
149.5806
30
0.0
0
VERTEX
8
PATTERN
10
69.5559
20
148.4028
30
0.0
0
VERTEX
8
PATTERN
10
69.6847
20
147.2101
30
0.0
0
VERTEX
8
PATTERN
10
69.7299
20
146.0113
30
0.0
0
VERTEX
8
PATTERN
10
69.6888
20
144.8125
30
0.0
0
VERTEX
8
PATTERN
10
69.5265
20
143.6244
30
0.0
0
VERTEX
8
PATTERN
10
69.1827
20
142.4767
30
0.0
0
VERTEX
8
PATTERN
10
68.6121
20
141.4241
30
0.0
0
VERTEX
8
PATTERN
10
67.8278
20
140.5187
30
0.0
0
VERTEX
8
PATTERN
10
66.8989
20
139.7609
30
0.0
0
VERTEX
8
PATTERN
10
65.8889
20
139.1138
30
0.0
0
VERTEX
8
PATTERN
10
64.8371
20
138.5368
30
0.0
0
VERTEX
8
PATTERN
10
63.7578
20
138.0128
30
0.0
0
VERTEX
8
PATTERN
10
62.6403
20
137.5778
30
0.0
0
VERTEX
8
PATTERN
10
61.4653
20
137.3534
30
0.0
0
VERTEX
8
PATTERN
10
60.2903
20
137.5450
30
0.0
0
VERTEX
8
PATTERN
10
59.2929
20
138.1977
30
0.0
0
VERTEX
8
PATTERN
10
58.5403
20
139.1284
30
0.0
0
VERTEX
8
PATTERN
10
57.9807
20
140.1885
30
0.0
0
VERTEX
8
PATTERN
10
57.5597
20
141.3113
30
0.0
0
VERTEX
8
PATTERN
10
57.2693
20
142.4748
30
0.0
0
VERTEX
8
PATTERN
10
57.1633
20
143.6679
30
0.0
0
VERTEX
8
PATTERN
10
57.3820
20
144.8404
30
0.0
0
VERTEX
8
PATTERN
10
58.1347
20
145.7455
30
0.0
0
VERTEX
8
PATTERN
10
59.2933
20
145.9096
30
0.0
0
VERTEX
8
PATTERN
10
60.3212
20
145.3165
30
0.0
0
VERTEX
8
PATTERN
10
61.1127
20
144.4166
30
0.0
0
VERTEX
8
PATTERN
10
61.9217
20
143.5337
30
0.0
0
VERTEX
8
PATTERN
10
63.0044
20
143.0708
30
0.0
0
VERTEX
8
PATTERN
10
64.1171
20
143.4504
30
0.0
0
VERTEX
8
PATTERN
10
64.8574
20
144.3809
30
0.0
0
VERTEX
8
PATTERN
10
65.2131
20
145.5217
30
0.0
0
VERTEX
8
PATTERN
10
65.2667
20
146.7177
30
0.0
0
VERTEX
8
PATTERN
10
65.0433
20
147.8935
30
0.0
0
VERTEX
8
PATTERN
10
64.5075
20
148.9607
30
0.0
0
VERTEX
8
PATTERN
10
63.6378
20
149.7769
30
0.0
0
VERTEX
8
PATTERN
10
62.5504
20
150.2748
30
0.0
0
VERTEX
8
PATTERN
10
61.3805
20
150.5358
30
0.0
0
VERTEX
8
PATTERN
10
60.1885
20
150.6708
30
0.0
0
VERTEX
8
PATTERN
10
58.9921
20
150.7620
30
0.0
0
VERTEX
8
PATTERN
10
57.7985
20
150.8826
30
0.0
0
VERTEX
8
PATTERN
10
56.6219
20
151.1133
30
0.0
0
VERTEX
8
PATTERN
10
55.5006
20
151.5349
30
0.0
0
VERTEX
8
PATTERN
10
54.4844
20
152.1691
30
0.0
0
VERTEX
8
PATTERN
10
53.5916
20
152.9691
30
0.0
0
VERTEX
8
PATTERN
10
52.8044
20
153.8740
30
0.0
0
VERTEX
8
PATTERN
10
52.1043
20
154.8480
30
0.0
0
VERTEX
8
PATTERN
10
51.5029
20
155.8855
30
0.0
0
VERTEX
8
PATTERN
10
51.0376
20
156.9903
30
0.0
0
VERTEX
8
PATTERN
10
50.7377
20
158.1510
30
0.0
0
VERTEX
8
PATTERN
10
50.5803
20
159.3400
30
0.0
0
VERTEX
8
PATTERN
10
50.4894
20
160.5364
30
0.0
0
VERTEX
8
PATTERN
10
50.3843
20
161.7316
30
0.0
0
VERTEX
8
PATTERN
10
50.2032
20
162.9173
30
0.0
0
VERTEX
8
PATTERN
10
49.9106
20
164.0804
30
0.0
0
VERTEX
8
PATTERN
10
49.4929
20
165.2045
30
0.0
0
VERTEX
8
PATTERN
10
48.9485
20
166.2730
30
0.0
0
VERTEX
8
PATTERN
10
48.2730
20
167.2635
30
0.0
0
VERTEX
8
PATTERN
10
47.4494
20
168.1335
30
0.0
0
VERTEX
8
PATTERN
10
46.4446
20
168.7798
30
0.0
0
VERTEX
8
PATTERN
10
45.2747
20
168.9709
30
0.0
0
VERTEX
8
PATTERN
10
44.2417
20
168.4172
30
0.0
0
VERTEX
8
PATTERN
10
43.8126
20
167.3185
30
0.0
0
VERTEX
8
PATTERN
10
43.9654
20
166.1356
30
0.0
0
VERTEX
8
PATTERN
10
44.4246
20
165.0287
30
0.0
0
VERTEX
8
PATTERN
10
44.9815
20
163.9660
30
0.0
0
VERTEX
8
PATTERN
10
45.4761
20
162.8739
30
0.0
0
VERTEX
8
PATTERN
10
45.7366
20
161.7072
30
0.0
0
VERTEX
8
PATTERN
10
45.5630
20
160.5304
30
0.0
0
VERTEX
8
PATTERN
10
44.8628
20
159.5717
30
0.0
0
VERTEX
8
PATTERN
10
43.8072
20
159.0191
30
0.0
0
VERTEX
8
PATTERN
10
42.6214
20
158.8776
30
0.0
0
VERTEX
8
PATTERN
10
41.4551
20
159.1337
30
0.0
0
VERTEX
8
PATTERN
10
40.4556
20
159.7851
30
0.0
0
VERTEX
8
PATTERN
10
39.7434
20
160.7442
30
0.0
0
VERTEX
8
PATTERN
10
39.3044
20
161.8585
30
0.0
0
VERTEX
8
PATTERN
10
39.0311
20
163.0265
30
0.0
0
VERTEX
8
PATTERN
10
38.7945
20
164.2028
30
0.0
0
VERTEX
8
PATTERN
10
38.4729
20
165.3580
30
0.0
0
VERTEX
8
PATTERN
10
37.9408
20
166.4300
30
0.0
0
VERTEX
8
PATTERN
10
37.1047
20
167.2792
30
0.0
0
VERTEX
8
PATTERN
10
35.9820
20
167.6571
30
0.0
0
VERTEX
8
PATTERN
10
34.8395
20
167.3559
30
0.0
0
VERTEX
8
PATTERN
10
34.0443
20
166.4768
30
0.0
0
VERTEX
8
PATTERN
10
33.7182
20
165.3302
30
0.0
0
VERTEX
8
PATTERN
10
33.7476
20
164.1335
30
0.0
0
VERTEX
8
PATTERN
10
33.9785
20
162.9568
30
0.0
0
VERTEX
8
PATTERN
10
34.3036
20
161.8020
30
0.0
0
VERTEX
8
PATTERN
10
34.6732
20
160.6605
30
0.0
0
VERTEX
8
PATTERN
10
35.0793
20
159.5315
30
0.0
0
VERTEX
8
PATTERN
10
35.5396
20
158.4236
30
0.0
0
VERTEX
8
PATTERN
10
36.0834
20
157.3546
30
0.0
0
VERTEX
8
PATTERN
10
36.7444
20
156.3543
30
0.0
0
VERTEX
8
PATTERN
10
37.5595
20
155.4763
30
0.0
0
VERTEX
8
PATTERN
10
38.5445
20
154.7966
30
0.0
0
VERTEX
8
PATTERN
10
39.6646
20
154.3742
30
0.0
0
VERTEX
8
PATTERN
10
40.8480
20
154.1839
30
0.0
0
VERTEX
8
PATTERN
10
42.0464
20
154.1306
30
0.0
0
VERTEX
8
PATTERN
10
43.2461
20
154.1124
30
0.0
0
VERTEX
8
PATTERN
10
44.4430
20
154.0341
30
0.0
0
VERTEX
8
PATTERN
10
45.6192
20
153.8045
30
0.0
0
VERTEX
8
PATTERN
10
46.7316
20
153.3608
30
0.0
0
VERTEX
8
PATTERN
10
47.7350
20
152.7063
30
0.0
0
VERTEX
8
PATTERN
10
48.6267
20
151.9047
30
0.0
0
VERTEX
8
PATTERN
10
49.4353
20
151.0187
30
0.0
0
VERTEX
8
PATTERN
10
50.1827
20
150.0803
30
0.0
0
VERTEX
8
PATTERN
10
50.8663
20
149.0945
30
0.0
0
VERTEX
8
PATTERN
10
51.4597
20
148.0523
30
0.0
0
VERTEX
8
PATTERN
10
51.9297
20
146.9491
30
0.0
0
VERTEX
8
PATTERN
10
52.2661
20
145.7979
30
0.0
0
VERTEX
8
PATTERN
10
52.5051
20
144.6223
30
0.0
0
VERTEX
8
PATTERN
10
52.7076
20
143.4396
30
0.0
0
VERTEX
8
PATTERN
10
52.9294
20
142.2605
30
0.0
0
VERTEX
8
PATTERN
10
53.2016
20
141.0920
30
0.0
0
VERTEX
8
PATTERN
10
53.5315
20
139.9385
30
0.0
0
VERTEX
8
PATTERN
10
53.9193
20
138.8032
30
0.0
0
VERTEX
8
PATTERN
10
54.3762
20
137.6940
30
0.0
0
VERTEX
8
PATTERN
10
54.9281
20
136.6293
30
0.0
0
VERTEX
8
PATTERN
10
55.6002
20
135.6362
30
0.0
0
VERTEX
8
PATTERN
10
56.3933
20
134.7368
30
0.0
0
VERTEX
8
PATTERN
10
57.2735
20
133.9217
30
0.0
0
VERTEX
8
PATTERN
10
58.1921
20
133.1498
30
0.0
0
VERTEX
8
PATTERN
10
59.1021
20
132.3679
30
0.0
0
VERTEX
8
PATTERN
10
59.9702
20
131.5399
30
0.0
0
VERTEX
8
PATTERN
10
60.7935
20
130.6671
30
0.0
0
VERTEX
8
PATTERN
10
61.6042
20
129.7826
30
0.0
0
VERTEX
8
PATTERN
10
62.4516
20
128.9335
30
0.0
0
VERTEX
8
PATTERN
10
63.3758
20
128.1695
30
0.0
0
VERTEX
8
PATTERN
10
64.3947
20
127.5383
30
0.0
0
VERTEX
8
PATTERN
10
65.5018
20
127.0797
30
0.0
0
VERTEX
8
PATTERN
10
66.6700
20
126.8117
30
0.0
0
VERTEX
8
PATTERN
10
67.8655
20
126.7211
30
0.0
0
VERTEX
8
PATTERN
10
69.0637
20
126.7722
30
0.0
0
VERTEX
8
PATTERN
10
70.2502
20
126.9463
30
0.0
0
VERTEX
8
PATTERN
10
71.4073
20
127.2603
30
0.0
0
VERTEX
8
PATTERN
10
72.4992
20
127.7541
30
0.0
0
VERTEX
8
PATTERN
10
73.4920
20
128.4257
30
0.0
0
VERTEX
8
PATTERN
10
74.4079
20
129.2006
30
0.0
0
VERTEX
8
PATTERN
10
75.3304
20
129.9671
30
0.0
0
VERTEX
8
PATTERN
10
76.3661
20
130.5643
30
0.0
0
VERTEX
8
PATTERN
10
77.5337
20
130.5903
30
0.0
0
VERTEX
8
PATTERN
10
78.2135
20
129.6549
30
0.0
0
VERTEX
8
PATTERN
10
78.2222
20
128.4618
30
0.0
0
VERTEX
8
PATTERN
10
77.9557
20
127.2927
30
0.0
0
VERTEX
8
PATTERN
10
77.6428
20
126.1344
30
0.0
0
VERTEX
8
PATTERN
10
77.4773
20
124.9482
30
0.0
0
VERTEX
8
PATTERN
10
77.6018
20
123.7584
30
0.0
0
VERTEX
8
PATTERN
10
77.9958
20
122.6269
30
0.0
0
VERTEX
8
PATTERN
10
78.5360
20
121.5559
30
0.0
0
VERTEX
8
PATTERN
10
79.1399
20
120.5192
30
0.0
0
VERTEX
8
PATTERN
10
79.7728
20
119.4999
30
0.0
0
VERTEX
8
PATTERN
10
80.4289
20
118.4953
30
0.0
0
VERTEX
8
PATTERN
10
81.1096
20
117.5072
30
0.0
0
VERTEX
8
PATTERN
10
81.8045
20
116.5290
30
0.0
0
VERTEX
8
PATTERN
10
82.4791
20
115.5369
30
0.0
0
VERTEX
8
PATTERN
10
83.0755
20
114.4965
30
0.0
0
VERTEX
8
PATTERN
10
83.5322
20
113.3882
30
0.0
0
VERTEX
8
PATTERN
10
83.8224
20
112.2250
30
0.0
0
VERTEX
8
PATTERN
10
83.9623
20
111.0339
30
0.0
0
VERTEX
8
PATTERN
10
83.9748
20
109.8346
30
0.0
0
VERTEX
8
PATTERN
10
83.8456
20
108.6427
30
0.0
0
VERTEX
8
PATTERN
10
83.5263
20
107.4880
30
0.0
0
VERTEX
8
PATTERN
10
82.9725
20
106.4264
30
0.0
0
VERTEX
8
PATTERN
10
82.2039
20
105.5081
30
0.0
0
VERTEX
8
PATTERN
10
81.2621
20
104.7684
30
0.0
0
VERTEX
8
PATTERN
10
80.1847
20
104.2463
30
0.0
0
VERTEX
8
PATTERN
10
79.0152
20
103.9929
30
0.0
0
VERTEX
8
PATTERN
10
77.8181
20
104.0199
30
0.0
0
VERTEX
8
PATTERN
10
76.6483
20
104.2797
30
0.0
0
VERTEX
8
PATTERN
10
75.5392
20
104.7339
30
0.0
0
VERTEX
8
PATTERN
10
74.5246
20
105.3711
30
0.0
0
VERTEX
8
PATTERN
10
73.6458
20
106.1853
30
0.0
0
VERTEX
8
PATTERN
10
72.9107
20
107.1324
30
0.0
0
VERTEX
8
PATTERN
10
72.2702
20
108.1467
30
0.0
0
VERTEX
8
PATTERN
10
71.6599
20
109.1798
30
0.0
0
VERTEX
8
PATTERN
10
71.0358
20
110.2046
30
0.0
0
VERTEX
8
PATTERN
10
70.3863
20
111.2135
30
0.0
0
VERTEX
8
PATTERN
10
69.7276
20
112.2163
30
0.0
0
VERTEX
8
PATTERN
10
69.0939
20
113.2351
30
0.0
0
VERTEX
8
PATTERN
10
68.5372
20
114.2974
30
0.0
0
VERTEX
8
PATTERN
10
68.1453
20
115.4293
30
0.0
0
VERTEX
8
PATTERN
10
68.1012
20
116.6192
30
0.0
0
VERTEX
8
PATTERN
10
68.7490
20
117.5859
30
0.0
0
VERTEX
8
PATTERN
10
69.9104
20
117.7057
30
0.0
0
VERTEX
8
PATTERN
10
70.9620
20
117.1461
30
0.0
0
VERTEX
8
PATTERN
10
71.8161
20
116.3062
30
0.0
0
VERTEX
8
PATTERN
10
72.5518
20
115.3587
30
0.0
0
VERTEX
8
PATTERN
10
73.2362
20
114.3732
30
0.0
0
VERTEX
8
PATTERN
10
73.9019
20
113.3749
30
0.0
0
VERTEX
8
PATTERN
10
74.5589
20
112.3709
30
0.0
0
VERTEX
8
PATTERN
10
75.2166
20
111.3673
30
0.0
0
VERTEX
8
PATTERN
10
75.9073
20
110.3865
30
0.0
0
VERTEX
8
PATTERN
10
76.7059
20
109.4934
30
0.0
0
VERTEX
8
PATTERN
10
77.7233
20
108.8770
30
0.0
0
VERTEX
8
PATTERN
10
78.8666
20
109.0499
30
0.0
0
VERTEX
8
PATTERN
10
79.4620
20
110.0614
30
0.0
0
VERTEX
8
PATTERN
10
79.4765
20
111.2545
30
0.0
0
VERTEX
8
PATTERN
10
79.1645
20
112.4107
30
0.0
0
VERTEX
8
PATTERN
10
78.6691
20
113.5026
30
0.0
0
VERTEX
8
PATTERN
10
78.0739
20
114.5442
30
0.0
0
VERTEX
8
PATTERN
10
77.4341
20
115.5592
30
0.0
0
VERTEX
8
PATTERN
10
76.7825
20
116.5668
30
0.0
0
VERTEX
8
PATTERN
10
76.1328
20
117.5755
30
0.0
0
VERTEX
8
PATTERN
10
75.4793
20
118.5818
30
0.0
0
VERTEX
8
PATTERN
10
74.7972
20
119.5689
30
0.0
0
VERTEX
8
PATTERN
10
74.0458
20
120.5037
30
0.0
0
VERTEX
8
PATTERN
10
73.1772
20
121.3293
30
0.0
0
VERTEX
8
PATTERN
10
72.1604
20
121.9611
30
0.0
0
VERTEX
8
PATTERN
10
71.0233
20
122.3352
30
0.0
0
VERTEX
8
PATTERN
10
69.8327
20
122.4720
30
0.0
0
VERTEX
8
PATTERN
10
68.6331
20
122.4622
30
0.0
0
VERTEX
8
PATTERN
10
67.4341
20
122.4159
30
0.0
0
VERTEX
8
PATTERN
10
66.2350
20
122.4365
30
0.0
0
VERTEX
8
PATTERN
10
65.0490
20
122.6098
30
0.0
0
VERTEX
8
PATTERN
10
63.9073
20
122.9745
30
0.0
0
VERTEX
8
PATTERN
10
62.8298
20
123.5004
30
0.0
0
VERTEX
8
PATTERN
10
61.8131
20
124.1370
30
0.0
0
VERTEX
8
PATTERN
10
60.8462
20
124.8471
30
0.0
0
VERTEX
8
PATTERN
10
59.9224
20
125.6125
30
0.0
0
VERTEX
8
PATTERN
10
59.0372
20
126.4224
30
0.0
0
VERTEX
8
PATTERN
10
58.1797
20
127.2617
30
0.0
0
VERTEX
8
PATTERN
10
57.3283
20
128.1071
30
0.0
0
VERTEX
8
PATTERN
10
56.4593
20
128.9344
30
0.0
0
VERTEX
8
PATTERN
10
55.5609
20
129.7297
30
0.0
0
VERTEX
8
PATTERN
10
54.6401
20
130.4989
30
0.0
0
VERTEX
8
PATTERN
10
53.7188
20
131.2676
30
0.0
0
VERTEX
8
PATTERN
10
52.8297
20
132.0731
30
0.0
0
VERTEX
8
PATTERN
10
52.0138
20
132.9521
30
0.0
0
VERTEX
8
PATTERN
10
51.3126
20
133.9246
30
0.0
0
VERTEX
8
PATTERN
10
50.7454
20
134.9809
30
0.0
0
VERTEX
8
PATTERN
10
50.2908
20
136.0909
30
0.0
0
VERTEX
8
PATTERN
10
49.9035
20
137.2265
30
0.0
0
VERTEX
8
PATTERN
10
49.5464
20
138.3720
30
0.0
0
VERTEX
8
PATTERN
10
49.2089
20
139.5234
30
0.0
0
VERTEX
8
PATTERN
10
48.9007
20
140.6830
30
0.0
0
VERTEX
8
PATTERN
10
48.6297
20
141.8518
30
0.0
0
VERTEX
8
PATTERN
10
48.3807
20
143.0256
30
0.0
0
VERTEX
8
PATTERN
10
48.1092
20
144.1942
30
0.0
0
VERTEX
8
PATTERN
10
47.7550
20
145.3401
30
0.0
0
VERTEX
8
PATTERN
10
47.2646
20
146.4340
30
0.0
0
VERTEX
8
PATTERN
10
46.6069
20
147.4357
30
0.0
0
VERTEX
8
PATTERN
10
45.7704
20
148.2927
30
0.0
0
VERTEX
8
PATTERN
10
44.7683
20
148.9474
30
0.0
0
VERTEX
8
PATTERN
10
43.6396
20
149.3457
30
0.0
0
VERTEX
8
PATTERN
10
42.4507
20
149.4916
30
0.0
0
VERTEX
8
PATTERN
10
41.2520
20
149.4556
30
0.0
0
VERTEX
8
PATTERN
10
40.0575
20
149.3431
30
0.0
0
VERTEX
8
PATTERN
10
38.8596
20
149.2829
30
0.0
0
VERTEX
8
PATTERN
10
37.6703
20
149.4208
30
0.0
0
VERTEX
8
PATTERN
10
36.5586
20
149.8619
30
0.0
0
VERTEX
8
PATTERN
10
35.5878
20
150.5631
30
0.0
0
VERTEX
8
PATTERN
10
34.7476
20
151.4186
30
0.0
0
VERTEX
8
PATTERN
10
33.9979
20
152.3550
30
0.0
0
VERTEX
8
PATTERN
10
33.3123
20
153.3395
30
0.0
0
VERTEX
8
PATTERN
10
32.6824
20
154.3605
30
0.0
0
VERTEX
8
PATTERN
10
32.1095
20
155.4146
30
0.0
0
VERTEX
8
PATTERN
10
31.5937
20
156.4978
30
0.0
0
VERTEX
8
PATTERN
10
31.1225
20
157.6013
30
0.0
0
VERTEX
8
PATTERN
10
30.6619
20
158.7092
30
0.0
0
VERTEX
8
PATTERN
10
30.1507
20
159.7943
30
0.0
0
VERTEX
8
PATTERN
10
29.4951
20
160.7967
30
0.0
0
VERTEX
8
PATTERN
10
28.5872
20
161.5691
30
0.0
0
VERTEX
8
PATTERN
10
27.4319
20
161.8158
30
0.0
0
VERTEX
8
PATTERN
10
26.3658
20
161.3190
30
0.0
0
VERTEX
8
PATTERN
10
25.8021
20
160.2797
30
0.0
0
VERTEX
8
PATTERN
10
25.7771
20
159.0870
30
0.0
0
VERTEX
8
PATTERN
10
26.0687
20
157.9249
30
0.0
0
VERTEX
8
PATTERN
10
26.5033
20
156.8068
30
0.0
0
VERTEX
8
PATTERN
10
26.9954
20
155.7126
30
0.0
0
VERTEX
8
PATTERN
10
27.5151
20
154.6311
30
0.0
0
VERTEX
8
PATTERN
10
28.0627
20
153.5635
30
0.0
0
VERTEX
8
PATTERN
10
28.6469
20
152.5155
30
0.0
0
VERTEX
8
PATTERN
10
29.2710
20
151.4908
30
0.0
0
VERTEX
8
PATTERN
10
29.9327
20
150.4900
30
0.0
0
VERTEX
8
PATTERN
10
30.6296
20
149.5133
30
0.0
0
VERTEX
8
PATTERN
10
31.3603
20
148.5617
30
0.0
0
VERTEX
8
PATTERN
10
32.1196
20
147.6327
30
0.0
0
VERTEX
8
PATTERN
10
32.8902
20
146.7129
30
0.0
0
VERTEX
8
PATTERN
10
33.6395
20
145.7759
30
0.0
0
VERTEX
8
PATTERN
10
34.3288
20
144.7941
30
0.0
0
VERTEX
8
PATTERN
10
34.9415
20
143.7628
30
0.0
0
VERTEX
8
PATTERN
10
35.5212
20
142.7122
30
0.0
0
VERTEX
8
PATTERN
10
36.1815
20
141.7121
30
0.0
0
VERTEX
8
PATTERN
10
37.0905
20
140.9444
30
0.0
0
VERTEX
8
PATTERN
10
38.2549
20
140.8576
30
0.0
0
VERTEX
8
PATTERN
10
39.1929
20
141.5798
30
0.0
0
VERTEX
8
PATTERN
10
39.8359
20
142.5911
30
0.0
0
VERTEX
8
PATTERN
10
40.4661
20
143.6108
30
0.0
0
VERTEX
8
PATTERN
10
41.3578
20
144.3945
30
0.0
0
VERTEX
8
PATTERN
10
42.5216
20
144.4382
30
0.0
0
VERTEX
8
PATTERN
10
43.4144
20
143.6644
30
0.0
0
VERTEX
8
PATTERN
10
43.9250
20
142.5827
30
0.0
0
VERTEX
8
PATTERN
10
44.2489
20
141.4278
30
0.0
0
VERTEX
8
PATTERN
10
44.5265
20
140.2605
30
0.0
0
VERTEX
8
PATTERN
10
44.8258
20
139.0986
30
0.0
0
VERTEX
8
PATTERN
10
45.1392
20
137.9404
30
0.0
0
VERTEX
8
PATTERN
10
45.3794
20
136.7658
30
0.0
0
VERTEX
8
PATTERN
10
45.3366
20
135.5744
30
0.0
0
VERTEX
8
PATTERN
10
44.6524
20
134.6284
30
0.0
0
VERTEX
8
PATTERN
10
43.4892
20
134.4339
30
0.0
0
VERTEX
8
PATTERN
10
42.3322
20
134.7408
30
0.0
0
VERTEX
8
PATTERN
10
41.2057
20
135.1534
30
0.0
0
VERTEX
8
PATTERN
10
40.0267
20
135.3424
30
0.0
0
VERTEX
8
PATTERN
10
38.8897
20
135.0010
30
0.0
0
VERTEX
8
PATTERN
10
37.9843
20
134.2216
30
0.0
0
VERTEX
8
PATTERN
10
37.2419
20
133.2796
30
0.0
0
VERTEX
8
PATTERN
10
36.5083
20
132.3303
30
0.0
0
VERTEX
8
PATTERN
10
35.6626
20
131.4817
30
0.0
0
VERTEX
8
PATTERN
10
34.6305
20
130.8823
30
0.0
0
VERTEX
8
PATTERN
10
33.4544
20
130.8324
30
0.0
0
VERTEX
8
PATTERN
10
32.6334
20
131.6493
30
0.0
0
VERTEX
8
PATTERN
10
32.5048
20
132.8322
30
0.0
0
VERTEX
8
PATTERN
10
32.6843
20
134.0178
30
0.0
0
VERTEX
8
PATTERN
10
32.8855
20
135.2004
30
0.0
0
VERTEX
8
PATTERN
10
32.9339
20
136.3975
30
0.0
0
VERTEX
8
PATTERN
10
32.7506
20
137.5813
30
0.0
0
VERTEX
8
PATTERN
10
32.3785
20
138.7211
30
0.0
0
VERTEX
8
PATTERN
10
31.8988
20
139.8206
30
0.0
0
VERTEX
8
PATTERN
10
31.3595
20
140.8924
30
0.0
0
VERTEX
8
PATTERN
10
30.7720
20
141.9385
30
0.0
0
VERTEX
8
PATTERN
10
30.1321
20
142.9533
30
0.0
0
VERTEX
8
PATTERN
10
29.4429
20
143.9354
30
0.0
0
VERTEX
8
PATTERN
10
28.7220
20
144.8946
30
0.0
0
VERTEX
8
PATTERN
10
27.9921
20
145.8469
30
0.0
0
VERTEX
8
PATTERN
10
27.2703
20
146.8054
30
0.0
0
VERTEX
8
PATTERN
10
26.5643
20
147.7756
30
0.0
0
VERTEX
8
PATTERN
10
25.8784
20
148.7600
30
0.0
0
VERTEX
8
PATTERN
10
25.2196
20
149.7628
30
0.0
0
VERTEX
8
PATTERN
10
24.5983
20
150.7892
30
0.0
0
VERTEX
8
PATTERN
10
24.0153
20
151.8379
30
0.0
0
VERTEX
8
PATTERN
10
23.4410
20
152.8914
30
0.0
0
VERTEX
8
PATTERN
10
22.7980
20
153.9036
30
0.0
0
VERTEX
8
PATTERN
10
21.9477
20
154.7412
30
0.0
0
VERTEX
8
PATTERN
10
20.8125
20
155.0579
30
0.0
0
VERTEX
8
PATTERN
10
19.6874
20
154.6762
30
0.0
0
VERTEX
8
PATTERN
10
18.7410
20
153.9426
30
0.0
0
VERTEX
8
PATTERN
10
17.9096
20
153.0780
30
0.0
0
VERTEX
8
PATTERN
10
17.1359
20
152.1610
30
0.0
0
VERTEX
8
PATTERN
10
16.4112
20
151.2051
30
0.0
0
VERTEX
8
PATTERN
10
15.7869
20
150.1818
30
0.0
0
VERTEX
8
PATTERN
10
15.4284
20
149.0443
30
0.0
0
VERTEX
8
PATTERN
10
15.7643
20
147.9305
30
0.0
0
VERTEX
8
PATTERN
10
16.8177
20
147.4009
30
0.0
0
VERTEX
8
PATTERN
10
18.0123
20
147.3123
30
0.0
0
VERTEX
8
PATTERN
10
19.2119
20
147.3073
30
0.0
0
VERTEX
8
PATTERN
10
20.3949
20
147.1263
30
0.0
0
VERTEX
8
PATTERN
10
21.4759
20
146.6164
30
0.0
0
VERTEX
8
PATTERN
10
22.3905
20
145.8430
30
0.0
0
VERTEX
8
PATTERN
10
23.1825
20
144.9424
30
0.0
0
VERTEX
8
PATTERN
10
23.9133
20
143.9908
30
0.0
0
VERTEX
8
PATTERN
10
24.6215
20
143.0223
30
0.0
0
VERTEX
8
PATTERN
10
25.3207
20
142.0472
30
0.0
0
VERTEX
8
PATTERN
10
26.0061
20
141.0623
30
0.0
0
VERTEX
8
PATTERN
10
26.6605
20
140.0567
30
0.0
0
VERTEX
8
PATTERN
10
27.2557
20
139.0152
30
0.0
0
VERTEX
8
PATTERN
10
27.7454
20
137.9208
30
0.0
0
VERTEX
8
PATTERN
10
28.0510
20
136.7629
30
0.0
0
VERTEX
8
PATTERN
10
28.0306
20
135.5694
30
0.0
0
VERTEX
8
PATTERN
10
27.4850
20
134.5200
30
0.0
0
VERTEX
8
PATTERN
10
26.4226
20
134.0138
30
0.0
0
VERTEX
8
PATTERN
10
25.2375
20
134.1307
30
0.0
0
VERTEX
8
PATTERN
10
24.1450
20
134.6187
30
0.0
0
VERTEX
8
PATTERN
10
23.1864
20
135.3366
30
0.0
0
VERTEX
8
PATTERN
10
22.4026
20
136.2418
30
0.0
0
VERTEX
8
PATTERN
10
21.8149
20
137.2860
30
0.0
0
VERTEX
8
PATTERN
10
21.3659
20
138.3985
30
0.0
0
VERTEX
8
PATTERN
10
20.9179
20
139.5113
30
0.0
0
VERTEX
8
PATTERN
10
20.3127
20
140.5447
30
0.0
0
VERTEX
8
PATTERN
10
19.4617
20
141.3840
30
0.0
0
VERTEX
8
PATTERN
10
18.4110
20
141.9567
30
0.0
0
VERTEX
8
PATTERN
10
17.2595
20
142.2881
30
0.0
0
VERTEX
8
PATTERN
10
16.0687
20
142.4234
30
0.0
0
VERTEX
8
PATTERN
10
14.8751
20
142.3324
30
0.0
0
VERTEX
8
PATTERN
10
13.7706
20
141.8869
30
0.0
0
VERTEX
8
PATTERN
10
13.1221
20
140.9158
30
0.0
0
VERTEX
8
PATTERN
10
13.3995
20
139.7777
30
0.0
0
VERTEX
8
PATTERN
10
14.2102
20
138.8989
30
0.0
0
VERTEX
8
PATTERN
10
15.1361
20
138.1357
30
0.0
0
VERTEX
8
PATTERN
10
15.9272
20
137.2405
30
0.0
0
VERTEX
8
PATTERN
10
16.1614
20
136.0916
30
0.0
0
VERTEX
8
PATTERN
10
15.5423
20
135.0915
30
0.0
0
VERTEX
8
PATTERN
10
14.4917
20
134.5256
30
0.0
0
VERTEX
8
PATTERN
10
13.3298
20
134.2302
30
0.0
0
VERTEX
8
PATTERN
10
12.1548
20
133.9879
30
0.0
0
VERTEX
8
PATTERN
10
11.0310
20
133.5776
30
0.0
0
VERTEX
8
PATTERN
10
10.1589
20
132.7755
30
0.0
0
VERTEX
8
PATTERN
10
9.9329
20
131.6218
30
0.0
0
VERTEX
8
PATTERN
10
10.4460
20
130.5552
30
0.0
0
VERTEX
8
PATTERN
10
11.3989
20
129.8389
30
0.0
0
VERTEX
8
PATTERN
10
12.5391
20
129.4792
30
0.0
0
VERTEX
8
PATTERN
10
13.7347
20
129.4175
30
0.0
0
VERTEX
8
PATTERN
10
14.9212
20
129.5871
30
0.0
0
VERTEX
8
PATTERN
10
16.0798
20
129.8976
30
0.0
0
VERTEX
8
PATTERN
10
17.2257
20
130.2533
30
0.0
0
VERTEX
8
PATTERN
10
18.3859
20
130.5580
30
0.0
0
VERTEX
8
PATTERN
10
19.5738
20
130.7174
30
0.0
0
VERTEX
8
PATTERN
10
20.7709
20
130.6694
30
0.0
0
VERTEX
8
PATTERN
10
21.9436
20
130.4207
30
0.0
0
VERTEX
8
PATTERN
10
23.0811
20
130.0397
30
0.0
0
VERTEX
8
PATTERN
10
24.2016
20
129.6105
30
0.0
0
VERTEX
8
PATTERN
10
25.3236
20
129.1852
30
0.0
0
VERTEX
8
PATTERN
10
26.4460
20
128.7609
30
0.0
0
VERTEX
8
PATTERN
10
27.5358
20
128.2610
30
0.0
0
VERTEX
8
PATTERN
10
28.4872
20
127.5391
30
0.0
0
VERTEX
8
PATTERN
10
28.9978
20
126.4764
30
0.0
0
VERTEX
8
PATTERN
10
28.6793
20
125.3509
30
0.0
0
VERTEX
8
PATTERN
10
27.7179
20
124.6589
30
0.0
0
VERTEX
8
PATTERN
10
26.5478
20
124.4200
30
0.0
0
VERTEX
8
PATTERN
10
25.3522
20
124.4884
30
0.0
0
VERTEX
8
PATTERN
10
24.1857
20
124.7652
30
0.0
0
VERTEX
8
PATTERN
10
23.0559
20
125.1683
30
0.0
0
VERTEX
8
PATTERN
10
21.9379
20
125.6037
30
0.0
0
VERTEX
8
PATTERN
10
20.7857
20
125.9324
30
0.0
0
VERTEX
8
PATTERN
10
19.5972
20
125.9062
30
0.0
0
VERTEX
8
PATTERN
10
18.7159
20
125.1525
30
0.0
0
VERTEX
8
PATTERN
10
18.6776
20
123.9756
30
0.0
0
VERTEX
8
PATTERN
10
19.2008
20
122.9023
30
0.0
0
VERTEX
8
PATTERN
10
20.0032
20
122.0138
30
0.0
0
VERTEX
8
PATTERN
10
20.9696
20
121.3056
30
0.0
0
VERTEX
8
PATTERN
10
22.0442
20
120.7747
30
0.0
0
VERTEX
8
PATTERN
10
23.1838
20
120.4017
30
0.0
0
VERTEX
8
PATTERN
10
24.3573
20
120.1539
30
0.0
0
VERTEX
8
PATTERN
10
25.5472
20
120.0014
30
0.0
0
VERTEX
8
PATTERN
10
26.7447
20
119.9305
30
0.0
0
VERTEX
8
PATTERN
10
27.9440
20
119.9526
30
0.0
0
VERTEX
8
PATTERN
10
29.1327
20
120.1090
30
0.0
0
VERTEX
8
PATTERN
10
30.2750
20
120.4688
30
0.0
0
VERTEX
8
PATTERN
10
31.3063
20
121.0762
30
0.0
0
VERTEX
8
PATTERN
10
32.1828
20
121.8930
30
0.0
0
VERTEX
8
PATTERN
10
32.9440
20
122.8200
30
0.0
0
VERTEX
8
PATTERN
10
33.6729
20
123.7731
30
0.0
0
VERTEX
8
PATTERN
10
34.4419
20
124.6938
30
0.0
0
VERTEX
8
PATTERN
10
35.2870
20
125.5449
30
0.0
0
VERTEX
8
PATTERN
10
36.2043
20
126.3180
30
0.0
0
VERTEX
8
PATTERN
10
37.1706
20
127.0291
30
0.0
0
VERTEX
8
PATTERN
10
38.1708
20
127.6917
30
0.0
0
VERTEX
8
PATTERN
10
39.2072
20
128.2957
30
0.0
0
VERTEX
8
PATTERN
10
40.2922
20
128.8064
30
0.0
0
VERTEX
8
PATTERN
10
41.4291
20
129.1877
30
0.0
0
VERTEX
8
PATTERN
10
42.6025
20
129.4361
30
0.0
0
VERTEX
8
PATTERN
10
43.7930
20
129.5843
30
0.0
0
VERTEX
8
PATTERN
10
44.9900
20
129.6640
30
0.0
0
VERTEX
8
PATTERN
10
46.1896
20
129.6699
30
0.0
0
VERTEX
8
PATTERN
10
47.3832
20
129.5561
30
0.0
0
VERTEX
8
PATTERN
10
48.5473
20
129.2708
30
0.0
0
VERTEX
8
PATTERN
10
49.6515
20
128.8041
30
0.0
0
VERTEX
8
PATTERN
10
50.6879
20
128.2008
30
0.0
0
VERTEX
8
PATTERN
10
51.6671
20
127.5078
30
0.0
0
VERTEX
8
PATTERN
10
52.6007
20
126.7544
30
0.0
0
VERTEX
8
PATTERN
10
53.4959
20
125.9557
30
0.0
0
VERTEX
8
PATTERN
10
54.3620
20
125.1253
30
0.0
0
VERTEX
8
PATTERN
10
55.2169
20
124.2833
30
0.0
0
VERTEX
8
PATTERN
10
56.0830
20
123.4530
30
0.0
0
VERTEX
8
PATTERN
10
56.9769
20
122.6527
30
0.0
0
VERTEX
8
PATTERN
10
57.9013
20
121.8878
30
0.0
0
VERTEX
8
PATTERN
10
58.8454
20
121.1473
30
0.0
0
VERTEX
8
PATTERN
10
59.7880
20
120.4048
30
0.0
0
VERTEX
8
PATTERN
10
60.6981
20
119.6232
30
0.0
0
VERTEX
8
PATTERN
10
61.5342
20
118.7635
30
0.0
0
VERTEX
8
PATTERN
10
62.2545
20
117.8050
30
0.0
0
VERTEX
8
PATTERN
10
62.8439
20
116.7608
30
0.0
0
VERTEX
8
PATTERN
10
63.3323
20
115.6651
30
0.0
0
VERTEX
8
PATTERN
10
63.7785
20
114.5513
30
0.0
0
VERTEX
8
PATTERN
10
64.2396
20
113.4436
30
0.0
0
VERTEX
8
PATTERN
10
64.7529
20
112.3592
30
0.0
0
VERTEX
8
PATTERN
10
65.3312
20
111.3081
30
0.0
0
VERTEX
8
PATTERN
10
65.9662
20
110.2901
30
0.0
0
VERTEX
8
PATTERN
10
66.6314
20
109.2915
30
0.0
0
VERTEX
8
PATTERN
10
67.2794
20
108.2819
30
0.0
0
VERTEX
8
PATTERN
10
67.8271
20
107.2157
30
0.0
0
VERTEX
8
PATTERN
10
68.0774
20
106.0513
30
0.0
0
VERTEX
8
PATTERN
10
67.5415
20
105.0374
30
0.0
0
VERTEX
8
PATTERN
10
66.3794
20
104.8731
30
0.0
0
VERTEX
8
PATTERN
10
65.2563
20
105.2792
30
0.0
0
VERTEX
8
PATTERN
10
64.2709
20
105.9600
30
0.0
0
VERTEX
8
PATTERN
10
63.4142
20
106.7987
30
0.0
0
VERTEX
8
PATTERN
10
62.6627
20
107.7333
30
0.0
0
VERTEX
8
PATTERN
10
61.9925
20
108.7283
30
0.0
0
VERTEX
8
PATTERN
10
61.3874
20
109.7642
30
0.0
0
VERTEX
8
PATTERN
10
60.8396
20
110.8315
30
0.0
0
VERTEX
8
PATTERN
10
60.3404
20
111.9226
30
0.0
0
VERTEX
8
PATTERN
10
59.8658
20
113.0246
30
0.0
0
VERTEX
8
PATTERN
10
59.3704
20
114.1174
30
0.0
0
VERTEX
8
PATTERN
10
58.7977
20
115.1713
30
0.0
0
VERTEX
8
PATTERN
10
58.1062
20
116.1507
30
0.0
0
VERTEX
8
PATTERN
10
57.2927
20
117.0315
30
0.0
0
VERTEX
8
PATTERN
10
56.3886
20
117.8196
30
0.0
0
VERTEX
8
PATTERN
10
55.4382
20
118.5520
30
0.0
0
VERTEX
8
PATTERN
10
54.4829
20
119.2780
30
0.0
0
VERTEX
8
PATTERN
10
53.5552
20
120.0387
30
0.0
0
VERTEX
8
PATTERN
10
52.6707
20
120.8493
30
0.0
0
VERTEX
8
PATTERN
10
51.8184
20
121.6938
30
0.0
0
VERTEX
8
PATTERN
10
50.9633
20
122.5355
30
0.0
0
VERTEX
8
PATTERN
10
50.0636
20
123.3289
30
0.0
0
VERTEX
8
PATTERN
10
49.0880
20
124.0262
30
0.0
0
VERTEX
8
PATTERN
10
48.0263
20
124.5824
30
0.0
0
VERTEX
8
PATTERN
10
46.8910
20
124.9666
30
0.0
0
VERTEX
8
PATTERN
10
45.7100
20
125.1722
30
0.0
0
VERTEX
8
PATTERN
10
44.5115
20
125.2107
30
0.0
0
VERTEX
8
PATTERN
10
43.3179
20
125.0973
30
0.0
0
VERTEX
8
PATTERN
10
42.1482
20
124.8341
30
0.0
0
VERTEX
8
PATTERN
10
41.0231
20
124.4199
30
0.0
0
VERTEX
8
PATTERN
10
39.9628
20
123.8603
30
0.0
0
VERTEX
8
PATTERN
10
38.9846
20
123.1669
30
0.0
0
VERTEX
8
PATTERN
10
38.1080
20
122.3489
30
0.0
0
VERTEX
8
PATTERN
10
37.3589
20
121.4133
30
0.0
0
VERTEX
8
PATTERN
10
36.7819
20
120.3635
30
0.0
0
VERTEX
8
PATTERN
10
36.4576
20
119.2119
30
0.0
0
VERTEX
8
PATTERN
10
36.4653
20
118.0166
30
0.0
0
VERTEX
8
PATTERN
10
36.7854
20
116.8628
30
0.0
0
VERTEX
8
PATTERN
10
37.2829
20
115.7714
30
0.0
0
VERTEX
8
PATTERN
10
37.8354
20
114.7063
30
0.0
0
VERTEX
8
PATTERN
10
38.3864
20
113.6405
30
0.0
0
VERTEX
8
PATTERN
10
38.9609
20
112.5873
30
0.0
0
VERTEX
8
PATTERN
10
39.6764
20
111.6279
30
0.0
0
VERTEX
8
PATTERN
10
40.6958
20
111.0264
30
0.0
0
VERTEX
8
PATTERN
10
41.8410
20
111.2456
30
0.0
0
VERTEX
8
PATTERN
10
42.5476
20
112.1908
30
0.0
0
VERTEX
8
PATTERN
10
42.7528
20
113.3665
30
0.0
0
VERTEX
8
PATTERN
10
42.6322
20
114.5577
30
0.0
0
VERTEX
8
PATTERN
10
42.3089
20
115.7122
30
0.0
0
VERTEX
8
PATTERN
10
41.9010
20
116.8406
30
0.0
0
VERTEX
8
PATTERN
10
41.5916
20
117.9975
30
0.0
0
VERTEX
8
PATTERN
10
41.7098
20
119.1768
30
0.0
0
VERTEX
8
PATTERN
10
42.4562
20
120.0963
30
0.0
0
VERTEX
8
PATTERN
10
43.5347
20
120.6073
30
0.0
0
VERTEX
8
PATTERN
10
44.7195
20
120.7690
30
0.0
0
VERTEX
8
PATTERN
10
45.9039
20
120.6048
30
0.0
0
VERTEX
8
PATTERN
10
46.9762
20
120.0808
30
0.0
0
VERTEX
8
PATTERN
10
47.7404
20
119.1707
30
0.0
0
VERTEX
8
PATTERN
10
48.0049
20
118.0108
30
0.0
0
VERTEX
8
PATTERN
10
47.8879
20
116.8190
30
0.0
0
VERTEX
8
PATTERN
10
47.6527
20
115.6424
30
0.0
0
VERTEX
8
PATTERN
10
47.4652
20
114.4577
30
0.0
0
VERTEX
8
PATTERN
10
47.3958
20
113.2604
30
0.0
0
VERTEX
8
PATTERN
10
47.4447
20
112.0618
30
0.0
0
VERTEX
8
PATTERN
10
47.5632
20
110.8679
30
0.0
0
VERTEX
8
PATTERN
10
47.6555
20
109.6720
30
0.0
0
VERTEX
8
PATTERN
10
47.5364
20
108.4829
30
0.0
0
VERTEX
8
PATTERN
10
46.9031
20
107.4855
30
0.0
0
VERTEX
8
PATTERN
10
45.8460
20
106.9351
30
0.0
0
VERTEX
8
PATTERN
10
44.6745
20
106.6818
30
0.0
0
VERTEX
8
PATTERN
10
43.4817
20
106.5537
30
0.0
0
VERTEX
8
PATTERN
10
42.2838
20
106.4857
30
0.0
0
VERTEX
8
PATTERN
10
41.0842
20
106.4654
30
0.0
0
VERTEX
8
PATTERN
10
39.8855
20
106.5123
30
0.0
0
VERTEX
8
PATTERN
10
38.6970
20
106.6722
30
0.0
0
VERTEX
8
PATTERN
10
37.5510
20
107.0202
30
0.0
0
VERTEX
8
PATTERN
10
36.5356
20
107.6500
30
0.0
0
VERTEX
8
PATTERN
10
35.7672
20
108.5652
30
0.0
0
VERTEX
8
PATTERN
10
35.2293
20
109.6364
30
0.0
0
VERTEX
8
PATTERN
10
34.7896
20
110.7528
30
0.0
0
VERTEX
8
PATTERN
10
34.3243
20
111.8585
30
0.0
0
VERTEX
8
PATTERN
10
33.7482
20
112.9099
30
0.0
0
VERTEX
8
PATTERN
10
33.0067
20
113.8507
30
0.0
0
VERTEX
8
PATTERN
10
32.0756
20
114.6028
30
0.0
0
VERTEX
8
PATTERN
10
30.9926
20
115.1126
30
0.0
0
VERTEX
8
PATTERN
10
29.8273
20
115.3927
30
0.0
0
VERTEX
8
PATTERN
10
28.6353
20
115.5267
30
0.0
0
VERTEX
8
PATTERN
10
27.4374
20
115.5943
30
0.0
0
VERTEX
8
PATTERN
10
26.2388
20
115.6502
30
0.0
0
VERTEX
8
PATTERN
10
25.0412
20
115.7230
30
0.0
0
VERTEX
8
PATTERN
10
23.8457
20
115.8252
30
0.0
0
VERTEX
8
PATTERN
10
22.6541
20
115.9656
30
0.0
0
VERTEX
8
PATTERN
10
21.4706
20
116.1620
30
0.0
0
VERTEX
8
PATTERN
10
20.3064
20
116.4499
30
0.0
0
VERTEX
8
PATTERN
10
19.1877
20
116.8805
30
0.0
0
VERTEX
8
PATTERN
10
18.1561
20
117.4901
30
0.0
0
VERTEX
8
PATTERN
10
17.2399
20
118.2630
30
0.0
0
VERTEX
8
PATTERN
10
16.4243
20
119.1426
30
0.0
0
VERTEX
8
PATTERN
10
15.6648
20
120.0714
30
0.0
0
VERTEX
8
PATTERN
10
14.9170
20
121.0097
30
0.0
0
VERTEX
8
PATTERN
10
14.1470
20
121.9299
30
0.0
0
VERTEX
8
PATTERN
10
13.3258
20
122.8043
30
0.0
0
VERTEX
8
PATTERN
10
12.4276
20
123.5988
30
0.0
0
VERTEX
8
PATTERN
10
11.4389
20
124.2769
30
0.0
0
VERTEX
8
PATTERN
10
10.3647
20
124.8089
30
0.0
0
VERTEX
8
PATTERN
10
9.2201
20
125.1641
30
0.0
0
VERTEX
8
PATTERN
10
8.0294
20
125.2870
30
0.0
0
VERTEX
8
PATTERN
10
6.8604
20
125.0512
30
0.0
0
VERTEX
8
PATTERN
10
5.9626
20
124.2857
30
0.0
0
VERTEX
8
PATTERN
10
5.7725
20
123.1274
30
0.0
0
VERTEX
8
PATTERN
10
6.2973
20
122.0618
30
0.0
0
VERTEX
8
PATTERN
10
7.1694
20
121.2427
30
0.0
0
VERTEX
8
PATTERN
10
8.1670
20
120.5770
30
0.0
0
VERTEX
8
PATTERN
10
9.1907
20
119.9511
30
0.0
0
VERTEX
8
PATTERN
10
10.1829
20
119.2769
30
0.0
0
VERTEX
8
PATTERN
10
11.0836
20
118.4862
30
0.0
0
VERTEX
8
PATTERN
10
11.7989
20
117.5276
30
0.0
0
VERTEX
8
PATTERN
10
12.1052
20
116.3815
30
0.0
0
VERTEX
8
PATTERN
10
11.6690
20
115.2932
30
0.0
0
VERTEX
8
PATTERN
10
10.6629
20
114.6640
30
0.0
0
VERTEX
8
PATTERN
10
9.4819
20
114.4913
30
0.0
0
VERTEX
8
PATTERN
10
8.3020
20
114.6867
30
0.0
0
VERTEX
8
PATTERN
10
7.1967
20
115.1496
30
0.0
0
VERTEX
8
PATTERN
10
6.1434
20
115.7240
30
0.0
0
VERTEX
8
PATTERN
10
5.0561
20
116.2276
30
0.0
0
VERTEX
8
PATTERN
10
3.8773
20
116.3863
30
0.0
0
VERTEX
8
PATTERN
10
2.8276
20
115.8635
30
0.0
0
VERTEX
8
PATTERN
10
2.3592
20
114.7803
30
0.0
0
VERTEX
8
PATTERN
10
2.4121
20
113.5864
30
0.0
0
VERTEX
8
PATTERN
10
2.6702
20
112.4149
30
0.0
0
VERTEX
8
PATTERN
10
2.8760
20
111.2341
30
0.0
0
VERTEX
8
PATTERN
10
2.7935
20
110.0429
30
0.0
0
VERTEX
8
PATTERN
10
2.3084
20
108.9517
30
0.0
0
VERTEX
8
PATTERN
10
1.5666
20
108.0102
30
0.0
0
VERTEX
8
PATTERN
10
0.7718
20
107.1117
30
0.0
0
VERTEX
8
PATTERN
10
0.1309
20
106.1028
30
0.0
0
VERTEX
8
PATTERN
10
0.0000
20
104.9303
30
0.0
0
VERTEX
8
PATTERN
10
0.6235
20
103.9307
30
0.0
0
VERTEX
8
PATTERN
10
1.6661
20
103.3524
30
0.0
0
VERTEX
8
PATTERN
10
2.8334
20
103.0851
30
0.0
0
VERTEX
8
PATTERN
10
4.0305
20
103.0260
30
0.0
0
VERTEX
8
PATTERN
10
5.2209
20
103.1617
30
0.0
0
VERTEX
8
PATTERN
10
6.3401
20
103.5804
30
0.0
0
VERTEX
8
PATTERN
10
7.2229
20
104.3795
30
0.0
0
VERTEX
8
PATTERN
10
7.7726
20
105.4418
30
0.0
0
VERTEX
8
PATTERN
10
8.1597
20
106.5773
30
0.0
0
VERTEX
8
PATTERN
10
8.6207
20
107.6834
30
0.0
0
VERTEX
8
PATTERN
10
9.3256
20
108.6486
30
0.0
0
VERTEX
8
PATTERN
10
10.2692
20
109.3844
30
0.0
0
VERTEX
8
PATTERN
10
11.3357
20
109.9321
30
0.0
0
VERTEX
8
PATTERN
10
12.4470
20
110.3841
30
0.0
0
VERTEX
8
PATTERN
10
13.5739
20
110.7960
30
0.0
0
VERTEX
8
PATTERN
10
14.7112
20
111.1784
30
0.0
0
VERTEX
8
PATTERN
10
15.8652
20
111.5061
30
0.0
0
VERTEX
8
PATTERN
10
17.0419
20
111.7387
30
0.0
0
VERTEX
8
PATTERN
10
18.2362
20
111.8483
30
0.0
0
VERTEX
8
PATTERN
10
19.4358
20
111.8442
30
0.0
0
VERTEX
8
PATTERN
10
20.6329
20
111.7647
30
0.0
0
VERTEX
8
PATTERN
10
21.8277
20
111.6541
30
0.0
0
VERTEX
8
PATTERN
10
23.0227
20
111.5464
30
0.0
0
VERTEX
8
PATTERN
10
24.2193
20
111.4574
30
0.0
0
VERTEX
8
PATTERN
10
25.4167
20
111.3817
30
0.0
0
VERTEX
8
PATTERN
10
26.6130
20
111.2891
30
0.0
0
VERTEX
8
PATTERN
10
27.7997
20
111.1164
30
0.0
0
VERTEX
8
PATTERN
10
28.9396
20
110.7514
30
0.0
0
VERTEX
8
PATTERN
10
29.8911
20
110.0380
30
0.0
0
VERTEX
8
PATTERN
10
30.2674
20
108.9280
30
0.0
0
VERTEX
8
PATTERN
10
29.7379
20
107.8863
30
0.0
0
VERTEX
8
PATTERN
10
28.6876
20
107.3267
30
0.0
0
VERTEX
8
PATTERN
10
27.5092
20
107.1114
30
0.0
0
VERTEX
8
PATTERN
10
26.3108
20
107.0613
30
0.0
0
VERTEX
8
PATTERN
10
25.1113
20
107.0891
30
0.0
0
VERTEX
8
PATTERN
10
23.9131
20
107.1533
30
0.0
0
VERTEX
8
PATTERN
10
22.7161
20
107.2354
30
0.0
0
VERTEX
8
PATTERN
10
21.5192
20
107.3204
30
0.0
0
VERTEX
8
PATTERN
10
20.3211
20
107.3853
30
0.0
0
VERTEX
8
PATTERN
10
19.1215
20
107.3971
30
0.0
0
VERTEX
8
PATTERN
10
17.9245
20
107.3202
30
0.0
0
VERTEX
8
PATTERN
10
16.7414
20
107.1243
30
0.0
0
VERTEX
8
PATTERN
10
15.5936
20
106.7787
30
0.0
0
VERTEX
8
PATTERN
10
14.5282
20
106.2326
30
0.0
0
VERTEX
8
PATTERN
10
13.6834
20
105.3933
30
0.0
0
VERTEX
8
PATTERN
10
13.4788
20
104.2476
30
0.0
0
VERTEX
8
PATTERN
10
14.2452
20
103.3666
30
0.0
0
VERTEX
8
PATTERN
10
15.3841
20
103.0099
30
0.0
0
VERTEX
8
PATTERN
10
16.5797
20
102.9226
30
0.0
0
VERTEX
8
PATTERN
10
17.7794
20
102.9361
30
0.0
0
VERTEX
8
PATTERN
10
18.9789
20
102.9627
30
0.0
0
VERTEX
8
PATTERN
10
20.1788
20
102.9639
30
0.0
0
VERTEX
8
PATTERN
10
21.3783
20
102.9363
30
0.0
0
VERTEX
8
PATTERN
10
22.5774
20
102.8931
30
0.0
0
VERTEX
8
PATTERN
10
23.7765
20
102.8484
30
0.0
0
VERTEX
8
PATTERN
10
24.9758
20
102.8105
30
0.0
0
VERTEX
8
PATTERN
10
26.1754
20
102.7855
30
0.0
0
VERTEX
8
PATTERN
10
27.3752
20
102.7811
30
0.0
0
VERTEX
8
PATTERN
10
28.5749
20
102.8039
30
0.0
0
VERTEX
8
PATTERN
10
29.7738
20
102.8514
30
0.0
0
VERTEX
8
PATTERN
10
30.9725
20
102.9052
30
0.0
0
VERTEX
8
PATTERN
10
32.1719
20
102.9357
30
0.0
0
VERTEX
8
PATTERN
10
33.3716
20
102.9174
30
0.0
0
VERTEX
8
PATTERN
10
34.5692
20
102.8451
30
0.0
0
VERTEX
8
PATTERN
10
35.7641
20
102.7362
30
0.0
0
VERTEX
8
PATTERN
10
36.9582
20
102.6188
30
0.0
0
VERTEX
8
PATTERN
10
38.1538
20
102.5173
30
0.0
0
VERTEX
8
PATTERN
10
39.3515
20
102.4457
30
0.0
0
VERTEX
8
PATTERN
10
40.5507
20
102.4082
30
0.0
0
VERTEX
8
PATTERN
10
41.7506
20
102.4021
30
0.0
0
VERTEX
8
PATTERN
10
42.9503
20
102.4221
30
0.0
0
VERTEX
8
PATTERN
10
44.1494
20
102.4634
30
0.0
0
VERTEX
8
PATTERN
10
45.3479
20
102.5215
30
0.0
0
VERTEX
8
PATTERN
10
46.5459
20
102.5879
30
0.0
0
VERTEX
8
PATTERN
10
47.7444
20
102.6452
30
0.0
0
VERTEX
8
PATTERN
10
48.9440
20
102.6701
30
0.0
0
VERTEX
8
PATTERN
10
50.1437
20
102.6522
30
0.0
0
VERTEX
8
PATTERN
10
51.3432
20
102.6225
30
0.0
0
VERTEX
8
PATTERN
10
52.5403
20
102.6820
30
0.0
0
VERTEX
8
PATTERN
10
53.6655
20
103.0652
30
0.0
0
VERTEX
8
PATTERN
10
54.2438
20
104.0702
30
0.0
0
VERTEX
8
PATTERN
10
54.0551
20
105.2458
30
0.0
0
VERTEX
8
PATTERN
10
53.5869
20
106.3497
30
0.0
0
VERTEX
8
PATTERN
10
53.0683
20
107.4317
30
0.0
0
VERTEX
8
PATTERN
10
52.5914
20
108.5325
30
0.0
0
VERTEX
8
PATTERN
10
52.1905
20
109.6632
30
0.0
0
VERTEX
8
PATTERN
10
51.8830
20
110.8225
30
0.0
0
VERTEX
8
PATTERN
10
51.7144
20
112.0092
30
0.0
0
VERTEX
8
PATTERN
10
51.8117
20
113.1996
30
0.0
0
VERTEX
8
PATTERN
10
52.4662
20
114.1702
30
0.0
0
VERTEX
8
PATTERN
10
53.6226
20
114.2375
30
0.0
0
VERTEX
8
PATTERN
10
54.5985
20
113.5571
30
0.0
0
VERTEX
8
PATTERN
10
55.3200
20
112.6012
30
0.0
0
VERTEX
8
PATTERN
10
55.8891
20
111.5454
30
0.0
0
VERTEX
8
PATTERN
10
56.3979
20
110.4588
30
0.0
0
VERTEX
8
PATTERN
10
56.9038
20
109.3707
30
0.0
0
VERTEX
8
PATTERN
10
57.4291
20
108.2919
30
0.0
0
VERTEX
8
PATTERN
10
57.9697
20
107.2208
30
0.0
0
VERTEX
8
PATTERN
10
58.5194
20
106.1542
30
0.0
0
VERTEX
8
PATTERN
10
59.0962
20
105.1021
30
0.0
0
VERTEX
8
PATTERN
10
59.7523
20
104.0983
30
0.0
0
VERTEX
8
PATTERN
10
60.5444
20
103.1989
30
0.0
0
VERTEX
8
PATTERN
10
61.4728
20
102.4408
30
0.0
0
VERTEX
8
PATTERN
10
62.4910
20
101.8071
30
0.0
0
VERTEX
8
PATTERN
10
63.5560
20
101.2547
30
0.0
0
VERTEX
8
PATTERN
10
64.6528
20
100.7688
30
0.0
0
VERTEX
8
PATTERN
10
65.7875
20
100.3809
30
0.0
0
VERTEX
8
PATTERN
10
66.9646
20
100.1558
30
0.0
0
VERTEX
8
PATTERN
10
68.1630
20
100.1421
30
0.0
0
VERTEX
8
PATTERN
10
69.3528
20
100.2935
30
0.0
0
VERTEX
8
PATTERN
10
70.5346
20
100.5007
30
0.0
0
VERTEX
8
PATTERN
10
71.7253
20
100.6446
30
0.0
0
VERTEX
8
PATTERN
10
72.9239
20
100.6370
30
0.0
0
VERTEX
8
PATTERN
10
74.1046
20
100.4328
30
0.0
0
VERTEX
8
PATTERN
10
75.2187
20
99.9947
30
0.0
0
VERTEX
8
PATTERN
10
76.1541
20
99.2551
30
0.0
0
VERTEX
8
PATTERN
10
76.5509
20
98.1539
30
0.0
0
VERTEX
8
PATTERN
10
75.9680
20
97.1485
30
0.0
0
VERTEX
8
PATTERN
10
74.8774
20
96.6676
30
0.0
0
VERTEX
8
PATTERN
10
73.6974
20
96.4548
30
0.0
0
VERTEX
8
PATTERN
10
72.5119
20
96.2708
30
0.0
0
VERTEX
8
PATTERN
10
71.3663
20
95.9237
30
0.0
0
VERTEX
8
PATTERN
10
70.3837
20
95.2489
30
0.0
0
VERTEX
8
PATTERN
10
69.7182
20
94.2582
30
0.0
0
VERTEX
8
PATTERN
10
69.3182
20
93.1286
30
0.0
0
VERTEX
8
PATTERN
10
69.0231
20
91.9657
30
0.0
0
VERTEX
8
PATTERN
10
68.7065
20
90.8085
30
0.0
0
VERTEX
8
PATTERN
10
68.2934
20
89.6826
30
0.0
0
VERTEX
8
PATTERN
10
67.7510
20
88.6133
30
0.0
0
VERTEX
8
PATTERN
10
67.0842
20
87.6165
30
0.0
0
VERTEX
8
PATTERN
10
66.3289
20
86.6844
30
0.0
0
VERTEX
8
PATTERN
10
65.5485
20
85.7730
30
0.0
0
VERTEX
8
PATTERN
10
64.8488
20
84.8002
30
0.0
0
VERTEX
8
PATTERN
10
64.4772
20
83.6718
30
0.0
0
VERTEX
8
PATTERN
10
64.9195
20
82.6024
30
0.0
0
VERTEX
8
PATTERN
10
66.0368
20
82.2521
30
0.0
0
VERTEX
8
PATTERN
10
67.1863
20
82.5675
30
0.0
0
VERTEX
8
PATTERN
10
68.2027
20
83.2011
30
0.0
0
VERTEX
8
PATTERN
10
69.1137
20
83.9810
30
0.0
0
VERTEX
8
PATTERN
10
69.9505
20
84.8405
30
0.0
0
VERTEX
8
PATTERN
10
70.7212
20
85.7598
30
0.0
0
VERTEX
8
PATTERN
10
71.4114
20
86.7407
30
0.0
0
VERTEX
8
PATTERN
10
72.0038
20
87.7836
30
0.0
0
VERTEX
8
PATTERN
10
72.5130
20
88.8699
30
0.0
0
VERTEX
8
PATTERN
10
73.0202
20
89.9570
30
0.0
0
VERTEX
8
PATTERN
10
73.6969
20
90.9419
30
0.0
0
VERTEX
8
PATTERN
10
74.7515
20
91.4442
30
0.0
0
VERTEX
8
PATTERN
10
75.8096
20
90.9554
30
0.0
0
VERTEX
8
PATTERN
10
76.3953
20
89.9205
30
0.0
0
VERTEX
8
PATTERN
10
76.5835
20
88.7396
30
0.0
0
VERTEX
8
PATTERN
10
76.4728
20
87.5473
30
0.0
0
VERTEX
8
PATTERN
10
76.1247
20
86.4010
30
0.0
0
VERTEX
8
PATTERN
10
75.5881
20
85.3290
30
0.0
0
VERTEX
8
PATTERN
10
74.9203
20
84.3327
30
0.0
0
VERTEX
8
PATTERN
10
74.1736
20
83.3937
30
0.0
0
VERTEX
8
PATTERN
10
73.3821
20
82.4920
30
0.0
0
VERTEX
8
PATTERN
10
72.5629
20
81.6153
30
0.0
0
VERTEX
8
PATTERN
10
71.7189
20
80.7626
30
0.0
0
VERTEX
8
PATTERN
10
70.8426
20
79.9431
30
0.0
0
VERTEX
8
PATTERN
10
69.9197
20
79.1767
30
0.0
0
VERTEX
8
PATTERN
10
68.9323
20
78.4961
30
0.0
0
VERTEX
8
PATTERN
10
67.8653
20
77.9501
30
0.0
0
VERTEX
8
PATTERN
10
66.7182
20
77.6055
30
0.0
0
VERTEX
8
PATTERN
10
65.5241
20
77.5232
30
0.0
0
VERTEX
8
PATTERN
10
64.3439
20
77.7229
30
0.0
0
VERTEX
8
PATTERN
10
63.2364
20
78.1790
30
0.0
0
VERTEX
8
PATTERN
10
62.2302
20
78.8300
30
0.0
0
VERTEX
8
PATTERN
10
61.3232
20
79.6145
30
0.0
0
VERTEX
8
PATTERN
10
60.4824
20
80.4704
30
0.0
0
VERTEX
8
PATTERN
10
59.6444
20
81.3290
30
0.0
0
VERTEX
8
PATTERN
10
58.7276
20
82.1009
30
0.0
0
VERTEX
8
PATTERN
10
57.6792
20
82.6785
30
0.0
0
VERTEX
8
PATTERN
10
56.5292
20
83.0134
30
0.0
0
VERTEX
8
PATTERN
10
55.3397
20
83.1649
30
0.0
0
VERTEX
8
PATTERN
10
54.1412
20
83.2185
30
0.0
0
VERTEX
8
PATTERN
10
52.9414
20
83.2319
30
0.0
0
VERTEX
8
PATTERN
10
51.7415
20
83.2314
30
0.0
0
VERTEX
8
PATTERN
10
50.5417
20
83.2224
30
0.0
0
VERTEX
8
PATTERN
10
49.3420
20
83.1980
30
0.0
0
VERTEX
8
PATTERN
10
48.1433
20
83.1468
30
0.0
0
VERTEX
8
PATTERN
10
46.9462
20
83.0645
30
0.0
0
VERTEX
8
PATTERN
10
45.7504
20
82.9665
30
0.0
0
VERTEX
8
PATTERN
10
44.5530
20
82.8901
30
0.0
0
VERTEX
8
PATTERN
10
43.3534
20
82.8769
30
0.0
0
VERTEX
8
PATTERN
10
42.1554
20
82.9404
30
0.0
0
VERTEX
8
PATTERN
10
40.9604
20
83.0479
30
0.0
0
VERTEX
8
PATTERN
10
39.7640
20
83.1392
30
0.0
0
VERTEX
8
PATTERN
10
38.5646
20
83.1636
30
0.0
0
VERTEX
8
PATTERN
10
37.3663
20
83.1071
30
0.0
0
VERTEX
8
PATTERN
10
36.1714
20
82.9977
30
0.0
0
VERTEX
8
PATTERN
10
34.9765
20
82.8888
30
0.0
0
VERTEX
8
PATTERN
10
33.7783
20
82.8290
30
0.0
0
VERTEX
8
PATTERN
10
32.5786
20
82.8364
30
0.0
0
VERTEX
8
PATTERN
10
31.3800
20
82.8919
30
0.0
0
VERTEX
8
PATTERN
10
30.1820
20
82.9586
30
0.0
0
VERTEX
8
PATTERN
10
28.9831
20
83.0061
30
0.0
0
VERTEX
8
PATTERN
10
27.7833
20
83.0231
30
0.0
0
VERTEX
8
PATTERN
10
26.5835
20
83.0147
30
0.0
0
VERTEX
8
PATTERN
10
25.3838
20
82.9941
30
0.0
0
VERTEX
8
PATTERN
10
24.1841
20
82.9753
30
0.0
0
VERTEX
8
PATTERN
10
22.9842
20
82.9705
30
0.0
0
VERTEX
8
PATTERN
10
21.7844
20
82.9856
30
0.0
0
VERTEX
8
PATTERN
10
20.5849
20
83.0163
30
0.0
0
VERTEX
8
PATTERN
10
19.3854
20
83.0470
30
0.0
0
VERTEX
8
PATTERN
10
18.1856
20
83.0576
30
0.0
0
VERTEX
8
PATTERN
10
16.9860
20
83.0353
30
0.0
0
VERTEX
8
PATTERN
10
15.7873
20
82.9825
30
0.0
0
VERTEX
8
PATTERN
10
14.5893
20
82.9155
30
0.0
0
VERTEX
8
PATTERN
10
13.3911
20
82.8516
30
0.0
0
VERTEX
8
PATTERN
10
12.1927
20
82.7922
30
0.0
0
VERTEX
8
PATTERN
10
10.9958
20
82.7091
30
0.0
0
VERTEX
8
PATTERN
10
9.8091
20
82.5370
30
0.0
0
VERTEX
8
PATTERN
10
8.6700
20
82.1695
30
0.0
0
VERTEX
8
PATTERN
10
7.7099
20
81.4657
30
0.0
0
VERTEX
8
PATTERN
10
7.2525
20
80.3807
30
0.0
0
VERTEX
8
PATTERN
10
7.5660
20
79.2433
30
0.0
0
VERTEX
8
PATTERN
10
8.3694
20
78.3594
30
0.0
0
VERTEX
8
PATTERN
10
9.3288
20
77.6394
30
0.0
0
VERTEX
8
PATTERN
10
10.2795
20
76.9084
30
0.0
0
VERTEX
8
PATTERN
10
11.0855
20
76.0245
30
0.0
0
VERTEX
8
PATTERN
10
11.5689
20
74.9350
30
0.0
0
VERTEX
8
PATTERN
10
11.5380
20
73.7485
30
0.0
0
VERTEX
8
PATTERN
10
10.9143
20
72.7402
30
0.0
0
VERTEX
8
PATTERN
10
9.9152
20
72.0866
30
0.0
0
VERTEX
8
PATTERN
10
8.7982
20
71.6502
30
0.0
0
VERTEX
8
PATTERN
10
7.6870
20
71.1997
30
0.0
0
VERTEX
8
PATTERN
10
6.7204
20
70.5012
30
0.0
0
VERTEX
8
PATTERN
10
6.2081
20
69.4379
30
0.0
0
VERTEX
8
PATTERN
10
6.4485
20
68.2852
30
0.0
0
VERTEX
8
PATTERN
10
7.3131
20
67.4757
30
0.0
0
VERTEX
8
PATTERN
10
8.4563
20
67.1363
30
0.0
0
VERTEX
8
PATTERN
10
9.6534
20
67.1501
30
0.0
0
VERTEX
8
PATTERN
10
10.8318
20
67.3716
30
0.0
0
VERTEX
8
PATTERN
10
11.9854
20
67.7011
30
0.0
0
VERTEX
8
PATTERN
10
13.1231
20
68.0823
30
0.0
0
VERTEX
8
PATTERN
10
14.2481
20
68.4993
30
0.0
0
VERTEX
8
PATTERN
10
15.3489
20
68.9759
30
0.0
0
VERTEX
8
PATTERN
10
16.3919
20
69.5668
30
0.0
0
VERTEX
8
PATTERN
10
17.3140
20
70.3307
30
0.0
0
VERTEX
8
PATTERN
10
18.0083
20
71.3033
30
0.0
0
VERTEX
8
PATTERN
10
18.3234
20
72.4522
30
0.0
0
VERTEX
8
PATTERN
10
18.1546
20
73.6323
30
0.0
0
VERTEX
8
PATTERN
10
17.6464
20
74.7172
30
0.0
0
VERTEX
8
PATTERN
10
17.0752
20
75.7722
30
0.0
0
VERTEX
8
PATTERN
10
16.7564
20
76.9196
30
0.0
0
VERTEX
8
PATTERN
10
17.2024
20
77.9892
30
0.0
0
VERTEX
8
PATTERN
10
18.2862
20
78.4687
30
0.0
0
VERTEX
8
PATTERN
10
19.4808
20
78.5594
30
0.0
0
VERTEX
8
PATTERN
10
20.6801
20
78.5244
30
0.0
0
VERTEX
8
PATTERN
10
21.8795
20
78.4921
30
0.0
0
VERTEX
8
PATTERN
10
23.0790
20
78.5143
30
0.0
0
VERTEX
8
PATTERN
10
24.2767
20
78.5861
30
0.0
0
VERTEX
8
PATTERN
10
25.4735
20
78.6728
30
0.0
0
VERTEX
8
PATTERN
10
26.6717
20
78.7336
30
0.0
0
VERTEX
8
PATTERN
10
27.8712
20
78.7202
30
0.0
0
VERTEX
8
PATTERN
10
29.0580
20
78.5555
30
0.0
0
VERTEX
8
PATTERN
10
30.1649
20
78.1072
30
0.0
0
VERTEX
8
PATTERN
10
31.0286
20
77.2859
30
0.0
0
VERTEX
8
PATTERN
10
31.6291
20
76.2488
30
0.0
0
VERTEX
8
PATTERN
10
32.2058
20
75.1975
30
0.0
0
VERTEX
8
PATTERN
10
33.0325
20
74.3419
30
0.0
0
VERTEX
8
PATTERN
10
34.1838
20
74.1790
30
0.0
0
VERTEX
8
PATTERN
10
35.1386
20
74.8750
30
0.0
0
VERTEX
8
PATTERN
10
35.7825
20
75.8847
30
0.0
0
VERTEX
8
PATTERN
10
36.3474
20
76.9431
30
0.0
0
VERTEX
8
PATTERN
10
37.0532
20
77.9088
30
0.0
0
VERTEX
8
PATTERN
10
38.0558
20
78.5457
30
0.0
0
VERTEX
8
PATTERN
10
39.2361
20
78.5498
30
0.0
0
VERTEX
8
PATTERN
10
40.1429
20
77.8064
30
0.0
0
VERTEX
8
PATTERN
10
40.4149
20
76.6517
30
0.0
0
VERTEX
8
PATTERN
10
40.2524
20
75.4660
30
0.0
0
VERTEX
8
PATTERN
10
39.8997
20
74.3197
30
0.0
0
VERTEX
8
PATTERN
10
39.4782
20
73.1963
30
0.0
0
VERTEX
8
PATTERN
10
39.0584
20
72.0723
30
0.0
0
VERTEX
8
PATTERN
10
38.6872
20
70.9314
30
0.0
0
VERTEX
8
PATTERN
10
38.3818
20
69.7713
30
0.0
0
VERTEX
8
PATTERN
10
38.1100
20
68.6026
30
0.0
0
VERTEX
8
PATTERN
10
37.7755
20
67.4510
30
0.0
0
VERTEX
8
PATTERN
10
37.1921
20
66.4108
30
0.0
0
VERTEX
8
PATTERN
10
36.1433
20
65.9175
30
0.0
0
VERTEX
8
PATTERN
10
35.0434
20
66.3498
30
0.0
0
VERTEX
8
PATTERN
10
34.1449
20
67.1427
30
0.0
0
VERTEX
8
PATTERN
10
33.3073
20
68.0018
30
0.0
0
VERTEX
8
PATTERN
10
32.4426
20
68.8335
30
0.0
0
VERTEX
8
PATTERN
10
31.5298
20
69.6120
30
0.0
0
VERTEX
8
PATTERN
10
30.5917
20
70.3602
30
0.0
0
VERTEX
8
PATTERN
10
29.6626
20
71.1193
30
0.0
0
VERTEX
8
PATTERN
10
28.7593
20
71.9091
30
0.0
0
VERTEX
8
PATTERN
10
27.8576
20
72.7005
30
0.0
0
VERTEX
8
PATTERN
10
26.8775
20
73.3890
30
0.0
0
VERTEX
8
PATTERN
10
25.7371
20
73.7187
30
0.0
0
VERTEX
8
PATTERN
10
24.6205
20
73.3442
30
0.0
0
VERTEX
8
PATTERN
10
23.8263
20
72.4541
30
0.0
0
VERTEX
8
PATTERN
10
23.2492
20
71.4030
30
0.0
0
VERTEX
8
PATTERN
10
22.7227
20
70.3248
30
0.0
0
VERTEX
8
PATTERN
10
22.1552
20
69.2678
30
0.0
0
VERTEX
8
PATTERN
10
21.5106
20
68.2562
30
0.0
0
VERTEX
8
PATTERN
10
20.7772
20
67.3071
30
0.0
0
VERTEX
8
PATTERN
10
19.9453
20
66.4435
30
0.0
0
VERTEX
8
PATTERN
10
19.0051
20
65.6999
30
0.0
0
VERTEX
8
PATTERN
10
17.9653
20
65.1033
30
0.0
0
VERTEX
8
PATTERN
10
16.8582
20
64.6421
30
0.0
0
VERTEX
8
PATTERN
10
15.7203
20
64.2617
30
0.0
0
VERTEX
8
PATTERN
10
14.5778
20
63.8953
30
0.0
0
VERTEX
8
PATTERN
10
13.4474
20
63.4931
30
0.0
0
VERTEX
8
PATTERN
10
12.3410
20
63.0293
30
0.0
0
VERTEX
8
PATTERN
10
11.2691
20
62.4908
30
0.0
0
VERTEX
8
PATTERN
10
10.2488
20
61.8605
30
0.0
0
VERTEX
8
PATTERN
10
9.3174
20
61.1064
30
0.0
0
VERTEX
8
PATTERN
10
8.5579
20
60.1820
30
0.0
0
VERTEX
8
PATTERN
10
8.1303
20
59.0699
30
0.0
0
VERTEX
8
PATTERN
10
8.2573
20
57.8925
30
0.0
0
VERTEX
8
PATTERN
10
9.0331
20
57.0043
30
0.0
0
VERTEX
8
PATTERN
10
10.1852
20
56.7331
30
0.0
0
VERTEX
8
PATTERN
10
11.3487
20
56.9996
30
0.0
0
VERTEX
8
PATTERN
10
12.4167
20
57.5436
30
0.0
0
VERTEX
8
PATTERN
10
13.4335
20
58.1807
30
0.0
0
VERTEX
8
PATTERN
10
14.4658
20
58.7918
30
0.0
0
VERTEX
8
PATTERN
10
15.5556
20
59.2915
30
0.0
0
VERTEX
8
PATTERN
10
16.7049
20
59.6322
30
0.0
0
VERTEX
8
PATTERN
10
17.8870
20
59.8355
30
0.0
0
VERTEX
8
PATTERN
10
19.0759
20
59.9974
30
0.0
0
VERTEX
8
PATTERN
10
20.2439
20
60.2661
30
0.0
0
VERTEX
8
PATTERN
10
21.3207
20
60.7869
30
0.0
0
VERTEX
8
PATTERN
10
22.2247
20
61.5719
30
0.0
0
VERTEX
8
PATTERN
10
22.9812
20
62.5024
30
0.0
0
VERTEX
8
PATTERN
10
23.6716
20
63.4838
30
0.0
0
VERTEX
8
PATTERN
10
24.3756
20
64.4552
30
0.0
0
VERTEX
8
PATTERN
10
25.1670
20
65.3557
30
0.0
0
VERTEX
8
PATTERN
10
26.1318
20
66.0614
30
0.0
0
VERTEX
8
PATTERN
10
27.2857
20
66.3489
30
0.0
0
VERTEX
8
PATTERN
10
28.4519
20
66.1038
30
0.0
0
VERTEX
8
PATTERN
10
29.4659
20
65.4715
30
0.0
0
VERTEX
8
PATTERN
10
30.2303
20
64.5546
30
0.0
0
VERTEX
8
PATTERN
10
30.5137
20
63.4065
30
0.0
0
VERTEX
8
PATTERN
10
30.0328
20
62.3291
30
0.0
0
VERTEX
8
PATTERN
10
29.1336
20
61.5387
30
0.0
0
VERTEX
8
PATTERN
10
28.1687
20
60.8257
30
0.0
0
VERTEX
8
PATTERN
10
27.3269
20
59.9761
30
0.0
0
VERTEX
8
PATTERN
10
26.9063
20
58.8704
30
0.0
0
VERTEX
8
PATTERN
10
27.3555
20
57.8012
30
0.0
0
VERTEX
8
PATTERN
10
28.4451
20
57.3428
30
0.0
0
VERTEX
8
PATTERN
10
29.6416
20
57.3447
30
0.0
0
VERTEX
8
PATTERN
10
30.8233
20
57.5492
30
0.0
0
VERTEX
8
PATTERN
10
31.9908
20
57.8257
30
0.0
0
VERTEX
8
PATTERN
10
33.1574
20
58.1065
30
0.0
0
VERTEX
8
PATTERN
10
34.3283
20
58.3683
30
0.0
0
VERTEX
8
PATTERN
10
35.4976
20
58.6373
30
0.0
0
VERTEX
8
PATTERN
10
36.6459
20
58.9838
30
0.0
0
VERTEX
8
PATTERN
10
37.7347
20
59.4846
30
0.0
0
VERTEX
8
PATTERN
10
38.7218
20
60.1640
30
0.0
0
VERTEX
8
PATTERN
10
39.5926
20
60.9880
30
0.0
0
VERTEX
8
PATTERN
10
40.3453
20
61.9213
30
0.0
0
VERTEX
8
PATTERN
10
40.9698
20
62.9449
30
0.0
0
VERTEX
8
PATTERN
10
41.4560
20
64.0409
30
0.0
0
VERTEX
8
PATTERN
10
41.8128
20
65.1859
30
0.0
0
VERTEX
8
PATTERN
10
42.0775
20
66.3561
30
0.0
0
VERTEX
8
PATTERN
10
42.3034
20
67.5345
30
0.0
0
VERTEX
8
PATTERN
10
42.5423
20
68.7103
30
0.0
0
VERTEX
8
PATTERN
10
42.8312
20
69.8747
30
0.0
0
VERTEX
8
PATTERN
10
43.1832
20
71.0217
30
0.0
0
VERTEX
8
PATTERN
10
43.5862
20
72.1518
30
0.0
0
VERTEX
8
PATTERN
10
44.0125
20
73.2734
30
0.0
0
VERTEX
8
PATTERN
10
44.4382
20
74.3952
30
0.0
0
VERTEX
8
PATTERN
10
44.8682
20
75.5154
30
0.0
0
VERTEX
8
PATTERN
10
45.3617
20
76.6084
30
0.0
0
VERTEX
8
PATTERN
10
46.0381
20
77.5952
30
0.0
0
VERTEX
8
PATTERN
10
46.9835
20
78.3238
30
0.0
0
VERTEX
8
PATTERN
10
48.1081
20
78.7328
30
0.0
0
VERTEX
8
PATTERN
10
49.2924
20
78.9197
30
0.0
0
VERTEX
8
PATTERN
10
50.4899
20
78.9908
30
0.0
0
VERTEX
8
PATTERN
10
51.6897
20
78.9958
30
0.0
0
VERTEX
8
PATTERN
10
52.8881
20
78.9399
30
0.0
0
VERTEX
8
PATTERN
10
54.0781
20
78.7915
30
0.0
0
VERTEX
8
PATTERN
10
55.2400
20
78.4965
30
0.0
0
VERTEX
8
PATTERN
10
56.3362
20
78.0127
30
0.0
0
VERTEX
8
PATTERN
10
57.3442
20
77.3636
30
0.0
0
VERTEX
8
PATTERN
10
58.2849
20
76.6191
30
0.0
0
VERTEX
8
PATTERN
10
59.2082
20
75.8529
30
0.0
0
VERTEX
8
PATTERN
10
60.1613
20
75.1242
30
0.0
0
VERTEX
8
PATTERN
10
61.1710
20
74.4769
30
0.0
0
VERTEX
8
PATTERN
10
62.2425
20
73.9381
30
0.0
0
VERTEX
8
PATTERN
10
63.3672
20
73.5224
30
0.0
0
VERTEX
8
PATTERN
10
64.5330
20
73.2419
30
0.0
0
VERTEX
8
PATTERN
10
65.7253
20
73.1171
30
0.0
0
VERTEX
8
PATTERN
10
66.9226
20
73.1737
30
0.0
0
VERTEX
8
PATTERN
10
68.0941
20
73.4267
30
0.0
0
VERTEX
8
PATTERN
10
69.2118
20
73.8599
30
0.0
0
VERTEX
8
PATTERN
10
70.2620
20
74.4386
30
0.0
0
VERTEX
8
PATTERN
10
71.2465
20
75.1238
30
0.0
0
VERTEX
8
PATTERN
10
72.1775
20
75.8804
30
0.0
0
VERTEX
8
PATTERN
10
73.0707
20
76.6814
30
0.0
0
VERTEX
8
PATTERN
10
73.9403
20
77.5082
30
0.0
0
VERTEX
8
PATTERN
10
74.7968
20
78.3485
30
0.0
0
VERTEX
8
PATTERN
10
75.6499
20
79.1923
30
0.0
0
VERTEX
8
PATTERN
10
76.5150
20
80.0236
30
0.0
0
VERTEX
8
PATTERN
10
77.4218
20
80.8088
30
0.0
0
VERTEX
8
PATTERN
10
78.4223
20
81.4674
30
0.0
0
VERTEX
8
PATTERN
10
79.5655
20
81.7965
30
0.0
0
VERTEX
8
PATTERN
10
80.6559
20
81.3862
30
0.0
0
VERTEX
8
PATTERN
10
81.0708
20
80.2938
30
0.0
0
VERTEX
8
PATTERN
10
80.7821
20
79.1392
30
0.0
0
VERTEX
8
PATTERN
10
80.1520
20
78.1207
30
0.0
0
VERTEX
8
PATTERN
10
79.3822
20
77.2009
30
0.0
0
VERTEX
8
PATTERN
10
78.5573
20
76.3296
30
0.0
0
VERTEX
8
PATTERN
10
77.7114
20
75.4787
30
0.0
0
VERTEX
8
PATTERN
10
76.8557
20
74.6375
30
0.0
0
VERTEX
8
PATTERN
10
75.9903
20
73.8064
30
0.0
0
VERTEX
8
PATTERN
10
75.1087
20
72.9925
30
0.0
0
VERTEX
8
PATTERN
10
74.2005
20
72.2084
30
0.0
0
VERTEX
8
PATTERN
10
73.2552
20
71.4697
30
0.0
0
VERTEX
8
PATTERN
10
72.2664
20
70.7905
30
0.0
0
VERTEX
8
PATTERN
10
71.2341
20
70.1792
30
0.0
0
VERTEX
8
PATTERN
10
70.1617
20
69.6416
30
0.0
0
VERTEX
8
PATTERN
10
69.0499
20
69.1914
30
0.0
0
VERTEX
8
PATTERN
10
67.8974
20
68.8603
30
0.0
0
VERTEX
8
PATTERN
10
66.7108
20
68.6906
30
0.0
0
VERTEX
8
PATTERN
10
65.5122
20
68.7050
30
0.0
0
VERTEX
8
PATTERN
10
64.3257
20
68.8786
30
0.0
0
VERTEX
8
PATTERN
10
63.1591
20
69.1585
30
0.0
0
VERTEX
8
PATTERN
10
62.0106
20
69.5053
30
0.0
0
VERTEX
8
PATTERN
10
60.8832
20
69.9152
30
0.0
0
VERTEX
8
PATTERN
10
59.7896
20
70.4081
30
0.0
0
VERTEX
8
PATTERN
10
58.7457
20
70.9987
30
0.0
0
VERTEX
8
PATTERN
10
57.7532
20
71.6726
30
0.0
0
VERTEX
8
PATTERN
10
56.7893
20
72.3871
30
0.0
0
VERTEX
8
PATTERN
10
55.8139
20
73.0857
30
0.0
0
VERTEX
8
PATTERN
10
54.7871
20
73.7052
30
0.0
0
VERTEX
8
PATTERN
10
53.6859
20
74.1783
30
0.0
0
VERTEX
8
PATTERN
10
52.5173
20
74.4393
30
0.0
0
VERTEX
8
PATTERN
10
51.3216
20
74.4155
30
0.0
0
VERTEX
8
PATTERN
10
50.1872
20
74.0419
30
0.0
0
VERTEX
8
PATTERN
10
49.2294
20
73.3270
30
0.0
0
VERTEX
8
PATTERN
10
48.4829
20
72.3906
30
0.0
0
VERTEX
8
PATTERN
10
47.8961
20
71.3449
30
0.0
0
VERTEX
8
PATTERN
10
47.4177
20
70.2450
30
0.0
0
VERTEX
8
PATTERN
10
47.0230
20
69.1121
30
0.0
0
VERTEX
8
PATTERN
10
46.7038
20
67.9557
30
0.0
0
VERTEX
8
PATTERN
10
46.4498
20
66.7831
30
0.0
0
VERTEX
8
PATTERN
10
46.2373
20
65.6022
30
0.0
0
VERTEX
8
PATTERN
10
46.0283
20
64.4207
30
0.0
0
VERTEX
8
PATTERN
10
45.7749
20
63.2481
30
0.0
0
VERTEX
8
PATTERN
10
45.4284
20
62.0999
30
0.0
0
VERTEX
8
PATTERN
10
44.9552
20
60.9981
30
0.0
0
VERTEX
8
PATTERN
10
44.3524
20
59.9614
30
0.0
0
VERTEX
8
PATTERN
10
43.6485
20
58.9902
30
0.0
0
VERTEX
8
PATTERN
10
42.8849
20
58.0648
30
0.0
0
VERTEX
8
PATTERN
10
42.0935
20
57.1629
30
0.0
0
VERTEX
8
PATTERN
10
41.2803
20
56.2807
30
0.0
0
VERTEX
8
PATTERN
10
40.4161
20
55.4491
30
0.0
0
VERTEX
8
PATTERN
10
39.4471
20
54.7445
30
0.0
0
VERTEX
8
PATTERN
10
38.3516
20
54.2624
30
0.0
0
VERTEX
8
PATTERN
10
37.1785
20
54.0182
30
0.0
0
VERTEX
8
PATTERN
10
35.9839
20
53.9090
30
0.0
0
VERTEX
8
PATTERN
10
34.7873
20
53.8198
30
0.0
0
VERTEX
8
PATTERN
10
33.5959
20
53.6795
30
0.0
0
VERTEX
8
PATTERN
10
32.4145
20
53.4704
30
0.0
0
VERTEX
8
PATTERN
10
31.2422
20
53.2145
30
0.0
0
VERTEX
8
PATTERN
10
30.0707
20
52.9554
30
0.0
0
VERTEX
8
PATTERN
10
28.8890
20
52.7489
30
0.0
0
VERTEX
8
PATTERN
10
27.6933
20
52.6596
30
0.0
0
VERTEX
8
PATTERN
10
26.4983
20
52.7496
30
0.0
0
VERTEX
8
PATTERN
10
25.3372
20
53.0465
30
0.0
0
VERTEX
8
PATTERN
10
24.2274
20
53.5013
30
0.0
0
VERTEX
8
PATTERN
10
23.1467
20
54.0225
30
0.0
0
VERTEX
8
PATTERN
10
22.0528
20
54.5150
30
0.0
0
VERTEX
8
PATTERN
10
20.9165
20
54.8977
30
0.0
0
VERTEX
8
PATTERN
10
19.7374
20
55.1117
30
0.0
0
VERTEX
8
PATTERN
10
18.5398
20
55.1057
30
0.0
0
VERTEX
8
PATTERN
10
17.3828
20
54.8043
30
0.0
0
VERTEX
8
PATTERN
10
16.4069
20
54.1227
30
0.0
0
VERTEX
8
PATTERN
10
15.9239
20
53.0473
30
0.0
0
VERTEX
8
PATTERN
10
16.2787
20
51.9318
30
0.0
0
VERTEX
8
PATTERN
10
17.2341
20
51.2235
30
0.0
0
VERTEX
8
PATTERN
10
18.3540
20
50.7952
30
0.0
0
VERTEX
8
PATTERN
10
19.4628
20
50.3407
30
0.0
0
VERTEX
8
PATTERN
10
20.3380
20
49.5432
30
0.0
0
VERTEX
8
PATTERN
10
20.5340
20
48.3803
30
0.0
0
VERTEX
8
PATTERN
10
20.2014
20
47.2307
30
0.0
0
VERTEX
8
PATTERN
10
19.7297
20
46.1275
30
0.0
0
VERTEX
8
PATTERN
10
19.3756
20
44.9832
30
0.0
0
VERTEX
8
PATTERN
10
19.4405
20
43.7986
30
0.0
0
VERTEX
8
PATTERN
10
20.2203
20
42.9324
30
0.0
0
VERTEX
8
PATTERN
10
21.3960
20
42.8667
30
0.0
0
VERTEX
8
PATTERN
10
22.4775
20
43.3721
30
0.0
0
VERTEX
8
PATTERN
10
23.4136
20
44.1205
30
0.0
0
VERTEX
8
PATTERN
10
24.2748
20
44.9558
30
0.0
0
VERTEX
8
PATTERN
10
25.1333
20
45.7940
30
0.0
0
VERTEX
8
PATTERN
10
26.0454
20
46.5729
30
0.0
0
VERTEX
8
PATTERN
10
27.0379
20
47.2457
30
0.0
0
VERTEX
8
PATTERN
10
28.1042
20
47.7945
30
0.0
0
VERTEX
8
PATTERN
10
29.2198
20
48.2351
30
0.0
0
VERTEX
8
PATTERN
10
30.3636
20
48.5973
30
0.0
0
VERTEX
8
PATTERN
10
31.5245
20
48.8998
30
0.0
0
VERTEX
8
PATTERN
10
32.7006
20
49.1367
30
0.0
0
VERTEX
8
PATTERN
10
33.8917
20
49.2773
30
0.0
0
VERTEX
8
PATTERN
10
35.0907
20
49.2789
30
0.0
0
VERTEX
8
PATTERN
10
36.2797
20
49.1236
30
0.0
0
VERTEX
8
PATTERN
10
37.4477
20
48.8498
30
0.0
0
VERTEX
8
PATTERN
10
38.6115
20
48.5585
30
0.0
0
VERTEX
8
PATTERN
10
39.8001
20
48.4122
30
0.0
0
VERTEX
8
PATTERN
10
40.9733
20
48.6253
30
0.0
0
VERTEX
8
PATTERN
10
41.9714
20
49.2782
30
0.0
0
VERTEX
8
PATTERN
10
42.7352
20
50.2006
30
0.0
0
VERTEX
8
PATTERN
10
43.3660
20
51.2210
30
0.0
0
VERTEX
8
PATTERN
10
43.9729
20
52.2561
30
0.0
0
VERTEX
8
PATTERN
10
44.6260
20
53.2624
30
0.0
0
VERTEX
8
PATTERN
10
45.3460
20
54.2219
30
0.0
0
VERTEX
8
PATTERN
10
46.1154
20
55.1425
30
0.0
0
VERTEX
8
PATTERN
10
46.8974
20
56.0526
30
0.0
0
VERTEX
8
PATTERN
10
47.6497
20
56.9871
30
0.0
0
VERTEX
8
PATTERN
10
48.3335
20
57.9726
30
0.0
0
VERTEX
8
PATTERN
10
48.9187
20
59.0194
30
0.0
0
VERTEX
8
PATTERN
10
49.3880
20
60.1230
30
0.0
0
VERTEX
8
PATTERN
10
49.7396
20
61.2697
30
0.0
0
VERTEX
8
PATTERN
10
49.9908
20
62.4427
30
0.0
0
VERTEX
8
PATTERN
10
50.1777
20
63.6278
30
0.0
0
VERTEX
8
PATTERN
10
50.3476
20
64.8156
30
0.0
0
VERTEX
8
PATTERN
10
50.5505
20
65.9981
30
0.0
0
VERTEX
8
PATTERN
10
50.8426
20
67.1613
30
0.0
0
VERTEX
8
PATTERN
10
51.3057
20
68.2657
30
0.0
0
VERTEX
8
PATTERN
10
52.0932
20
69.1551
30
0.0
0
VERTEX
8
PATTERN
10
53.2401
20
69.2967
30
0.0
0
VERTEX
8
PATTERN
10
54.1344
20
68.5311
30
0.0
0
VERTEX
8
PATTERN
10
54.5643
20
67.4179
30
0.0
0
VERTEX
8
PATTERN
10
54.7068
20
66.2277
30
0.0
0
VERTEX
8
PATTERN
10
54.7840
20
65.0305
30
0.0
0
VERTEX
8
PATTERN
10
55.0319
20
63.8606
30
0.0
0
VERTEX
8
PATTERN
10
55.7386
20
62.9161
30
0.0
0
VERTEX
8
PATTERN
10
56.8869
20
62.7133
30
0.0
0
VERTEX
8
PATTERN
10
57.9409
20
63.2651
30
0.0
0
VERTEX
8
PATTERN
10
58.8327
20
64.0674
30
0.0
0
VERTEX
8
PATTERN
10
59.7917
20
64.7822
30
0.0
0
VERTEX
8
PATTERN
10
60.9490
20
65.0135
30
0.0
0
VERTEX
8
PATTERN
10
61.9692
20
64.4397
30
0.0
0
VERTEX
8
PATTERN
10
62.3920
20
63.3344
30
0.0
0
VERTEX
8
PATTERN
10
62.3282
20
62.1400
30
0.0
0
VERTEX
8
PATTERN
10
62.0629
20
60.9703
30
0.0
0
VERTEX
8
PATTERN
10
61.7641
20
59.8082
30
0.0
0
VERTEX
8
PATTERN
10
61.5264
20
58.6324
30
0.0
0
VERTEX
8
PATTERN
10
61.4004
20
57.4398
30
0.0
0
VERTEX
8
PATTERN
10
61.4025
20
56.2405
30
0.0
0
VERTEX
8
PATTERN
10
61.5299
20
55.0479
30
0.0
0
VERTEX
8
PATTERN
10
61.7709
20
53.8729
30
0.0
0
VERTEX
8
PATTERN
10
62.1026
20
52.7200
30
0.0
0
VERTEX
8
PATTERN
10
62.4916
20
51.5850
30
0.0
0
VERTEX
8
PATTERN
10
62.8955
20
50.4551
30
0.0
0
VERTEX
8
PATTERN
10
63.2612
20
49.3126
30
0.0
0
VERTEX
8
PATTERN
10
63.5112
20
48.1402
30
0.0
0
VERTEX
8
PATTERN
10
63.5075
20
46.9449
30
0.0
0
VERTEX
8
PATTERN
10
63.0233
20
45.8654
30
0.0
0
VERTEX
8
PATTERN
10
61.9681
20
45.3740
30
0.0
0
VERTEX
8
PATTERN
10
60.8696
20
45.7950
30
0.0
0
VERTEX
8
PATTERN
10
60.0922
20
46.7019
30
0.0
0
VERTEX
8
PATTERN
10
59.5282
20
47.7599
30
0.0
0
VERTEX
8
PATTERN
10
59.0500
20
48.8604
30
0.0
0
VERTEX
8
PATTERN
10
58.5915
20
49.9692
30
0.0
0
VERTEX
8
PATTERN
10
58.1377
20
51.0799
30
0.0
0
VERTEX
8
PATTERN
10
57.7125
20
52.2018
30
0.0
0
VERTEX
8
PATTERN
10
57.3528
20
53.3462
30
0.0
0
VERTEX
8
PATTERN
10
57.0616
20
54.5101
30
0.0
0
VERTEX
8
PATTERN
10
56.7580
20
55.6707
30
0.0
0
VERTEX
8
PATTERN
10
56.2508
20
56.7525
30
0.0
0
VERTEX
8
PATTERN
10
55.3116
20
57.4621
30
0.0
0
VERTEX
8
PATTERN
10
54.1415
20
57.3675
30
0.0
0
VERTEX
8
PATTERN
10
53.1868
20
56.6532
30
0.0
0
VERTEX
8
PATTERN
10
52.4212
20
55.7302
30
0.0
0
VERTEX
8
PATTERN
10
51.6828
20
54.7846
30
0.0
0
VERTEX
8
PATTERN
10
50.8887
20
53.8854
30
0.0
0
VERTEX
8
PATTERN
10
50.0489
20
53.0284
30
0.0
0
VERTEX
8
PATTERN
10
49.2201
20
52.1610
30
0.0
0
VERTEX
8
PATTERN
10
48.4670
20
51.2277
30
0.0
0
VERTEX
8
PATTERN
10
47.8368
20
50.2076
30
0.0
0
VERTEX
8
PATTERN
10
47.3187
20
49.1256
30
0.0
0
VERTEX
8
PATTERN
10
46.8388
20
48.0259
30
0.0
0
VERTEX
8
PATTERN
10
46.2867
20
46.9616
30
0.0
0
VERTEX
8
PATTERN
10
45.5719
20
46.0003
30
0.0
0
VERTEX
8
PATTERN
10
44.6893
20
45.1901
30
0.0
0
VERTEX
8
PATTERN
10
43.6900
20
44.5276
30
0.0
0
VERTEX
8
PATTERN
10
42.6197
20
43.9866
30
0.0
0
VERTEX
8
PATTERN
10
41.4952
20
43.5703
30
0.0
0
VERTEX
8
PATTERN
10
40.3218
20
43.3274
30
0.0
0
VERTEX
8
PATTERN
10
39.1246
20
43.3358
30
0.0
0
VERTEX
8
PATTERN
10
37.9553
20
43.5971
30
0.0
0
VERTEX
8
PATTERN
10
36.8268
20
44.0042
30
0.0
0
VERTEX
8
PATTERN
10
35.6951
20
44.4019
30
0.0
0
VERTEX
8
PATTERN
10
34.5237
20
44.6539
30
0.0
0
VERTEX
8
PATTERN
10
33.3262
20
44.6862
30
0.0
0
VERTEX
8
PATTERN
10
32.1415
20
44.5054
30
0.0
0
VERTEX
8
PATTERN
10
30.9972
20
44.1475
30
0.0
0
VERTEX
8
PATTERN
10
29.9112
20
43.6396
30
0.0
0
VERTEX
8
PATTERN
10
28.9017
20
42.9928
30
0.0
0
VERTEX
8
PATTERN
10
27.9886
20
42.2160
30
0.0
0
VERTEX
8
PATTERN
10
27.1961
20
41.3166
30
0.0
0
VERTEX
8
PATTERN
10
26.5786
20
40.2905
30
0.0
0
VERTEX
8
PATTERN
10
26.2651
20
39.1397
30
0.0
0
VERTEX
8
PATTERN
10
26.5610
20
38.0035
30
0.0
0
VERTEX
8
PATTERN
10
27.5919
20
37.4648
30
0.0
0
VERTEX
8
PATTERN
10
28.7646
20
37.6625
30
0.0
0
VERTEX
8
PATTERN
10
29.8328
20
38.2054
30
0.0
0
VERTEX
8
PATTERN
10
30.8513
20
38.8396
30
0.0
0
VERTEX
8
PATTERN
10
31.9143
20
39.3928
30
0.0
0
VERTEX
8
PATTERN
10
33.0811
20
39.6315
30
0.0
0
VERTEX
8
PATTERN
10
34.1533
20
39.1727
30
0.0
0
VERTEX
8
PATTERN
10
34.5204
20
38.0620
30
0.0
0
VERTEX
8
PATTERN
10
34.2325
20
36.9045
30
0.0
0
VERTEX
8
PATTERN
10
33.6474
20
35.8588
30
0.0
0
VERTEX
8
PATTERN
10
32.9352
20
34.8935
30
0.0
0
VERTEX
8
PATTERN
10
32.1816
20
33.9598
30
0.0
0
VERTEX
8
PATTERN
10
31.4523
20
33.0073
30
0.0
0
VERTEX
8
PATTERN
10
30.8233
20
31.9869
30
0.0
0
VERTEX
8
PATTERN
10
30.4143
20
30.8629
30
0.0
0
VERTEX
8
PATTERN
10
30.4092
20
29.6726
30
0.0
0
VERTEX
8
PATTERN
10
30.9748
20
28.6340
30
0.0
0
VERTEX
8
PATTERN
10
32.0380
20
28.1273
30
0.0
0
VERTEX
8
PATTERN
10
33.2012
20
28.3472
30
0.0
0
VERTEX
8
PATTERN
10
34.1645
20
29.0532
30
0.0
0
VERTEX
8
PATTERN
10
34.9470
20
29.9612
30
0.0
0
VERTEX
8
PATTERN
10
35.6487
20
30.9344
30
0.0
0
VERTEX
8
PATTERN
10
36.3379
20
31.9166
30
0.0
0
VERTEX
8
PATTERN
10
37.0380
20
32.8910
30
0.0
0
VERTEX
8
PATTERN
10
37.7415
20
33.8631
30
0.0
0
VERTEX
8
PATTERN
10
38.4363
20
34.8413
30
0.0
0
VERTEX
8
PATTERN
10
39.1325
20
35.8185
30
0.0
0
VERTEX
8
PATTERN
10
39.8704
20
36.7644
30
0.0
0
VERTEX
8
PATTERN
10
40.6969
20
37.6332
30
0.0
0
VERTEX
8
PATTERN
10
41.6268
20
38.3902
30
0.0
0
VERTEX
8
PATTERN
10
42.6347
20
39.0403
30
0.0
0
VERTEX
8
PATTERN
10
43.6840
20
39.6220
30
0.0
0
VERTEX
8
PATTERN
10
44.7481
20
40.1766
30
0.0
0
VERTEX
8
PATTERN
10
45.8132
20
40.7291
30
0.0
0
VERTEX
8
PATTERN
10
46.8736
20
41.2906
30
0.0
0
VERTEX
8
PATTERN
10
47.9222
20
41.8736
30
0.0
0
VERTEX
8
PATTERN
10
48.9370
20
42.5131
30
0.0
0
VERTEX
8
PATTERN
10
49.8607
20
43.2760
30
0.0
0
VERTEX
8
PATTERN
10
50.5836
20
44.2286
30
0.0
0
VERTEX
8
PATTERN
10
51.0429
20
45.3342
30
0.0
0
VERTEX
8
PATTERN
10
51.3548
20
46.4927
30
0.0
0
VERTEX
8
PATTERN
10
51.7268
20
47.6321
30
0.0
0
VERTEX
8
PATTERN
10
52.3992
20
48.6130
30
0.0
0
VERTEX
8
PATTERN
10
53.5098
20
48.9324
30
0.0
0
VERTEX
8
PATTERN
10
54.4939
20
48.2849
30
0.0
0
VERTEX
8
PATTERN
10
55.1247
20
47.2688
30
0.0
0
VERTEX
8
PATTERN
10
55.5504
20
46.1480
30
0.0
0
VERTEX
8
PATTERN
10
55.8416
20
44.9847
30
0.0
0
VERTEX
8
PATTERN
10
55.9788
20
43.7941
30
0.0
0
VERTEX
8
PATTERN
10
55.8666
20
42.6032
30
0.0
0
VERTEX
8
PATTERN
10
55.3902
20
41.5088
30
0.0
0
VERTEX
8
PATTERN
10
54.5892
20
40.6212
30
0.0
0
VERTEX
8
PATTERN
10
53.6121
20
39.9274
30
0.0
0
VERTEX
8
PATTERN
10
52.5606
20
39.3502
30
0.0
0
VERTEX
8
PATTERN
10
51.4833
20
38.8219
30
0.0
0
VERTEX
8
PATTERN
10
50.4014
20
38.3030
30
0.0
0
VERTEX
8
PATTERN
10
49.3234
20
37.7761
30
0.0
0
VERTEX
8
PATTERN
10
48.2526
20
37.2347
30
0.0
0
VERTEX
8
PATTERN
10
47.1935
20
36.6709
30
0.0
0
VERTEX
8
PATTERN
10
46.1569
20
36.0668
30
0.0
0
VERTEX
8
PATTERN
10
45.1631
20
35.3951
30
0.0
0
VERTEX
8
PATTERN
10
44.2382
20
34.6317
30
0.0
0
VERTEX
8
PATTERN
10
43.3977
20
33.7760
30
0.0
0
VERTEX
8
PATTERN
10
42.6289
20
32.8551
30
0.0
0
VERTEX
8
PATTERN
10
41.8999
20
31.9021
30
0.0
0
VERTEX
8
PATTERN
10
41.1946
20
30.9315
30
0.0
0
VERTEX
8
PATTERN
10
40.5417
20
29.9253
30
0.0
0
VERTEX
8
PATTERN
10
40.0400
20
28.8383
30
0.0
0
VERTEX
8
PATTERN
10
39.9344
20
27.6561
30
0.0
0
VERTEX
8
PATTERN
10
40.5875
20
26.6892
30
0.0
0
VERTEX
8
PATTERN
10
41.7195
20
26.3279
30
0.0
0
VERTEX
8
PATTERN
10
42.9181
20
26.3062
30
0.0
0
VERTEX
8
PATTERN
10
44.1175
20
26.3188
30
0.0
0
VERTEX
8
PATTERN
10
45.2999
20
26.1373
30
0.0
0
VERTEX
8
PATTERN
10
46.3519
20
25.5795
30
0.0
0
VERTEX
8
PATTERN
10
47.0136
20
24.5992
30
0.0
0
VERTEX
8
PATTERN
10
46.9491
20
23.4264
30
0.0
0
VERTEX
8
PATTERN
10
46.2022
20
22.5047
30
0.0
0
VERTEX
8
PATTERN
10
45.1606
20
21.9149
30
0.0
0
VERTEX
8
PATTERN
10
44.0442
20
21.4756
30
0.0
0
VERTEX
8
PATTERN
10
42.9470
20
20.9920
30
0.0
0
VERTEX
8
PATTERN
10
41.9885
20
20.2784
30
0.0
0
VERTEX
8
PATTERN
10
41.3682
20
19.2620
30
0.0
0
VERTEX
8
PATTERN
10
41.2038
20
18.0802
30
0.0
0
VERTEX
8
PATTERN
10
41.4119
20
16.9021
30
0.0
0
VERTEX
8
PATTERN
10
41.8757
20
15.7977
30
0.0
0
VERTEX
8
PATTERN
10
42.5436
20
14.8033
30
0.0
0
VERTEX
8
PATTERN
10
43.4174
20
13.9864
30
0.0
0
VERTEX
8
PATTERN
10
44.5178
20
13.5367
30
0.0
0
VERTEX
8
PATTERN
10
45.6854
20
13.7211
30
0.0
0
VERTEX
8
PATTERN
10
46.6345
20
14.4439
30
0.0
0
VERTEX
8
PATTERN
10
47.3794
20
15.3829
30
0.0
0
VERTEX
8
PATTERN
10
48.0429
20
16.3826
30
0.0
0
VERTEX
8
PATTERN
10
48.7055
20
17.3829
30
0.0
0
VERTEX
8
PATTERN
10
49.3948
20
18.3650
30
0.0
0
VERTEX
8
PATTERN
10
50.0967
20
19.3382
30
0.0
0
VERTEX
8
PATTERN
10
50.7790
20
20.3251
30
0.0
0
VERTEX
8
PATTERN
10
51.4166
20
21.3414
30
0.0
0
VERTEX
8
PATTERN
10
52.0135
20
22.3823
30
0.0
0
VERTEX
8
PATTERN
10
52.6137
20
23.4211
30
0.0
0
VERTEX
8
PATTERN
10
53.2876
20
24.4130
30
0.0
0
VERTEX
8
PATTERN
10
54.1002
20
25.2934
30
0.0
0
VERTEX
8
PATTERN
10
55.0725
20
25.9920
30
0.0
0
VERTEX
8
PATTERN
10
56.1851
20
26.4307
30
0.0
0
VERTEX
8
PATTERN
10
57.3757
20
26.5233
30
0.0
0
VERTEX
8
PATTERN
10
58.5207
20
26.1908
30
0.0
0
VERTEX
8
PATTERN
10
59.4391
20
25.4331
30
0.0
0
VERTEX
8
PATTERN
10
59.9548
20
24.3610
30
0.0
0
VERTEX
8
PATTERN
10
59.9772
20
23.1705
30
0.0
0
VERTEX
8
PATTERN
10
59.5478
20
22.0574
30
0.0
0
VERTEX
8
PATTERN
10
58.7997
20
21.1235
30
0.0
0
VERTEX
8
PATTERN
10
57.8814
20
20.3526
30
0.0
0
VERTEX
8
PATTERN
10
56.9094
20
19.6491
30
0.0
0
VERTEX
8
PATTERN
10
55.9564
20
18.9204
30
0.0
0
VERTEX
8
PATTERN
10
55.0685
20
18.1140
30
0.0
0
VERTEX
8
PATTERN
10
54.2621
20
17.2262
30
0.0
0
VERTEX
8
PATTERN
10
53.5307
20
16.2753
30
0.0
0
VERTEX
8
PATTERN
10
52.8673
20
15.2758
30
0.0
0
VERTEX
8
PATTERN
10
52.2831
20
14.2282
30
0.0
0
VERTEX
8
PATTERN
10
51.8187
20
13.1229
30
0.0
0
VERTEX
8
PATTERN
10
51.5615
20
11.9538
30
0.0
0
VERTEX
8
PATTERN
10
51.6757
20
10.7685
30
0.0
0
VERTEX
8
PATTERN
10
52.3944
20
9.8415
30
0.0
0
VERTEX
8
PATTERN
10
53.5553
20
9.6789
30
0.0
0
VERTEX
8
PATTERN
10
54.6235
20
10.2032
30
0.0
0
VERTEX
8
PATTERN
10
55.4728
20
11.0467
30
0.0
0
VERTEX
8
PATTERN
10
56.1797
20
12.0156
30
0.0
0
VERTEX
8
PATTERN
10
56.8536
20
13.0083
30
0.0
0
VERTEX
8
PATTERN
10
57.6021
20
13.9447
30
0.0
0
VERTEX
8
PATTERN
10
58.5285
20
14.7005
30
0.0
0
VERTEX
8
PATTERN
10
59.6581
20
15.0761
30
0.0
0
VERTEX
8
PATTERN
10
60.8428
20
14.9451
30
0.0
0
VERTEX
8
PATTERN
10
61.9255
20
14.4357
30
0.0
0
VERTEX
8
PATTERN
10
62.8854
20
13.7181
30
0.0
0
VERTEX
8
PATTERN
10
63.7272
20
12.8646
30
0.0
0
VERTEX
8
PATTERN
10
64.4186
20
11.8865
30
0.0
0
VERTEX
8
PATTERN
10
64.8401
20
10.7690
30
0.0
0
VERTEX
8
PATTERN
10
64.7572
20
9.5873
30
0.0
0
VERTEX
8
PATTERN
10
64.0251
20
8.6606
30
0.0
0
VERTEX
8
PATTERN
10
62.9341
20
8.1756
30
0.0
0
VERTEX
8
PATTERN
10
61.7636
20
7.9140
30
0.0
0
VERTEX
8
PATTERN
10
60.6003
20
7.6236
30
0.0
0
VERTEX
8
PATTERN
10
59.5366
20
7.0811
30
0.0
0
VERTEX
8
PATTERN
10
58.8209
20
6.1386
30
0.0
0
VERTEX
8
PATTERN
10
58.8109
20
4.9638
30
0.0
0
VERTEX
8
PATTERN
10
59.4926
20
3.9932
30
0.0
0
VERTEX
8
PATTERN
10
60.4919
20
3.3351
30
0.0
0
VERTEX
8
PATTERN
10
61.5886
20
2.8495
30
0.0
0
VERTEX
8
PATTERN
10
62.7065
20
2.4138
30
0.0
0
VERTEX
8
PATTERN
10
63.8241
20
1.9770
30
0.0
0
VERTEX
8
PATTERN
10
64.9514
20
1.5667
30
0.0
0
VERTEX
8
PATTERN
10
66.1190
20
1.3005
30
0.0
0
VERTEX
8
PATTERN
10
67.2973
20
1.4428
30
0.0
0
VERTEX
8
PATTERN
10
68.1870
20
2.2183
30
0.0
0
VERTEX
8
PATTERN
10
68.6582
20
3.3173
30
0.0
0
VERTEX
8
PATTERN
10
68.9510
20
4.4807
30
0.0
0
VERTEX
8
PATTERN
10
69.2251
20
5.6489
30
0.0
0
VERTEX
8
PATTERN
10
69.5207
20
6.8117
30
0.0
0
VERTEX
8
PATTERN
10
69.7951
20
7.9797
30
0.0
0
VERTEX
8
PATTERN
10
69.9661
20
9.1666
30
0.0
0
VERTEX
8
PATTERN
10
69.9658
20
10.3652
30
0.0
0
VERTEX
8
PATTERN
10
69.7797
20
11.5493
30
0.0
0
VERTEX
8
PATTERN
10
69.4195
20
12.6927
30
0.0
0
VERTEX
8
PATTERN
10
68.8939
20
13.7700
30
0.0
0
VERTEX
8
PATTERN
10
68.2191
20
14.7611
30
0.0
0
VERTEX
8
PATTERN
10
67.4368
20
15.6703
30
0.0
0
VERTEX
8
PATTERN
10
66.6111
20
16.5409
30
0.0
0
VERTEX
8
PATTERN
10
65.8206
20
17.4430
30
0.0
0
VERTEX
8
PATTERN
10
65.1673
20
18.4469
30
0.0
0
VERTEX
8
PATTERN
10
64.7628
20
19.5727
30
0.0
0
VERTEX
8
PATTERN
10
64.6416
20
20.7639
30
0.0
0
VERTEX
8
PATTERN
10
64.7118
20
21.9611
30
0.0
0
VERTEX
8
PATTERN
10
64.8515
20
23.1528
30
0.0
0
VERTEX
8
PATTERN
10
64.9514
20
24.3482
30
0.0
0
VERTEX
8
PATTERN
10
64.9091
20
25.5458
30
0.0
0
VERTEX
8
PATTERN
10
64.6170
20
26.7060
30
0.0
0
VERTEX
8
PATTERN
10
64.0230
20
27.7440
30
0.0
0
VERTEX
8
PATTERN
10
63.1953
20
28.6102
30
0.0
0
VERTEX
8
PATTERN
10
62.2544
20
29.3540
30
0.0
0
VERTEX
8
PATTERN
10
61.2634
20
30.0302
30
0.0
0
VERTEX
8
PATTERN
10
60.2322
20
30.6431
30
0.0
0
VERTEX
8
PATTERN
10
59.1389
20
31.1346
30
0.0
0
VERTEX
8
PATTERN
10
57.9721
20
31.4018
30
0.0
0
VERTEX
8
PATTERN
10
56.7751
20
31.3851
30
0.0
0
VERTEX
8
PATTERN
10
55.6034
20
31.1327
30
0.0
0
VERTEX
8
PATTERN
10
54.4695
20
30.7411
30
0.0
0
VERTEX
8
PATTERN
10
53.3526
20
30.3028
30
0.0
0
VERTEX
8
PATTERN
10
52.2193
20
29.9103
30
0.0
0
VERTEX
8
PATTERN
10
51.0424
20
29.6904
30
0.0
0
VERTEX
8
PATTERN
10
49.8592
20
29.8301
30
0.0
0
VERTEX
8
PATTERN
10
48.9158
20
30.5339
30
0.0
0
VERTEX
8
PATTERN
10
48.7649
20
31.6852
30
0.0
0
VERTEX
8
PATTERN
10
49.3973
20
32.6909
30
0.0
0
VERTEX
8
PATTERN
10
50.3289
20
33.4437
30
0.0
0
VERTEX
8
PATTERN
10
51.3608
20
34.0548
30
0.0
0
VERTEX
8
PATTERN
10
52.4345
20
34.5902
30
0.0
0
VERTEX
8
PATTERN
10
53.5272
20
35.0858
30
0.0
0
VERTEX
8
PATTERN
10
54.6261
20
35.5675
30
0.0
0
VERTEX
8
PATTERN
10
55.7162
20
36.0689
30
0.0
0
VERTEX
8
PATTERN
10
56.7752
20
36.6323
30
0.0
0
VERTEX
8
PATTERN
10
57.7801
20
37.2872
30
0.0
0
VERTEX
8
PATTERN
10
58.7297
20
38.0202
30
0.0
0
VERTEX
8
PATTERN
10
59.6635
20
38.7736
30
0.0
0
VERTEX
8
PATTERN
10
60.6410
20
39.4687
30
0.0
0
VERTEX
8
PATTERN
10
61.6916
20
40.0467
30
0.0
0
VERTEX
8
PATTERN
10
62.7967
20
40.5134
30
0.0
0
VERTEX
8
PATTERN
10
63.9164
20
40.9446
30
0.0
0
VERTEX
8
PATTERN
10
65.0035
20
41.4505
30
0.0
0
VERTEX
8
PATTERN
10
65.9954
20
42.1219
30
0.0
0
VERTEX
8
PATTERN
10
66.8271
20
42.9835
30
0.0
0
VERTEX
8
PATTERN
10
67.4692
20
43.9949
30
0.0
0
VERTEX
8
PATTERN
10
67.9189
20
45.1055
30
0.0
0
VERTEX
8
PATTERN
10
68.1587
20
46.2793
30
0.0
0
VERTEX
8
PATTERN
10
68.1691
20
47.4772
30
0.0
0
VERTEX
8
PATTERN
10
67.9705
20
48.6591
30
0.0
0
VERTEX
8
PATTERN
10
67.6246
20
49.8075
30
0.0
0
VERTEX
8
PATTERN
10
67.2039
20
50.9312
30
0.0
0
VERTEX
8
PATTERN
10
66.7686
20
52.0493
30
0.0
0
VERTEX
8
PATTERN
10
66.3651
20
53.1792
30
0.0
0
VERTEX
8
PATTERN
10
66.0337
20
54.3321
30
0.0
0
VERTEX
8
PATTERN
10
65.8132
20
55.5109
30
0.0
0
VERTEX
8
PATTERN
10
65.7367
20
56.7074
30
0.0
0
VERTEX
8
PATTERN
10
65.8196
20
57.9035
30
0.0
0
VERTEX
8
PATTERN
10
66.0512
20
59.0800
30
0.0
0
VERTEX
8
PATTERN
10
66.4072
20
60.2253
30
0.0
0
VERTEX
8
PATTERN
10
66.8743
20
61.3300
30
0.0
0
VERTEX
8
PATTERN
10
67.4661
20
62.3727
30
0.0
0
VERTEX
8
PATTERN
10
68.2063
20
63.3151
30
0.0
0
VERTEX
8
PATTERN
10
69.0939
20
64.1205
30
0.0
0
VERTEX
8
PATTERN
10
70.0880
20
64.7913
30
0.0
0
VERTEX
8
PATTERN
10
71.1359
20
65.3755
30
0.0
0
VERTEX
8
PATTERN
10
72.2006
20
65.9287
30
0.0
0
VERTEX
8
PATTERN
10
73.2573
20
66.4971
30
0.0
0
VERTEX
8
PATTERN
10
74.2857
20
67.1148
30
0.0
0
VERTEX
8
PATTERN
10
75.2694
20
67.8013
30
0.0
0
VERTEX
8
PATTERN
10
76.2000
20
68.5582
30
0.0
0
VERTEX
8
PATTERN
10
77.0831
20
69.3703
30
0.0
0
VERTEX
8
PATTERN
10
77.9360
20
70.2143
30
0.0
0
VERTEX
8
PATTERN
10
78.7789
20
71.0682
30
0.0
0
VERTEX
8
PATTERN
10
79.6263
20
71.9177
30
0.0
0
VERTEX
8
PATTERN
10
80.4840
20
72.7568
30
0.0
0
VERTEX
8
PATTERN
10
81.3517
20
73.5855
30
0.0
0
VERTEX
8
PATTERN
10
82.2278
20
74.4054
30
0.0
0
VERTEX
8
PATTERN
10
83.1153
20
75.2129
30
0.0
0
VERTEX
8
PATTERN
10
84.0296
20
75.9897
30
0.0
0
VERTEX
8
PATTERN
10
85.0062
20
76.6856
30
0.0
0
VERTEX
8
PATTERN
10
86.0897
20
77.1939
30
0.0
0
VERTEX
8
PATTERN
10
87.2744
20
77.2983
30
0.0
0
VERTEX
8
PATTERN
10
88.3058
20
76.7395
30
0.0
0
VERTEX
8
PATTERN
10
88.6385
20
75.6200
30
0.0
0
VERTEX
8
PATTERN
10
88.2217
20
74.5071
30
0.0
0
VERTEX
8
PATTERN
10
87.4627
20
73.5810
30
0.0
0
VERTEX
8
PATTERN
10
86.5801
20
72.7688
30
0.0
0
VERTEX
8
PATTERN
10
85.6621
20
71.9961
30
0.0
0
VERTEX
8
PATTERN
10
84.7469
20
71.2203
30
0.0
0
VERTEX
8
PATTERN
10
83.8509
20
70.4222
30
0.0
0
VERTEX
8
PATTERN
10
82.9811
20
69.5957
30
0.0
0
VERTEX
8
PATTERN
10
82.1399
20
68.7402
30
0.0
0
VERTEX
8
PATTERN
10
81.3240
20
67.8605
30
0.0
0
VERTEX
8
PATTERN
10
80.5188
20
66.9709
30
0.0
0
VERTEX
8
PATTERN
10
79.6968
20
66.0969
30
0.0
0
VERTEX
8
PATTERN
10
78.8264
20
65.2714
30
0.0
0
VERTEX
8
PATTERN
10
77.8897
20
64.5222
30
0.0
0
VERTEX
8
PATTERN
10
76.8931
20
63.8544
30
0.0
0
VERTEX
8
PATTERN
10
75.8583
20
63.2472
30
0.0
0
VERTEX
8
PATTERN
10
74.8096
20
62.6642
30
0.0
0
VERTEX
8
PATTERN
10
73.7714
20
62.0629
30
0.0
0
VERTEX
8
PATTERN
10
72.7736
20
61.3973
30
0.0
0
VERTEX
8
PATTERN
10
71.8595
20
60.6218
30
0.0
0
VERTEX
8
PATTERN
10
71.0881
20
59.7052
30
0.0
0
VERTEX
8
PATTERN
10
70.5213
20
58.6505
30
0.0
0
VERTEX
8
PATTERN
10
70.1913
20
57.4994
30
0.0
0
VERTEX
8
PATTERN
10
70.1016
20
56.3049
30
0.0
0
VERTEX
8
PATTERN
10
70.2274
20
55.1131
30
0.0
0
VERTEX
8
PATTERN
10
70.5289
20
53.9527
30
0.0
0
VERTEX
8
PATTERN
10
70.9798
20
52.8418
30
0.0
0
VERTEX
8
PATTERN
10
71.5842
20
51.8068
30
0.0
0
VERTEX
8
PATTERN
10
72.3762
20
50.9090
30
0.0
0
VERTEX
8
PATTERN
10
73.3644
20
50.2349
30
0.0
0
VERTEX
8
PATTERN
10
74.4831
20
49.8056
30
0.0
0
VERTEX
8
PATTERN
10
75.6439
20
49.5018
30
0.0
0
VERTEX
8
PATTERN
10
76.7774
20
49.1140
30
0.0
0
VERTEX
8
PATTERN
10
77.6981
20
48.3684
30
0.0
0
VERTEX
8
PATTERN
10
77.9075
20
47.2222
30
0.0
0
VERTEX
8
PATTERN
10
77.2490
20
46.2449
30
0.0
0
VERTEX
8
PATTERN
10
76.2041
20
45.6642
30
0.0
0
VERTEX
8
PATTERN
10
75.0781
20
45.2502
30
0.0
0
VERTEX
8
PATTERN
10
73.9758
20
44.7788
30
0.0
0
VERTEX
8
PATTERN
10
72.9853
20
44.1067
30
0.0
0
VERTEX
8
PATTERN
10
72.1759
20
43.2240
30
0.0
0
VERTEX
8
PATTERN
10
71.5205
20
42.2198
30
0.0
0
VERTEX
8
PATTERN
10
70.9318
20
41.1742
30
0.0
0
VERTEX
8
PATTERN
10
70.3214
20
40.1414
30
0.0
0
VERTEX
8
PATTERN
10
69.6140
20
39.1734
30
0.0
0
VERTEX
8
PATTERN
10
68.7590
20
38.3343
30
0.0
0
VERTEX
8
PATTERN
10
67.7565
20
37.6786
30
0.0
0
VERTEX
8
PATTERN
10
66.6599
20
37.1940
30
0.0
0
VERTEX
8
PATTERN
10
65.5300
20
36.7905
30
0.0
0
VERTEX
8
PATTERN
10
64.4326
20
36.3092
30
0.0
0
VERTEX
8
PATTERN
10
63.5639
20
35.5047
30
0.0
0
VERTEX
8
PATTERN
10
63.5427
20
34.3499
30
0.0
0
VERTEX
8
PATTERN
10
64.3336
20
33.4659
30
0.0
0
VERTEX
8
PATTERN
10
65.4157
20
32.9604
30
0.0
0
VERTEX
8
PATTERN
10
66.5984
20
32.7808
30
0.0
0
VERTEX
8
PATTERN
10
67.7912
20
32.8867
30
0.0
0
VERTEX
8
PATTERN
10
68.9447
20
33.2123
30
0.0
0
VERTEX
8
PATTERN
10
70.0450
20
33.6896
30
0.0
0
VERTEX
8
PATTERN
10
71.0914
20
34.2757
30
0.0
0
VERTEX
8
PATTERN
10
72.0681
20
34.9713
30
0.0
0
VERTEX
8
PATTERN
10
72.9322
20
35.8016
30
0.0
0
VERTEX
8
PATTERN
10
73.6399
20
36.7687
30
0.0
0
VERTEX
8
PATTERN
10
74.2205
20
37.8182
30
0.0
0
VERTEX
8
PATTERN
10
74.7833
20
38.8777
30
0.0
0
VERTEX
8
PATTERN
10
75.4902
20
39.8432
30
0.0
0
VERTEX
8
PATTERN
10
76.5171
20
40.4208
30
0.0
0
VERTEX
8
PATTERN
10
77.6005
20
40.0285
30
0.0
0
VERTEX
8
PATTERN
10
78.1540
20
38.9780
30
0.0
0
VERTEX
8
PATTERN
10
78.3300
20
37.7937
30
0.0
0
VERTEX
8
PATTERN
10
78.3159
20
36.5946
30
0.0
0
VERTEX
8
PATTERN
10
78.1772
20
35.4033
30
0.0
0
VERTEX
8
PATTERN
10
77.9010
20
34.2368
30
0.0
0
VERTEX
8
PATTERN
10
77.4123
20
33.1445
30
0.0
0
VERTEX
8
PATTERN
10
76.6398
20
32.2326
30
0.0
0
VERTEX
8
PATTERN
10
75.6504
20
31.5580
30
0.0
0
VERTEX
8
PATTERN
10
74.5760
20
31.0245
30
0.0
0
VERTEX
8
PATTERN
10
73.4932
20
30.5077
30
0.0
0
VERTEX
8
PATTERN
10
72.4495
20
29.9170
30
0.0
0
VERTEX
8
PATTERN
10
71.4939
20
29.1936
30
0.0
0
VERTEX
8
PATTERN
10
70.6921
20
28.3041
30
0.0
0
VERTEX
8
PATTERN
10
70.1014
20
27.2626
30
0.0
0
VERTEX
8
PATTERN
10
69.7210
20
26.1260
30
0.0
0
VERTEX
8
PATTERN
10
69.4978
20
24.9476
30
0.0
0
VERTEX
8
PATTERN
10
69.3789
20
23.7539
30
0.0
0
VERTEX
8
PATTERN
10
69.3634
20
22.5547
30
0.0
0
VERTEX
8
PATTERN
10
69.5194
20
21.3670
30
0.0
0
VERTEX
8
PATTERN
10
69.9965
20
20.2744
30
0.0
0
VERTEX
8
PATTERN
10
70.9413
20
19.5734
30
0.0
0
VERTEX
8
PATTERN
10
72.1019
20
19.7080
30
0.0
0
VERTEX
8
PATTERN
10
72.9363
20
20.5501
30
0.0
0
VERTEX
8
PATTERN
10
73.3980
20
21.6535
30
0.0
0
VERTEX
8
PATTERN
10
73.6757
20
22.8204
30
0.0
0
VERTEX
8
PATTERN
10
73.9508
20
23.9880
30
0.0
0
VERTEX
8
PATTERN
10
74.3929
20
25.1005
30
0.0
0
VERTEX
8
PATTERN
10
75.1637
20
26.0074
30
0.0
0
VERTEX
8
PATTERN
10
76.2826
20
26.3619
30
0.0
0
VERTEX
8
PATTERN
10
77.3015
20
25.7976
30
0.0
0
VERTEX
8
PATTERN
10
77.8092
20
24.7203
30
0.0
0
VERTEX
8
PATTERN
10
78.0051
20
23.5381
30
0.0
0
VERTEX
8
PATTERN
10
78.0540
20
22.3396
30
0.0
0
VERTEX
8
PATTERN
10
78.0187
20
21.1405
30
0.0
0
VERTEX
8
PATTERN
10
77.8926
20
19.9478
30
0.0
0
VERTEX
8
PATTERN
10
77.6230
20
18.7799
30
0.0
0
VERTEX
8
PATTERN
10
77.1457
20
17.6815
30
0.0
0
VERTEX
8
PATTERN
10
76.4695
20
16.6921
30
0.0
0
VERTEX
8
PATTERN
10
75.6965
20
15.7745
30
0.0
0
VERTEX
8
PATTERN
10
74.9908
20
14.8062
30
0.0
0
VERTEX
8
PATTERN
10
74.6120
20
13.6780
30
0.0
0
VERTEX
8
PATTERN
10
74.7839
20
12.5013
30
0.0
0
VERTEX
8
PATTERN
10
75.3341
20
11.4377
30
0.0
0
VERTEX
8
PATTERN
10
75.9839
20
10.4292
30
0.0
0
VERTEX
8
PATTERN
10
76.4943
20
9.3473
30
0.0
0
VERTEX
8
PATTERN
10
76.5430
20
8.1627
30
0.0
0
VERTEX
8
PATTERN
10
76.0337
20
7.0851
30
0.0
0
VERTEX
8
PATTERN
10
75.2764
20
6.1551
30
0.0
0
VERTEX
8
PATTERN
10
74.5191
20
5.2253
30
0.0
0
VERTEX
8
PATTERN
10
73.9325
20
4.1820
30
0.0
0
VERTEX
8
PATTERN
10
73.6541
20
3.0196
30
0.0
0
VERTEX
8
PATTERN
10
73.7440
20
1.8288
30
0.0
0
VERTEX
8
PATTERN
10
74.2456
20
0.7486
30
0.0
0
VERTEX
8
PATTERN
10
75.1901
20
0.0375
30
0.0
0
VERTEX
8
PATTERN
10
76.3707
20
0.0000
30
0.0
0
VERTEX
8
PATTERN
10
77.4359
20
0.5369
30
0.0
0
VERTEX
8
PATTERN
10
78.3234
20
1.3418
30
0.0
0
VERTEX
8
PATTERN
10
79.1087
20
2.2487
30
0.0
0
VERTEX
8
PATTERN
10
79.8436
20
3.1970
30
0.0
0
VERTEX
8
PATTERN
10
80.5290
20
4.1816
30
0.0
0
VERTEX
8
PATTERN
10
81.1194
20
5.2253
30
0.0
0
VERTEX
8
PATTERN
10
81.5479
20
6.3445
30
0.0
0
VERTEX
8
PATTERN
10
81.7630
20
7.5231
30
0.0
0
VERTEX
8
PATTERN
10
81.7698
20
8.7216
30
0.0
0
VERTEX
8
PATTERN
10
81.6201
20
9.9116
30
0.0
0
VERTEX
8
PATTERN
10
81.4039
20
11.0918
30
0.0
0
VERTEX
8
PATTERN
10
81.2383
20
12.2797
30
0.0
0
VERTEX
8
PATTERN
10
81.2281
20
13.4782
30
0.0
0
VERTEX
8
PATTERN
10
81.3998
20
14.6649
30
0.0
0
VERTEX
8
PATTERN
10
81.6712
20
15.8336
30
0.0
0
VERTEX
8
PATTERN
10
81.9426
20
17.0023
30
0.0
0
VERTEX
8
PATTERN
10
82.1487
20
18.1841
30
0.0
0
VERTEX
8
PATTERN
10
82.2723
20
19.3774
30
0.0
0
VERTEX
8
PATTERN
10
82.3304
20
20.5757
30
0.0
0
VERTEX
8
PATTERN
10
82.3475
20
21.7755
30
0.0
0
VERTEX
8
PATTERN
10
82.3374
20
22.9753
30
0.0
0
VERTEX
8
PATTERN
10
82.2997
20
24.1745
30
0.0
0
VERTEX
8
PATTERN
10
82.2279
20
25.3722
30
0.0
0
VERTEX
8
PATTERN
10
82.1266
20
26.5678
30
0.0
0
VERTEX
8
PATTERN
10
82.0230
20
27.7632
30
0.0
0
VERTEX
8
PATTERN
10
81.9614
20
28.9614
30
0.0
0
VERTEX
8
PATTERN
10
81.9761
20
30.1609
30
0.0
0
VERTEX
8
PATTERN
10
82.0652
20
31.3573
30
0.0
0
VERTEX
8
PATTERN
10
82.1932
20
32.5503
30
0.0
0
VERTEX
8
PATTERN
10
82.3195
20
33.7435
30
0.0
0
VERTEX
8
PATTERN
10
82.4201
20
34.9392
30
0.0
0
VERTEX
8
PATTERN
10
82.4882
20
36.1371
30
0.0
0
VERTEX
8
PATTERN
10
82.5239
20
37.3364
30
0.0
0
VERTEX
8
PATTERN
10
82.5265
20
38.5362
30
0.0
0
VERTEX
8
PATTERN
10
82.4982
20
39.7358
30
0.0
0
VERTEX
8
PATTERN
10
82.4512
20
40.9347
30
0.0
0
VERTEX
8
PATTERN
10
82.4098
20
42.1339
30
0.0
0
VERTEX
8
PATTERN
10
82.3997
20
43.3337
30
0.0
0
VERTEX
8
PATTERN
10
82.4304
20
44.5331
30
0.0
0
VERTEX
8
PATTERN
10
82.4859
20
45.7317
30
0.0
0
VERTEX
8
PATTERN
10
82.5340
20
46.9306
30
0.0
0
VERTEX
8
PATTERN
10
82.5484
20
48.1303
30
0.0
0
VERTEX
8
PATTERN
10
82.5306
20
49.3301
30
0.0
0
VERTEX
8
PATTERN
10
82.5091
20
50.5298
30
0.0
0
VERTEX
8
PATTERN
10
82.5118
20
51.7296
30
0.0
0
VERTEX
8
PATTERN
10
82.5234
20
52.9294
30
0.0
0
VERTEX
8
PATTERN
10
82.4452
20
54.1255
30
0.0
0
VERTEX
8
PATTERN
10
82.0234
20
55.2351
30
0.0
0
VERTEX
8
PATTERN
10
80.9857
20
55.7493
30
0.0
0
VERTEX
8
PATTERN
10
79.8197
20
55.5059
30
0.0
0
VERTEX
8
PATTERN
10
78.7296
20
55.0054
30
0.0
0
VERTEX
8
PATTERN
10
77.6266
20
54.5358
30
0.0
0
VERTEX
8
PATTERN
10
76.4479
20
54.3572
30
0.0
0
VERTEX
8
PATTERN
10
75.3512
20
54.7889
30
0.0
0
VERTEX
8
PATTERN
10
74.8015
20
55.8259
30
0.0
0
VERTEX
8
PATTERN
10
74.9934
20
56.9941
30
0.0
0
VERTEX
8
PATTERN
10
75.6840
20
57.9683
30
0.0
0
VERTEX
8
PATTERN
10
76.6088
20
58.7298
30
0.0
0
VERTEX
8
PATTERN
10
77.6349
20
59.3506
30
0.0
0
VERTEX
8
PATTERN
10
78.7039
20
59.8951
30
0.0
0
VERTEX
8
PATTERN
10
79.7793
20
60.4274
30
0.0
0
VERTEX
8
PATTERN
10
80.8194
20
61.0246
30
0.0
0
VERTEX
8
PATTERN
10
81.7686
20
61.7563
30
0.0
0
VERTEX
8
PATTERN
10
82.5837
20
62.6351
30
0.0
0
VERTEX
8
PATTERN
10
83.2913
20
63.6037
30
0.0
0
VERTEX
8
PATTERN
10
83.9676
20
64.5948
30
0.0
0
VERTEX
8
PATTERN
10
84.6787
20
65.5611
30
0.0
0
VERTEX
8
PATTERN
10
85.4572
20
66.4737
30
0.0
0
VERTEX
8
PATTERN
10
86.3083
20
67.3190
30
0.0
0
VERTEX
8
PATTERN
10
87.2257
20
68.0918
30
0.0
0
VERTEX
8
PATTERN
10
88.2070
20
68.7815
30
0.0
0
VERTEX
8
PATTERN
10
89.2570
20
69.3605
30
0.0
0
VERTEX
8
PATTERN
10
90.3808
20
69.7759
30
0.0
0
VERTEX
8
PATTERN
10
91.5633
20
69.9653
30
0.0
0
VERTEX
8
PATTERN
10
92.7601
20
69.9101
30
0.0
0
VERTEX
8
PATTERN
10
93.9395
20
69.6915
30
0.0
0
VERTEX
8
PATTERN
10
95.1142
20
69.4479
30
0.0
0
VERTEX
8
PATTERN
10
96.3084
20
69.3886
30
0.0
0
VERTEX
8
PATTERN
10
97.3511
20
69.9136
30
0.0
0
VERTEX
8
PATTERN
10
97.5702
20
71.0555
30
0.0
0
VERTEX
8
PATTERN
10
97.0696
20
72.1357
30
0.0
0
VERTEX
8
PATTERN
10
96.2802
20
73.0372
30
0.0
0
VERTEX
8
PATTERN
10
95.4231
20
73.8767
30
0.0
0
VERTEX
8
PATTERN
10
94.6813
20
74.8152
30
0.0
0
VERTEX
8
PATTERN
10
94.4368
20
75.9646
30
0.0
0
VERTEX
8
PATTERN
10
95.1249
20
76.9025
30
0.0
0
VERTEX
8
PATTERN
10
96.2718
20
77.2022
30
0.0
0
VERTEX
8
PATTERN
10
97.4496
20
77.0059
30
0.0
0
VERTEX
8
PATTERN
10
98.5300
20
76.4902
30
0.0
0
VERTEX
8
PATTERN
10
99.4912
20
75.7743
30
0.0
0
VERTEX
8
PATTERN
10
100.3355
20
74.9230
30
0.0
0
VERTEX
8
PATTERN
10
101.0565
20
73.9653
30
0.0
0
VERTEX
8
PATTERN
10
101.6231
20
72.9094
30
0.0
0
VERTEX
8
PATTERN
10
101.9900
20
71.7690
30
0.0
0
VERTEX
8
PATTERN
10
102.1286
20
70.5790
30
0.0
0
VERTEX
8
PATTERN
10
102.0684
20
69.3818
30
0.0
0
VERTEX
8
PATTERN
10
101.8788
20
68.1973
30
0.0
0
VERTEX
8
PATTERN
10
101.6462
20
67.0202
30
0.0
0
VERTEX
8
PATTERN
10
101.4530
20
65.8362
30
0.0
0
VERTEX
8
PATTERN
10
101.3581
20
64.6405
30
0.0
0
VERTEX
8
PATTERN
10
101.3714
20
63.4410
30
0.0
0
VERTEX
8
PATTERN
10
101.4580
20
62.2443
30
0.0
0
VERTEX
8
PATTERN
10
101.5688
20
61.0496
30
0.0
0
VERTEX
8
PATTERN
10
101.6668
20
59.8537
30
0.0
0
VERTEX
8
PATTERN
10
101.7375
20
58.6560
30
0.0
0
VERTEX
8
PATTERN
10
101.7847
20
57.4570
30
0.0
0
VERTEX
8
PATTERN
10
101.8207
20
56.2577
30
0.0
0
VERTEX
8
PATTERN
10
101.8587
20
55.0584
30
0.0
0
VERTEX
8
PATTERN
10
101.9072
20
53.8595
30
0.0
0
VERTEX
8
PATTERN
10
101.9649
20
52.6610
30
0.0
0
VERTEX
8
PATTERN
10
102.0186
20
51.4623
30
0.0
0
VERTEX
8
PATTERN
10
102.0470
20
50.2628
30
0.0
0
VERTEX
8
PATTERN
10
102.0344
20
49.0631
30
0.0
0
VERTEX
8
PATTERN
10
101.9834
20
47.8643
30
0.0
0
VERTEX
8
PATTERN
10
101.9162
20
46.6663
30
0.0
0
VERTEX
8
PATTERN
10
101.8619
20
45.4677
30
0.0
0
VERTEX
8
PATTERN
10
101.8408
20
44.2681
30
0.0
0
VERTEX
8
PATTERN
10
101.8564
20
43.0683
30
0.0
0
VERTEX
8
PATTERN
10
101.8974
20
41.8691
30
0.0
0
VERTEX
8
PATTERN
10
101.9449
20
40.6702
30
0.0
0
VERTEX
8
PATTERN
10
101.9813
20
39.4709
30
0.0
0
VERTEX
8
PATTERN
10
101.9956
20
38.2711
30
0.0
0
VERTEX
8
PATTERN
10
101.9862
20
37.0713
30
0.0
0
VERTEX
8
PATTERN
10
101.9614
20
35.8717
30
0.0
0
VERTEX
8
PATTERN
10
101.9351
20
34.6721
30
0.0
0
VERTEX
8
PATTERN
10
101.9220
20
33.4723
30
0.0
0
VERTEX
8
PATTERN
10
101.9320
20
32.2724
30
0.0
0
VERTEX
8
PATTERN
10
101.9670
20
31.0731
30
0.0
0
VERTEX
8
PATTERN
10
102.0191
20
29.8743
30
0.0
0
VERTEX
8
PATTERN
10
102.0744
20
28.6757
30
0.0
0
VERTEX
8
PATTERN
10
102.1190
20
27.4767
30
0.0
0
VERTEX
8
PATTERN
10
102.1460
20
26.2771
30
0.0
0
VERTEX
8
PATTERN
10
102.1576
20
25.0773
30
0.0
0
VERTEX
8
PATTERN
10
102.1612
20
23.8774
30
0.0
0
VERTEX
8
PATTERN
10
102.1656
20
22.6775
30
0.0
0
VERTEX
8
PATTERN
10
102.1841
20
21.4778
30
0.0
0
VERTEX
8
PATTERN
10
102.2476
20
20.2798
30
0.0
0
VERTEX
8
PATTERN
10
102.4250
20
19.0943
30
0.0
0
VERTEX
8
PATTERN
10
102.8417
20
17.9741
30
0.0
0
VERTEX
8
PATTERN
10
103.6560
20
17.1116
30
0.0
0
VERTEX
8
PATTERN
10
104.8068
20
16.8568
30
0.0
0
VERTEX
8
PATTERN
10
105.8836
20
17.3396
30
0.0
0
VERTEX
8
PATTERN
10
106.5402
20
18.3287
30
0.0
0
VERTEX
8
PATTERN
10
106.7667
20
19.5028
30
0.0
0
VERTEX
8
PATTERN
10
106.7449
20
20.7016
30
0.0
0
VERTEX
8
PATTERN
10
106.6371
20
21.8967
30
0.0
0
VERTEX
8
PATTERN
10
106.5353
20
23.0922
30
0.0
0
VERTEX
8
PATTERN
10
106.4758
20
24.2905
30
0.0
0
VERTEX
8
PATTERN
10
106.4508
20
25.4901
30
0.0
0
VERTEX
8
PATTERN
10
106.4296
20
26.6898
30
0.0
0
VERTEX
8
PATTERN
10
106.3843
20
27.8888
30
0.0
0
VERTEX
8
PATTERN
10
106.3093
20
29.0863
30
0.0
0
VERTEX
8
PATTERN
10
106.2226
20
30.2830
30
0.0
0
VERTEX
8
PATTERN
10
106.1525
20
31.4808
30
0.0
0
VERTEX
8
PATTERN
10
106.1212
20
32.6802
30
0.0
0
VERTEX
8
PATTERN
10
106.1336
20
33.8800
30
0.0
0
VERTEX
8
PATTERN
10
106.1766
20
35.0791
30
0.0
0
VERTEX
8
PATTERN
10
106.2257
20
36.2780
30
0.0
0
VERTEX
8
PATTERN
10
106.2549
20
37.4775
30
0.0
0
VERTEX
8
PATTERN
10
106.2477
20
38.6773
30
0.0
0
VERTEX
8
PATTERN
10
106.2035
20
39.8763
30
0.0
0
VERTEX
8
PATTERN
10
106.1379
20
41.0744
30
0.0
0
VERTEX
8
PATTERN
10
106.0793
20
42.2728
30
0.0
0
VERTEX
8
PATTERN
10
106.0724
20
43.4724
30
0.0
0
VERTEX
8
PATTERN
10
106.1944
20
44.6649
30
0.0
0
VERTEX
8
PATTERN
10
106.6094
20
45.7830
30
0.0
0
VERTEX
8
PATTERN
10
107.5524
20
46.4663
30
0.0
0
VERTEX
8
PATTERN
10
108.6762
20
46.1565
30
0.0
0
VERTEX
8
PATTERN
10
109.4276
20
45.2344
30
0.0
0
VERTEX
8
PATTERN
10
109.8471
20
44.1131
30
0.0
0
VERTEX
8
PATTERN
10
110.0887
20
42.9383
30
0.0
0
VERTEX
8
PATTERN
10
110.2559
20
41.7502
30
0.0
0
VERTEX
8
PATTERN
10
110.3969
20
40.5586
30
0.0
0
VERTEX
8
PATTERN
10
110.5112
20
39.3643
30
0.0
0
VERTEX
8
PATTERN
10
110.5719
20
38.1661
30
0.0
0
VERTEX
8
PATTERN
10
110.5606
20
36.9665
30
0.0
0
VERTEX
8
PATTERN
10
110.4933
20
35.7685
30
0.0
0
VERTEX
8
PATTERN
10
110.4159
20
34.5711
30
0.0
0
VERTEX
8
PATTERN
10
110.3794
20
33.3720
30
0.0
0
VERTEX
8
PATTERN
10
110.4146
20
32.1728
30
0.0
0
VERTEX
8
PATTERN
10
110.5184
20
30.9776
30
0.0
0
VERTEX
8
PATTERN
10
110.6559
20
29.7856
30
0.0
0
VERTEX
8
PATTERN
10
110.7780
20
28.5920
30
0.0
0
VERTEX
8
PATTERN
10
110.8466
20
27.3942
30
0.0
0
VERTEX
8
PATTERN
10
110.8595
20
26.1945
30
0.0
0
VERTEX
8
PATTERN
10
110.8604
20
24.9946
30
0.0
0
VERTEX
8
PATTERN
10
110.9156
20
23.7963
30
0.0
0
VERTEX
8
PATTERN
10
111.0776
20
22.6080
30
0.0
0
VERTEX
8
PATTERN
10
111.3508
20
21.4401
30
0.0
0
VERTEX
8
PATTERN
10
111.6817
20
20.2867
30
0.0
0
VERTEX
8
PATTERN
10
111.9651
20
19.1212
30
0.0
0
VERTEX
8
PATTERN
10
112.0548
20
17.9273
30
0.0
0
VERTEX
8
PATTERN
10
111.8172
20
16.7554
30
0.0
0
VERTEX
8
PATTERN
10
111.3026
20
15.6733
30
0.0
0
VERTEX
8
PATTERN
10
110.6672
20
14.6557
30
0.0
0
VERTEX
8
PATTERN
10
110.0168
20
13.6473
30
0.0
0
VERTEX
8
PATTERN
10
109.3763
20
12.6327
30
0.0
0
VERTEX
8
PATTERN
10
108.6837
20
11.6537
30
0.0
0
VERTEX
8
PATTERN
10
107.7878
20
10.8663
30
0.0
0
VERTEX
8
PATTERN
10
106.6323
20
10.6188
30
0.0
0
VERTEX
8
PATTERN
10
105.4639
20
10.8783
30
0.0
0
VERTEX
8
PATTERN
10
104.3033
20
11.1768
30
0.0
0
VERTEX
8
PATTERN
10
103.1350
20
11.0240
30
0.0
0
VERTEX
8
PATTERN
10
102.4131
20
10.1030
30
0.0
0
VERTEX
8
PATTERN
10
102.2711
20
8.9179
30
0.0
0
VERTEX
8
PATTERN
10
102.3869
20
7.7245
30
0.0
0
VERTEX
8
PATTERN
10
102.5558
20
6.5366
30
0.0
0
VERTEX
8
PATTERN
10
102.6668
20
5.3421
30
0.0
0
VERTEX
8
PATTERN
10
102.7007
20
4.1428
30
0.0
0
VERTEX
8
PATTERN
10
102.7349
20
2.9436
30
0.0
0
VERTEX
8
PATTERN
10
102.9324
20
1.7633
30
0.0
0
VERTEX
8
PATTERN
10
103.5393
20
0.7450
30
0.0
0
VERTEX
8
PATTERN
10
104.6415
20
0.3625
30
0.0
0
VERTEX
8
PATTERN
10
105.7325
20
0.8159
30
0.0
0
VERTEX
8
PATTERN
10
106.5534
20
1.6858
30
0.0
0
VERTEX
8
PATTERN
10
107.2224
20
2.6815
30
0.0
0
VERTEX
8
PATTERN
10
107.8810
20
3.6843
30
0.0
0
VERTEX
8
PATTERN
10
108.6156
20
4.6323
30
0.0
0
VERTEX
8
PATTERN
10
109.4345
20
5.5090
30
0.0
0
VERTEX
8
PATTERN
10
110.2875
20
6.3528
30
0.0
0
VERTEX
8
PATTERN
10
111.1085
20
7.2275
30
0.0
0
VERTEX
8
PATTERN
10
111.8478
20
8.1719
30
0.0
0
VERTEX
8
PATTERN
10
112.5110
20
9.1716
30
0.0
0
VERTEX
8
PATTERN
10
113.1688
20
10.1750
30
0.0
0
VERTEX
8
PATTERN
10
113.9526
20
11.0798
30
0.0
0
VERTEX
8
PATTERN
10
115.0194
20
11.5809
30
0.0
0
VERTEX
8
PATTERN
10
116.0761
20
11.1087
30
0.0
0
VERTEX
8
PATTERN
10
116.5927
20
10.0395
30
0.0
0
VERTEX
8
PATTERN
10
116.7105
20
8.8486
30
0.0
0
VERTEX
8
PATTERN
10
116.6257
20
7.6523
30
0.0
0
VERTEX
8
PATTERN
10
116.5061
20
6.4585
30
0.0
0
VERTEX
8
PATTERN
10
116.5386
20
5.2618
30
0.0
0
VERTEX
8
PATTERN
10
116.9772
20
4.1589
30
0.0
0
VERTEX
8
PATTERN
10
117.9738
20
3.5464
30
0.0
0
VERTEX
8
PATTERN
10
119.1264
20
3.7798
30
0.0
0
VERTEX
8
PATTERN
10
120.0028
20
4.5867
30
0.0
0
VERTEX
8
PATTERN
10
120.5880
20
5.6312
30
0.0
0
VERTEX
8
PATTERN
10
120.9750
20
6.7658
30
0.0
0
VERTEX
8
PATTERN
10
121.2139
20
7.9410
30
0.0
0
VERTEX
8
PATTERN
10
121.3143
20
9.1359
30
0.0
0
VERTEX
8
PATTERN
10
121.2570
20
10.3333
30
0.0
0
VERTEX
8
PATTERN
10
121.0236
20
11.5090
30
0.0
0
VERTEX
8
PATTERN
10
120.6199
20
12.6377
30
0.0
0
VERTEX
8
PATTERN
10
120.0799
20
13.7086
30
0.0
0
VERTEX
8
PATTERN
10
119.4544
20
14.7323
30
0.0
0
VERTEX
8
PATTERN
10
118.7989
20
15.7373
30
0.0
0
VERTEX
8
PATTERN
10
118.1643
20
16.7556
30
0.0
0
VERTEX
8
PATTERN
10
117.5854
20
17.8063
30
0.0
0
VERTEX
8
PATTERN
10
117.0694
20
18.8894
30
0.0
0
VERTEX
8
PATTERN
10
116.6020
20
19.9944
30
0.0
0
VERTEX
8
PATTERN
10
116.1758
20
21.1160
30
0.0
0
VERTEX
8
PATTERN
10
115.8216
20
22.2619
30
0.0
0
VERTEX
8
PATTERN
10
115.6457
20
23.4463
30
0.0
0
VERTEX
8
PATTERN
10
115.8647
20
24.6146
30
0.0
0
VERTEX
8
PATTERN
10
116.6877
20
25.4555
30
0.0
0
VERTEX
8
PATTERN
10
117.8574
20
25.6222
30
0.0
0
VERTEX
8
PATTERN
10
118.9456
20
25.1467
30
0.0
0
VERTEX
8
PATTERN
10
119.7548
20
24.2690
30
0.0
0
VERTEX
8
PATTERN
10
120.3178
20
23.2114
30
0.0
0
VERTEX
8
PATTERN
10
120.7492
20
22.0920
30
0.0
0
VERTEX
8
PATTERN
10
121.1544
20
20.9626
30
0.0
0
VERTEX
8
PATTERN
10
121.6046
20
19.8506
30
0.0
0
VERTEX
8
PATTERN
10
122.1283
20
18.7713
30
0.0
0
VERTEX
8
PATTERN
10
122.7136
20
17.7240
30
0.0
0
VERTEX
8
PATTERN
10
123.3266
20
16.6925
30
0.0
0
VERTEX
8
PATTERN
10
123.9315
20
15.6563
30
0.0
0
VERTEX
8
PATTERN
10
124.4989
20
14.5992
30
0.0
0
VERTEX
8
PATTERN
10
125.0054
20
13.5118
30
0.0
0
VERTEX
8
PATTERN
10
125.4265
20
12.3887
30
0.0
0
VERTEX
8
PATTERN
10
125.7304
20
11.2286
30
0.0
0
VERTEX
8
PATTERN
10
125.8850
20
10.0397
30
0.0
0
VERTEX
8
PATTERN
10
125.8937
20
8.8404
30
0.0
0
VERTEX
8
PATTERN
10
125.8273
20
7.6424
30
0.0
0
VERTEX
8
PATTERN
10
125.8389
20
6.4438
30
0.0
0
VERTEX
8
PATTERN
10
126.2072
20
5.3151
30
0.0
0
VERTEX
8
PATTERN
10
127.1830
20
4.6721
30
0.0
0
VERTEX
8
PATTERN
10
128.3740
20
4.6969
30
0.0
0
VERTEX
8
PATTERN
10
129.5232
20
5.0382
30
0.0
0
VERTEX
8
PATTERN
10
130.6397
20
5.4775
30
0.0
0
VERTEX
8
PATTERN
10
131.7507
20
5.9307
30
0.0
0
VERTEX
8
PATTERN
10
132.8577
20
6.3934
30
0.0
0
VERTEX
8
PATTERN
10
133.9266
20
6.9367
30
0.0
0
VERTEX
8
PATTERN
10
134.8202
20
7.7250
30
0.0
0
VERTEX
8
PATTERN
10
135.0165
20
8.8609
30
0.0
0
VERTEX
8
PATTERN
10
134.2951
20
9.7987
30
0.0
0
VERTEX
8
PATTERN
10
133.2952
20
10.4600
30
0.0
0
VERTEX
8
PATTERN
10
132.2643
20
11.0737
30
0.0
0
VERTEX
8
PATTERN
10
131.3118
20
11.8009
30
0.0
0
VERTEX
8
PATTERN
10
130.5103
20
12.6913
30
0.0
0
VERTEX
8
PATTERN
10
129.8569
20
13.6968
30
0.0
0
VERTEX
8
PATTERN
10
129.2854
20
14.7517
30
0.0
0
VERTEX
8
PATTERN
10
128.7360
20
15.8184
30
0.0
0
VERTEX
8
PATTERN
10
128.1762
20
16.8797
30
0.0
0
VERTEX
8
PATTERN
10
127.5985
20
17.9313
30
0.0
0
VERTEX
8
PATTERN
10
127.0137
20
18.9791
30
0.0
0
VERTEX
8
PATTERN
10
126.4444
20
20.0352
30
0.0
0
VERTEX
8
PATTERN
10
125.9160
20
21.1124
30
0.0
0
VERTEX
8
PATTERN
10
125.4436
20
22.2152
30
0.0
0
VERTEX
8
PATTERN
10
125.0205
20
23.3379
30
0.0
0
VERTEX
8
PATTERN
10
124.6235
20
24.4702
30
0.0
0
VERTEX
8
PATTERN
10
124.2372
20
25.6062
30
0.0
0
VERTEX
8
PATTERN
10
123.8815
20
26.7520
30
0.0
0
VERTEX
8
PATTERN
10
123.6240
20
27.9230
30
0.0
0
VERTEX
8
PATTERN
10
123.5426
20
29.1187
30
0.0
0
VERTEX
8
PATTERN
10
123.6394
20
30.3141
30
0.0
0
VERTEX
8
PATTERN
10
123.7829
20
31.5053
30
0.0
0
VERTEX
8
PATTERN
10
123.7529
20
32.7011
30
0.0
0
VERTEX
8
PATTERN
10
123.1936
20
33.7316
30
0.0
0
VERTEX
8
PATTERN
10
122.0545
20
33.9509
30
0.0
0
VERTEX
8
PATTERN
10
120.9689
20
33.4581
30
0.0
0
VERTEX
8
PATTERN
10
120.0276
20
32.7156
30
0.0
0
VERTEX
8
PATTERN
10
119.1213
20
31.9293
30
0.0
0
VERTEX
8
PATTERN
10
118.1322
20
31.2539
30
0.0
0
VERTEX
8
PATTERN
10
116.9931
20
30.9067
30
0.0
0
VERTEX
8
PATTERN
10
115.8433
20
31.1720
30
0.0
0
VERTEX
8
PATTERN
10
115.0701
20
32.0642
30
0.0
0
VERTEX
8
PATTERN
10
114.8521
20
33.2329
30
0.0
0
VERTEX
8
PATTERN
10
115.1229
20
34.3940
30
0.0
0
VERTEX
8
PATTERN
10
115.7746
20
35.3954
30
0.0
0
VERTEX
8
PATTERN
10
116.6614
20
36.2005
30
0.0
0
VERTEX
8
PATTERN
10
117.6626
20
36.8608
30
0.0
0
VERTEX
8
PATTERN
10
118.7139
20
37.4386
30
0.0
0
VERTEX
8
PATTERN
10
119.7964
20
37.9557
30
0.0
0
VERTEX
8
PATTERN
10
120.9129
20
38.3941
30
0.0
0
VERTEX
8
PATTERN
10
122.0706
20
38.7057
30
0.0
0
VERTEX
8
PATTERN
10
123.2629
20
38.8198
30
0.0
0
VERTEX
8
PATTERN
10
124.4497
20
38.6674
30
0.0
0
VERTEX
8
PATTERN
10
125.5534
20
38.2071
30
0.0
0
VERTEX
8
PATTERN
10
126.4954
20
37.4698
30
0.0
0
VERTEX
8
PATTERN
10
127.2352
20
36.5283
30
0.0
0
VERTEX
8
PATTERN
10
127.7709
20
35.4567
30
0.0
0
VERTEX
8
PATTERN
10
128.1179
20
34.3095
30
0.0
0
VERTEX
8
PATTERN
10
128.3039
20
33.1248
30
0.0
0
VERTEX
8
PATTERN
10
128.3735
20
31.9272
30
0.0
0
VERTEX
8
PATTERN
10
128.3867
20
30.7274
30
0.0
0
VERTEX
8
PATTERN
10
128.4069
20
29.5278
30
0.0
0
VERTEX
8
PATTERN
10
128.4856
20
28.3307
30
0.0
0
VERTEX
8
PATTERN
10
128.6497
20
27.1424
30
0.0
0
VERTEX
8
PATTERN
10
128.9015
20
25.9695
30
0.0
0
VERTEX
8
PATTERN
10
129.2317
20
24.8162
30
0.0
0
VERTEX
8
PATTERN
10
129.6311
20
23.6849
30
0.0
0
VERTEX
8
PATTERN
10
130.0915
20
22.5771
30
0.0
0
VERTEX
8
PATTERN
10
130.6016
20
21.4911
30
0.0
0
VERTEX
8
PATTERN
10
131.1471
20
20.4224
30
0.0
0
VERTEX
8
PATTERN
10
131.7173
20
19.3667
30
0.0
0
VERTEX
8
PATTERN
10
132.3134
20
18.3254
30
0.0
0
VERTEX
8
PATTERN
10
132.9530
20
17.3104
30
0.0
0
VERTEX
8
PATTERN
10
133.6670
20
16.3468
30
0.0
0
VERTEX
8
PATTERN
10
134.4898
20
15.4749
30
0.0
0
VERTEX
8
PATTERN
10
135.4449
20
14.7518
30
0.0
0
VERTEX
8
PATTERN
10
136.5341
20
14.2572
30
0.0
0
VERTEX
8
PATTERN
10
137.7195
20
14.1587
30
0.0
0
VERTEX
8
PATTERN
10
138.6877
20
14.7926
30
0.0
0
VERTEX
8
PATTERN
10
138.7960
20
15.9600
30
0.0
0
VERTEX
8
PATTERN
10
138.3461
20
17.0678
30
0.0
0
VERTEX
8
PATTERN
10
137.7041
20
18.0807
30
0.0
0
VERTEX
8
PATTERN
10
137.0110
20
19.0601
30
0.0
0
VERTEX
8
PATTERN
10
136.3319
20
20.0493
30
0.0
0
VERTEX
8
PATTERN
10
135.6961
20
21.0667
30
0.0
0
VERTEX
8
PATTERN
10
135.1112
20
22.1143
30
0.0
0
VERTEX
8
PATTERN
10
134.5765
20
23.1883
30
0.0
0
VERTEX
8
PATTERN
10
134.0941
20
24.2868
30
0.0
0
VERTEX
8
PATTERN
10
133.6729
20
25.4101
30
0.0
0
VERTEX
8
PATTERN
10
133.3246
20
26.5580
30
0.0
0
VERTEX
8
PATTERN
10
133.0578
20
27.7276
30
0.0
0
VERTEX
8
PATTERN
10
132.8715
20
28.9127
30
0.0
0
VERTEX
8
PATTERN
10
132.7530
20
30.1066
30
0.0
0
VERTEX
8
PATTERN
10
132.6784
20
31.3041
30
0.0
0
VERTEX
8
PATTERN
10
132.6164
20
32.5024
30
0.0
0
VERTEX
8
PATTERN
10
132.5329
20
33.6993
30
0.0
0
VERTEX
8
PATTERN
10
132.3924
20
34.8907
30
0.0
0
VERTEX
8
PATTERN
10
132.1594
20
36.0673
30
0.0
0
VERTEX
8
PATTERN
10
131.8032
20
37.2124
30
0.0
0
VERTEX
8
PATTERN
10
131.3094
20
38.3052
30
0.0
0
VERTEX
8
PATTERN
10
130.6885
20
39.3311
30
0.0
0
VERTEX
8
PATTERN
10
129.9625
20
40.2857
30
0.0
0
VERTEX
8
PATTERN
10
129.1460
20
41.1641
30
0.0
0
VERTEX
8
PATTERN
10
128.2359
20
41.9447
30
0.0
0
VERTEX
8
PATTERN
10
127.2204
20
42.5809
30
0.0
0
VERTEX
8
PATTERN
10
126.1052
20
43.0185
30
0.0
0
VERTEX
8
PATTERN
10
124.9285
20
43.2450
30
0.0
0
VERTEX
8
PATTERN
10
123.7304
20
43.2908
30
0.0
0
VERTEX
8
PATTERN
10
122.5347
20
43.1968
30
0.0
0
VERTEX
8
PATTERN
10
121.3537
20
42.9869
30
0.0
0
VERTEX
8
PATTERN
10
120.1969
20
42.6700
30
0.0
0
VERTEX
8
PATTERN
10
119.0688
20
42.2618
30
0.0
0
VERTEX
8
PATTERN
10
117.9556
20
41.8140
30
0.0
0
VERTEX
8
PATTERN
10
116.8127
20
41.4534
30
0.0
0
VERTEX
8
PATTERN
10
115.6327
20
41.5121
30
0.0
0
VERTEX
8
PATTERN
10
114.8153
20
42.3518
30
0.0
0
VERTEX
8
PATTERN
10
114.4683
20
43.4971
30
0.0
0
VERTEX
8
PATTERN
10
114.2649
20
44.6796
30
0.0
0
VERTEX
8
PATTERN
10
114.0155
20
45.8527
30
0.0
0
VERTEX
8
PATTERN
10
113.6176
20
46.9833
30
0.0
0
VERTEX
8
PATTERN
10
113.0390
20
48.0326
30
0.0
0
VERTEX
8
PATTERN
10
112.2921
20
48.9699
30
0.0
0
VERTEX
8
PATTERN
10
111.4041
20
49.7751
30
0.0
0
VERTEX
8
PATTERN
10
110.4131
20
50.4500
30
0.0
0
VERTEX
8
PATTERN
10
109.3633
20
51.0306
30
0.0
0
VERTEX
8
PATTERN
10
108.3099
20
51.6046
30
0.0
0
VERTEX
8
PATTERN
10
107.3451
20
52.3138
30
0.0
0
VERTEX
8
PATTERN
10
106.6301
20
53.2703
30
0.0
0
VERTEX
8
PATTERN
10
106.2382
20
54.4010
30
0.0
0
VERTEX
8
PATTERN
10
106.0538
20
55.5859
30
0.0
0
VERTEX
8
PATTERN
10
105.9627
20
56.7822
30
0.0
0
VERTEX
8
PATTERN
10
105.8992
20
57.9804
30
0.0
0
VERTEX
8
PATTERN
10
105.8331
20
59.1784
30
0.0
0
VERTEX
8
PATTERN
10
105.7566
20
60.3758
30
0.0
0
VERTEX
8
PATTERN
10
105.6794
20
61.5732
30
0.0
0
VERTEX
8
PATTERN
10
105.6264
20
62.7719
30
0.0
0
VERTEX
8
PATTERN
10
105.6306
20
63.9716
30
0.0
0
VERTEX
8
PATTERN
10
105.7168
20
65.1681
30
0.0
0
VERTEX
8
PATTERN
10
105.8838
20
66.3561
30
0.0
0
VERTEX
8
PATTERN
10
106.0977
20
67.5367
30
0.0
0
VERTEX
8
PATTERN
10
106.3033
20
68.7188
30
0.0
0
VERTEX
8
PATTERN
10
106.4407
20
69.9105
30
0.0
0
VERTEX
8
PATTERN
10
106.4610
20
71.1096
30
0.0
0
VERTEX
8
PATTERN
10
106.3343
20
72.3019
30
0.0
0
VERTEX
8
PATTERN
10
106.0534
20
73.4675
30
0.0
0
VERTEX
8
PATTERN
10
105.6230
20
74.5866
30
0.0
0
VERTEX
8
PATTERN
10
105.0601
20
75.6455
30
0.0
0
VERTEX
8
PATTERN
10
104.4004
20
76.6474
30
0.0
0
VERTEX
8
PATTERN
10
103.7047
20
77.6250
30
0.0
0
VERTEX
8
PATTERN
10
103.0758
20
78.6455
30
0.0
0
VERTEX
8
PATTERN
10
102.7325
20
79.7856
30
0.0
0
VERTEX
8
PATTERN
10
103.1399
20
80.8731
30
0.0
0
VERTEX
8
PATTERN
10
104.2419
20
81.2693
30
0.0
0
VERTEX
8
PATTERN
10
105.4018
20
80.9996
30
0.0
0
VERTEX
8
PATTERN
10
106.4256
20
80.3795
30
0.0
0
VERTEX
8
PATTERN
10
107.3138
20
79.5746
30
0.0
0
VERTEX
8
PATTERN
10
108.0894
20
78.6600
30
0.0
0
VERTEX
8
PATTERN
10
108.7633
20
77.6679
30
0.0
0
VERTEX
8
PATTERN
10
109.3385
20
76.6154
30
0.0
0
VERTEX
8
PATTERN
10
109.8170
20
75.5155
30
0.0
0
VERTEX
8
PATTERN
10
110.2014
20
74.3792
30
0.0
0
VERTEX
8
PATTERN
10
110.4912
20
73.2152
30
0.0
0
VERTEX
8
PATTERN
10
110.6764
20
72.0301
30
0.0
0
VERTEX
8
PATTERN
10
110.7428
20
70.8326
30
0.0
0
VERTEX
8
PATTERN
10
110.6858
20
69.6346
30
0.0
0
VERTEX
8
PATTERN
10
110.5258
20
68.4458
30
0.0
0
VERTEX
8
PATTERN
10
110.3081
20
67.2659
30
0.0
0
VERTEX
8
PATTERN
10
110.0879
20
66.0864
30
0.0
0
VERTEX
8
PATTERN
10
109.9132
20
64.8994
30
0.0
0
VERTEX
8
PATTERN
10
109.8120
20
63.7041
30
0.0
0
VERTEX
8
PATTERN
10
109.7876
20
62.5046
30
0.0
0
VERTEX
8
PATTERN
10
109.8279
20
61.3056
30
0.0
0
VERTEX
8
PATTERN
10
109.9226
20
60.1095
30
0.0
0
VERTEX
8
PATTERN
10
110.0802
20
58.9203
30
0.0
0
VERTEX
8
PATTERN
10
110.3408
20
57.7497
30
0.0
0
VERTEX
8
PATTERN
10
110.7710
20
56.6314
30
0.0
0
VERTEX
8
PATTERN
10
111.4127
20
55.6201
30
0.0
0
VERTEX
8
PATTERN
10
112.2299
20
54.7430
30
0.0
0
VERTEX
8
PATTERN
10
113.1320
20
53.9520
30
0.0
0
VERTEX
8
PATTERN
10
114.0482
20
53.1773
30
0.0
0
VERTEX
8
PATTERN
10
114.9326
20
52.3667
30
0.0
0
VERTEX
8
PATTERN
10
115.7598
20
51.4979
30
0.0
0
VERTEX
8
PATTERN
10
116.5293
20
50.5774
30
0.0
0
VERTEX
8
PATTERN
10
117.2743
20
49.6368
30
0.0
0
VERTEX
8
PATTERN
10
118.0694
20
48.7391
30
0.0
0
VERTEX
8
PATTERN
10
119.0177
20
48.0100
30
0.0
0
VERTEX
8
PATTERN
10
120.1392
20
47.5985
30
0.0
0
VERTEX
8
PATTERN
10
121.3320
20
47.4886
30
0.0
0
VERTEX
8
PATTERN
10
122.5293
20
47.5569
30
0.0
0
VERTEX
8
PATTERN
10
123.7146
20
47.7402
30
0.0
0
VERTEX
8
PATTERN
10
124.8649
20
48.0755
30
0.0
0
VERTEX
8
PATTERN
10
125.8866
20
48.6912
30
0.0
0
VERTEX
8
PATTERN
10
126.4931
20
49.7030
30
0.0
0
VERTEX
8
PATTERN
10
126.2816
20
50.8515
30
0.0
0
VERTEX
8
PATTERN
10
125.3555
20
51.5897
30
0.0
0
VERTEX
8
PATTERN
10
124.2111
20
51.9427
30
0.0
0
VERTEX
8
PATTERN
10
123.0360
20
52.1848
30
0.0
0
VERTEX
8
PATTERN
10
121.8811
20
52.5075
30
0.0
0
VERTEX
8
PATTERN
10
120.7961
20
53.0157
30
0.0
0
VERTEX
8
PATTERN
10
119.8101
20
53.6975
30
0.0
0
VERTEX
8
PATTERN
10
118.8978
20
54.4765
30
0.0
0
VERTEX
8
PATTERN
10
118.0167
20
55.2910
30
0.0
0
VERTEX
8
PATTERN
10
117.1468
20
56.1173
30
0.0
0
VERTEX
8
PATTERN
10
116.3022
20
56.9694
30
0.0
0
VERTEX
8
PATTERN
10
115.5288
20
57.8859
30
0.0
0
VERTEX
8
PATTERN
10
114.8909
20
58.9003
30
0.0
0
VERTEX
8
PATTERN
10
114.4366
20
60.0092
30
0.0
0
VERTEX
8
PATTERN
10
114.1677
20
61.1775
30
0.0
0
VERTEX
8
PATTERN
10
114.0490
20
62.3708
30
0.0
0
VERTEX
8
PATTERN
10
114.0527
20
63.5702
30
0.0
0
VERTEX
8
PATTERN
10
114.1619
20
64.7648
30
0.0
0
VERTEX
8
PATTERN
10
114.3564
20
65.9485
30
0.0
0
VERTEX
8
PATTERN
10
114.6001
20
67.1234
30
0.0
0
VERTEX
8
PATTERN
10
114.8388
20
68.2992
30
0.0
0
VERTEX
8
PATTERN
10
115.0110
20
69.4864
30
0.0
0
VERTEX
8
PATTERN
10
115.0668
20
70.6844
30
0.0
0
VERTEX
8
PATTERN
10
114.9933
20
71.8815
30
0.0
0
VERTEX
8
PATTERN
10
114.8149
20
73.0677
30
0.0
0
VERTEX
8
PATTERN
10
114.5664
20
74.2414
30
0.0
0
VERTEX
8
PATTERN
10
114.2702
20
75.4041
30
0.0
0
VERTEX
8
PATTERN
10
113.9282
20
76.5541
30
0.0
0
VERTEX
8
PATTERN
10
113.5259
20
77.6843
30
0.0
0
VERTEX
8
PATTERN
10
113.0448
20
78.7831
30
0.0
0
VERTEX
8
PATTERN
10
112.4740
20
79.8381
30
0.0
0
VERTEX
8
PATTERN
10
111.8157
20
80.8408
30
0.0
0
VERTEX
8
PATTERN
10
111.0806
20
81.7888
30
0.0
0
VERTEX
8
PATTERN
10
110.2835
20
82.6854
30
0.0
0
VERTEX
8
PATTERN
10
109.4460
20
83.5446
30
0.0
0
VERTEX
8
PATTERN
10
108.6078
20
84.4030
30
0.0
0
VERTEX
8
PATTERN
10
107.8490
20
85.3309
30
0.0
0
VERTEX
8
PATTERN
10
107.3474
20
86.4130
30
0.0
0
VERTEX
8
PATTERN
10
107.4837
20
87.5774
30
0.0
0
VERTEX
8
PATTERN
10
108.4312
20
88.2527
30
0.0
0
VERTEX
8
PATTERN
10
109.6172
20
88.1902
30
0.0
0
VERTEX
8
PATTERN
10
110.7163
20
87.7173
30
0.0
0
VERTEX
8
PATTERN
10
111.7020
20
87.0352
30
0.0
0
VERTEX
8
PATTERN
10
112.5974
20
86.2372
30
0.0
0
VERTEX
8
PATTERN
10
113.4280
20
85.3716
30
0.0
0
VERTEX
8
PATTERN
10
114.2167
20
84.4674
30
0.0
0
VERTEX
8
PATTERN
10
114.9748
20
83.5374
30
0.0
0
VERTEX
8
PATTERN
10
115.6951
20
82.5780
30
0.0
0
VERTEX
8
PATTERN
10
116.3528
20
81.5748
30
0.0
0
VERTEX
8
PATTERN
10
116.9186
20
80.5172
30
0.0
0
VERTEX
8
PATTERN
10
117.3816
20
79.4107
30
0.0
0
VERTEX
8
PATTERN
10
117.7604
20
78.2724
30
0.0
0
VERTEX
8
PATTERN
10
118.0881
20
77.1181
30
0.0
0
VERTEX
8
PATTERN
10
118.3929
20
75.9576
30
0.0
0
VERTEX
8
PATTERN
10
118.6889
20
74.7948
30
0.0
0
VERTEX
8
PATTERN
10
118.9729
20
73.6290
30
0.0
0
VERTEX
8
PATTERN
10
119.2231
20
72.4556
30
0.0
0
VERTEX
8
PATTERN
10
119.3974
20
71.2689
30
0.0
0
VERTEX
8
PATTERN
10
119.4433
20
70.0708
30
0.0
0
VERTEX
8
PATTERN
10
119.3300
20
68.8772
30
0.0
0
VERTEX
8
PATTERN
10
119.0847
20
67.7031
30
0.0
0
VERTEX
8
PATTERN
10
118.7845
20
66.5414
30
0.0
0
VERTEX
8
PATTERN
10
118.5140
20
65.3726
30
0.0
0
VERTEX
8
PATTERN
10
118.3497
20
64.1847
30
0.0
0
VERTEX
8
PATTERN
10
118.3568
20
62.9863
30
0.0
0
VERTEX
8
PATTERN
10
118.5871
20
61.8108
30
0.0
0
VERTEX
8
PATTERN
10
119.0513
20
60.7068
30
0.0
0
VERTEX
8
PATTERN
10
119.7165
20
59.7100
30
0.0
0
VERTEX
8
PATTERN
10
120.5277
20
58.8271
30
0.0
0
VERTEX
8
PATTERN
10
121.4423
20
58.0516
30
0.0
0
VERTEX
8
PATTERN
10
122.4441
20
57.3929
30
0.0
0
VERTEX
8
PATTERN
10
123.5250
20
56.8744
30
0.0
0
VERTEX
8
PATTERN
10
124.6671
20
56.5092
30
0.0
0
VERTEX
8
PATTERN
10
125.8440
20
56.2780
30
0.0
0
VERTEX
8
PATTERN
10
127.0362
20
56.1444
30
0.0
0
VERTEX
8
PATTERN
10
128.2340
20
56.0760
30
0.0
0
VERTEX
8
PATTERN
10
129.4332
20
56.0364
30
0.0
0
VERTEX
8
PATTERN
10
130.6305
20
55.9609
30
0.0
0
VERTEX
8
PATTERN
10
131.8018
20
55.7128
30
0.0
0
VERTEX
8
PATTERN
10
132.7682
20
55.0335
30
0.0
0
VERTEX
8
PATTERN
10
133.0072
20
53.8874
30
0.0
0
VERTEX
8
PATTERN
10
132.6492
20
52.7465
30
0.0
0
VERTEX
8
PATTERN
10
132.1322
20
51.6638
30
0.0
0
VERTEX
8
PATTERN
10
131.6568
20
50.5626
30
0.0
0
VERTEX
8
PATTERN
10
131.3221
20
49.4116
30
0.0
0
VERTEX
8
PATTERN
10
131.1813
20
48.2215
30
0.0
0
VERTEX
8
PATTERN
10
131.2603
20
47.0263
30
0.0
0
VERTEX
8
PATTERN
10
131.5744
20
45.8704
30
0.0
0
VERTEX
8
PATTERN
10
132.1034
20
44.7951
30
0.0
0
VERTEX
8
PATTERN
10
132.7815
20
43.8061
30
0.0
0
VERTEX
8
PATTERN
10
133.5358
20
42.8732
30
0.0
0
VERTEX
8
PATTERN
10
134.2978
20
41.9463
30
0.0
0
VERTEX
8
PATTERN
10
135.0007
20
40.9745
30
0.0
0
VERTEX
8
PATTERN
10
135.5804
20
39.9251
30
0.0
0
VERTEX
8
PATTERN
10
136.0056
20
38.8041
30
0.0
0
VERTEX
8
PATTERN
10
136.2919
20
37.6395
30
0.0
0
VERTEX
8
PATTERN
10
136.4818
20
36.4549
30
0.0
0
VERTEX
8
PATTERN
10
136.6141
20
35.2624
30
0.0
0
VERTEX
8
PATTERN
10
136.7141
20
34.0667
30
0.0
0
VERTEX
8
PATTERN
10
136.8001
20
32.8699
30
0.0
0
VERTEX
8
PATTERN
10
136.8917
20
31.6736
30
0.0
0
VERTEX
8
PATTERN
10
137.0129
20
30.4799
30
0.0
0
VERTEX
8
PATTERN
10
137.1872
20
29.2929
30
0.0
0
VERTEX
8
PATTERN
10
137.4317
20
28.1184
30
0.0
0
VERTEX
8
PATTERN
10
137.7533
20
26.9627
30
0.0
0
VERTEX
8
PATTERN
10
138.1504
20
25.8306
30
0.0
0
VERTEX
8
PATTERN
10
138.6186
20
24.7260
30
0.0
0
VERTEX
8
PATTERN
10
139.1551
20
23.6530
30
0.0
0
VERTEX
8
PATTERN
10
139.7598
20
22.6169
30
0.0
0
VERTEX
8
PATTERN
10
140.4313
20
21.6228
30
0.0
0
VERTEX
8
PATTERN
10
141.1667
20
20.6749
30
0.0
0
VERTEX
8
PATTERN
10
141.9691
20
19.7833
30
0.0
0
VERTEX
8
PATTERN
10
142.8609
20
18.9820
30
0.0
0
VERTEX
8
PATTERN
10
143.8847
20
18.3625
30
0.0
0
VERTEX
8
PATTERN
10
145.0433
20
18.0752
30
0.0
0
VERTEX
8
PATTERN
10
146.2374
20
18.1542
30
0.0
0
VERTEX
8
PATTERN
10
147.4093
20
18.4108
30
0.0
0
VERTEX
8
PATTERN
10
148.5844
20
18.6520
30
0.0
0
VERTEX
8
PATTERN
10
149.7743
20
18.8048
30
0.0
0
VERTEX
8
PATTERN
10
150.9672
20
18.9330
30
0.0
0
VERTEX
8
PATTERN
10
152.1447
20
19.1592
30
0.0
0
VERTEX
8
PATTERN
10
153.2737
20
19.5616
30
0.0
0
VERTEX
8
PATTERN
10
154.3309
20
20.1271
30
0.0
0
VERTEX
8
PATTERN
10
155.3134
20
20.8149
30
0.0
0
VERTEX
8
PATTERN
10
156.2073
20
21.6137
30
0.0
0
VERTEX
8
PATTERN
10
156.9368
20
22.5618
30
0.0
0
VERTEX
8
PATTERN
10
157.2217
20
23.7060
30
0.0
0
VERTEX
8
PATTERN
10
156.5361
20
24.6251
30
0.0
0
VERTEX
8
PATTERN
10
155.3680
20
24.8438
30
0.0
0
VERTEX
8
PATTERN
10
154.1777
20
24.7035
30
0.0
0
VERTEX
8
PATTERN
10
153.0042
20
24.4533
30
0.0
0
VERTEX
8
PATTERN
10
151.8242
20
24.2373
30
0.0
0
VERTEX
8
PATTERN
10
150.6304
20
24.1210
30
0.0
0
VERTEX
8
PATTERN
10
149.4322
20
24.0586
30
0.0
0
VERTEX
8
PATTERN
10
148.2373
20
23.9515
30
0.0
0
VERTEX
8
PATTERN
10
147.0495
20
23.7819
30
0.0
0
VERTEX
8
PATTERN
10
145.8548
20
23.6913
30
0.0
0
VERTEX
8
PATTERN
10
144.6937
20
23.9560
30
0.0
0
VERTEX
8
PATTERN
10
143.7407
20
24.6731
30
0.0
0
VERTEX
8
PATTERN
10
143.0330
20
25.6393
30
0.0
0
VERTEX
8
PATTERN
10
142.4886
20
26.7077
30
0.0
0
VERTEX
8
PATTERN
10
142.0538
20
27.8257
30
0.0
0
VERTEX
8
PATTERN
10
141.7050
20
28.9735
30
0.0
0
VERTEX
8
PATTERN
10
141.4335
20
30.1421
30
0.0
0
VERTEX
8
PATTERN
10
141.2304
20
31.3245
30
0.0
0
VERTEX
8
PATTERN
10
141.0797
20
32.5148
30
0.0
0
VERTEX
8
PATTERN
10
140.9630
20
33.7090
30
0.0
0
VERTEX
8
PATTERN
10
140.8705
20
34.9053
30
0.0
0
VERTEX
8
PATTERN
10
140.8125
20
36.1037
30
0.0
0
VERTEX
8
PATTERN
10
140.8272
20
37.3031
30
0.0
0
VERTEX
8
PATTERN
10
140.9753
20
38.4927
30
0.0
0
VERTEX
8
PATTERN
10
141.2979
20
39.6472
30
0.0
0
VERTEX
8
PATTERN
10
141.7383
20
40.7631
30
0.0
0
VERTEX
8
PATTERN
10
142.1224
20
41.8983
30
0.0
0
VERTEX
8
PATTERN
10
142.1058
20
43.0830
30
0.0
0
VERTEX
8
PATTERN
10
141.3518
20
43.9856
30
0.0
0
VERTEX
8
PATTERN
10
140.2470
20
44.4435
30
0.0
0
VERTEX
8
PATTERN
10
139.0904
20
44.7627
30
0.0
0
VERTEX
8
PATTERN
10
137.9690
20
45.1857
30
0.0
0
VERTEX
8
PATTERN
10
136.9706
20
45.8449
30
0.0
0
VERTEX
8
PATTERN
10
136.2121
20
46.7673
30
0.0
0
VERTEX
8
PATTERN
10
135.8627
20
47.9036
30
0.0
0
VERTEX
8
PATTERN
10
136.1842
20
49.0334
30
0.0
0
VERTEX
8
PATTERN
10
137.1816
20
49.6527
30
0.0
0
VERTEX
8
PATTERN
10
138.3744
20
49.6909
30
0.0
0
VERTEX
8
PATTERN
10
139.5509
20
49.4593
30
0.0
0
VERTEX
8
PATTERN
10
140.7059
20
49.1345
30
0.0
0
VERTEX
8
PATTERN
10
141.8477
20
48.7660
30
0.0
0
VERTEX
8
PATTERN
10
142.9658
20
48.3317
30
0.0
0
VERTEX
8
PATTERN
10
144.0290
20
47.7777
30
0.0
0
VERTEX
8
PATTERN
10
144.9941
20
47.0674
30
0.0
0
VERTEX
8
PATTERN
10
145.8186
20
46.1982
30
0.0
0
VERTEX
8
PATTERN
10
146.4579
20
45.1854
30
0.0
0
VERTEX
8
PATTERN
10
146.8595
20
44.0578
30
0.0
0
VERTEX
8
PATTERN
10
146.9830
20
42.8673
30
0.0
0
VERTEX
8
PATTERN
10
146.8433
20
41.6775
30
0.0
0
VERTEX
8
PATTERN
10
146.5214
20
40.5224
30
0.0
0
VERTEX
8
PATTERN
10
146.1123
20
39.3945
30
0.0
0
VERTEX
8
PATTERN
10
145.7084
20
38.2648
30
0.0
0
VERTEX
8
PATTERN
10
145.3917
20
37.1081
30
0.0
0
VERTEX
8
PATTERN
10
145.2127
20
35.9225
30
0.0
0
VERTEX
8
PATTERN
10
145.1783
20
34.7238
30
0.0
0
VERTEX
8
PATTERN
10
145.2721
20
33.5281
30
0.0
0
VERTEX
8
PATTERN
10
145.4942
20
32.3497
30
0.0
0
VERTEX
8
PATTERN
10
145.8910
20
31.2193
30
0.0
0
VERTEX
8
PATTERN
10
146.5411
20
30.2162
30
0.0
0
VERTEX
8
PATTERN
10
147.4776
20
29.4753
30
0.0
0
VERTEX
8
PATTERN
10
148.5966
20
29.0524
30
0.0
0
VERTEX
8
PATTERN
10
149.7816
20
28.8738
30
0.0
0
VERTEX
8
PATTERN
10
150.9808
20
28.8607
30
0.0
0
VERTEX
8
PATTERN
10
152.1762
20
28.9611
30
0.0
0
VERTEX
8
PATTERN
10
153.3597
20
29.1564
30
0.0
0
VERTEX
8
PATTERN
10
154.5171
20
29.4693
30
0.0
0
VERTEX
8
PATTERN
10
155.5947
20
29.9886
30
0.0
0
VERTEX
8
PATTERN
10
156.4029
20
30.8581
30
0.0
0
VERTEX
8
PATTERN
10
156.5996
20
32.0231
30
0.0
0
VERTEX
8
PATTERN
10
156.1425
20
33.1175
30
0.0
0
VERTEX
8
PATTERN
10
155.2112
20
33.8530
30
0.0
0
VERTEX
8
PATTERN
10
154.0404
20
34.0705
30
0.0
0
VERTEX
8
PATTERN
10
152.8493
20
33.9388
30
0.0
0
VERTEX
8
PATTERN
10
151.6594
20
33.7931
30
0.0
0
VERTEX
8
PATTERN
10
150.5070
20
34.0574
30
0.0
0
VERTEX
8
PATTERN
10
149.8574
20
35.0289
30
0.0
0
VERTEX
8
PATTERN
10
149.8418
20
36.2210
30
0.0
0
VERTEX
8
PATTERN
10
150.1309
20
37.3840
30
0.0
0
VERTEX
8
PATTERN
10
150.5537
20
38.5065
30
0.0
0
VERTEX
8
PATTERN
10
151.0664
20
39.5909
30
0.0
0
VERTEX
8
PATTERN
10
151.7166
20
40.5973
30
0.0
0
VERTEX
8
PATTERN
10
152.5912
20
41.4111
30
0.0
0
VERTEX
8
PATTERN
10
153.6791
20
41.9048
30
0.0
0
VERTEX
8
PATTERN
10
154.8587
20
42.1133
30
0.0
0
VERTEX
8
PATTERN
10
156.0574
20
42.1222
30
0.0
0
VERTEX
8
PATTERN
10
157.2382
20
41.9233
30
0.0
0
VERTEX
8
PATTERN
10
158.2869
20
41.3625
30
0.0
0
VERTEX
8
PATTERN
10
158.9079
20
40.3528
30
0.0
0
VERTEX
8
PATTERN
10
159.1478
20
39.1790
30
0.0
0
VERTEX
8
PATTERN
10
159.3410
20
37.9951
30
0.0
0
VERTEX
8
PATTERN
10
159.6733
20
36.8434
30
0.0
0
VERTEX
8
PATTERN
10
160.1263
20
35.7325
30
0.0
0
VERTEX
8
PATTERN
10
160.5934
20
34.6273
30
0.0
0
VERTEX
8
PATTERN
10
160.9968
20
33.4976
30
0.0
0
VERTEX
8
PATTERN
10
161.3333
20
32.3460
30
0.0
0
VERTEX
8
PATTERN
10
161.6956
20
31.2026
30
0.0
0
VERTEX
8
PATTERN
10
162.3002
20
30.1762
30
0.0
0
VERTEX
8
PATTERN
10
163.3792
20
29.7555
30
0.0
0
VERTEX
8
PATTERN
10
164.4698
20
30.2182
30
0.0
0
VERTEX
8
PATTERN
10
165.3055
20
31.0733
30
0.0
0
VERTEX
8
PATTERN
10
165.8913
20
32.1165
30
0.0
0
VERTEX
8
PATTERN
10
166.1618
20
33.2798
30
0.0
0
VERTEX
8
PATTERN
10
166.0312
20
34.4665
30
0.0
0
VERTEX
8
PATTERN
10
165.5949
20
35.5822
30
0.0
0
VERTEX
8
PATTERN
10
165.0547
20
36.6535
30
0.0
0
VERTEX
8
PATTERN
10
164.5541
20
37.7437
30
0.0
0
VERTEX
8
PATTERN
10
164.1664
20
38.8785
30
0.0
0
VERTEX
8
PATTERN
10
163.8904
20
40.0460
30
0.0
0
VERTEX
8
PATTERN
10
163.6611
20
41.2237
30
0.0
0
VERTEX
8
PATTERN
10
163.3819
20
42.3902
30
0.0
0
VERTEX
8
PATTERN
10
162.9510
20
43.5082
30
0.0
0
VERTEX
8
PATTERN
10
162.2859
20
44.5029
30
0.0
0
VERTEX
8
PATTERN
10
161.3840
20
45.2884
30
0.0
0
VERTEX
8
PATTERN
10
160.3109
20
45.8193
30
0.0
0
VERTEX
8
PATTERN
10
159.1550
20
46.1360
30
0.0
0
VERTEX
8
PATTERN
10
157.9680
20
46.3078
30
0.0
0
VERTEX
8
PATTERN
10
156.7719
20
46.4024
30
0.0
0
VERTEX
8
PATTERN
10
155.5743
20
46.4762
30
0.0
0
VERTEX
8
PATTERN
10
154.3792
20
46.5824
30
0.0
0
VERTEX
8
PATTERN
10
153.1966
20
46.7817
30
0.0
0
VERTEX
8
PATTERN
10
152.0527
20
47.1393
30
0.0
0
VERTEX
8
PATTERN
10
150.9888
20
47.6905
30
0.0
0
VERTEX
8
PATTERN
10
150.0287
20
48.4085
30
0.0
0
VERTEX
8
PATTERN
10
149.1456
20
49.2205
30
0.0
0
VERTEX
8
PATTERN
10
148.2854
20
50.0570
30
0.0
0
VERTEX
8
PATTERN
10
147.3911
20
50.8564
30
0.0
0
VERTEX
8
PATTERN
10
146.4196
20
51.5592
30
0.0
0
VERTEX
8
PATTERN
10
145.3603
20
52.1207
30
0.0
0
VERTEX
8
PATTERN
10
144.2411
20
52.5521
30
0.0
0
VERTEX
8
PATTERN
10
143.0992
20
52.9207
30
0.0
0
VERTEX
8
PATTERN
10
141.9659
20
53.3141
30
0.0
0
VERTEX
8
PATTERN
10
140.8733
20
53.8081
30
0.0
0
VERTEX
8
PATTERN
10
139.8601
20
54.4486
30
0.0
0
VERTEX
8
PATTERN
10
138.9563
20
55.2359
30
0.0
0
VERTEX
8
PATTERN
10
138.1576
20
56.1307
30
0.0
0
VERTEX
8
PATTERN
10
137.4171
20
57.0748
30
0.0
0
VERTEX
8
PATTERN
10
136.6591
20
58.0046
30
0.0
0
VERTEX
8
PATTERN
10
135.8016
20
58.8422
30
0.0
0
VERTEX
8
PATTERN
10
134.8014
20
59.5004
30
0.0
0
VERTEX
8
PATTERN
10
133.6811
20
59.9235
30
0.0
0
VERTEX
8
PATTERN
10
132.5023
20
60.1419
30
0.0
0
VERTEX
8
PATTERN
10
131.3063
20
60.2345
30
0.0
0
VERTEX
8
PATTERN
10
130.1072
20
60.2748
30
0.0
0
VERTEX
8
PATTERN
10
128.9082
20
60.3209
30
0.0
0
VERTEX
8
PATTERN
10
127.7126
20
60.4201
30
0.0
0
VERTEX
8
PATTERN
10
126.5297
20
60.6178
30
0.0
0
VERTEX
8
PATTERN
10
125.3830
20
60.9667
30
0.0
0
VERTEX
8
PATTERN
10
124.3219
20
61.5212
30
0.0
0
VERTEX
8
PATTERN
10
123.4449
20
62.3322
30
0.0
0
VERTEX
8
PATTERN
10
122.9195
20
63.4001
30
0.0
0
VERTEX
8
PATTERN
10
122.9853
20
64.5788
30
0.0
0
VERTEX
8
PATTERN
10
123.8087
20
65.4038
30
0.0
0
VERTEX
8
PATTERN
10
124.9908
20
65.5223
30
0.0
0
VERTEX
8
PATTERN
10
126.1663
20
65.2867
30
0.0
0
VERTEX
8
PATTERN
10
127.3263
20
64.9799
30
0.0
0
VERTEX
8
PATTERN
10
128.4982
20
64.7236
30
0.0
0
VERTEX
8
PATTERN
10
129.6863
20
64.5579
30
0.0
0
VERTEX
8
PATTERN
10
130.8829
20
64.4731
30
0.0
0
VERTEX
8
PATTERN
10
132.0823
20
64.4377
30
0.0
0
VERTEX
8
PATTERN
10
133.2819
20
64.4137
30
0.0
0
VERTEX
8
PATTERN
10
134.4800
20
64.3521
30
0.0
0
VERTEX
8
PATTERN
10
135.6669
20
64.1815
30
0.0
0
VERTEX
8
PATTERN
10
136.8057
20
63.8104
30
0.0
0
VERTEX
8
PATTERN
10
137.8349
20
63.1988
30
0.0
0
VERTEX
8
PATTERN
10
138.7228
20
62.3938
30
0.0
0
VERTEX
8
PATTERN
10
139.5022
20
61.4820
30
0.0
0
VERTEX
8
PATTERN
10
140.2284
20
60.5269
30
0.0
0
VERTEX
8
PATTERN
10
140.9598
20
59.5758
30
0.0
0
VERTEX
8
PATTERN
10
141.7602
20
58.6830
30
0.0
0
VERTEX
8
PATTERN
10
142.7030
20
57.9457
30
0.0
0
VERTEX
8
PATTERN
10
143.8302
20
57.5679
30
0.0
0
VERTEX
8
PATTERN
10
144.9334
20
57.9395
30
0.0
0
VERTEX
8
PATTERN
10
145.3871
20
59.0189
30
0.0
0
VERTEX
8
PATTERN
10
145.1955
20
60.1962
30
0.0
0
VERTEX
8
PATTERN
10
144.6947
20
61.2846
30
0.0
0
VERTEX
8
PATTERN
10
144.0594
20
62.3021
30
0.0
0
VERTEX
8
PATTERN
10
143.3720
20
63.2855
30
0.0
0
VERTEX
8
PATTERN
10
142.6771
20
64.2637
30
0.0
0
VERTEX
8
PATTERN
10
142.0076
20
65.2593
30
0.0
0
VERTEX
8
PATTERN
10
141.4016
20
66.2945
30
0.0
0
VERTEX
8
PATTERN
10
140.9027
20
67.3850
30
0.0
0
VERTEX
8
PATTERN
10
140.5347
20
68.5263
30
0.0
0
VERTEX
8
PATTERN
10
140.2719
20
69.6968
30
0.0
0
VERTEX
8
PATTERN
10
140.0493
20
70.8758
30
0.0
0
VERTEX
8
PATTERN
10
139.8046
20
72.0505
30
0.0
0
VERTEX
8
PATTERN
10
139.5152
20
73.2148
30
0.0
0
VERTEX
8
PATTERN
10
139.2118
20
74.3757
30
0.0
0
VERTEX
8
PATTERN
10
138.9791
20
75.5521
30
0.0
0
VERTEX
8
PATTERN
10
138.9692
20
76.7481
30
0.0
0
VERTEX
8
PATTERN
10
139.4063
20
77.8507
30
0.0
0
VERTEX
8
PATTERN
10
140.3972
20
78.4782
30
0.0
0
VERTEX
8
PATTERN
10
141.5584
20
78.2955
30
0.0
0
VERTEX
8
PATTERN
10
142.4363
20
77.4940
30
0.0
0
VERTEX
8
PATTERN
10
142.9999
20
76.4377
30
0.0
0
VERTEX
8
PATTERN
10
143.3859
20
75.3021
30
0.0
0
VERTEX
8
PATTERN
10
143.6955
20
74.1429
30
0.0
0
VERTEX
8
PATTERN
10
143.9747
20
72.9760
30
0.0
0
VERTEX
8
PATTERN
10
144.2488
20
71.8078
30
0.0
0
VERTEX
8
PATTERN
10
144.5453
20
70.6452
30
0.0
0
VERTEX
8
PATTERN
10
144.9001
20
69.4992
30
0.0
0
VERTEX
8
PATTERN
10
145.3451
20
68.3854
30
0.0
0
VERTEX
8
PATTERN
10
145.8901
20
67.3169
30
0.0
0
VERTEX
8
PATTERN
10
146.5198
20
66.2959
30
0.0
0
VERTEX
8
PATTERN
10
147.2052
20
65.3111
30
0.0
0
VERTEX
8
PATTERN
10
147.9121
20
64.3416
30
0.0
0
VERTEX
8
PATTERN
10
148.6010
20
63.3593
30
0.0
0
VERTEX
8
PATTERN
10
149.2201
20
62.3319
30
0.0
0
VERTEX
8
PATTERN
10
149.7042
20
61.2354
30
0.0
0
VERTEX
8
PATTERN
10
149.9999
20
60.0742
30
0.0
0
VERTEX
8
PATTERN
10
150.1131
20
58.8805
30
0.0
0
VERTEX
8
PATTERN
10
150.1316
20
57.6808
30
0.0
0
VERTEX
8
PATTERN
10
150.1768
20
56.4821
30
0.0
0
VERTEX
8
PATTERN
10
150.3715
20
55.2998
30
0.0
0
VERTEX
8
PATTERN
10
150.7972
20
54.1806
30
0.0
0
VERTEX
8
PATTERN
10
151.4533
20
53.1788
30
0.0
0
VERTEX
8
PATTERN
10
152.3003
20
52.3316
30
0.0
0
VERTEX
8
PATTERN
10
153.2908
20
51.6576
30
0.0
0
VERTEX
8
PATTERN
10
154.3853
20
51.1696
30
0.0
0
VERTEX
8
PATTERN
10
155.5422
20
50.8551
30
0.0
0
VERTEX
8
PATTERN
10
156.7271
20
50.6687
30
0.0
0
VERTEX
8
PATTERN
10
157.9214
20
50.5538
30
0.0
0
VERTEX
8
PATTERN
10
159.1172
20
50.4553
30
0.0
0
VERTEX
8
PATTERN
10
160.3094
20
50.3211
30
0.0
0
VERTEX
8
PATTERN
10
161.4882
20
50.0995
30
0.0
0
VERTEX
8
PATTERN
10
162.6330
20
49.7433
30
0.0
0
VERTEX
8
PATTERN
10
163.7124
20
49.2223
30
0.0
0
VERTEX
8
PATTERN
10
164.6926
20
48.5325
30
0.0
0
VERTEX
8
PATTERN
10
165.5532
20
47.6981
30
0.0
0
VERTEX
8
PATTERN
10
166.2886
20
46.7513
30
0.0
0
VERTEX
8
PATTERN
10
166.8979
20
45.7186
30
0.0
0
VERTEX
8
PATTERN
10
167.3768
20
44.6192
30
0.0
0
VERTEX
8
PATTERN
10
167.7270
20
43.4721
30
0.0
0
VERTEX
8
PATTERN
10
167.9818
20
42.2997
30
0.0
0
VERTEX
8
PATTERN
10
168.2326
20
41.1266
30
0.0
0
VERTEX
8
PATTERN
10
168.6391
20
40.0010
30
0.0
0
VERTEX
8
PATTERN
10
169.4486
20
39.1423
30
0.0
0
VERTEX
8
PATTERN
10
170.6119
20
39.1039
30
0.0
0
VERTEX
8
PATTERN
10
171.5899
20
39.7817
30
0.0
0
VERTEX
8
PATTERN
10
172.3047
20
40.7413
30
0.0
0
VERTEX
8
PATTERN
10
172.7912
20
41.8355
30
0.0
0
VERTEX
8
PATTERN
10
173.0020
20
43.0128
30
0.0
0
VERTEX
8
PATTERN
10
172.8641
20
44.1996
30
0.0
0
VERTEX
8
PATTERN
10
172.4194
20
45.3114
30
0.0
0
VERTEX
8
PATTERN
10
171.8108
20
46.3449
30
0.0
0
VERTEX
8
PATTERN
10
171.1505
20
47.3467
30
0.0
0
VERTEX
8
PATTERN
10
170.4818
20
48.3430
30
0.0
0
VERTEX
8
PATTERN
10
169.7998
20
49.3301
30
0.0
0
VERTEX
8
PATTERN
10
169.0750
20
50.2862
30
0.0
0
VERTEX
8
PATTERN
10
168.2809
20
51.1851
30
0.0
0
VERTEX
8
PATTERN
10
167.4068
20
52.0064
30
0.0
0
VERTEX
8
PATTERN
10
166.4536
20
52.7344
30
0.0
0
VERTEX
8
PATTERN
10
165.4262
20
53.3527
30
0.0
0
VERTEX
8
PATTERN
10
164.3314
20
53.8416
30
0.0
0
VERTEX
8
PATTERN
10
163.1840
20
54.1898
30
0.0
0
VERTEX
8
PATTERN
10
162.0051
20
54.4110
30
0.0
0
VERTEX
8
PATTERN
10
160.8127
20
54.5429
30
0.0
0
VERTEX
8
PATTERN
10
159.6165
20
54.6372
30
0.0
0
VERTEX
8
PATTERN
10
158.4224
20
54.7539
30
0.0
0
VERTEX
8
PATTERN
10
157.2431
20
54.9705
30
0.0
0
VERTEX
8
PATTERN
10
156.1250
20
55.3965
30
0.0
0
VERTEX
8
PATTERN
10
155.2449
20
56.1929
30
0.0
0
VERTEX
8
PATTERN
10
155.0643
20
57.3420
30
0.0
0
VERTEX
8
PATTERN
10
155.8045
20
58.2501
30
0.0
0
VERTEX
8
PATTERN
10
156.9250
20
58.6605
30
0.0
0
VERTEX
8
PATTERN
10
158.1155
20
58.8016
30
0.0
0
VERTEX
8
PATTERN
10
159.3146
20
58.8381
30
0.0
0
VERTEX
8
PATTERN
10
160.5145
20
58.8437
30
0.0
0
VERTEX
8
PATTERN
10
161.7143
20
58.8353
30
0.0
0
VERTEX
8
PATTERN
10
162.9132
20
58.7880
30
0.0
0
VERTEX
8
PATTERN
10
164.1046
20
58.6501
30
0.0
0
VERTEX
8
PATTERN
10
165.2698
20
58.3674
30
0.0
0
VERTEX
8
PATTERN
10
166.3848
20
57.9269
30
0.0
0
VERTEX
8
PATTERN
10
167.4406
20
57.3580
30
0.0
0
VERTEX
8
PATTERN
10
168.4462
20
56.7038
30
0.0
0
VERTEX
8
PATTERN
10
169.4139
20
55.9946
30
0.0
0
VERTEX
8
PATTERN
10
170.3471
20
55.2406
30
0.0
0
VERTEX
8
PATTERN
10
171.2383
20
54.4374
30
0.0
0
VERTEX
8
PATTERN
10
172.0713
20
53.5743
30
0.0
0
VERTEX
8
PATTERN
10
172.8325
20
52.6471
30
0.0
0
VERTEX
8
PATTERN
10
173.5324
20
51.6726
30
0.0
0
VERTEX
8
PATTERN
10
174.2253
20
50.6931
30
0.0
0
VERTEX
8
PATTERN
10
175.0200
20
49.7972
30
0.0
0
VERTEX
8
PATTERN
10
176.0719
20
49.2596
30
0.0
0
VERTEX
8
PATTERN
10
177.1883
20
49.5992
30
0.0
0
VERTEX
8
PATTERN
10
177.9774
20
50.4958
30
0.0
0
VERTEX
8
PATTERN
10
178.5658
20
51.5405
30
0.0
0
VERTEX
8
PATTERN
10
179.0397
20
52.6422
30
0.0
0
VERTEX
8
PATTERN
10
179.3645
20
53.7953
30
0.0
0
VERTEX
8
PATTERN
10
179.3286
20
54.9839
30
0.0
0
VERTEX
8
PATTERN
10
178.6507
20
55.9496
30
0.0
0
VERTEX
8
PATTERN
10
177.5978
20
56.5158
30
0.0
0
VERTEX
8
PATTERN
10
176.4680
20
56.9195
30
0.0
0
VERTEX
8
PATTERN
10
175.3479
20
57.3492
30
0.0
0
VERTEX
8
PATTERN
10
174.2743
20
57.8837
30
0.0
0
VERTEX
8
PATTERN
10
173.2533
20
58.5134
30
0.0
0
VERTEX
8
PATTERN
10
172.2682
20
59.1984
30
0.0
0
VERTEX
8
PATTERN
10
171.2990
20
59.9057
30
0.0
0
VERTEX
8
PATTERN
10
170.3337
20
60.6184
30
0.0
0
VERTEX
8
PATTERN
10
169.3643
20
61.3255
30
0.0
0
VERTEX
8
PATTERN
10
168.3765
20
62.0064
30
0.0
0
VERTEX
8
PATTERN
10
167.3435
20
62.6158
30
0.0
0
VERTEX
8
PATTERN
10
166.2367
20
63.0750
30
0.0
0
VERTEX
8
PATTERN
10
165.0633
20
63.3153
30
0.0
0
VERTEX
8
PATTERN
10
163.8648
20
63.3430
30
0.0
0
VERTEX
8
PATTERN
10
162.6687
20
63.2495
30
0.0
0
VERTEX
8
PATTERN
10
161.4749
20
63.1292
30
0.0
0
VERTEX
8
PATTERN
10
160.2782
20
63.0438
30
0.0
0
VERTEX
8
PATTERN
10
159.0787
20
63.0253
30
0.0
0
VERTEX
8
PATTERN
10
157.8809
20
63.0914
30
0.0
0
VERTEX
8
PATTERN
10
156.6942
20
63.2652
30
0.0
0
VERTEX
8
PATTERN
10
155.5381
20
63.5824
30
0.0
0
VERTEX
8
PATTERN
10
154.4443
20
64.0725
30
0.0
0
VERTEX
8
PATTERN
10
153.4416
20
64.7291
30
0.0
0
VERTEX
8
PATTERN
10
152.5349
20
65.5139
30
0.0
0
VERTEX
8
PATTERN
10
151.7101
20
66.3848
30
0.0
0
VERTEX
8
PATTERN
10
150.9537
20
67.3159
30
0.0
0
VERTEX
8
PATTERN
10
150.2658
20
68.2987
30
0.0
0
VERTEX
8
PATTERN
10
149.6581
20
69.3329
30
0.0
0
VERTEX
8
PATTERN
10
149.1433
20
70.4163
30
0.0
0
VERTEX
8
PATTERN
10
148.7212
20
71.5392
30
0.0
0
VERTEX
8
PATTERN
10
148.3741
20
72.6876
30
0.0
0
VERTEX
8
PATTERN
10
148.0805
20
73.8509
30
0.0
0
VERTEX
8
PATTERN
10
147.8418
20
75.0265
30
0.0
0
VERTEX
8
PATTERN
10
147.7088
20
76.2181
30
0.0
0
VERTEX
8
PATTERN
10
147.8280
20
77.4071
30
0.0
0
VERTEX
8
PATTERN
10
148.4686
20
78.3954
30
0.0
0
VERTEX
8
PATTERN
10
149.6055
20
78.6609
30
0.0
0
VERTEX
8
PATTERN
10
150.6613
20
78.1291
30
0.0
0
VERTEX
8
PATTERN
10
151.3859
20
77.1801
30
0.0
0
VERTEX
8
PATTERN
10
151.8636
20
76.0809
30
0.0
0
VERTEX
8
PATTERN
10
152.2201
20
74.9353
30
0.0
0
VERTEX
8
PATTERN
10
152.5525
20
73.7824
30
0.0
0
VERTEX
8
PATTERN
10
152.9309
20
72.6440
30
0.0
0
VERTEX
8
PATTERN
10
153.4019
20
71.5411
30
0.0
0
VERTEX
8
PATTERN
10
153.9914
20
70.4969
30
0.0
0
VERTEX
8
PATTERN
10
154.7124
20
69.5392
30
0.0
0
VERTEX
8
PATTERN
10
155.5731
20
68.7052
30
0.0
0
VERTEX
8
PATTERN
10
156.5736
20
68.0466
30
0.0
0
VERTEX
8
PATTERN
10
157.6854
20
67.6013
30
0.0
0
VERTEX
8
PATTERN
10
158.8618
20
67.3733
30
0.0
0
VERTEX
8
PATTERN
10
160.0600
20
67.3347
30
0.0
0
VERTEX
8
PATTERN
10
161.2547
20
67.4409
30
0.0
0
VERTEX
8
PATTERN
10
162.4381
20
67.6379
30
0.0
0
VERTEX
8
PATTERN
10
163.6177
20
67.8574
30
0.0
0
VERTEX
8
PATTERN
10
164.8069
20
68.0130
30
0.0
0
VERTEX
8
PATTERN
10
166.0053
20
68.0099
30
0.0
0
VERTEX
8
PATTERN
10
167.1804
20
67.7777
30
0.0
0
VERTEX
8
PATTERN
10
168.2907
20
67.3270
30
0.0
0
VERTEX
8
PATTERN
10
169.3256
20
66.7211
30
0.0
0
VERTEX
8
PATTERN
10
170.3055
20
66.0288
30
0.0
0
VERTEX
8
PATTERN
10
171.2597
20
65.3014
30
0.0
0
VERTEX
8
PATTERN
10
172.2124
20
64.5720
30
0.0
0
VERTEX
8
PATTERN
10
173.1784
20
63.8603
30
0.0
0
VERTEX
8
PATTERN
10
174.1668
20
63.1801
30
0.0
0
VERTEX
8
PATTERN
10
175.1853
20
62.5461
30
0.0
0
VERTEX
8
PATTERN
10
176.2416
20
61.9774
30
0.0
0
VERTEX
8
PATTERN
10
177.3399
20
61.4954
30
0.0
0
VERTEX
8
PATTERN
10
178.4807
20
61.1257
30
0.0
0
VERTEX
8
PATTERN
10
179.6601
20
60.9127
30
0.0
0
VERTEX
8
PATTERN
10
180.8545
20
60.9630
30
0.0
0
VERTEX
8
PATTERN
10
181.9152
20
61.4868
30
0.0
0
VERTEX
8
PATTERN
10
182.3445
20
62.5661
30
0.0
0
VERTEX
8
PATTERN
10
181.8638
20
63.6419
30
0.0
0
VERTEX
8
PATTERN
10
180.9430
20
64.4042
30
0.0
0
VERTEX
8
PATTERN
10
179.8936
20
64.9846
30
0.0
0
VERTEX
8
PATTERN
10
178.8155
20
65.5112
30
0.0
0
VERTEX
8
PATTERN
10
177.7468
20
66.0567
30
0.0
0
VERTEX
8
PATTERN
10
176.7057
20
66.6529
30
0.0
0
VERTEX
8
PATTERN
10
175.6984
20
67.3046
30
0.0
0
VERTEX
8
PATTERN
10
174.7247
20
68.0057
30
0.0
0
VERTEX
8
PATTERN
10
173.7809
20
68.7465
30
0.0
0
VERTEX
8
PATTERN
10
172.8580
20
69.5132
30
0.0
0
VERTEX
8
PATTERN
10
171.9373
20
70.2826
30
0.0
0
VERTEX
8
PATTERN
10
170.9935
20
71.0234
30
0.0
0
VERTEX
8
PATTERN
10
170.0109
20
71.7118
30
0.0
0
VERTEX
8
PATTERN
10
169.0003
20
72.3586
30
0.0
0
VERTEX
8
PATTERN
10
168.0007
20
73.0218
30
0.0
0
VERTEX
8
PATTERN
10
167.0719
20
73.7798
30
0.0
0
VERTEX
8
PATTERN
10
166.2765
20
74.6759
30
0.0
0
VERTEX
8
PATTERN
10
165.6782
20
75.7129
30
0.0
0
VERTEX
8
PATTERN
10
165.3840
20
76.8695
30
0.0
0
VERTEX
8
PATTERN
10
165.6888
20
78.0037
30
0.0
0
VERTEX
8
PATTERN
10
166.6901
20
78.6197
30
0.0
0
VERTEX
8
PATTERN
10
167.8824
20
78.6819
30
0.0
0
VERTEX
8
PATTERN
10
169.0533
20
78.4297
30
0.0
0
VERTEX
8
PATTERN
10
170.1630
20
77.9770
30
0.0
0
VERTEX
8
PATTERN
10
171.1946
20
77.3662
30
0.0
0
VERTEX
8
PATTERN
10
172.1329
20
76.6197
30
0.0
0
VERTEX
8
PATTERN
10
172.9794
20
75.7700
30
0.0
0
VERTEX
8
PATTERN
10
173.7654
20
74.8635
30
0.0
0
VERTEX
8
PATTERN
10
174.5410
20
73.9480
30
0.0
0
VERTEX
8
PATTERN
10
175.3509
20
73.0630
30
0.0
0
VERTEX
8
PATTERN
10
176.2189
20
72.2349
30
0.0
0
VERTEX
8
PATTERN
10
177.1483
20
71.4766
30
0.0
0
VERTEX
8
PATTERN
10
178.1324
20
70.7906
30
0.0
0
VERTEX
8
PATTERN
10
179.1630
20
70.1765
30
0.0
0
VERTEX
8
PATTERN
10
180.2359
20
69.6401
30
0.0
0
VERTEX
8
PATTERN
10
181.3540
20
69.2064
30
0.0
0
VERTEX
8
PATTERN
10
182.5220
20
68.9396
30
0.0
0
VERTEX
8
PATTERN
10
183.7135
20
68.9962
30
0.0
0
VERTEX
8
PATTERN
10
184.6942
20
69.6441
30
0.0
0
VERTEX
8
PATTERN
10
184.9428
20
70.7860
30
0.0
0
VERTEX
8
PATTERN
10
184.4238
20
71.8510
30
0.0
0
VERTEX
8
PATTERN
10
183.5294
20
72.6453
30
0.0
0
VERTEX
8
PATTERN
10
182.5076
20
73.2732
30
0.0
0
VERTEX
8
PATTERN
10
181.4583
20
73.8552
30
0.0
0
VERTEX
8
PATTERN
10
180.4353
20
74.4814
30
0.0
0
VERTEX
8
PATTERN
10
179.5034
20
75.2345
30
0.0
0
VERTEX
8
PATTERN
10
178.7962
20
76.1953
30
0.0
0
VERTEX
8
PATTERN
10
178.6716
20
77.3609
30
0.0
0
VERTEX
8
PATTERN
10
179.4740
20
78.2010
30
0.0
0
VERTEX
8
PATTERN
10
180.6483
20
78.3924
30
0.0
0
VERTEX
8
PATTERN
10
181.8344
20
78.2213
30
0.0
0
VERTEX
8
PATTERN
10
182.9986
20
77.9312
30
0.0
0
VERTEX
8
PATTERN
10
184.1771
20
77.7123
30
0.0
0
VERTEX
8
PATTERN
10
185.3629
20
77.8260
30
0.0
0
VERTEX
8
PATTERN
10
186.3324
20
78.5050
30
0.0
0
VERTEX
8
PATTERN
10
186.8543
20
79.5747
30
0.0
0
VERTEX
8
PATTERN
10
186.9141
20
80.7649
30
0.0
0
VERTEX
8
PATTERN
10
186.4516
20
81.8571
30
0.0
0
VERTEX
8
PATTERN
10
185.5001
20
82.5677
30
0.0
0
VERTEX
8
PATTERN
10
184.3489
20
82.8937
30
0.0
0
VERTEX
8
PATTERN
10
183.1563
20
83.0204
30
0.0
0
VERTEX
8
PATTERN
10
181.9574
20
83.0636
30
0.0
0
VERTEX
8
PATTERN
10
180.7576
20
83.0573
30
0.0
0
VERTEX
8
PATTERN
10
179.5601
20
82.9860
30
0.0
0
VERTEX
8
PATTERN
10
178.3725
20
82.8175
30
0.0
0
VERTEX
8
PATTERN
10
177.2043
20
82.5449
30
0.0
0
VERTEX
8
PATTERN
10
176.0476
20
82.2260
30
0.0
0
VERTEX
8
PATTERN
10
174.8744
20
81.9786
30
0.0
0
VERTEX
8
PATTERN
10
173.6776
20
81.9377
30
0.0
0
VERTEX
8
PATTERN
10
172.4941
20
82.1262
30
0.0
0
VERTEX
8
PATTERN
10
171.3346
20
82.4342
30
0.0
0
VERTEX
8
PATTERN
10
170.1749
20
82.7419
30
0.0
0
VERTEX
8
PATTERN
10
168.9982
20
82.9750
30
0.0
0
VERTEX
8
PATTERN
10
167.8063
20
83.1103
30
0.0
0
VERTEX
8
PATTERN
10
166.6078
20
83.1661
30
0.0
0
VERTEX
8
PATTERN
10
165.4080
20
83.1761
30
0.0
0
VERTEX
8
PATTERN
10
164.2083
20
83.1614
30
0.0
0
VERTEX
8
PATTERN
10
163.0099
20
83.1048
30
0.0
0
VERTEX
8
PATTERN
10
161.8262
20
82.9193
30
0.0
0
VERTEX
8
PATTERN
10
160.7546
20
82.4027
30
0.0
0
VERTEX
8
PATTERN
10
160.1109
20
81.4113
30
0.0
0
VERTEX
8
PATTERN
10
159.9620
20
80.2259
30
0.0
0
VERTEX
8
PATTERN
10
160.0721
20
79.0321
30
0.0
0
VERTEX
8
PATTERN
10
160.3094
20
77.8563
30
0.0
0
VERTEX
8
PATTERN
10
160.6183
20
76.6969
30
0.0
0
VERTEX
8
PATTERN
10
160.9541
20
75.5449
30
0.0
0
VERTEX
8
PATTERN
10
161.2405
20
74.3802
30
0.0
0
VERTEX
8
PATTERN
10
161.2983
20
73.1867
30
0.0
0
VERTEX
8
PATTERN
10
160.7514
20
72.1519
30
0.0
0
VERTEX
8
PATTERN
10
159.6246
20
71.8381
30
0.0
0
VERTEX
8
PATTERN
10
158.5118
20
72.2509
30
0.0
0
VERTEX
8
PATTERN
10
157.6500
20
73.0774
30
0.0
0
VERTEX
8
PATTERN
10
157.0337
20
74.1041
30
0.0
0
VERTEX
8
PATTERN
10
156.5915
20
75.2186
30
0.0
0
VERTEX
8
PATTERN
10
156.2593
20
76.3713
30
0.0
0
VERTEX
8
PATTERN
10
155.9899
20
77.5404
30
0.0
0
VERTEX
8
PATTERN
10
155.7451
20
78.7151
30
0.0
0
VERTEX
8
PATTERN
10
155.4764
20
79.8843
30
0.0
0
VERTEX
8
PATTERN
10
155.0971
20
81.0214
30
0.0
0
VERTEX
8
PATTERN
10
154.4637
20
82.0338
30
0.0
0
VERTEX
8
PATTERN
10
153.5020
20
82.7376
30
0.0
0
VERTEX
8
PATTERN
10
152.3599
20
83.0949
30
0.0
0
VERTEX
8
PATTERN
10
151.1705
20
83.2471
30
0.0
0
VERTEX
8
PATTERN
10
149.9717
20
83.2905
30
0.0
0
VERTEX
8
PATTERN
10
148.7721
20
83.2694
30
0.0
0
VERTEX
8
PATTERN
10
147.5739
20
83.2071
30
0.0
0
VERTEX
8
PATTERN
10
146.3763
20
83.1319
30
0.0
0
VERTEX
8
PATTERN
10
145.1777
20
83.0789
30
0.0
0
VERTEX
8
PATTERN
10
143.9779
20
83.0717
30
0.0
0
VERTEX
8
PATTERN
10
142.7786
20
83.1070
30
0.0
0
VERTEX
8
PATTERN
10
141.5799
20
83.1608
30
0.0
0
VERTEX
8
PATTERN
10
140.3811
20
83.2105
30
0.0
0
VERTEX
8
PATTERN
10
139.1817
20
83.2457
30
0.0
0
VERTEX
8
PATTERN
10
137.9819
20
83.2521
30
0.0
0
VERTEX
8
PATTERN
10
136.7854
20
83.1740
30
0.0
0
VERTEX
8
PATTERN
10
135.6330
20
82.8598
30
0.0
0
VERTEX
8
PATTERN
10
134.7562
20
82.0682
30
0.0
0
VERTEX
8
PATTERN
10
134.3724
20
80.9384
30
0.0
0
VERTEX
8
PATTERN
10
134.2071
20
79.7500
30
0.0
0
VERTEX
8
PATTERN
10
133.9209
20
78.5876
30
0.0
0
VERTEX
8
PATTERN
10
133.1935
20
77.6572
30
0.0
0
VERTEX
8
PATTERN
10
132.0420
20
77.4951
30
0.0
0
VERTEX
8
PATTERN
10
131.0756
20
78.1744
30
0.0
0
VERTEX
8
PATTERN
10
130.4627
20
79.2013
30
0.0
0
VERTEX
8
PATTERN
10
130.0167
20
80.3149
30
0.0
0
VERTEX
8
PATTERN
10
129.5504
20
81.4198
30
0.0
0
VERTEX
8
PATTERN
10
128.8754
20
82.4054
30
0.0
0
VERTEX
8
PATTERN
10
127.8413
20
82.9732
30
0.0
0
VERTEX
8
PATTERN
10
126.7159
20
82.6777
30
0.0
0
VERTEX
8
PATTERN
10
126.0948
20
81.6749
30
0.0
0
VERTEX
8
PATTERN
10
125.9671
20
80.4866
30
0.0
0
VERTEX
8
PATTERN
10
126.0943
20
79.2946
30
0.0
0
VERTEX
8
PATTERN
10
126.3550
20
78.1238
30
0.0
0
VERTEX
8
PATTERN
10
126.7129
20
76.9789
30
0.0
0
VERTEX
8
PATTERN
10
127.1855
20
75.8769
30
0.0
0
VERTEX
8
PATTERN
10
127.8208
20
74.8612
30
0.0
0
VERTEX
8
PATTERN
10
128.6595
20
74.0076
30
0.0
0
VERTEX
8
PATTERN
10
129.6856
20
73.3917
30
0.0
0
VERTEX
8
PATTERN
10
130.8195
20
73.0046
30
0.0
0
VERTEX
8
PATTERN
10
131.9942
20
72.7615
30
0.0
0
VERTEX
8
PATTERN
10
133.1703
20
72.5254
30
0.0
0
VERTEX
8
PATTERN
10
134.2933
20
72.1134
30
0.0
0
VERTEX
8
PATTERN
10
135.1490
20
71.2978
30
0.0
0
VERTEX
8
PATTERN
10
135.2522
20
70.1372
30
0.0
0
VERTEX
8
PATTERN
10
134.5040
20
69.2274
30
0.0
0
VERTEX
8
PATTERN
10
133.3971
20
68.7804
30
0.0
0
VERTEX
8
PATTERN
10
132.2085
20
68.6293
30
0.0
0
VERTEX
8
PATTERN
10
131.0096
20
68.6522
30
0.0
0
VERTEX
8
PATTERN
10
129.8195
20
68.8015
30
0.0
0
VERTEX
8
PATTERN
10
128.6500
20
69.0676
30
0.0
0
VERTEX
8
PATTERN
10
127.5163
20
69.4584
30
0.0
0
VERTEX
8
PATTERN
10
126.4413
20
69.9889
30
0.0
0
VERTEX
8
PATTERN
10
125.4599
20
70.6767
30
0.0
0
VERTEX
8
PATTERN
10
124.6187
20
71.5297
30
0.0
0
VERTEX
8
PATTERN
10
123.9453
20
72.5209
30
0.0
0
VERTEX
8
PATTERN
10
123.4220
20
73.5997
30
0.0
0
VERTEX
8
PATTERN
10
123.0054
20
74.7246
30
0.0
0
VERTEX
8
PATTERN
10
122.6561
20
75.8724
30
0.0
0
VERTEX
8
PATTERN
10
122.3506
20
77.0327
30
0.0
0
VERTEX
8
PATTERN
10
122.0759
20
78.2007
30
0.0
0
VERTEX
8
PATTERN
10
121.8167
20
79.3722
30
0.0
0
VERTEX
8
PATTERN
10
121.5439
20
80.5407
30
0.0
0
VERTEX
8
PATTERN
10
121.2091
20
81.6926
30
0.0
0
VERTEX
8
PATTERN
10
120.7566
20
82.8029
30
0.0
0
VERTEX
8
PATTERN
10
120.1573
20
83.8413
30
0.0
0
VERTEX
8
PATTERN
10
119.4357
20
84.7993
30
0.0
0
VERTEX
8
PATTERN
10
118.6499
20
85.7060
30
0.0
0
VERTEX
8
PATTERN
10
117.8502
20
86.6005
30
0.0
0
VERTEX
8
PATTERN
10
117.0607
20
87.5041
30
0.0
0
VERTEX
8
PATTERN
10
116.2760
20
88.4118
30
0.0
0
VERTEX
8
PATTERN
10
115.4674
20
89.2981
30
0.0
0
VERTEX
8
PATTERN
10
114.6016
20
90.1282
30
0.0
0
VERTEX
8
PATTERN
10
113.6636
20
90.8757
30
0.0
0
VERTEX
8
PATTERN
10
112.6669
20
91.5433
30
0.0
0
VERTEX
8
PATTERN
10
111.6432
20
92.1692
30
0.0
0
VERTEX
8
PATTERN
10
110.6334
20
92.8169
30
0.0
0
VERTEX
8
PATTERN
10
109.6916
20
93.5587
30
0.0
0
VERTEX
8
PATTERN
10
108.8889
20
94.4476
30
0.0
0
VERTEX
8
PATTERN
10
108.3005
20
95.4900
30
0.0
0
VERTEX
8
PATTERN
10
107.9745
20
96.6415
30
0.0
0
VERTEX
8
PATTERN
10
107.9436
20
97.8374
30
0.0
0
VERTEX
8
PATTERN
10
108.2268
20
98.9995
30
0.0
0
VERTEX
8
PATTERN
10
108.8191
20
100.0384
30
0.0
0
VERTEX
8
PATTERN
10
109.6842
20
100.8621
30
0.0
0
VERTEX
8
PATTERN
10
110.7862
20
101.3083
30
0.0
0
VERTEX
8
PATTERN
10
111.9123
20
101.0089
30
0.0
0
VERTEX
8
PATTERN
10
112.4829
20
99.9788
30
0.0
0
VERTEX
8
PATTERN
10
112.6142
20
98.7876
30
0.0
0
VERTEX
8
PATTERN
10
112.7496
20
97.5969
30
0.0
0
VERTEX
8
PATTERN
10
113.2856
20
96.5413
30
0.0
0
VERTEX
8
PATTERN
10
114.3680
20
96.1168
30
0.0
0
VERTEX
8
PATTERN
10
115.4587
20
96.5676
30
0.0
0
VERTEX
8
PATTERN
10
116.2862
20
97.4319
30
0.0
0
VERTEX
8
PATTERN
10
116.9933
20
98.4010
30
0.0
0
VERTEX
8
PATTERN
10
117.7237
20
99.3526
30
0.0
0
VERTEX
8
PATTERN
10
118.5628
20
100.2087
30
0.0
0
VERTEX
8
PATTERN
10
119.5246
20
100.9240
30
0.0
0
VERTEX
8
PATTERN
10
120.5721
20
101.5081
30
0.0
0
VERTEX
8
PATTERN
10
121.6573
20
102.0199
30
0.0
0
VERTEX
8
PATTERN
10
122.7386
20
102.5396
30
0.0
0
SEQEND
8
PATTERN
0
ENDSEC
0
EOF
