0
SECTION
2
HEADER
9
$ACADVER
1
AC1009
9
$INSUNITS
70
4
9
$EXTMIN
10
0.0000
20
0.0000
30
0.0
9
$EXTMAX
10
183.6459
20
183.6988
30
0.0
0
ENDSEC
0
SECTION
2
ENTITIES
0
POLYLINE
8
PATTERN
66
1
70
1
10
0.0
20
0.0
30
0.0
0
VERTEX
8
PATTERN
10
124.8151
20
102.4555
30
0.0
0
VERTEX
8
PATTERN
10
125.0664
20
103.5872
30
0.0
0
VERTEX
8
PATTERN
10
124.3277
20
104.4937
30
0.0
0
VERTEX
8
PATTERN
10
123.2011
20
104.8850
30
0.0
0
VERTEX
8
PATTERN
10
122.0056
20
104.9582
30
0.0
0
VERTEX
8
PATTERN
10
120.8138
20
104.8281
30
0.0
0
VERTEX
8
PATTERN
10
119.6526
20
104.5307
30
0.0
0
VERTEX
8
PATTERN
10
118.5529
20
104.0545
30
0.0
0
VERTEX
8
PATTERN
10
117.5566
20
103.3889
30
0.0
0
VERTEX
8
PATTERN
10
116.6815
20
102.5696
30
0.0
0
VERTEX
8
PATTERN
10
115.9101
20
101.6512
30
0.0
0
VERTEX
8
PATTERN
10
115.2096
20
100.6772
30
0.0
0
VERTEX
8
PATTERN
10
114.5548
20
99.6718
30
0.0
0
VERTEX
8
PATTERN
10
113.9310
20
98.6469
30
0.0
0
VERTEX
8
PATTERN
10
113.3217
20
97.6132
30
0.0
0
VERTEX
8
PATTERN
10
112.6880
20
96.5944
30
0.0
0
VERTEX
8
PATTERN
10
111.9535
20
95.6472
30
0.0
0
VERTEX
8
PATTERN
10
110.9995
20
94.9327
30
0.0
0
VERTEX
8
PATTERN
10
109.8329
20
94.8594
30
0.0
0
VERTEX
8
PATTERN
10
108.9831
20
95.6633
30
0.0
0
VERTEX
8
PATTERN
10
108.7364
20
96.8273
30
0.0
0
VERTEX
8
PATTERN
10
108.8922
20
98.0135
30
0.0
0
VERTEX
8
PATTERN
10
109.2855
20
99.1458
30
0.0
0
VERTEX
8
PATTERN
10
109.8101
20
100.2245
30
0.0
0
VERTEX
8
PATTERN
10
110.4060
20
101.2658
30
0.0
0
VERTEX
8
PATTERN
10
111.0370
20
102.2864
30
0.0
0
VERTEX
8
PATTERN
10
111.6770
20
103.3013
30
0.0
0
VERTEX
8
PATTERN
10
112.2935
20
104.3306
30
0.0
0
VERTEX
8
PATTERN
10
112.8283
20
105.4039
30
0.0
0
VERTEX
8
PATTERN
10
113.1898
20
106.5459
30
0.0
0
VERTEX
8
PATTERN
10
113.3052
20
107.7378
30
0.0
0
VERTEX
8
PATTERN
10
113.2203
20
108.9340
30
0.0
0
VERTEX
8
PATTERN
10
113.0792
20
110.1255
30
0.0
0
VERTEX
8
PATTERN
10
113.0569
20
111.3236
30
0.0
0
VERTEX
8
PATTERN
10
113.3826
20
112.4695
30
0.0
0
VERTEX
8
PATTERN
10
114.2331
20
113.2873
30
0.0
0
VERTEX
8
PATTERN
10
115.4041
20
113.4221
30
0.0
0
VERTEX
8
PATTERN
10
116.4526
20
112.8678
30
0.0
0
VERTEX
8
PATTERN
10
117.2208
20
111.9506
30
0.0
0
VERTEX
8
PATTERN
10
117.8844
20
110.9512
30
0.0
0
VERTEX
8
PATTERN
10
118.7142
20
110.0932
30
0.0
0
VERTEX
8
PATTERN
10
119.8157
20
109.6415
30
0.0
0
VERTEX
8
PATTERN
10
121.0093
20
109.5397
30
0.0
0
VERTEX
8
PATTERN
10
122.2089
20
109.5627
30
0.0
0
VERTEX
8
PATTERN
10
123.4085
20
109.5853
30
0.0
0
VERTEX
8
PATTERN
10
124.6080
20
109.5577
30
0.0
0
VERTEX
8
PATTERN
10
125.8057
20
109.4858
30
0.0
0
VERTEX
8
PATTERN
10
127.0032
20
109.4097
30
0.0
0
VERTEX
8
PATTERN
10
128.2024
20
109.3756
30
0.0
0
VERTEX
8
PATTERN
10
129.4017
20
109.4092
30
0.0
0
VERTEX
8
PATTERN
10
130.5974
20
109.5073
30
0.0
0
VERTEX
8
PATTERN
10
131.7885
20
109.6523
30
0.0
0
VERTEX
8
PATTERN
10
132.9735
20
109.8399
30
0.0
0
VERTEX
8
PATTERN
10
134.1441
20
110.1013
30
0.0
0
VERTEX
8
PATTERN
10
135.2674
20
110.5179
30
0.0
0
VERTEX
8
PATTERN
10
136.2603
20
111.1840
30
0.0
0
VERTEX
8
PATTERN
10
137.0357
20
112.0955
30
0.0
0
VERTEX
8
PATTERN
10
137.6412
20
113.1307
30
0.0
0
VERTEX
8
PATTERN
10
138.2136
20
114.1851
30
0.0
0
VERTEX
8
PATTERN
10
138.8685
20
115.1895
30
0.0
0
VERTEX
8
PATTERN
10
139.6757
20
116.0746
30
0.0
0
VERTEX
8
PATTERN
10
140.6550
20
116.7622
30
0.0
0
VERTEX
8
PATTERN
10
141.7857
20
117.1481
30
0.0
0
VERTEX
8
PATTERN
10
142.9744
20
117.0900
30
0.0
0
VERTEX
8
PATTERN
10
143.9748
20
116.4602
30
0.0
0
VERTEX
8
PATTERN
10
144.3664
20
115.3527
30
0.0
0
VERTEX
8
PATTERN
10
144.0534
20
114.2053
30
0.0
0
VERTEX
8
PATTERN
10
143.4265
20
113.1831
30
0.0
0
VERTEX
8
PATTERN
10
142.8309
20
112.1435
30
0.0
0
VERTEX
8
PATTERN
10
142.7296
20
110.9779
30
0.0
0
VERTEX
8
PATTERN
10
143.6309
20
110.2550
30
0.0
0
VERTEX
8
PATTERN
10
144.8224
20
110.1903
30
0.0
0
VERTEX
8
PATTERN
10
146.0029
20
110.3996
30
0.0
0
VERTEX
8
PATTERN
10
147.1687
20
110.6833
30
0.0
0
VERTEX
8
PATTERN
10
148.3474
20
110.9049
30
0.0
0
VERTEX
8
PATTERN
10
149.5445
20
110.9627
30
0.0
0
VERTEX
8
PATTERN
10
150.7314
20
110.7998
30
0.0
0
VERTEX
8
PATTERN
10
151.8634
20
110.4088
30
0.0
0
VERTEX
8
PATTERN
10
152.8692
20
109.7620
30
0.0
0
VERTEX
8
PATTERN
10
153.5877
20
108.8136
30
0.0
0
VERTEX
8
PATTERN
10
153.6801
20
107.6427
30
0.0
0
VERTEX
8
PATTERN
10
152.9341
20
106.7414
30
0.0
0
VERTEX
8
PATTERN
10
151.7979
20
106.3775
30
0.0
0
VERTEX
8
PATTERN
10
150.6035
20
106.2684
30
0.0
0
VERTEX
8
PATTERN
10
149.4058
20
106.1959
30
0.0
0
VERTEX
8
PATTERN
10
148.2131
20
106.0669
30
0.0
0
VERTEX
8
PATTERN
10
147.0283
20
105.8777
30
0.0
0
VERTEX
8
PATTERN
10
145.8447
20
105.6804
30
0.0
0
VERTEX
8
PATTERN
10
144.6536
20
105.5373
30
0.0
0
VERTEX
8
PATTERN
10
143.4551
20
105.4879
30
0.0
0
VERTEX
8
PATTERN
10
142.2562
20
105.5322
30
0.0
0
VERTEX
8
PATTERN
10
141.0608
20
105.6352
30
0.0
0
VERTEX
8
PATTERN
10
139.8661
20
105.7468
30
0.0
0
VERTEX
8
PATTERN
10
138.6686
20
105.8214
30
0.0
0
VERTEX
8
PATTERN
10
137.4690
20
105.8339
30
0.0
0
VERTEX
8
PATTERN
10
136.2702
20
105.7845
30
0.0
0
VERTEX
8
PATTERN
10
135.0747
20
105.6836
30
0.0
0
VERTEX
8
PATTERN
10
133.8853
20
105.5262
30
0.0
0
VERTEX
8
PATTERN
10
132.7137
20
105.2707
30
0.0
0
VERTEX
8
PATTERN
10
131.6082
20
104.8130
30
0.0
0
VERTEX
8
PATTERN
10
130.7651
20
103.9821
30
0.0
0
VERTEX
8
PATTERN
10
130.7332
20
102.8282
30
0.0
0
VERTEX
8
PATTERN
10
131.5898
20
102.0214
30
0.0
0
VERTEX
8
PATTERN
10
132.7356
20
101.6818
30
0.0
0
VERTEX
8
PATTERN
10
133.9309
20
101.5877
30
0.0
0
VERTEX
8
PATTERN
10
135.1306
20
101.6015
30
0.0
0
VERTEX
8
PATTERN
10
136.3296
20
101.6471
30
0.0
0
VERTEX
8
PATTERN
10
137.5289
20
101.6840
30
0.0
0
VERTEX
8
PATTERN
10
138.7287
20
101.6926
30
0.0
0
VERTEX
8
PATTERN
10
139.9284
20
101.6697
30
0.0
0
VERTEX
8
PATTERN
10
141.1275
20
101.6255
30
0.0
0
VERTEX
8
PATTERN
10
142.3264
20
101.5785
30
0.0
0
VERTEX
8
PATTERN
10
143.5260
20
101.5498
30
0.0
0
VERTEX
8
PATTERN
10
144.7258
20
101.5549
30
0.0
0
VERTEX
8
PATTERN
10
145.9249
20
101.5967
30
0.0
0
VERTEX
8
PATTERN
10
147.1231
20
101.6613
30
0.0
0
VERTEX
8
PATTERN
10
148.3214
20
101.7230
30
0.0
0
VERTEX
8
PATTERN
10
149.5207
20
101.7592
30
0.0
0
VERTEX
8
PATTERN
10
150.7205
20
101.7656
30
0.0
0
VERTEX
8
PATTERN
10
151.9204
20
101.7596
30
0.0
0
VERTEX
8
PATTERN
10
153.1203
20
101.7668
30
0.0
0
VERTEX
8
PATTERN
10
154.3197
20
101.7993
30
0.0
0
VERTEX
8
PATTERN
10
155.5187
20
101.8452
30
0.0
0
VERTEX
8
PATTERN
10
156.7181
20
101.8778
30
0.0
0
VERTEX
8
PATTERN
10
157.9180
20
101.8774
30
0.0
0
VERTEX
8
PATTERN
10
159.1175
20
101.8474
30
0.0
0
VERTEX
8
PATTERN
10
160.3169
20
101.8121
30
0.0
0
VERTEX
8
PATTERN
10
161.5167
20
101.8038
30
0.0
0
VERTEX
8
PATTERN
10
162.7153
20
101.8556
30
0.0
0
VERTEX
8
PATTERN
10
163.9058
20
102.0012
30
0.0
0
VERTEX
8
PATTERN
10
165.0745
20
102.2699
30
0.0
0
VERTEX
8
PATTERN
10
166.2066
20
102.6658
30
0.0
0
VERTEX
8
PATTERN
10
167.3066
20
103.1448
30
0.0
0
VERTEX
8
PATTERN
10
168.4130
20
103.6083
30
0.0
0
VERTEX
8
PATTERN
10
169.5732
20
103.9035
30
0.0
0
VERTEX
8
PATTERN
10
170.7670
20
103.8580
30
0.0
0
VERTEX
8
PATTERN
10
171.9057
20
103.4865
30
0.0
0
VERTEX
8
PATTERN
10
173.0003
20
102.9951
30
0.0
0
VERTEX
8
PATTERN
10
174.1180
20
102.5604
30
0.0
0
VERTEX
8
PATTERN
10
175.2872
20
102.2977
30
0.0
0
VERTEX
8
PATTERN
10
176.4843
20
102.2596
30
0.0
0
VERTEX
8
PATTERN
10
177.6583
20
102.4911
30
0.0
0
VERTEX
8
PATTERN
10
178.7092
20
103.0556
30
0.0
0
VERTEX
8
PATTERN
10
179.4152
20
104.0078
30
0.0
0
VERTEX
8
PATTERN
10
179.4518
20
105.1861
30
0.0
0
VERTEX
8
PATTERN
10
178.8047
20
106.1799
30
0.0
0
VERTEX
8
PATTERN
10
177.8123
20
106.8458
30
0.0
0
VERTEX
8
PATTERN
10
176.7005
20
107.2946
30
0.0
0
VERTEX
8
PATTERN
10
175.5545
20
107.6499
30
0.0
0
VERTEX
8
PATTERN
10
174.4030
20
107.9873
30
0.0
0
VERTEX
8
PATTERN
10
173.2523
20
108.3271
30
0.0
0
VERTEX
8
PATTERN
10
172.0931
20
108.6365
30
0.0
0
VERTEX
8
PATTERN
10
170.9123
20
108.8442
30
0.0
0
VERTEX
8
PATTERN
10
169.7144
20
108.8711
30
0.0
0
VERTEX
8
PATTERN
10
168.5323
20
108.6755
30
0.0
0
VERTEX
8
PATTERN
10
167.3965
20
108.2917
30
0.0
0
VERTEX
8
PATTERN
10
166.3036
20
107.7970
30
0.0
0
VERTEX
8
PATTERN
10
165.2239
20
107.2735
30
0.0
0
VERTEX
8
PATTERN
10
164.1227
20
106.7977
30
0.0
0
VERTEX
8
PATTERN
10
162.9775
20
106.4426
30
0.0
0
VERTEX
8
PATTERN
10
161.7907
20
106.2798
30
0.0
0
VERTEX
8
PATTERN
10
160.6035
20
106.4136
30
0.0
0
VERTEX
8
PATTERN
10
159.5984
20
107.0342
30
0.0
0
VERTEX
8
PATTERN
10
159.2818
20
108.1548
30
0.0
0
VERTEX
8
PATTERN
10
159.7930
20
109.2210
30
0.0
0
VERTEX
8
PATTERN
10
160.7111
20
109.9864
30
0.0
0
VERTEX
8
PATTERN
10
161.7624
20
110.5634
30
0.0
0
VERTEX
8
PATTERN
10
162.8459
20
111.0789
30
0.0
0
VERTEX
8
PATTERN
10
163.9284
20
111.5966
30
0.0
0
VERTEX
8
PATTERN
10
165.0079
20
112.1204
30
0.0
0
VERTEX
8
PATTERN
10
166.0998
20
112.6176
30
0.0
0
VERTEX
8
PATTERN
10
167.2212
20
113.0433
30
0.0
0
VERTEX
8
PATTERN
10
168.3789
20
113.3561
30
0.0
0
VERTEX
8
PATTERN
10
169.5658
20
113.5254
30
0.0
0
VERTEX
8
PATTERN
10
170.7648
20
113.5365
30
0.0
0
VERTEX
8
PATTERN
10
171.9557
20
113.3955
30
0.0
0
VERTEX
8
PATTERN
10
173.1279
20
113.1405
30
0.0
0
VERTEX
8
PATTERN
10
174.2888
20
112.8371
30
0.0
0
VERTEX
8
PATTERN
10
175.4604
20
112.5797
30
0.0
0
VERTEX
8
PATTERN
10
176.6554
20
112.5101
30
0.0
0
VERTEX
8
PATTERN
10
177.7989
20
112.8369
30
0.0
0
VERTEX
8
PATTERN
10
178.5713
20
113.7242
30
0.0
0
VERTEX
8
PATTERN
10
178.6097
20
114.9019
30
0.0
0
VERTEX
8
PATTERN
10
178.0167
20
115.9326
30
0.0
0
VERTEX
8
PATTERN
10
177.0832
20
116.6796
30
0.0
0
VERTEX
8
PATTERN
10
176.0014
20
117.1947
30
0.0
0
VERTEX
8
PATTERN
10
174.8577
20
117.5554
30
0.0
0
VERTEX
8
PATTERN
10
173.6869
20
117.8168
30
0.0
0
VERTEX
8
PATTERN
10
172.5016
20
118.0015
30
0.0
0
VERTEX
8
PATTERN
10
171.3066
20
118.1068
30
0.0
0
VERTEX
8
PATTERN
10
170.1071
20
118.1182
30
0.0
0
VERTEX
8
PATTERN
10
168.9114
20
118.0235
30
0.0
0
VERTEX
8
PATTERN
10
167.7293
20
117.8200
30
0.0
0
VERTEX
8
PATTERN
10
166.5696
20
117.5137
30
0.0
0
VERTEX
8
PATTERN
10
165.4371
20
117.1180
30
0.0
0
VERTEX
8
PATTERN
10
164.3305
20
116.6543
30
0.0
0
VERTEX
8
PATTERN
10
163.2403
20
116.1531
30
0.0
0
VERTEX
8
PATTERN
10
162.1504
20
115.6514
30
0.0
0
VERTEX
8
PATTERN
10
161.0437
20
115.1880
30
0.0
0
VERTEX
8
PATTERN
10
159.9096
20
114.7971
30
0.0
0
VERTEX
8
PATTERN
10
158.7460
20
114.5062
30
0.0
0
VERTEX
8
PATTERN
10
157.5588
20
114.3371
30
0.0
0
VERTEX
8
PATTERN
10
156.3601
20
114.3057
30
0.0
0
VERTEX
8
PATTERN
10
155.1661
20
114.4171
30
0.0
0
VERTEX
8
PATTERN
10
153.9925
20
114.6640
30
0.0
0
VERTEX
8
PATTERN
10
152.8524
20
115.0359
30
0.0
0
VERTEX
8
PATTERN
10
151.7616
20
115.5341
30
0.0
0
VERTEX
8
PATTERN
10
150.7473
20
116.1730
30
0.0
0
VERTEX
8
PATTERN
10
149.8550
20
116.9722
30
0.0
0
VERTEX
8
PATTERN
10
149.1585
20
117.9450
30
0.0
0
VERTEX
8
PATTERN
10
148.7828
20
119.0773
30
0.0
0
VERTEX
8
PATTERN
10
148.9435
20
120.2498
30
0.0
0
VERTEX
8
PATTERN
10
149.8194
20
121.0197
30
0.0
0
VERTEX
8
PATTERN
10
151.0007
20
121.0000
30
0.0
0
VERTEX
8
PATTERN
10
152.0936
20
120.5119
30
0.0
0
VERTEX
8
PATTERN
10
153.1207
20
119.8916
30
0.0
0
VERTEX
8
PATTERN
10
154.1747
20
119.3194
30
0.0
0
VERTEX
8
PATTERN
10
155.2995
20
118.9063
30
0.0
0
VERTEX
8
PATTERN
10
156.4822
20
118.7167
30
0.0
0
VERTEX
8
PATTERN
10
157.6796
20
118.7584
30
0.0
0
VERTEX
8
PATTERN
10
158.8540
20
118.9984
30
0.0
0
VERTEX
8
PATTERN
10
159.9895
20
119.3848
30
0.0
0
VERTEX
8
PATTERN
10
161.0917
20
119.8586
30
0.0
0
VERTEX
8
PATTERN
10
162.1789
20
120.3661
30
0.0
0
VERTEX
8
PATTERN
10
163.2703
20
120.8647
30
0.0
0
VERTEX
8
PATTERN
10
164.3784
20
121.3248
30
0.0
0
VERTEX
8
PATTERN
10
165.5080
20
121.7291
30
0.0
0
VERTEX
8
PATTERN
10
166.6587
20
122.0685
30
0.0
0
VERTEX
8
PATTERN
10
167.8283
20
122.3356
30
0.0
0
VERTEX
8
PATTERN
10
169.0135
20
122.5207
30
0.0
0
VERTEX
8
PATTERN
10
170.2094
20
122.6150
30
0.0
0
VERTEX
8
PATTERN
10
171.4091
20
122.6221
30
0.0
0
VERTEX
8
PATTERN
10
172.6078
20
122.5706
30
0.0
0
VERTEX
8
PATTERN
10
173.8066
20
122.5211
30
0.0
0
VERTEX
8
PATTERN
10
175.0047
20
122.5658
30
0.0
0
VERTEX
8
PATTERN
10
176.1721
20
122.8284
30
0.0
0
VERTEX
8
PATTERN
10
177.2028
20
123.4285
30
0.0
0
VERTEX
8
PATTERN
10
177.9096
20
124.3856
30
0.0
0
VERTEX
8
PATTERN
10
178.1420
20
125.5524
30
0.0
0
VERTEX
8
PATTERN
10
177.8761
20
126.7134
30
0.0
0
VERTEX
8
PATTERN
10
177.1842
20
127.6841
30
0.0
0
VERTEX
8
PATTERN
10
176.1838
20
128.3335
30
0.0
0
VERTEX
8
PATTERN
10
175.0204
20
128.6040
30
0.0
0
VERTEX
8
PATTERN
10
173.8245
20
128.5469
30
0.0
0
VERTEX
8
PATTERN
10
172.6541
20
128.2854
30
0.0
0
VERTEX
8
PATTERN
10
171.5048
20
127.9408
30
0.0
0
VERTEX
8
PATTERN
10
170.3562
20
127.5938
30
0.0
0
VERTEX
8
PATTERN
10
169.1985
20
127.2787
30
0.0
0
VERTEX
8
PATTERN
10
168.0337
20
126.9904
30
0.0
0
VERTEX
8
PATTERN
10
166.8689
20
126.7026
30
0.0
0
VERTEX
8
PATTERN
10
165.7107
20
126.3890
30
0.0
0
VERTEX
8
PATTERN
10
164.5650
20
126.0329
30
0.0
0
VERTEX
8
PATTERN
10
163.4355
20
125.6283
30
0.0
0
VERTEX
8
PATTERN
10
162.3234
20
125.1779
30
0.0
0
VERTEX
8
PATTERN
10
161.2247
20
124.6956
30
0.0
0
VERTEX
8
PATTERN
10
160.1256
20
124.2144
30
0.0
0
VERTEX
8
PATTERN
10
159.0005
20
123.7987
30
0.0
0
VERTEX
8
PATTERN
10
157.8263
20
123.5641
30
0.0
0
VERTEX
8
PATTERN
10
156.6380
20
123.6797
30
0.0
0
VERTEX
8
PATTERN
10
155.5525
20
124.1817
30
0.0
0
VERTEX
8
PATTERN
10
154.5755
20
124.8778
30
0.0
0
VERTEX
8
PATTERN
10
153.5770
20
125.5416
30
0.0
0
VERTEX
8
PATTERN
10
152.4602
20
125.9675
30
0.0
0
VERTEX
8
PATTERN
10
151.2668
20
126.0376
30
0.0
0
VERTEX
8
PATTERN
10
150.0887
20
125.8195
30
0.0
0
VERTEX
8
PATTERN
10
148.9543
20
125.4305
30
0.0
0
VERTEX
8
PATTERN
10
147.8610
20
124.9367
30
0.0
0
VERTEX
8
PATTERN
10
146.8026
20
124.3717
30
0.0
0
VERTEX
8
PATTERN
10
145.7694
20
123.7617
30
0.0
0
VERTEX
8
PATTERN
10
144.7429
20
123.1405
30
0.0
0
VERTEX
8
PATTERN
10
143.6998
20
122.5476
30
0.0
0
VERTEX
8
PATTERN
10
142.6245
20
122.0158
30
0.0
0
VERTEX
8
PATTERN
10
141.5170
20
121.5544
30
0.0
0
VERTEX
8
PATTERN
10
140.3905
20
121.1415
30
0.0
0
VERTEX
8
PATTERN
10
139.2651
20
120.7255
30
0.0
0
VERTEX
8
PATTERN
10
138.1716
20
120.2329
30
0.0
0
VERTEX
8
PATTERN
10
137.1635
20
119.5852
30
0.0
0
VERTEX
8
PATTERN
10
136.2955
20
118.7595
30
0.0
0
VERTEX
8
PATTERN
10
135.5643
20
117.8091
30
0.0
0
VERTEX
8
PATTERN
10
134.8913
20
116.8157
30
0.0
0
VERTEX
8
PATTERN
10
134.1758
20
115.8531
30
0.0
0
VERTEX
8
PATTERN
10
133.3406
20
114.9937
30
0.0
0
VERTEX
8
PATTERN
10
132.3569
20
114.3104
30
0.0
0
VERTEX
8
PATTERN
10
131.2564
20
113.8373
30
0.0
0
VERTEX
8
PATTERN
10
130.0896
20
113.5629
30
0.0
0
VERTEX
8
PATTERN
10
128.8955
20
113.4514
30
0.0
0
VERTEX
8
PATTERN
10
127.6959
20
113.4562
30
0.0
0
VERTEX
8
PATTERN
10
126.4981
20
113.5256
30
0.0
0
VERTEX
8
PATTERN
10
125.3019
20
113.6198
30
0.0
0
VERTEX
8
PATTERN
10
124.1080
20
113.7396
30
0.0
0
VERTEX
8
PATTERN
10
122.9290
20
113.9573
30
0.0
0
VERTEX
8
PATTERN
10
121.8336
20
114.4326
30
0.0
0
VERTEX
8
PATTERN
10
121.0715
20
115.3360
30
0.0
0
VERTEX
8
PATTERN
10
121.0066
20
116.5127
30
0.0
0
VERTEX
8
PATTERN
10
121.5980
20
117.5430
30
0.0
0
VERTEX
8
PATTERN
10
122.5569
20
118.2528
30
0.0
0
VERTEX
8
PATTERN
10
123.6943
20
118.6197
30
0.0
0
VERTEX
8
PATTERN
10
124.8901
20
118.6778
30
0.0
0
VERTEX
8
PATTERN
10
126.0818
20
118.5428
30
0.0
0
VERTEX
8
PATTERN
10
127.2706
20
118.3812
30
0.0
0
VERTEX
8
PATTERN
10
128.4681
20
118.3710
30
0.0
0
VERTEX
8
PATTERN
10
129.6121
20
118.7048
30
0.0
0
VERTEX
8
PATTERN
10
130.4142
20
119.5627
30
0.0
0
VERTEX
8
PATTERN
10
130.2852
20
120.7153
30
0.0
0
VERTEX
8
PATTERN
10
129.5059
20
121.6221
30
0.0
0
VERTEX
8
PATTERN
10
128.6484
20
122.4606
30
0.0
0
VERTEX
8
PATTERN
10
128.0484
20
123.4889
30
0.0
0
VERTEX
8
PATTERN
10
128.0702
20
124.6680
30
0.0
0
VERTEX
8
PATTERN
10
128.7794
20
125.6113
30
0.0
0
VERTEX
8
PATTERN
10
129.8911
20
126.0265
30
0.0
0
VERTEX
8
PATTERN
10
131.0852
20
125.9665
30
0.0
0
VERTEX
8
PATTERN
10
132.2485
20
125.6755
30
0.0
0
VERTEX
8
PATTERN
10
133.4020
20
125.3451
30
0.0
0
VERTEX
8
PATTERN
10
134.5783
20
125.1125
30
0.0
0
VERTEX
8
PATTERN
10
135.7756
20
125.0586
30
0.0
0
VERTEX
8
PATTERN
10
136.9685
20
125.1801
30
0.0
0
VERTEX
8
PATTERN
10
138.1416
20
125.4301
30
0.0
0
VERTEX
8
PATTERN
10
139.2915
20
125.7721
30
0.0
0
VERTEX
8
PATTERN
10
140.4138
20
126.1958
30
0.0
0
VERTEX
8
PATTERN
10
141.5015
20
126.7016
30
0.0
0
VERTEX
8
PATTERN
10
142.5539
20
127.2777
30
0.0
0
VERTEX
8
PATTERN
10
143.5846
20
127.8920
30
0.0
0
VERTEX
8
PATTERN
10
144.6167
20
128.5040
30
0.0
0
VERTEX
8
PATTERN
10
145.6697
20
129.0790
30
0.0
0
VERTEX
8
PATTERN
10
146.7506
20
129.5995
30
0.0
0
VERTEX
8
PATTERN
10
147.8551
20
130.0683
30
0.0
0
VERTEX
8
PATTERN
10
148.9742
20
130.5010
30
0.0
0
VERTEX
8
PATTERN
10
150.1029
20
130.9080
30
0.0
0
VERTEX
8
PATTERN
10
151.2459
20
131.2727
30
0.0
0
VERTEX
8
PATTERN
10
152.4176
20
131.5261
30
0.0
0
VERTEX
8
PATTERN
10
153.6135
20
131.5368
30
0.0
0
VERTEX
8
PATTERN
10
154.7568
20
131.1890
30
0.0
0
VERTEX
8
PATTERN
10
155.7846
20
130.5724
30
0.0
0
VERTEX
8
PATTERN
10
156.7730
20
129.8925
30
0.0
0
VERTEX
8
PATTERN
10
157.8418
20
129.3542
30
0.0
0
VERTEX
8
PATTERN
10
159.0177
20
129.1454
30
0.0
0
VERTEX
8
PATTERN
10
160.2092
20
129.2641
30
0.0
0
VERTEX
8
PATTERN
10
161.3712
20
129.5611
30
0.0
0
VERTEX
8
PATTERN
10
162.5168
20
129.9181
30
0.0
0
VERTEX
8
PATTERN
10
163.6615
20
130.2778
30
0.0
0
VERTEX
8
PATTERN
10
164.8111
20
130.6213
30
0.0
0
VERTEX
8
PATTERN
10
165.9642
20
130.9532
30
0.0
0
VERTEX
8
PATTERN
10
167.1153
20
131.2919
30
0.0
0
VERTEX
8
PATTERN
10
168.2555
20
131.6654
30
0.0
0
VERTEX
8
PATTERN
10
169.3702
20
132.1085
30
0.0
0
VERTEX
8
PATTERN
10
170.4366
20
132.6569
30
0.0
0
VERTEX
8
PATTERN
10
171.4248
20
133.3357
30
0.0
0
VERTEX
8
PATTERN
10
172.3048
20
134.1498
30
0.0
0
VERTEX
8
PATTERN
10
173.0554
20
135.0845
30
0.0
0
VERTEX
8
PATTERN
10
173.6614
20
136.1187
30
0.0
0
VERTEX
8
PATTERN
10
174.0969
20
137.2351
30
0.0
0
VERTEX
8
PATTERN
10
174.3063
20
138.4138
30
0.0
0
VERTEX
8
PATTERN
10
174.1951
20
139.6031
30
0.0
0
VERTEX
8
PATTERN
10
173.6362
20
140.6517
30
0.0
0
VERTEX
8
PATTERN
10
172.6152
20
141.2405
30
0.0
0
VERTEX
8
PATTERN
10
171.4430
20
141.1001
30
0.0
0
VERTEX
8
PATTERN
10
170.4699
20
140.4104
30
0.0
0
VERTEX
8
PATTERN
10
169.7039
20
139.4885
30
0.0
0
VERTEX
8
PATTERN
10
169.0178
20
138.5040
30
0.0
0
VERTEX
8
PATTERN
10
168.2873
20
137.5528
30
0.0
0
VERTEX
8
PATTERN
10
167.4371
20
136.7081
30
0.0
0
VERTEX
8
PATTERN
10
166.4567
20
136.0187
30
0.0
0
VERTEX
8
PATTERN
10
165.3863
20
135.4786
30
0.0
0
VERTEX
8
PATTERN
10
164.2643
20
135.0546
30
0.0
0
VERTEX
8
PATTERN
10
163.1120
20
134.7210
30
0.0
0
VERTEX
8
PATTERN
10
161.9355
20
134.4879
30
0.0
0
VERTEX
8
PATTERN
10
160.7391
20
134.4205
30
0.0
0
VERTEX
8
PATTERN
10
159.5576
20
134.6103
30
0.0
0
VERTEX
8
PATTERN
10
158.4596
20
135.0883
30
0.0
0
VERTEX
8
PATTERN
10
157.4489
20
135.7343
30
0.0
0
VERTEX
8
PATTERN
10
156.4380
20
136.3799
30
0.0
0
VERTEX
8
PATTERN
10
155.3307
20
136.8331
30
0.0
0
VERTEX
8
PATTERN
10
154.1410
20
136.9418
30
0.0
0
VERTEX
8
PATTERN
10
152.9627
20
136.7288
30
0.0
0
VERTEX
8
PATTERN
10
151.8377
20
136.3137
30
0.0
0
VERTEX
8
PATTERN
10
150.7542
20
135.7985
30
0.0
0
VERTEX
8
PATTERN
10
149.6885
20
135.2472
30
0.0
0
VERTEX
8
PATTERN
10
148.6180
20
134.7053
30
0.0
0
VERTEX
8
PATTERN
10
147.5287
20
134.2023
30
0.0
0
VERTEX
8
PATTERN
10
146.4194
20
133.7450
30
0.0
0
VERTEX
8
PATTERN
10
145.3005
20
133.3118
30
0.0
0
VERTEX
8
PATTERN
10
144.1895
20
132.8589
30
0.0
0
VERTEX
8
PATTERN
10
143.1082
20
132.3395
30
0.0
0
VERTEX
8
PATTERN
10
142.0708
20
131.7371
30
0.0
0
VERTEX
8
PATTERN
10
141.0662
20
131.0809
30
0.0
0
VERTEX
8
PATTERN
10
140.0567
20
130.4325
30
0.0
0
VERTEX
8
PATTERN
10
139.0017
20
129.8621
30
0.0
0
VERTEX
8
PATTERN
10
137.8822
20
129.4336
30
0.0
0
VERTEX
8
PATTERN
10
136.7086
20
129.1912
30
0.0
0
VERTEX
8
PATTERN
10
135.5109
20
129.1547
30
0.0
0
VERTEX
8
PATTERN
10
134.3230
20
129.3146
30
0.0
0
VERTEX
8
PATTERN
10
133.1643
20
129.6244
30
0.0
0
VERTEX
8
PATTERN
10
132.0249
20
130.0005
30
0.0
0
VERTEX
8
PATTERN
10
130.8734
20
130.3364
30
0.0
0
VERTEX
8
PATTERN
10
129.6875
20
130.5047
30
0.0
0
VERTEX
8
PATTERN
10
128.4967
20
130.3917
30
0.0
0
VERTEX
8
PATTERN
10
127.3816
20
129.9592
30
0.0
0
VERTEX
8
PATTERN
10
126.4046
20
129.2671
30
0.0
0
VERTEX
8
PATTERN
10
125.5792
20
128.3981
30
0.0
0
VERTEX
8
PATTERN
10
124.8701
20
127.4308
30
0.0
0
VERTEX
8
PATTERN
10
124.2222
20
126.4210
30
0.0
0
VERTEX
8
PATTERN
10
123.5743
20
125.4111
30
0.0
0
VERTEX
8
PATTERN
10
122.8734
20
124.4376
30
0.0
0
VERTEX
8
PATTERN
10
122.0904
20
123.5289
30
0.0
0
VERTEX
8
PATTERN
10
121.2309
20
122.6921
30
0.0
0
VERTEX
8
PATTERN
10
120.3246
20
121.9059
30
0.0
0
VERTEX
8
PATTERN
10
119.4021
20
121.1386
30
0.0
0
VERTEX
8
PATTERN
10
118.4772
20
120.3742
30
0.0
0
VERTEX
8
PATTERN
10
117.5392
20
119.6260
30
0.0
0
VERTEX
8
PATTERN
10
116.5598
20
118.9334
30
0.0
0
VERTEX
8
PATTERN
10
115.5153
20
118.3444
30
0.0
0
VERTEX
8
PATTERN
10
114.4094
20
117.8802
30
0.0
0
VERTEX
8
PATTERN
10
113.2705
20
117.5028
30
0.0
0
VERTEX
8
PATTERN
10
112.1347
20
117.1169
30
0.0
0
VERTEX
8
PATTERN
10
111.0516
20
116.6044
30
0.0
0
VERTEX
8
PATTERN
10
110.1096
20
115.8674
30
0.0
0
VERTEX
8
PATTERN
10
109.4108
20
114.8975
30
0.0
0
VERTEX
8
PATTERN
10
109.0050
20
113.7719
30
0.0
0
VERTEX
8
PATTERN
10
108.8455
20
112.5843
30
0.0
0
VERTEX
8
PATTERN
10
108.8434
20
111.3848
30
0.0
0
VERTEX
8
PATTERN
10
108.8954
20
110.1861
30
0.0
0
VERTEX
8
PATTERN
10
108.9126
20
108.9865
30
0.0
0
VERTEX
8
PATTERN
10
108.8238
20
107.7906
30
0.0
0
VERTEX
8
PATTERN
10
108.5855
20
106.6156
30
0.0
0
VERTEX
8
PATTERN
10
108.1819
20
105.4868
30
0.0
0
VERTEX
8
PATTERN
10
107.6028
20
104.4378
30
0.0
0
VERTEX
8
PATTERN
10
106.8112
20
103.5418
30
0.0
0
VERTEX
8
PATTERN
10
105.7521
20
103.0059
30
0.0
0
VERTEX
8
PATTERN
10
104.5914
20
103.1879
30
0.0
0
VERTEX
8
PATTERN
10
103.8052
20
104.0680
30
0.0
0
VERTEX
8
PATTERN
10
103.5870
20
105.2382
30
0.0
0
VERTEX
8
PATTERN
10
103.7377
20
106.4266
30
0.0
0
VERTEX
8
PATTERN
10
104.0038
20
107.5966
30
0.0
0
VERTEX
8
PATTERN
10
104.2184
20
108.7768
30
0.0
0
VERTEX
8
PATTERN
10
104.3094
20
109.9726
30
0.0
0
VERTEX
8
PATTERN
10
104.2950
20
111.1721
30
0.0
0
VERTEX
8
PATTERN
10
104.2471
20
112.3710
30
0.0
0
VERTEX
8
PATTERN
10
104.2522
20
113.5706
30
0.0
0
VERTEX
8
PATTERN
10
104.3851
20
114.7623
30
0.0
0
VERTEX
8
PATTERN
10
104.6788
20
115.9248
30
0.0
0
VERTEX
8
PATTERN
10
105.1021
20
117.0471
30
0.0
0
VERTEX
8
PATTERN
10
105.5796
20
118.1478
30
0.0
0
VERTEX
8
PATTERN
10
106.0175
20
119.2646
30
0.0
0
VERTEX
8
PATTERN
10
106.3243
20
120.4235
30
0.0
0
VERTEX
8
PATTERN
10
106.4645
20
121.6143
30
0.0
0
VERTEX
8
PATTERN
10
106.4873
20
122.8138
30
0.0
0
VERTEX
8
PATTERN
10
106.5028
20
124.0135
30
0.0
0
VERTEX
8
PATTERN
10
106.6576
20
125.2014
30
0.0
0
VERTEX
8
PATTERN
10
107.1701
20
126.2745
30
0.0
0
VERTEX
8
PATTERN
10
108.2000
20
126.8248
30
0.0
0
VERTEX
8
PATTERN
10
109.3416
20
126.5270
30
0.0
0
VERTEX
8
PATTERN
10
110.2201
20
125.7192
30
0.0
0
VERTEX
8
PATTERN
10
110.8701
20
124.7120
30
0.0
0
VERTEX
8
PATTERN
10
111.4947
20
123.6883
30
0.0
0
VERTEX
8
PATTERN
10
112.3981
20
122.9246
30
0.0
0
VERTEX
8
PATTERN
10
113.5759
20
122.9016
30
0.0
0
VERTEX
8
PATTERN
10
114.6682
20
123.3893
30
0.0
0
VERTEX
8
PATTERN
10
115.6632
20
124.0590
30
0.0
0
VERTEX
8
PATTERN
10
116.6090
20
124.7972
30
0.0
0
VERTEX
8
PATTERN
10
117.5223
20
125.5752
30
0.0
0
VERTEX
8
PATTERN
10
118.3916
20
126.4020
30
0.0
0
VERTEX
8
PATTERN
10
119.1945
20
127.2931
30
0.0
0
VERTEX
8
PATTERN
10
119.9220
20
128.2469
30
0.0
0
VERTEX
8
PATTERN
10
120.5926
20
129.2418
30
0.0
0
VERTEX
8
PATTERN
10
121.2443
20
130.2493
30
0.0
0
VERTEX
8
PATTERN
10
121.9190
20
131.2414
30
0.0
0
VERTEX
8
PATTERN
10
122.6544
20
132.1891
30
0.0
0
VERTEX
8
PATTERN
10
123.4813
20
133.0575
30
0.0
0
VERTEX
8
PATTERN
10
124.4146
20
133.8100
30
0.0
0
VERTEX
8
PATTERN
10
125.4374
20
134.4361
30
0.0
0
VERTEX
8
PATTERN
10
126.5045
20
134.9845
30
0.0
0
VERTEX
8
PATTERN
10
127.5620
20
135.5511
30
0.0
0
VERTEX
8
PATTERN
10
128.5440
20
136.2385
30
0.0
0
VERTEX
8
PATTERN
10
129.3958
20
137.0813
30
0.0
0
VERTEX
8
PATTERN
10
130.1091
20
138.0451
30
0.0
0
VERTEX
8
PATTERN
10
130.7116
20
139.0823
30
0.0
0
VERTEX
8
PATTERN
10
131.2187
20
140.1692
30
0.0
0
VERTEX
8
PATTERN
10
131.6236
20
141.2982
30
0.0
0
VERTEX
8
PATTERN
10
131.9205
20
142.4604
30
0.0
0
VERTEX
8
PATTERN
10
132.1317
20
143.6414
30
0.0
0
VERTEX
8
PATTERN
10
132.3101
20
144.8279
30
0.0
0
VERTEX
8
PATTERN
10
132.5251
20
146.0082
30
0.0
0
VERTEX
8
PATTERN
10
132.8420
20
147.1648
30
0.0
0
VERTEX
8
PATTERN
10
133.3000
20
148.2727
30
0.0
0
VERTEX
8
PATTERN
10
133.8987
20
149.3116
30
0.0
0
VERTEX
8
PATTERN
10
134.6091
20
150.2779
30
0.0
0
VERTEX
8
PATTERN
10
135.4000
20
151.1799
30
0.0
0
VERTEX
8
PATTERN
10
136.2500
20
152.0265
30
0.0
0
VERTEX
8
PATTERN
10
137.1468
20
152.8234
30
0.0
0
VERTEX
8
PATTERN
10
138.0826
20
153.5743
30
0.0
0
VERTEX
8
PATTERN
10
139.0567
20
154.2747
30
0.0
0
VERTEX
8
PATTERN
10
140.0832
20
154.8949
30
0.0
0
VERTEX
8
PATTERN
10
141.1931
20
155.3435
30
0.0
0
VERTEX
8
PATTERN
10
142.3800
20
155.3898
30
0.0
0
VERTEX
8
PATTERN
10
143.3443
20
154.7272
30
0.0
0
VERTEX
8
PATTERN
10
143.5916
20
153.5787
30
0.0
0
VERTEX
8
PATTERN
10
143.1730
20
152.4653
30
0.0
0
VERTEX
8
PATTERN
10
142.4132
20
151.5403
30
0.0
0
VERTEX
8
PATTERN
10
141.5175
20
150.7427
30
0.0
0
VERTEX
8
PATTERN
10
140.5823
20
149.9909
30
0.0
0
VERTEX
8
PATTERN
10
139.6623
20
149.2209
30
0.0
0
VERTEX
8
PATTERN
10
138.8014
20
148.3857
30
0.0
0
VERTEX
8
PATTERN
10
138.0466
20
147.4542
30
0.0
0
VERTEX
8
PATTERN
10
137.4439
20
146.4184
30
0.0
0
VERTEX
8
PATTERN
10
137.0222
20
145.2966
30
0.0
0
VERTEX
8
PATTERN
10
136.7674
20
144.1248
30
0.0
0
VERTEX
8
PATTERN
10
136.6190
20
142.9343
30
0.0
0
VERTEX
8
PATTERN
10
136.4866
20
141.7418
30
0.0
0
VERTEX
8
PATTERN
10
136.2803
20
140.5602
30
0.0
0
VERTEX
8
PATTERN
10
135.9474
20
139.4082
30
0.0
0
VERTEX
8
PATTERN
10
135.5070
20
138.2924
30
0.0
0
VERTEX
8
PATTERN
10
135.0476
20
137.1840
30
0.0
0
VERTEX
8
PATTERN
10
134.7246
20
136.0311
30
0.0
0
VERTEX
8
PATTERN
10
134.8891
20
134.8655
30
0.0
0
VERTEX
8
PATTERN
10
135.8671
20
134.2491
30
0.0
0
VERTEX
8
PATTERN
10
137.0421
20
134.4181
30
0.0
0
VERTEX
8
PATTERN
10
138.1017
20
134.9754
30
0.0
0
VERTEX
8
PATTERN
10
139.0888
20
135.6574
30
0.0
0
VERTEX
8
PATTERN
10
140.0977
20
136.3060
30
0.0
0
VERTEX
8
PATTERN
10
141.1744
20
136.8337
30
0.0
0
VERTEX
8
PATTERN
10
142.3013
20
137.2452
30
0.0
0
VERTEX
8
PATTERN
10
143.4447
20
137.6090
30
0.0
0
VERTEX
8
PATTERN
10
144.5827
20
137.9891
30
0.0
0
VERTEX
8
PATTERN
10
145.7039
20
138.4163
30
0.0
0
VERTEX
8
PATTERN
10
146.8048
20
138.8931
30
0.0
0
VERTEX
8
PATTERN
10
147.8909
20
139.4031
30
0.0
0
VERTEX
8
PATTERN
10
148.9726
20
139.9226
30
0.0
0
VERTEX
8
PATTERN
10
150.0580
20
140.4341
30
0.0
0
VERTEX
8
PATTERN
10
151.1451
20
140.9419
30
0.0
0
VERTEX
8
PATTERN
10
152.2178
20
141.4793
30
0.0
0
VERTEX
8
PATTERN
10
153.2446
20
142.0991
30
0.0
0
VERTEX
8
PATTERN
10
154.1892
20
142.8376
30
0.0
0
VERTEX
8
PATTERN
10
155.0445
20
143.6784
30
0.0
0
VERTEX
8
PATTERN
10
155.8648
20
144.5541
30
0.0
0
VERTEX
8
PATTERN
10
156.7540
20
145.3577
30
0.0
0
VERTEX
8
PATTERN
10
157.8123
20
145.9088
30
0.0
0
VERTEX
8
PATTERN
10
158.9928
20
145.8967
30
0.0
0
VERTEX
8
PATTERN
10
159.8860
20
145.1355
30
0.0
0
VERTEX
8
PATTERN
10
160.1791
20
143.9836
30
0.0
0
VERTEX
8
PATTERN
10
160.1105
20
142.7871
30
0.0
0
VERTEX
8
PATTERN
10
160.0259
20
141.5914
30
0.0
0
VERTEX
8
PATTERN
10
160.3047
20
140.4372
30
0.0
0
VERTEX
8
PATTERN
10
161.1903
20
139.6620
30
0.0
0
VERTEX
8
PATTERN
10
162.3688
20
139.5363
30
0.0
0
VERTEX
8
PATTERN
10
163.4796
20
139.9659
30
0.0
0
VERTEX
8
PATTERN
10
164.3468
20
140.7860
30
0.0
0
VERTEX
8
PATTERN
10
164.9053
20
141.8433
30
0.0
0
VERTEX
8
PATTERN
10
165.2051
20
143.0032
30
0.0
0
VERTEX
8
PATTERN
10
165.3610
20
144.1926
30
0.0
0
VERTEX
8
PATTERN
10
165.5012
20
145.3843
30
0.0
0
VERTEX
8
PATTERN
10
165.7273
20
146.5622
30
0.0
0
VERTEX
8
PATTERN
10
166.0746
20
147.7103
30
0.0
0
VERTEX
8
PATTERN
10
166.4735
20
148.8419
30
0.0
0
VERTEX
8
PATTERN
10
166.7597
20
150.0049
30
0.0
0
VERTEX
8
PATTERN
10
166.6483
20
151.1868
30
0.0
0
VERTEX
8
PATTERN
10
165.8765
20
152.0707
30
0.0
0
VERTEX
8
PATTERN
10
164.7199
20
152.3367
30
0.0
0
VERTEX
8
PATTERN
10
163.5313
20
152.1919
30
0.0
0
VERTEX
8
PATTERN
10
162.3673
20
151.9013
30
0.0
0
VERTEX
8
PATTERN
10
161.2017
20
151.6170
30
0.0
0
VERTEX
8
PATTERN
10
160.0217
20
151.4004
30
0.0
0
VERTEX
8
PATTERN
10
158.8334
20
151.2341
30
0.0
0
VERTEX
8
PATTERN
10
157.6482
20
151.0476
30
0.0
0
VERTEX
8
PATTERN
10
156.4826
20
150.7656
30
0.0
0
VERTEX
8
PATTERN
10
155.3613
20
150.3416
30
0.0
0
VERTEX
8
PATTERN
10
154.3132
20
149.7599
30
0.0
0
VERTEX
8
PATTERN
10
153.3678
20
149.0230
30
0.0
0
VERTEX
8
PATTERN
10
152.5345
20
148.1608
30
0.0
0
VERTEX
8
PATTERN
10
151.7682
20
147.2376
30
0.0
0
VERTEX
8
PATTERN
10
150.9694
20
146.3428
30
0.0
0
VERTEX
8
PATTERN
10
150.0607
20
145.5609
30
0.0
0
VERTEX
8
PATTERN
10
149.0555
20
144.9067
30
0.0
0
VERTEX
8
PATTERN
10
148.0074
20
144.3227
30
0.0
0
VERTEX
8
PATTERN
10
146.9587
20
143.7396
30
0.0
0
VERTEX
8
PATTERN
10
145.9223
20
143.1350
30
0.0
0
VERTEX
8
PATTERN
10
144.8771
20
142.5461
30
0.0
0
VERTEX
8
PATTERN
10
143.7754
20
142.0752
30
0.0
0
VERTEX
8
PATTERN
10
142.5935
20
141.9218
30
0.0
0
VERTEX
8
PATTERN
10
141.5266
20
142.4100
30
0.0
0
VERTEX
8
PATTERN
10
141.1272
20
143.5097
30
0.0
0
VERTEX
8
PATTERN
10
141.4450
20
144.6549
30
0.0
0
VERTEX
8
PATTERN
10
142.1486
20
145.6224
30
0.0
0
VERTEX
8
PATTERN
10
143.0287
20
146.4363
30
0.0
0
VERTEX
8
PATTERN
10
143.9872
20
147.1578
30
0.0
0
VERTEX
8
PATTERN
10
144.9681
20
147.8488
30
0.0
0
VERTEX
8
PATTERN
10
145.9316
20
148.5638
30
0.0
0
VERTEX
8
PATTERN
10
146.8494
20
149.3362
30
0.0
0
VERTEX
8
PATTERN
10
147.7179
20
150.1640
30
0.0
0
VERTEX
8
PATTERN
10
148.5666
20
151.0121
30
0.0
0
VERTEX
8
PATTERN
10
149.4399
20
151.8348
30
0.0
0
VERTEX
8
PATTERN
10
150.3642
20
152.5996
30
0.0
0
VERTEX
8
PATTERN
10
151.3368
20
153.3020
30
0.0
0
VERTEX
8
PATTERN
10
152.3419
20
153.9573
30
0.0
0
VERTEX
8
PATTERN
10
153.3719
20
154.5725
30
0.0
0
VERTEX
8
PATTERN
10
154.4365
20
155.1253
30
0.0
0
VERTEX
8
PATTERN
10
155.5523
20
155.5641
30
0.0
0
VERTEX
8
PATTERN
10
156.7176
20
155.8463
30
0.0
0
VERTEX
8
PATTERN
10
157.9060
20
156.0119
30
0.0
0
VERTEX
8
PATTERN
10
159.0867
20
156.2192
30
0.0
0
VERTEX
8
PATTERN
10
160.1525
20
156.7455
30
0.0
0
VERTEX
8
PATTERN
10
160.6802
20
157.7889
30
0.0
0
VERTEX
8
PATTERN
10
160.4492
20
158.9523
30
0.0
0
VERTEX
8
PATTERN
10
159.8147
20
159.9671
30
0.0
0
VERTEX
8
PATTERN
10
159.0018
20
160.8483
30
0.0
0
VERTEX
8
PATTERN
10
158.0840
20
161.6199
30
0.0
0
VERTEX
8
PATTERN
10
157.0599
20
162.2413
30
0.0
0
VERTEX
8
PATTERN
10
155.9136
20
162.5728
30
0.0
0
VERTEX
8
PATTERN
10
154.7386
20
162.3986
30
0.0
0
VERTEX
8
PATTERN
10
153.7375
20
161.7485
30
0.0
0
VERTEX
8
PATTERN
10
152.9194
20
160.8723
30
0.0
0
VERTEX
8
PATTERN
10
152.1704
20
159.9350
30
0.0
0
VERTEX
8
PATTERN
10
151.3786
20
159.0341
30
0.0
0
VERTEX
8
PATTERN
10
150.4532
20
158.2745
30
0.0
0
VERTEX
8
PATTERN
10
149.3489
20
157.8257
30
0.0
0
VERTEX
8
PATTERN
10
148.1647
20
157.9089
30
0.0
0
VERTEX
8
PATTERN
10
147.1241
20
158.4943
30
0.0
0
VERTEX
8
PATTERN
10
146.2487
20
159.3130
30
0.0
0
VERTEX
8
PATTERN
10
145.4768
20
160.2310
30
0.0
0
VERTEX
8
PATTERN
10
144.8139
20
161.2297
30
0.0
0
VERTEX
8
PATTERN
10
144.3638
20
162.3378
30
0.0
0
VERTEX
8
PATTERN
10
144.3369
20
163.5259
30
0.0
0
VERTEX
8
PATTERN
10
144.9611
20
164.5233
30
0.0
0
VERTEX
8
PATTERN
10
146.0556
20
164.9831
30
0.0
0
VERTEX
8
PATTERN
10
147.2494
20
165.0892
30
0.0
0
VERTEX
8
PATTERN
10
148.4453
20
165.1756
30
0.0
0
VERTEX
8
PATTERN
10
149.5662
20
165.5729
30
0.0
0
VERTEX
8
PATTERN
10
150.2084
20
166.5485
30
0.0
0
VERTEX
8
PATTERN
10
150.0498
20
167.7196
30
0.0
0
VERTEX
8
PATTERN
10
149.4027
20
168.7238
30
0.0
0
VERTEX
8
PATTERN
10
148.5372
20
169.5525
30
0.0
0
VERTEX
8
PATTERN
10
147.5564
20
170.2420
30
0.0
0
VERTEX
8
PATTERN
10
146.4813
20
170.7706
30
0.0
0
VERTEX
8
PATTERN
10
145.3142
20
171.0261
30
0.0
0
VERTEX
8
PATTERN
10
144.1320
20
170.8687
30
0.0
0
VERTEX
8
PATTERN
10
143.0530
20
170.3520
30
0.0
0
VERTEX
8
PATTERN
10
142.0900
20
169.6380
30
0.0
0
VERTEX
8
PATTERN
10
141.2267
20
168.8059
30
0.0
0
VERTEX
8
PATTERN
10
140.4943
20
167.8575
30
0.0
0
VERTEX
8
PATTERN
10
139.9696
20
166.7812
30
0.0
0
VERTEX
8
PATTERN
10
139.6647
20
165.6223
30
0.0
0
VERTEX
8
PATTERN
10
139.4971
20
164.4345
30
0.0
0
VERTEX
8
PATTERN
10
139.3570
20
163.2428
30
0.0
0
VERTEX
8
PATTERN
10
139.1478
20
162.0617
30
0.0
0
VERTEX
8
PATTERN
10
138.7861
20
160.9190
30
0.0
0
VERTEX
8
PATTERN
10
138.2297
20
159.8580
30
0.0
0
VERTEX
8
PATTERN
10
137.4984
20
158.9083
30
0.0
0
VERTEX
8
PATTERN
10
136.6511
20
158.0593
30
0.0
0
VERTEX
8
PATTERN
10
135.7489
20
157.2683
30
0.0
0
VERTEX
8
PATTERN
10
134.8380
20
156.4873
30
0.0
0
VERTEX
8
PATTERN
10
133.9461
20
155.6847
30
0.0
0
VERTEX
8
PATTERN
10
133.0796
20
154.8548
30
0.0
0
VERTEX
8
PATTERN
10
132.2255
20
154.0120
30
0.0
0
VERTEX
8
PATTERN
10
131.3661
20
153.1746
30
0.0
0
VERTEX
8
PATTERN
10
130.4991
20
152.3451
30
0.0
0
VERTEX
8
PATTERN
10
129.6543
20
151.4934
30
0.0
0
VERTEX
8
PATTERN
10
128.9091
20
150.5549
30
0.0
0
VERTEX
8
PATTERN
10
128.3880
20
149.4783
30
0.0
0
VERTEX
8
PATTERN
10
128.1602
20
148.3031
30
0.0
0
VERTEX
8
PATTERN
10
128.1262
20
147.1042
30
0.0
0
VERTEX
8
PATTERN
10
128.1416
20
145.9045
30
0.0
0
VERTEX
8
PATTERN
10
128.1046
20
144.7054
30
0.0
0
VERTEX
8
PATTERN
10
127.9568
20
143.5153
30
0.0
0
VERTEX
8
PATTERN
10
127.6647
20
142.3525
30
0.0
0
VERTEX
8
PATTERN
10
127.2009
20
141.2475
30
0.0
0
VERTEX
8
PATTERN
10
126.5274
20
140.2582
30
0.0
0
VERTEX
8
PATTERN
10
125.5842
20
139.5299
30
0.0
0
VERTEX
8
PATTERN
10
124.4163
20
139.3750
30
0.0
0
VERTEX
8
PATTERN
10
123.4351
20
140.0192
30
0.0
0
VERTEX
8
PATTERN
10
123.0019
20
141.1244
30
0.0
0
VERTEX
8
PATTERN
10
123.0046
20
142.3213
30
0.0
0
VERTEX
8
PATTERN
10
123.1771
20
143.5086
30
0.0
0
VERTEX
8
PATTERN
10
123.2775
20
144.7029
30
0.0
0
VERTEX
8
PATTERN
10
123.0279
20
145.8658
30
0.0
0
VERTEX
8
PATTERN
10
122.1279
20
146.5985
30
0.0
0
VERTEX
8
PATTERN
10
120.9713
20
146.3950
30
0.0
0
VERTEX
8
PATTERN
10
120.0130
20
145.6790
30
0.0
0
VERTEX
8
PATTERN
10
119.1352
20
144.8611
30
0.0
0
VERTEX
8
PATTERN
10
118.1507
20
144.1825
30
0.0
0
VERTEX
8
PATTERN
10
116.9870
20
143.9743
30
0.0
0
VERTEX
8
PATTERN
10
115.9581
20
144.5365
30
0.0
0
VERTEX
8
PATTERN
10
115.4666
20
145.6154
30
0.0
0
VERTEX
8
PATTERN
10
115.4130
20
146.8104
30
0.0
0
VERTEX
8
PATTERN
10
115.5567
20
148.0012
30
0.0
0
VERTEX
8
PATTERN
10
115.7245
20
149.1892
30
0.0
0
VERTEX
8
PATTERN
10
115.8096
20
150.3856
30
0.0
0
VERTEX
8
PATTERN
10
115.7815
20
151.5848
30
0.0
0
VERTEX
8
PATTERN
10
115.6745
20
152.7799
30
0.0
0
VERTEX
8
PATTERN
10
115.5513
20
153.9734
30
0.0
0
VERTEX
8
PATTERN
10
115.4835
20
155.1710
30
0.0
0
VERTEX
8
PATTERN
10
115.5658
20
156.3664
30
0.0
0
VERTEX
8
PATTERN
10
115.9517
20
157.4951
30
0.0
0
VERTEX
8
PATTERN
10
116.8434
20
158.2586
30
0.0
0
VERTEX
8
PATTERN
10
118.0048
20
158.1373
30
0.0
0
VERTEX
8
PATTERN
10
118.8914
20
157.3448
30
0.0
0
VERTEX
8
PATTERN
10
119.4705
20
156.2970
30
0.0
0
VERTEX
8
PATTERN
10
119.8938
20
155.1746
30
0.0
0
VERTEX
8
PATTERN
10
120.3352
20
154.0594
30
0.0
0
VERTEX
8
PATTERN
10
121.0163
20
153.0802
30
0.0
0
VERTEX
8
PATTERN
10
122.0753
20
152.5594
30
0.0
0
VERTEX
8
PATTERN
10
123.2576
20
152.6839
30
0.0
0
VERTEX
8
PATTERN
10
124.3400
20
153.1953
30
0.0
0
VERTEX
8
PATTERN
10
125.3320
20
153.8696
30
0.0
0
VERTEX
8
PATTERN
10
126.2795
20
154.6057
30
0.0
0
VERTEX
8
PATTERN
10
127.2034
20
155.3712
30
0.0
0
VERTEX
8
PATTERN
10
128.1009
20
156.1675
30
0.0
0
VERTEX
8
PATTERN
10
128.9647
20
157.0002
30
0.0
0
VERTEX
8
PATTERN
10
129.8042
20
157.8575
30
0.0
0
VERTEX
8
PATTERN
10
130.6471
20
158.7114
30
0.0
0
VERTEX
8
PATTERN
10
131.5190
20
159.5356
30
0.0
0
VERTEX
8
PATTERN
10
132.4162
20
160.3323
30
0.0
0
VERTEX
8
PATTERN
10
133.2940
20
161.1500
30
0.0
0
VERTEX
8
PATTERN
10
134.0686
20
162.0646
30
0.0
0
VERTEX
8
PATTERN
10
134.6361
20
163.1184
30
0.0
0
VERTEX
8
PATTERN
10
134.9439
20
164.2755
30
0.0
0
VERTEX
8
PATTERN
10
135.0257
20
165.4712
30
0.0
0
VERTEX
8
PATTERN
10
134.9406
20
166.6675
30
0.0
0
VERTEX
8
PATTERN
10
134.7515
20
167.8522
30
0.0
0
VERTEX
8
PATTERN
10
134.5375
20
169.0328
30
0.0
0
VERTEX
8
PATTERN
10
134.4366
20
170.2267
30
0.0
0
VERTEX
8
PATTERN
10
134.7367
20
171.3741
30
0.0
0
VERTEX
8
PATTERN
10
135.6422
20
172.1333
30
0.0
0
VERTEX
8
PATTERN
10
136.7724
20
172.5327
30
0.0
0
VERTEX
8
PATTERN
10
137.8916
20
172.9602
30
0.0
0
VERTEX
8
PATTERN
10
138.7944
20
173.7278
30
0.0
0
VERTEX
8
PATTERN
10
138.9595
20
174.8777
30
0.0
0
VERTEX
8
PATTERN
10
138.3122
20
175.8716
30
0.0
0
VERTEX
8
PATTERN
10
137.3516
20
176.5864
30
0.0
0
VERTEX
8
PATTERN
10
136.2922
20
177.1488
30
0.0
0
VERTEX
8
PATTERN
10
135.1937
20
177.6310
30
0.0
0
VERTEX
8
PATTERN
10
134.0701
20
178.0515
30
0.0
0
VERTEX
8
PATTERN
10
132.9150
20
178.3732
30
0.0
0
VERTEX
8
PATTERN
10
131.7245
20
178.4979
30
0.0
0
VERTEX
8
PATTERN
10
130.5570
20
178.2581
30
0.0
0
VERTEX
8
PATTERN
10
129.6166
20
177.5333
30
0.0
0
VERTEX
8
PATTERN
10
129.0820
20
176.4680
30
0.0
0
VERTEX
8
PATTERN
10
128.8971
20
175.2855
30
0.0
0
VERTEX
8
PATTERN
10
128.9315
20
174.0870
30
0.0
0
VERTEX
8
PATTERN
10
129.0864
20
172.8974
30
0.0
0
VERTEX
8
PATTERN
10
129.3063
20
171.7180
30
0.0
0
VERTEX
8
PATTERN
10
129.5621
20
170.5457
30
0.0
0
VERTEX
8
PATTERN
10
129.8327
20
169.3767
30
0.0
0
VERTEX
8
PATTERN
10
130.0813
20
168.2029
30
0.0
0
VERTEX
8
PATTERN
10
130.2308
20
167.0132
30
0.0
0
VERTEX
8
PATTERN
10
130.1555
20
165.8188
30
0.0
0
VERTEX
8
PATTERN
10
129.7272
20
164.7035
30
0.0
0
VERTEX
8
PATTERN
10
129.0005
20
163.7513
30
0.0
0
VERTEX
8
PATTERN
10
128.1650
20
162.8901
30
0.0
0
VERTEX
8
PATTERN
10
127.3671
20
161.9944
30
0.0
0
VERTEX
8
PATTERN
10
126.6307
20
161.0472
30
0.0
0
VERTEX
8
PATTERN
10
125.8392
20
160.1475
30
0.0
0
VERTEX
8
PATTERN
10
124.8212
20
159.5352
30
0.0
0
VERTEX
8
PATTERN
10
123.6448
20
159.6000
30
0.0
0
VERTEX
8
PATTERN
10
122.6278
20
160.2265
30
0.0
0
VERTEX
8
PATTERN
10
121.7291
20
161.0212
30
0.0
0
VERTEX
8
PATTERN
10
120.8106
20
161.7928
30
0.0
0
VERTEX
8
PATTERN
10
119.8131
20
162.4584
30
0.0
0
VERTEX
8
PATTERN
10
118.7597
20
163.0325
30
0.0
0
VERTEX
8
PATTERN
10
117.7163
20
163.6240
30
0.0
0
VERTEX
8
PATTERN
10
116.7998
20
164.3921
30
0.0
0
VERTEX
8
PATTERN
10
116.1957
20
165.4205
30
0.0
0
VERTEX
8
PATTERN
10
115.9546
20
166.5921
30
0.0
0
VERTEX
8
PATTERN
10
115.9544
20
167.7908
30
0.0
0
VERTEX
8
PATTERN
10
116.1089
20
168.9799
30
0.0
0
VERTEX
8
PATTERN
10
116.4268
20
170.1352
30
0.0
0
VERTEX
8
PATTERN
10
117.0178
20
171.1718
30
0.0
0
VERTEX
8
PATTERN
10
118.0287
20
171.7668
30
0.0
0
VERTEX
8
PATTERN
10
119.1534
20
171.4497
30
0.0
0
VERTEX
8
PATTERN
10
119.9434
20
170.5559
30
0.0
0
VERTEX
8
PATTERN
10
120.5232
20
169.5059
30
0.0
0
VERTEX
8
PATTERN
10
121.1060
20
168.4578
30
0.0
0
VERTEX
8
PATTERN
10
121.8751
20
167.5426
30
0.0
0
VERTEX
8
PATTERN
10
122.9279
20
166.9943
30
0.0
0
VERTEX
8
PATTERN
10
124.0757
20
167.2060
30
0.0
0
VERTEX
8
PATTERN
10
124.7634
20
168.1630
30
0.0
0
VERTEX
8
PATTERN
10
124.9615
20
169.3414
30
0.0
0
VERTEX
8
PATTERN
10
124.9031
20
170.5387
30
0.0
0
VERTEX
8
PATTERN
10
124.7287
20
171.7257
30
0.0
0
VERTEX
8
PATTERN
10
124.5225
20
172.9077
30
0.0
0
VERTEX
8
PATTERN
10
124.3328
20
174.0925
30
0.0
0
VERTEX
8
PATTERN
10
124.1677
20
175.2810
30
0.0
0
VERTEX
8
PATTERN
10
123.9825
20
176.4664
30
0.0
0
VERTEX
8
PATTERN
10
123.6728
20
177.6241
30
0.0
0
VERTEX
8
PATTERN
10
123.0719
20
178.6542
30
0.0
0
VERTEX
8
PATTERN
10
122.0682
20
179.2789
30
0.0
0
VERTEX
8
PATTERN
10
120.8804
20
179.2656
30
0.0
0
VERTEX
8
PATTERN
10
119.7561
20
178.8527
30
0.0
0
VERTEX
8
PATTERN
10
118.6694
20
178.3442
30
0.0
0
VERTEX
8
PATTERN
10
117.5294
20
177.9795
30
0.0
0
VERTEX
8
PATTERN
10
116.3381
20
178.0047
30
0.0
0
VERTEX
8
PATTERN
10
115.2406
20
178.4756
30
0.0
0
VERTEX
8
PATTERN
10
114.2735
20
179.1845
30
0.0
0
VERTEX
8
PATTERN
10
113.3211
20
179.9139
30
0.0
0
VERTEX
8
PATTERN
10
112.2440
20
180.4292
30
0.0
0
VERTEX
8
PATTERN
10
111.0714
20
180.3493
30
0.0
0
VERTEX
8
PATTERN
10
110.2825
20
179.4854
30
0.0
0
VERTEX
8
PATTERN
10
110.1346
20
178.3056
30
0.0
0
VERTEX
8
PATTERN
10
110.3743
20
177.1322
30
0.0
0
VERTEX
8
PATTERN
10
110.7609
20
175.9966
30
0.0
0
VERTEX
8
PATTERN
10
111.1515
20
174.8621
30
0.0
0
VERTEX
8
PATTERN
10
111.4575
20
173.7024
30
0.0
0
VERTEX
8
PATTERN
10
111.6371
20
172.5167
30
0.0
0
VERTEX
8
PATTERN
10
111.6974
20
171.3187
30
0.0
0
VERTEX
8
PATTERN
10
111.6761
20
170.1191
30
0.0
0
VERTEX
8
PATTERN
10
111.6172
20
168.9207
30
0.0
0
VERTEX
8
PATTERN
10
111.5576
20
167.7223
30
0.0
0
VERTEX
8
PATTERN
10
111.5235
20
166.5229
30
0.0
0
VERTEX
8
PATTERN
10
111.5262
20
165.3231
30
0.0
0
VERTEX
8
PATTERN
10
111.5579
20
164.1236
30
0.0
0
VERTEX
8
PATTERN
10
111.5933
20
162.9242
30
0.0
0
VERTEX
8
PATTERN
10
111.6017
20
161.7244
30
0.0
0
VERTEX
8
PATTERN
10
111.5647
20
160.5252
30
0.0
0
VERTEX
8
PATTERN
10
111.4882
20
159.3278
30
0.0
0
VERTEX
8
PATTERN
10
111.3995
20
158.1311
30
0.0
0
VERTEX
8
PATTERN
10
111.3319
20
156.9332
30
0.0
0
VERTEX
8
PATTERN
10
111.3079
20
155.7336
30
0.0
0
VERTEX
8
PATTERN
10
111.3291
20
154.5340
30
0.0
0
VERTEX
8
PATTERN
10
111.3779
20
153.3351
30
0.0
0
VERTEX
8
PATTERN
10
111.4260
20
152.1362
30
0.0
0
VERTEX
8
PATTERN
10
111.4470
20
150.9365
30
0.0
0
VERTEX
8
PATTERN
10
111.4281
20
149.7368
30
0.0
0
VERTEX
8
PATTERN
10
111.3768
20
148.5380
30
0.0
0
VERTEX
8
PATTERN
10
111.3188
20
147.3395
30
0.0
0
VERTEX
8
PATTERN
10
111.2843
20
146.1402
30
0.0
0
VERTEX
8
PATTERN
10
111.2894
20
144.9404
30
0.0
0
VERTEX
8
PATTERN
10
111.3241
20
143.7410
30
0.0
0
VERTEX
8
PATTERN
10
111.3556
20
142.5415
30
0.0
0
VERTEX
8
PATTERN
10
111.3479
20
141.3417
30
0.0
0
VERTEX
8
PATTERN
10
111.2887
20
140.1434
30
0.0
0
VERTEX
8
PATTERN
10
111.2129
20
138.9459
30
0.0
0
VERTEX
8
PATTERN
10
111.2079
20
137.7468
30
0.0
0
VERTEX
8
PATTERN
10
111.4259
20
136.5712
30
0.0
0
VERTEX
8
PATTERN
10
112.0929
20
135.5951
30
0.0
0
VERTEX
8
PATTERN
10
113.2253
20
135.3625
30
0.0
0
VERTEX
8
PATTERN
10
114.2013
20
136.0291
30
0.0
0
VERTEX
8
PATTERN
10
114.8963
20
137.0057
30
0.0
0
VERTEX
8
PATTERN
10
115.5781
20
137.9921
30
0.0
0
VERTEX
8
PATTERN
10
116.4892
20
138.7585
30
0.0
0
VERTEX
8
PATTERN
10
117.6556
20
138.9087
30
0.0
0
VERTEX
8
PATTERN
10
118.6719
20
138.3067
30
0.0
0
VERTEX
8
PATTERN
10
119.2514
20
137.2680
30
0.0
0
VERTEX
8
PATTERN
10
119.3859
20
136.0822
30
0.0
0
VERTEX
8
PATTERN
10
119.1711
20
134.9048
30
0.0
0
VERTEX
8
PATTERN
10
118.7350
20
133.7881
30
0.0
0
VERTEX
8
PATTERN
10
118.1828
20
132.7232
30
0.0
0
VERTEX
8
PATTERN
10
117.5606
20
131.6975
30
0.0
0
VERTEX
8
PATTERN
10
116.8611
20
130.7233
30
0.0
0
VERTEX
8
PATTERN
10
116.0261
20
129.8648
30
0.0
0
VERTEX
8
PATTERN
10
114.9874
20
129.2796
30
0.0
0
VERTEX
8
PATTERN
10
113.8023
20
129.1721
30
0.0
0
VERTEX
8
PATTERN
10
112.6445
20
129.4746
30
0.0
0
VERTEX
8
PATTERN
10
111.5477
20
129.9602
30
0.0
0
VERTEX
8
PATTERN
10
110.4815
20
130.5104
30
0.0
0
VERTEX
8
PATTERN
10
109.4430
20
131.1110
30
0.0
0
VERTEX
8
PATTERN
10
108.4727
20
131.8147
30
0.0
0
VERTEX
8
PATTERN
10
107.6536
20
132.6876
30
0.0
0
VERTEX
8
PATTERN
10
107.0667
20
133.7306
30
0.0
0
VERTEX
8
PATTERN
10
106.7201
20
134.8772
30
0.0
0
VERTEX
8
PATTERN
10
106.5614
20
136.0656
30
0.0
0
VERTEX
8
PATTERN
10
106.5364
20
137.2648
30
0.0
0
VERTEX
8
PATTERN
10
106.5957
20
138.4630
30
0.0
0
VERTEX
8
PATTERN
10
106.6886
20
139.6593
30
0.0
0
VERTEX
8
PATTERN
10
106.7663
20
140.8567
30
0.0
0
VERTEX
8
PATTERN
10
106.7982
20
142.0561
30
0.0
0
VERTEX
8
PATTERN
10
106.7858
20
143.2558
30
0.0
0
VERTEX
8
PATTERN
10
106.7590
20
144.4554
30
0.0
0
VERTEX
8
PATTERN
10
106.7545
20
145.6553
30
0.0
0
VERTEX
8
PATTERN
10
106.7929
20
146.8545
30
0.0
0
VERTEX
8
PATTERN
10
106.8687
20
148.0520
30
0.0
0
VERTEX
8
PATTERN
10
106.9566
20
149.2486
30
0.0
0
VERTEX
8
PATTERN
10
107.0269
20
150.4464
30
0.0
0
VERTEX
8
PATTERN
10
107.0608
20
151.6458
30
0.0
0
VERTEX
8
PATTERN
10
107.0582
20
152.8456
30
0.0
0
VERTEX
8
PATTERN
10
107.0353
20
154.0453
30
0.0
0
VERTEX
8
PATTERN
10
107.0150
20
155.2450
30
0.0
0
VERTEX
8
PATTERN
10
107.0162
20
156.4449
30
0.0
0
VERTEX
8
PATTERN
10
107.0460
20
157.6444
30
0.0
0
VERTEX
8
PATTERN
10
107.0974
20
158.8432
30
0.0
0
VERTEX
8
PATTERN
10
107.1526
20
160.0418
30
0.0
0
VERTEX
8
PATTERN
10
107.1930
20
161.2410
30
0.0
0
VERTEX
8
PATTERN
10
107.2094
20
162.4408
30
0.0
0
VERTEX
8
PATTERN
10
107.2070
20
163.6407
30
0.0
0
VERTEX
8
PATTERN
10
107.1998
20
164.8405
30
0.0
0
VERTEX
8
PATTERN
10
107.2006
20
166.0404
30
0.0
0
VERTEX
8
PATTERN
10
107.2133
20
167.2403
30
0.0
0
VERTEX
8
PATTERN
10
107.2317
20
168.4400
30
0.0
0
VERTEX
8
PATTERN
10
107.2374
20
169.6399
30
0.0
0
VERTEX
8
PATTERN
10
107.1929
20
170.8387
30
0.0
0
VERTEX
8
PATTERN
10
107.0250
20
172.0256
30
0.0
0
VERTEX
8
PATTERN
10
106.6122
20
173.1472
30
0.0
0
VERTEX
8
PATTERN
10
105.7956
20
174.0061
30
0.0
0
VERTEX
8
PATTERN
10
104.6370
20
174.1566
30
0.0
0
VERTEX
8
PATTERN
10
103.6907
20
173.4589
30
0.0
0
VERTEX
8
PATTERN
10
103.2009
20
172.3708
30
0.0
0
VERTEX
8
PATTERN
10
102.9942
20
171.1902
30
0.0
0
VERTEX
8
PATTERN
10
102.9178
20
169.9930
30
0.0
0
VERTEX
8
PATTERN
10
102.8920
20
168.7934
30
0.0
0
VERTEX
8
PATTERN
10
102.8832
20
167.5935
30
0.0
0
VERTEX
8
PATTERN
10
102.8808
20
166.3936
30
0.0
0
VERTEX
8
PATTERN
10
102.8824
20
165.1937
30
0.0
0
VERTEX
8
PATTERN
10
102.8853
20
163.9938
30
0.0
0
VERTEX
8
PATTERN
10
102.8844
20
162.7940
30
0.0
0
VERTEX
8
PATTERN
10
102.8746
20
161.5941
30
0.0
0
VERTEX
8
PATTERN
10
102.8544
20
160.3944
30
0.0
0
VERTEX
8
PATTERN
10
102.8283
20
159.1948
30
0.0
0
VERTEX
8
PATTERN
10
102.8046
20
157.9951
30
0.0
0
VERTEX
8
PATTERN
10
102.7914
20
156.7953
30
0.0
0
VERTEX
8
PATTERN
10
102.7924
20
155.5954
30
0.0
0
VERTEX
8
PATTERN
10
102.8057
20
154.3956
30
0.0
0
VERTEX
8
PATTERN
10
102.8238
20
153.1958
30
0.0
0
VERTEX
8
PATTERN
10
102.8374
20
151.9960
30
0.0
0
VERTEX
8
PATTERN
10
102.8386
20
150.7961
30
0.0
0
VERTEX
8
PATTERN
10
102.8255
20
149.5963
30
0.0
0
VERTEX
8
PATTERN
10
102.8034
20
148.3966
30
0.0
0
VERTEX
8
PATTERN
10
102.7823
20
147.1969
30
0.0
0
VERTEX
8
PATTERN
10
102.7709
20
145.9971
30
0.0
0
VERTEX
8
PATTERN
10
102.7707
20
144.7972
30
0.0
0
VERTEX
8
PATTERN
10
102.7740
20
143.5973
30
0.0
0
VERTEX
8
PATTERN
10
102.7684
20
142.3974
30
0.0
0
VERTEX
8
PATTERN
10
102.7446
20
141.1978
30
0.0
0
VERTEX
8
PATTERN
10
102.7025
20
139.9986
30
0.0
0
VERTEX
8
PATTERN
10
102.6516
20
138.7998
30
0.0
0
VERTEX
8
PATTERN
10
102.6073
20
137.6007
30
0.0
0
VERTEX
8
PATTERN
10
102.5848
20
136.4011
30
0.0
0
VERTEX
8
PATTERN
10
102.5946
20
135.2013
30
0.0
0
VERTEX
8
PATTERN
10
102.6391
20
134.0022
30
0.0
0
VERTEX
8
PATTERN
10
102.7088
20
132.8044
30
0.0
0
VERTEX
8
PATTERN
10
102.7826
20
131.6067
30
0.0
0
VERTEX
8
PATTERN
10
102.8329
20
130.4079
30
0.0
0
VERTEX
8
PATTERN
10
102.8403
20
129.2082
30
0.0
0
VERTEX
8
PATTERN
10
102.8045
20
128.0088
30
0.0
0
VERTEX
8
PATTERN
10
102.7429
20
126.8105
30
0.0
0
VERTEX
8
PATTERN
10
102.6732
20
125.6127
30
0.0
0
VERTEX
8
PATTERN
10
102.5947
20
124.4154
30
0.0
0
VERTEX
8
PATTERN
10
102.4792
20
123.2211
30
0.0
0
VERTEX
8
PATTERN
10
102.2794
20
122.0384
30
0.0
0
VERTEX
8
PATTERN
10
101.9513
20
120.8851
30
0.0
0
VERTEX
8
PATTERN
10
101.4859
20
119.7799
30
0.0
0
VERTEX
8
PATTERN
10
100.9252
20
118.7193
30
0.0
0
VERTEX
8
PATTERN
10
100.3547
20
117.6638
30
0.0
0
VERTEX
8
PATTERN
10
99.8974
20
116.5560
30
0.0
0
VERTEX
8
PATTERN
10
99.6797
20
115.3790
30
0.0
0
VERTEX
8
PATTERN
10
99.7120
20
114.1810
30
0.0
0
VERTEX
8
PATTERN
10
99.8817
20
112.9933
30
0.0
0
VERTEX
8
PATTERN
10
100.0584
20
111.8066
30
0.0
0
VERTEX
8
PATTERN
10
100.1344
20
110.6099
30
0.0
0
VERTEX
8
PATTERN
10
99.9843
20
109.4226
30
0.0
0
VERTEX
8
PATTERN
10
99.4475
20
108.3612
30
0.0
0
VERTEX
8
PATTERN
10
98.4230
20
107.7900
30
0.0
0
VERTEX
8
PATTERN
10
97.2838
20
108.0711
30
0.0
0
VERTEX
8
PATTERN
10
96.4712
20
108.9402
30
0.0
0
VERTEX
8
PATTERN
10
95.9663
20
110.0260
30
0.0
0
VERTEX
8
PATTERN
10
95.5993
20
111.1681
30
0.0
0
VERTEX
8
PATTERN
10
95.2090
20
112.3023
30
0.0
0
VERTEX
8
PATTERN
10
94.6344
20
113.3516
30
0.0
0
VERTEX
8
PATTERN
10
93.7292
20
114.1209
30
0.0
0
VERTEX
8
PATTERN
10
92.5622
20
114.2446
30
0.0
0
VERTEX
8
PATTERN
10
91.6754
20
113.4911
30
0.0
0
VERTEX
8
PATTERN
10
91.4484
20
112.3239
30
0.0
0
VERTEX
8
PATTERN
10
91.5484
20
111.1290
30
0.0
0
VERTEX
8
PATTERN
10
91.6626
20
109.9351
30
0.0
0
VERTEX
8
PATTERN
10
91.5101
20
108.7519
30
0.0
0
VERTEX
8
PATTERN
10
90.7835
20
107.8292
30
0.0
0
VERTEX
8
PATTERN
10
89.6265
20
107.6203
30
0.0
0
VERTEX
8
PATTERN
10
88.5415
20
108.1027
30
0.0
0
VERTEX
8
PATTERN
10
87.7263
20
108.9756
30
0.0
0
VERTEX
8
PATTERN
10
87.1570
20
110.0292
30
0.0
0
VERTEX
8
PATTERN
10
86.7830
20
111.1681
30
0.0
0
VERTEX
8
PATTERN
10
86.5678
20
112.3477
30
0.0
0
VERTEX
8
PATTERN
10
86.4640
20
113.5429
30
0.0
0
VERTEX
8
PATTERN
10
86.3870
20
114.7402
30
0.0
0
VERTEX
8
PATTERN
10
86.2287
20
115.9290
30
0.0
0
VERTEX
8
PATTERN
10
85.9218
20
117.0879
30
0.0
0
VERTEX
8
PATTERN
10
85.4818
20
118.2038
30
0.0
0
VERTEX
8
PATTERN
10
84.9830
20
119.2952
30
0.0
0
VERTEX
8
PATTERN
10
84.5037
20
120.3950
30
0.0
0
VERTEX
8
PATTERN
10
84.1084
20
121.5274
30
0.0
0
VERTEX
8
PATTERN
10
83.8383
20
122.6957
30
0.0
0
VERTEX
8
PATTERN
10
83.6953
20
123.8865
30
0.0
0
VERTEX
8
PATTERN
10
83.6414
20
125.0850
30
0.0
0
VERTEX
8
PATTERN
10
83.6205
20
126.2847
30
0.0
0
VERTEX
8
PATTERN
10
83.5820
20
127.4840
30
0.0
0
VERTEX
8
PATTERN
10
83.4850
20
128.6797
30
0.0
0
VERTEX
8
PATTERN
10
83.2842
20
129.8620
30
0.0
0
VERTEX
8
PATTERN
10
82.9070
20
130.9990
30
0.0
0
VERTEX
8
PATTERN
10
82.2503
20
131.9976
30
0.0
0
VERTEX
8
PATTERN
10
81.3191
20
132.7485
30
0.0
0
VERTEX
8
PATTERN
10
80.2668
20
133.3246
30
0.0
0
VERTEX
8
PATTERN
10
79.2530
20
133.9630
30
0.0
0
VERTEX
8
PATTERN
10
78.5645
20
134.9229
30
0.0
0
VERTEX
8
PATTERN
10
78.7800
20
136.0623
30
0.0
0
VERTEX
8
PATTERN
10
79.6763
20
136.8472
30
0.0
0
VERTEX
8
PATTERN
10
80.7257
20
137.4285
30
0.0
0
VERTEX
8
PATTERN
10
81.7341
20
138.0757
30
0.0
0
VERTEX
8
PATTERN
10
82.5303
20
138.9652
30
0.0
0
VERTEX
8
PATTERN
10
82.9993
20
140.0650
30
0.0
0
VERTEX
8
PATTERN
10
83.2129
20
141.2444
30
0.0
0
VERTEX
8
PATTERN
10
83.2878
20
142.4416
30
0.0
0
VERTEX
8
PATTERN
10
83.2901
20
143.6414
30
0.0
0
VERTEX
8
PATTERN
10
83.2522
20
144.8406
30
0.0
0
VERTEX
8
PATTERN
10
83.1914
20
146.0390
30
0.0
0
VERTEX
8
PATTERN
10
83.1226
20
147.2369
30
0.0
0
VERTEX
8
PATTERN
10
83.0636
20
148.4353
30
0.0
0
VERTEX
8
PATTERN
10
83.0306
20
149.6347
30
0.0
0
VERTEX
8
PATTERN
10
83.0298
20
150.8346
30
0.0
0
VERTEX
8
PATTERN
10
83.0548
20
152.0342
30
0.0
0
VERTEX
8
PATTERN
10
83.0917
20
153.2335
30
0.0
0
VERTEX
8
PATTERN
10
83.1281
20
154.4329
30
0.0
0
VERTEX
8
PATTERN
10
83.1571
20
155.6324
30
0.0
0
VERTEX
8
PATTERN
10
83.1762
20
156.8322
30
0.0
0
VERTEX
8
PATTERN
10
83.1842
20
158.0320
30
0.0
0
VERTEX
8
PATTERN
10
83.1806
20
159.2319
30
0.0
0
VERTEX
8
PATTERN
10
83.1652
20
160.4317
30
0.0
0
VERTEX
8
PATTERN
10
83.1378
20
161.6313
30
0.0
0
VERTEX
8
PATTERN
10
83.0979
20
162.8305
30
0.0
0
VERTEX
8
PATTERN
10
83.0466
20
164.0293
30
0.0
0
VERTEX
8
PATTERN
10
82.9917
20
165.2280
30
0.0
0
VERTEX
8
PATTERN
10
82.9497
20
166.4271
30
0.0
0
VERTEX
8
PATTERN
10
82.9397
20
167.6269
30
0.0
0
VERTEX
8
PATTERN
10
82.9709
20
168.8263
30
0.0
0
VERTEX
8
PATTERN
10
83.0330
20
170.0246
30
0.0
0
VERTEX
8
PATTERN
10
83.0997
20
171.2226
30
0.0
0
VERTEX
8
PATTERN
10
83.1423
20
172.4217
30
0.0
0
VERTEX
8
PATTERN
10
83.1432
20
173.6216
30
0.0
0
VERTEX
8
PATTERN
10
83.1010
20
174.8207
30
0.0
0
VERTEX
8
PATTERN
10
83.0262
20
176.0182
30
0.0
0
VERTEX
8
PATTERN
10
82.9270
20
177.2140
30
0.0
0
VERTEX
8
PATTERN
10
82.7915
20
178.4061
30
0.0
0
VERTEX
8
PATTERN
10
82.5727
20
179.5853
30
0.0
0
VERTEX
8
PATTERN
10
82.1812
20
180.7173
30
0.0
0
VERTEX
8
PATTERN
10
81.5004
20
181.6979
30
0.0
0
VERTEX
8
PATTERN
10
80.4831
20
182.3107
30
0.0
0
VERTEX
8
PATTERN
10
79.2982
20
182.3446
30
0.0
0
VERTEX
8
PATTERN
10
78.2486
20
181.7882
30
0.0
0
VERTEX
8
PATTERN
10
77.5329
20
180.8353
30
0.0
0
VERTEX
8
PATTERN
10
77.1891
20
179.6910
30
0.0
0
VERTEX
8
PATTERN
10
77.1787
20
178.4943
30
0.0
0
VERTEX
8
PATTERN
10
77.4106
20
177.3185
30
0.0
0
VERTEX
8
PATTERN
10
77.7771
20
176.1763
30
0.0
0
VERTEX
8
PATTERN
10
78.1592
20
175.0390
30
0.0
0
VERTEX
8
PATTERN
10
78.4312
20
173.8717
30
0.0
0
VERTEX
8
PATTERN
10
78.4122
20
172.6783
30
0.0
0
VERTEX
8
PATTERN
10
77.7922
20
171.6884
30
0.0
0
VERTEX
8
PATTERN
10
76.6361
20
171.5538
30
0.0
0
VERTEX
8
PATTERN
10
75.5758
20
172.0983
30
0.0
0
VERTEX
8
PATTERN
10
74.7045
20
172.9201
30
0.0
0
VERTEX
8
PATTERN
10
73.9763
20
173.8728
30
0.0
0
VERTEX
8
PATTERN
10
73.3580
20
174.9004
30
0.0
0
VERTEX
8
PATTERN
10
72.8508
20
175.9871
30
0.0
0
VERTEX
8
PATTERN
10
72.4833
20
177.1282
30
0.0
0
VERTEX
8
PATTERN
10
72.2818
20
178.3101
30
0.0
0
VERTEX
8
PATTERN
10
72.2129
20
179.5077
30
0.0
0
VERTEX
8
PATTERN
10
72.1746
20
180.7069
30
0.0
0
VERTEX
8
PATTERN
10
72.0065
20
181.8931
30
0.0
0
VERTEX
8
PATTERN
10
71.5037
20
182.9729
30
0.0
0
VERTEX
8
PATTERN
10
70.5370
20
183.6505
30
0.0
0
VERTEX
8
PATTERN
10
69.3508
20
183.6988
30
0.0
0
VERTEX
8
PATTERN
10
68.2175
20
183.3137
30
0.0
0
VERTEX
8
PATTERN
10
67.1520
20
182.7625
30
0.0
0
VERTEX
8
PATTERN
10
66.0870
20
182.2104
30
0.0
0
VERTEX
8
PATTERN
10
64.9743
20
181.7637
30
0.0
0
VERTEX
8
PATTERN
10
63.8139
20
181.4609
30
0.0
0
VERTEX
8
PATTERN
10
62.6343
20
181.2413
30
0.0
0
VERTEX
8
PATTERN
10
61.4651
20
180.9742
30
0.0
0
VERTEX
8
PATTERN
10
60.3732
20
180.4860
30
0.0
0
VERTEX
8
PATTERN
10
59.5542
20
179.6264
30
0.0
0
VERTEX
8
PATTERN
10
59.3529
20
178.4676
30
0.0
0
VERTEX
8
PATTERN
10
59.9304
20
177.4411
30
0.0
0
VERTEX
8
PATTERN
10
60.9578
20
176.8370
30
0.0
0
VERTEX
8
PATTERN
10
62.1150
20
176.5256
30
0.0
0
VERTEX
8
PATTERN
10
63.2966
20
176.3172
30
0.0
0
VERTEX
8
PATTERN
10
64.4714
20
176.0745
30
0.0
0
VERTEX
8
PATTERN
10
65.6124
20
175.7063
30
0.0
0
VERTEX
8
PATTERN
10
66.6820
20
175.1655
30
0.0
0
VERTEX
8
PATTERN
10
67.6479
20
174.4559
30
0.0
0
VERTEX
8
PATTERN
10
68.5013
20
173.6138
30
0.0
0
VERTEX
8
PATTERN
10
69.2577
20
172.6828
30
0.0
0
VERTEX
8
PATTERN
10
69.9493
20
171.7025
30
0.0
0
VERTEX
8
PATTERN
10
70.6198
20
170.7074
30
0.0
0
VERTEX
8
PATTERN
10
71.3198
20
169.7331
30
0.0
0
VERTEX
8
PATTERN
10
72.0982
20
168.8207
30
0.0
0
VERTEX
8
PATTERN
10
72.9829
20
168.0115
30
0.0
0
VERTEX
8
PATTERN
10
73.9654
20
167.3241
30
0.0
0
VERTEX
8
PATTERN
10
75.0100
20
166.7340
30
0.0
0
VERTEX
8
PATTERN
10
76.0675
20
166.1673
30
0.0
0
VERTEX
8
PATTERN
10
77.0676
20
165.5069
30
0.0
0
VERTEX
8
PATTERN
10
77.8924
20
164.6413
30
0.0
0
VERTEX
8
PATTERN
10
78.4414
20
163.5787
30
0.0
0
VERTEX
8
PATTERN
10
78.7453
20
162.4195
30
0.0
0
VERTEX
8
PATTERN
10
78.9012
20
161.2302
30
0.0
0
VERTEX
8
PATTERN
10
78.9764
20
160.0328
30
0.0
0
VERTEX
8
PATTERN
10
79.0066
20
158.8334
30
0.0
0
VERTEX
8
PATTERN
10
79.0070
20
157.6335
30
0.0
0
VERTEX
8
PATTERN
10
78.9814
20
156.4339
30
0.0
0
VERTEX
8
PATTERN
10
78.9256
20
155.2353
30
0.0
0
VERTEX
8
PATTERN
10
78.8335
20
154.0390
30
0.0
0
VERTEX
8
PATTERN
10
78.7088
20
152.8456
30
0.0
0
VERTEX
8
PATTERN
10
78.5779
20
151.6529
30
0.0
0
VERTEX
8
PATTERN
10
78.4906
20
150.4564
30
0.0
0
VERTEX
8
PATTERN
10
78.4943
20
149.2570
30
0.0
0
VERTEX
8
PATTERN
10
78.5931
20
148.0613
30
0.0
0
VERTEX
8
PATTERN
10
78.7374
20
146.8702
30
0.0
0
VERTEX
8
PATTERN
10
78.8485
20
145.6757
30
0.0
0
VERTEX
8
PATTERN
10
78.8362
20
144.4770
30
0.0
0
VERTEX
8
PATTERN
10
78.5768
20
143.3097
30
0.0
0
VERTEX
8
PATTERN
10
77.8923
20
142.3430
30
0.0
0
VERTEX
8
PATTERN
10
76.7633
20
142.0691
30
0.0
0
VERTEX
8
PATTERN
10
75.7757
20
142.7117
30
0.0
0
VERTEX
8
PATTERN
10
75.1614
20
143.7377
30
0.0
0
VERTEX
8
PATTERN
10
74.7123
20
144.8501
30
0.0
0
VERTEX
8
PATTERN
10
74.2125
20
145.9397
30
0.0
0
VERTEX
8
PATTERN
10
73.4585
20
146.8642
30
0.0
0
VERTEX
8
PATTERN
10
72.3935
20
147.3938
30
0.0
0
VERTEX
8
PATTERN
10
71.2028
20
147.4413
30
0.0
0
VERTEX
8
PATTERN
10
70.0969
20
147.0054
30
0.0
0
VERTEX
8
PATTERN
10
69.4217
20
146.0415
30
0.0
0
VERTEX
8
PATTERN
10
69.4237
20
144.8528
30
0.0
0
VERTEX
8
PATTERN
10
69.7981
20
143.7148
30
0.0
0
VERTEX
8
PATTERN
10
70.3072
20
142.6285
30
0.0
0
VERTEX
8
PATTERN
10
70.8527
20
141.5598
30
0.0
0
VERTEX
8
PATTERN
10
71.3939
20
140.4889
30
0.0
0
VERTEX
8
PATTERN
10
71.9057
20
139.4037
30
0.0
0
VERTEX
8
PATTERN
10
72.3589
20
138.2929
30
0.0
0
VERTEX
8
PATTERN
10
72.7230
20
137.1500
30
0.0
0
VERTEX
8
PATTERN
10
72.9865
20
135.9798
30
0.0
0
VERTEX
8
PATTERN
10
73.1568
20
134.7924
30
0.0
0
VERTEX
8
PATTERN
10
73.2237
20
133.5949
30
0.0
0
VERTEX
8
PATTERN
10
73.1069
20
132.4033
30
0.0
0
VERTEX
8
PATTERN
10
72.5790
20
131.3431
30
0.0
0
VERTEX
8
PATTERN
10
71.4784
20
131.0148
30
0.0
0
VERTEX
8
PATTERN
10
70.4764
20
131.6394
30
0.0
0
VERTEX
8
PATTERN
10
69.8209
20
132.6393
30
0.0
0
VERTEX
8
PATTERN
10
69.3846
20
133.7561
30
0.0
0
VERTEX
8
PATTERN
10
69.0453
20
134.9070
30
0.0
0
VERTEX
8
PATTERN
10
68.7158
20
136.0607
30
0.0
0
VERTEX
8
PATTERN
10
68.3397
20
137.2000
30
0.0
0
VERTEX
8
PATTERN
10
67.8931
20
138.3134
30
0.0
0
VERTEX
8
PATTERN
10
67.3773
20
139.3966
30
0.0
0
VERTEX
8
PATTERN
10
66.8089
20
140.4532
30
0.0
0
VERTEX
8
PATTERN
10
66.2144
20
141.4955
30
0.0
0
VERTEX
8
PATTERN
10
65.6320
20
142.5445
30
0.0
0
VERTEX
8
PATTERN
10
65.1126
20
143.6257
30
0.0
0
VERTEX
8
PATTERN
10
64.7119
20
144.7557
30
0.0
0
VERTEX
8
PATTERN
10
64.4647
20
145.9288
30
0.0
0
VERTEX
8
PATTERN
10
64.3556
20
147.1232
30
0.0
0
VERTEX
8
PATTERN
10
64.3249
20
148.3227
30
0.0
0
VERTEX
8
PATTERN
10
64.3052
20
149.5224
30
0.0
0
VERTEX
8
PATTERN
10
64.2529
20
150.7211
30
0.0
0
VERTEX
8
PATTERN
10
64.1579
20
151.9172
30
0.0
0
VERTEX
8
PATTERN
10
64.0373
20
153.1110
30
0.0
0
VERTEX
8
PATTERN
10
63.9238
20
154.3055
30
0.0
0
VERTEX
8
PATTERN
10
63.8635
20
155.5036
30
0.0
0
VERTEX
8
PATTERN
10
63.9233
20
156.7011
30
0.0
0
VERTEX
8
PATTERN
10
64.1969
20
157.8666
30
0.0
0
VERTEX
8
PATTERN
10
64.7679
20
158.9166
30
0.0
0
VERTEX
8
PATTERN
10
65.6490
20
159.7222
30
0.0
0
VERTEX
8
PATTERN
10
66.7594
20
160.1569
30
0.0
0
VERTEX
8
PATTERN
10
67.9494
20
160.1137
30
0.0
0
VERTEX
8
PATTERN
10
69.0075
20
159.5708
30
0.0
0
VERTEX
8
PATTERN
10
69.6796
20
158.5961
30
0.0
0
VERTEX
8
PATTERN
10
69.6883
20
157.4145
30
0.0
0
VERTEX
8
PATTERN
10
69.1934
20
156.3250
30
0.0
0
VERTEX
8
PATTERN
10
68.6335
20
155.2645
30
0.0
0
VERTEX
8
PATTERN
10
68.3743
20
154.1023
30
0.0
0
VERTEX
8
PATTERN
10
68.7480
20
152.9837
30
0.0
0
VERTEX
8
PATTERN
10
69.7004
20
152.2804
30
0.0
0
VERTEX
8
PATTERN
10
70.8743
20
152.0714
30
0.0
0
VERTEX
8
PATTERN
10
72.0554
20
152.2535
30
0.0
0
VERTEX
8
PATTERN
10
73.1210
20
152.7918
30
0.0
0
VERTEX
8
PATTERN
10
73.9308
20
153.6676
30
0.0
0
VERTEX
8
PATTERN
10
74.4221
20
154.7582
30
0.0
0
VERTEX
8
PATTERN
10
74.6705
20
155.9308
30
0.0
0
VERTEX
8
PATTERN
10
74.7702
20
157.1260
30
0.0
0
VERTEX
8
PATTERN
10
74.7568
20
158.3253
30
0.0
0
VERTEX
8
PATTERN
10
74.6162
20
159.5162
30
0.0
0
VERTEX
8
PATTERN
10
74.2975
20
160.6714
30
0.0
0
VERTEX
8
PATTERN
10
73.7578
20
161.7403
30
0.0
0
VERTEX
8
PATTERN
10
73.0043
20
162.6713
30
0.0
0
VERTEX
8
PATTERN
10
72.0994
20
163.4577
30
0.0
0
VERTEX
8
PATTERN
10
71.1221
20
164.1536
30
0.0
0
VERTEX
8
PATTERN
10
70.1363
20
164.8376
30
0.0
0
VERTEX
8
PATTERN
10
69.1981
20
165.5847
30
0.0
0
VERTEX
8
PATTERN
10
68.3552
20
166.4376
30
0.0
0
VERTEX
8
PATTERN
10
67.6160
20
167.3822
30
0.0
0
VERTEX
8
PATTERN
10
66.9382
20
168.3722
30
0.0
0
VERTEX
8
PATTERN
10
66.2489
20
169.3541
30
0.0
0
VERTEX
8
PATTERN
10
65.4645
20
170.2603
30
0.0
0
VERTEX
8
PATTERN
10
64.5041
20
170.9717
30
0.0
0
VERTEX
8
PATTERN
10
63.3486
20
171.2336
30
0.0
0
VERTEX
8
PATTERN
10
62.3147
20
170.6969
30
0.0
0
VERTEX
8
PATTERN
10
61.9480
20
169.5772
30
0.0
0
VERTEX
8
PATTERN
10
62.1055
20
168.3918
30
0.0
0
VERTEX
8
PATTERN
10
62.4424
20
167.2403
30
0.0
0
VERTEX
8
PATTERN
10
62.7281
20
166.0758
30
0.0
0
VERTEX
8
PATTERN
10
62.7036
20
164.8848
30
0.0
0
VERTEX
8
PATTERN
10
61.9973
20
163.9637
30
0.0
0
VERTEX
8
PATTERN
10
60.8270
20
163.9396
30
0.0
0
VERTEX
8
PATTERN
10
59.7884
20
164.5267
30
0.0
0
VERTEX
8
PATTERN
10
58.9305
20
165.3630
30
0.0
0
VERTEX
8
PATTERN
10
58.1976
20
166.3123
30
0.0
0
VERTEX
8
PATTERN
10
57.5399
20
167.3157
30
0.0
0
VERTEX
8
PATTERN
10
56.9182
20
168.3419
30
0.0
0
VERTEX
8
PATTERN
10
56.2917
20
169.3653
30
0.0
0
VERTEX
8
PATTERN
10
55.6091
20
170.3515
30
0.0
0
VERTEX
8
PATTERN
10
54.8068
20
171.2415
30
0.0
0
VERTEX
8
PATTERN
10
53.8239
20
171.9221
30
0.0
0
VERTEX
8
PATTERN
10
52.6683
20
172.2057
30
0.0
0
VERTEX
8
PATTERN
10
51.5324
20
171.8775
30
0.0
0
VERTEX
8
PATTERN
10
50.7972
20
170.9546
30
0.0
0
VERTEX
8
PATTERN
10
50.6624
20
169.7746
30
0.0
0
VERTEX
8
PATTERN
10
50.9989
20
168.6277
30
0.0
0
VERTEX
8
PATTERN
10
51.5903
20
167.5852
30
0.0
0
VERTEX
8
PATTERN
10
52.2969
20
166.6157
30
0.0
0
VERTEX
8
PATTERN
10
53.0437
20
165.6766
30
0.0
0
VERTEX
8
PATTERN
10
53.7965
20
164.7422
30
0.0
0
VERTEX
8
PATTERN
10
54.5456
20
163.8049
30
0.0
0
VERTEX
8
PATTERN
10
55.2943
20
162.8672
30
0.0
0
VERTEX
8
PATTERN
10
56.0451
20
161.9313
30
0.0
0
VERTEX
8
PATTERN
10
56.7891
20
160.9899
30
0.0
0
VERTEX
8
PATTERN
10
57.4978
20
160.0219
30
0.0
0
VERTEX
8
PATTERN
10
58.1231
20
158.9986
30
0.0
0
VERTEX
8
PATTERN
10
58.6113
20
157.9037
30
0.0
0
VERTEX
8
PATTERN
10
58.9447
20
156.7520
30
0.0
0
VERTEX
8
PATTERN
10
59.1561
20
155.5712
30
0.0
0
VERTEX
8
PATTERN
10
59.3022
20
154.3803
30
0.0
0
VERTEX
8
PATTERN
10
59.4278
20
153.1870
30
0.0
0
VERTEX
8
PATTERN
10
59.5509
20
151.9934
30
0.0
0
VERTEX
8
PATTERN
10
59.6634
20
150.7988
30
0.0
0
VERTEX
8
PATTERN
10
59.7445
20
149.6017
30
0.0
0
VERTEX
8
PATTERN
10
59.7817
20
148.4025
30
0.0
0
VERTEX
8
PATTERN
10
59.7913
20
147.2026
30
0.0
0
VERTEX
8
PATTERN
10
59.8242
20
146.0033
30
0.0
0
VERTEX
8
PATTERN
10
59.9517
20
144.8108
30
0.0
0
VERTEX
8
PATTERN
10
60.2308
20
143.6449
30
0.0
0
VERTEX
8
PATTERN
10
60.6658
20
142.5274
30
0.0
0
VERTEX
8
PATTERN
10
61.2083
20
141.4575
30
0.0
0
VERTEX
8
PATTERN
10
61.8010
20
140.4143
30
0.0
0
VERTEX
8
PATTERN
10
62.3993
20
139.3742
30
0.0
0
VERTEX
8
PATTERN
10
62.9706
20
138.3191
30
0.0
0
VERTEX
8
PATTERN
10
63.4888
20
137.2371
30
0.0
0
VERTEX
8
PATTERN
10
63.9325
20
136.1226
30
0.0
0
VERTEX
8
PATTERN
10
64.2924
20
134.9782
30
0.0
0
VERTEX
8
PATTERN
10
64.5839
20
133.8144
30
0.0
0
VERTEX
8
PATTERN
10
64.8500
20
132.6444
30
0.0
0
VERTEX
8
PATTERN
10
65.1507
20
131.4830
30
0.0
0
VERTEX
8
PATTERN
10
65.5451
20
130.3504
30
0.0
0
VERTEX
8
PATTERN
10
66.0742
20
129.2744
30
0.0
0
VERTEX
8
PATTERN
10
66.7504
20
128.2847
30
0.0
0
VERTEX
8
PATTERN
10
67.5683
20
127.4084
30
0.0
0
VERTEX
8
PATTERN
10
68.5148
20
126.6735
30
0.0
0
VERTEX
8
PATTERN
10
69.5709
20
126.1069
30
0.0
0
VERTEX
8
PATTERN
10
70.7088
20
125.7311
30
0.0
0
VERTEX
8
PATTERN
10
71.8948
20
125.5620
30
0.0
0
VERTEX
8
PATTERN
10
73.0902
20
125.6319
30
0.0
0
VERTEX
8
PATTERN
10
74.2375
20
125.9733
30
0.0
0
VERTEX
8
PATTERN
10
75.2931
20
126.5408
30
0.0
0
VERTEX
8
PATTERN
10
76.3015
20
127.1907
30
0.0
0
VERTEX
8
PATTERN
10
77.3947
20
127.6696
30
0.0
0
VERTEX
8
PATTERN
10
78.4892
20
127.3342
30
0.0
0
VERTEX
8
PATTERN
10
78.9597
20
126.2478
30
0.0
0
VERTEX
8
PATTERN
10
79.0572
20
125.0532
30
0.0
0
VERTEX
8
PATTERN
10
79.0654
20
123.8534
30
0.0
0
VERTEX
8
PATTERN
10
79.1369
20
122.6562
30
0.0
0
VERTEX
8
PATTERN
10
79.3486
20
121.4760
30
0.0
0
VERTEX
8
PATTERN
10
79.7000
20
120.3293
30
0.0
0
VERTEX
8
PATTERN
10
80.1416
20
119.2138
30
0.0
0
VERTEX
8
PATTERN
10
80.6165
20
118.1119
30
0.0
0
VERTEX
8
PATTERN
10
81.0701
20
117.0011
30
0.0
0
VERTEX
8
PATTERN
10
81.4488
20
115.8630
30
0.0
0
VERTEX
8
PATTERN
10
81.7142
20
114.6934
30
0.0
0
VERTEX
8
PATTERN
10
81.8773
20
113.5049
30
0.0
0
VERTEX
8
PATTERN
10
82.0158
20
112.3131
30
0.0
0
VERTEX
8
PATTERN
10
82.2339
20
111.1337
30
0.0
0
VERTEX
8
PATTERN
10
82.5988
20
109.9915
30
0.0
0
VERTEX
8
PATTERN
10
83.0714
20
108.8888
30
0.0
0
VERTEX
8
PATTERN
10
83.5313
20
107.7811
30
0.0
0
VERTEX
8
PATTERN
10
83.7843
20
106.6130
30
0.0
0
VERTEX
8
PATTERN
10
83.5291
20
105.4587
30
0.0
0
VERTEX
8
PATTERN
10
82.6026
20
104.7456
30
0.0
0
VERTEX
8
PATTERN
10
81.4214
20
104.7975
30
0.0
0
VERTEX
8
PATTERN
10
80.3462
20
105.3225
30
0.0
0
VERTEX
8
PATTERN
10
79.3437
20
105.9817
30
0.0
0
VERTEX
8
PATTERN
10
78.2744
20
106.5195
30
0.0
0
VERTEX
8
PATTERN
10
77.0926
20
106.6687
30
0.0
0
VERTEX
8
PATTERN
10
75.9492
20
106.3313
30
0.0
0
VERTEX
8
PATTERN
10
75.0257
20
105.5804
30
0.0
0
VERTEX
8
PATTERN
10
74.6850
20
104.4624
30
0.0
0
VERTEX
8
PATTERN
10
75.2583
20
103.4361
30
0.0
0
VERTEX
8
PATTERN
10
76.2189
20
102.7206
30
0.0
0
VERTEX
8
PATTERN
10
77.2278
20
102.0714
30
0.0
0
VERTEX
8
PATTERN
10
78.1079
20
101.2623
30
0.0
0
VERTEX
8
PATTERN
10
78.5492
20
100.1657
30
0.0
0
VERTEX
8
PATTERN
10
78.2062
20
99.0434
30
0.0
0
VERTEX
8
PATTERN
10
77.2347
20
98.3667
30
0.0
0
VERTEX
8
PATTERN
10
76.0562
20
98.1763
30
0.0
0
VERTEX
8
PATTERN
10
74.8663
20
98.3093
30
0.0
0
VERTEX
8
PATTERN
10
73.7228
20
98.6673
30
0.0
0
VERTEX
8
PATTERN
10
72.6568
20
99.2148
30
0.0
0
VERTEX
8
PATTERN
10
71.6972
20
99.9331
30
0.0
0
VERTEX
8
PATTERN
10
70.8611
20
100.7918
30
0.0
0
VERTEX
8
PATTERN
10
70.1655
20
101.7679
30
0.0
0
VERTEX
8
PATTERN
10
69.6495
20
102.8490
30
0.0
0
VERTEX
8
PATTERN
10
69.3685
20
104.0128
30
0.0
0
VERTEX
8
PATTERN
10
69.3577
20
105.2099
30
0.0
0
VERTEX
8
PATTERN
10
69.6108
20
106.3803
30
0.0
0
VERTEX
8
PATTERN
10
70.1127
20
107.4672
30
0.0
0
VERTEX
8
PATTERN
10
70.8493
20
108.4109
30
0.0
0
VERTEX
8
PATTERN
10
71.7685
20
109.1792
30
0.0
0
VERTEX
8
PATTERN
10
72.7906
20
109.8066
30
0.0
0
VERTEX
8
PATTERN
10
73.8498
20
110.3703
30
0.0
0
VERTEX
8
PATTERN
10
74.8967
20
110.9560
30
0.0
0
VERTEX
8
PATTERN
10
75.8684
20
111.6573
30
0.0
0
VERTEX
8
PATTERN
10
76.6558
20
112.5569
30
0.0
0
VERTEX
8
PATTERN
10
77.1133
20
113.6597
30
0.0
0
VERTEX
8
PATTERN
10
77.2078
20
114.8518
30
0.0
0
VERTEX
8
PATTERN
10
77.0322
20
116.0369
30
0.0
0
VERTEX
8
PATTERN
10
76.6693
20
117.1795
30
0.0
0
VERTEX
8
PATTERN
10
76.1559
20
118.2630
30
0.0
0
VERTEX
8
PATTERN
10
75.4893
20
119.2589
30
0.0
0
VERTEX
8
PATTERN
10
74.6542
20
120.1177
30
0.0
0
VERTEX
8
PATTERN
10
73.6582
20
120.7828
30
0.0
0
VERTEX
8
PATTERN
10
72.5532
20
121.2464
30
0.0
0
VERTEX
8
PATTERN
10
71.3949
20
121.5578
30
0.0
0
VERTEX
8
PATTERN
10
70.2197
20
121.8000
30
0.0
0
VERTEX
8
PATTERN
10
69.0498
20
122.0657
30
0.0
0
VERTEX
8
PATTERN
10
67.9109
20
122.4404
30
0.0
0
VERTEX
8
PATTERN
10
66.8387
20
122.9760
30
0.0
0
VERTEX
8
PATTERN
10
65.8587
20
123.6666
30
0.0
0
VERTEX
8
PATTERN
10
64.9655
20
124.4671
30
0.0
0
VERTEX
8
PATTERN
10
64.1368
20
125.3345
30
0.0
0
VERTEX
8
PATTERN
10
63.3645
20
126.2525
30
0.0
0
VERTEX
8
PATTERN
10
62.6664
20
127.2279
30
0.0
0
VERTEX
8
PATTERN
10
62.0778
20
128.2726
30
0.0
0
VERTEX
8
PATTERN
10
61.6230
20
129.3821
30
0.0
0
VERTEX
8
PATTERN
10
61.2866
20
130.5335
30
0.0
0
VERTEX
8
PATTERN
10
61.0149
20
131.7022
30
0.0
0
VERTEX
8
PATTERN
10
60.7441
20
132.8711
30
0.0
0
VERTEX
8
PATTERN
10
60.4230
20
134.0271
30
0.0
0
VERTEX
8
PATTERN
10
60.0225
20
135.1578
30
0.0
0
VERTEX
8
PATTERN
10
59.5358
20
136.2542
30
0.0
0
VERTEX
8
PATTERN
10
58.9705
20
137.3123
30
0.0
0
VERTEX
8
PATTERN
10
58.3421
20
138.3344
30
0.0
0
VERTEX
8
PATTERN
10
57.6742
20
139.3311
30
0.0
0
VERTEX
8
PATTERN
10
57.0033
20
140.3259
30
0.0
0
VERTEX
8
PATTERN
10
56.3854
20
141.3540
30
0.0
0
VERTEX
8
PATTERN
10
55.8945
20
142.4476
30
0.0
0
VERTEX
8
PATTERN
10
55.5886
20
143.6062
30
0.0
0
VERTEX
8
PATTERN
10
55.4638
20
144.7987
30
0.0
0
VERTEX
8
PATTERN
10
55.4656
20
145.9983
30
0.0
0
VERTEX
8
PATTERN
10
55.5291
20
147.1965
30
0.0
0
VERTEX
8
PATTERN
10
55.6000
20
148.3943
30
0.0
0
VERTEX
8
PATTERN
10
55.6392
20
149.5935
30
0.0
0
VERTEX
8
PATTERN
10
55.6213
20
150.7931
30
0.0
0
VERTEX
8
PATTERN
10
55.5328
20
151.9895
30
0.0
0
VERTEX
8
PATTERN
10
55.3658
20
153.1775
30
0.0
0
VERTEX
8
PATTERN
10
55.1108
20
154.3496
30
0.0
0
VERTEX
8
PATTERN
10
54.7549
20
155.4950
30
0.0
0
VERTEX
8
PATTERN
10
54.2888
20
156.6000
30
0.0
0
VERTEX
8
PATTERN
10
53.7175
20
157.6546
30
0.0
0
VERTEX
8
PATTERN
10
53.0625
20
158.6597
30
0.0
0
VERTEX
8
PATTERN
10
52.3517
20
159.6263
30
0.0
0
VERTEX
8
PATTERN
10
51.6078
20
160.5677
30
0.0
0
VERTEX
8
PATTERN
10
50.8429
20
161.4921
30
0.0
0
VERTEX
8
PATTERN
10
50.0606
20
162.4019
30
0.0
0
VERTEX
8
PATTERN
10
49.2611
20
163.2966
30
0.0
0
VERTEX
8
PATTERN
10
48.4453
20
164.1764
30
0.0
0
VERTEX
8
PATTERN
10
47.6126
20
165.0403
30
0.0
0
VERTEX
8
PATTERN
10
46.7552
20
165.8797
30
0.0
0
VERTEX
8
PATTERN
10
45.8530
20
166.6704
30
0.0
0
VERTEX
8
PATTERN
10
44.8742
20
167.3629
30
0.0
0
VERTEX
8
PATTERN
10
43.7931
20
167.8782
30
0.0
0
VERTEX
8
PATTERN
10
42.6193
20
168.1025
30
0.0
0
VERTEX
8
PATTERN
10
41.4435
20
167.9102
30
0.0
0
VERTEX
8
PATTERN
10
40.4658
20
167.2360
30
0.0
0
VERTEX
8
PATTERN
10
39.9416
20
166.1730
30
0.0
0
VERTEX
8
PATTERN
10
40.0281
20
164.9901
30
0.0
0
VERTEX
8
PATTERN
10
40.6398
20
163.9680
30
0.0
0
VERTEX
8
PATTERN
10
41.5459
20
163.1862
30
0.0
0
VERTEX
8
PATTERN
10
42.5675
20
162.5579
30
0.0
0
VERTEX
8
PATTERN
10
43.6133
20
161.9696
30
0.0
0
VERTEX
8
PATTERN
10
44.6322
20
161.3364
30
0.0
0
VERTEX
8
PATTERN
10
45.5953
20
160.6214
30
0.0
0
VERTEX
8
PATTERN
10
46.4951
20
159.8281
30
0.0
0
VERTEX
8
PATTERN
10
47.3392
20
158.9756
30
0.0
0
VERTEX
8
PATTERN
10
48.1351
20
158.0778
30
0.0
0
VERTEX
8
PATTERN
10
48.8779
20
157.1358
30
0.0
0
VERTEX
8
PATTERN
10
49.5495
20
156.1420
30
0.0
0
VERTEX
8
PATTERN
10
50.1244
20
155.0894
30
0.0
0
VERTEX
8
PATTERN
10
50.5815
20
153.9807
30
0.0
0
VERTEX
8
PATTERN
10
50.9128
20
152.8281
30
0.0
0
VERTEX
8
PATTERN
10
51.1238
20
151.6473
30
0.0
0
VERTEX
8
PATTERN
10
51.2282
20
150.4523
30
0.0
0
VERTEX
8
PATTERN
10
51.2448
20
149.2527
30
0.0
0
VERTEX
8
PATTERN
10
51.1890
20
148.0543
30
0.0
0
VERTEX
8
PATTERN
10
51.0636
20
146.8612
30
0.0
0
VERTEX
8
PATTERN
10
50.8424
20
145.6825
30
0.0
0
VERTEX
8
PATTERN
10
50.4540
20
144.5495
30
0.0
0
VERTEX
8
PATTERN
10
49.7735
20
143.5692
30
0.0
0
VERTEX
8
PATTERN
10
48.7429
20
142.9800
30
0.0
0
VERTEX
8
PATTERN
10
47.5551
20
142.9498
30
0.0
0
VERTEX
8
PATTERN
10
46.4772
20
143.4516
30
0.0
0
VERTEX
8
PATTERN
10
45.7848
20
144.4111
30
0.0
0
VERTEX
8
PATTERN
10
45.7203
20
145.5964
30
0.0
0
VERTEX
8
PATTERN
10
46.0562
20
146.7463
30
0.0
0
VERTEX
8
PATTERN
10
46.4693
20
147.8727
30
0.0
0
VERTEX
8
PATTERN
10
46.7800
20
149.0306
30
0.0
0
VERTEX
8
PATTERN
10
46.8957
20
150.2232
30
0.0
0
VERTEX
8
PATTERN
10
46.7895
20
151.4165
30
0.0
0
VERTEX
8
PATTERN
10
46.4714
20
152.5718
30
0.0
0
VERTEX
8
PATTERN
10
45.9670
20
153.6592
30
0.0
0
VERTEX
8
PATTERN
10
45.3128
20
154.6641
30
0.0
0
VERTEX
8
PATTERN
10
44.5439
20
155.5844
30
0.0
0
VERTEX
8
PATTERN
10
43.6772
20
156.4132
30
0.0
0
VERTEX
8
PATTERN
10
42.7134
20
157.1262
30
0.0
0
VERTEX
8
PATTERN
10
41.6537
20
157.6862
30
0.0
0
VERTEX
8
PATTERN
10
40.5191
20
158.0729
30
0.0
0
VERTEX
8
PATTERN
10
39.3475
20
158.3302
30
0.0
0
VERTEX
8
PATTERN
10
38.1698
20
158.5596
30
0.0
0
VERTEX
8
PATTERN
10
37.0243
20
158.9109
30
0.0
0
VERTEX
8
PATTERN
10
36.0147
20
159.5474
30
0.0
0
VERTEX
8
PATTERN
10
35.3012
20
160.5037
30
0.0
0
VERTEX
8
PATTERN
10
34.8587
20
161.6173
30
0.0
0
VERTEX
8
PATTERN
10
34.4704
20
162.7524
30
0.0
0
VERTEX
8
PATTERN
10
33.8717
20
163.7850
30
0.0
0
VERTEX
8
PATTERN
10
32.8614
20
164.3897
30
0.0
0
VERTEX
8
PATTERN
10
31.6831
20
164.2765
30
0.0
0
VERTEX
8
PATTERN
10
30.6481
20
163.6795
30
0.0
0
VERTEX
8
PATTERN
10
29.7872
20
162.8464
30
0.0
0
VERTEX
8
PATTERN
10
29.0741
20
161.8828
30
0.0
0
VERTEX
8
PATTERN
10
28.5155
20
160.8223
30
0.0
0
VERTEX
8
PATTERN
10
28.1557
20
159.6798
30
0.0
0
VERTEX
8
PATTERN
10
28.0592
20
158.4870
30
0.0
0
VERTEX
8
PATTERN
10
28.2865
20
157.3130
30
0.0
0
VERTEX
8
PATTERN
10
28.8328
20
156.2495
30
0.0
0
VERTEX
8
PATTERN
10
29.6530
20
155.3790
30
0.0
0
VERTEX
8
PATTERN
10
30.6689
20
154.7464
30
0.0
0
VERTEX
8
PATTERN
10
31.7987
20
154.3479
30
0.0
0
VERTEX
8
PATTERN
10
32.9777
20
154.1295
30
0.0
0
VERTEX
8
PATTERN
10
34.1726
20
154.0232
30
0.0
0
VERTEX
8
PATTERN
10
35.3712
20
153.9686
30
0.0
0
VERTEX
8
PATTERN
10
36.5700
20
153.9164
30
0.0
0
VERTEX
8
PATTERN
10
37.7655
20
153.8165
30
0.0
0
VERTEX
8
PATTERN
10
38.9458
20
153.6049
30
0.0
0
VERTEX
8
PATTERN
10
40.0746
20
153.2044
30
0.0
0
VERTEX
8
PATTERN
10
41.0674
20
152.5387
30
0.0
0
VERTEX
8
PATTERN
10
41.7761
20
151.5809
30
0.0
0
VERTEX
8
PATTERN
10
41.9644
20
150.4134
30
0.0
0
VERTEX
8
PATTERN
10
41.3666
20
149.4110
30
0.0
0
VERTEX
8
PATTERN
10
40.2453
20
149.0270
30
0.0
0
VERTEX
8
PATTERN
10
39.0477
20
149.0431
30
0.0
0
VERTEX
8
PATTERN
10
37.8565
20
149.1869
30
0.0
0
VERTEX
8
PATTERN
10
36.6644
20
149.3223
30
0.0
0
VERTEX
8
PATTERN
10
35.4661
20
149.3750
30
0.0
0
VERTEX
8
PATTERN
10
34.2701
20
149.2920
30
0.0
0
VERTEX
8
PATTERN
10
33.1070
20
149.0072
30
0.0
0
VERTEX
8
PATTERN
10
32.0681
20
148.4190
30
0.0
0
VERTEX
8
PATTERN
10
31.3382
20
147.4788
30
0.0
0
VERTEX
8
PATTERN
10
31.0459
20
146.3218
30
0.0
0
VERTEX
8
PATTERN
10
31.0967
20
145.1255
30
0.0
0
VERTEX
8
PATTERN
10
31.3400
20
143.9512
30
0.0
0
VERTEX
8
PATTERN
10
31.6807
20
142.8008
30
0.0
0
VERTEX
8
PATTERN
10
32.0745
20
141.6675
30
0.0
0
VERTEX
8
PATTERN
10
32.5092
20
140.5492
30
0.0
0
VERTEX
8
PATTERN
10
32.9871
20
139.4486
30
0.0
0
VERTEX
8
PATTERN
10
33.5131
20
138.3703
30
0.0
0
VERTEX
8
PATTERN
10
34.0952
20
137.3213
30
0.0
0
VERTEX
8
PATTERN
10
34.7481
20
136.3150
30
0.0
0
VERTEX
8
PATTERN
10
35.4875
20
135.3706
30
0.0
0
VERTEX
8
PATTERN
10
36.3147
20
134.5021
30
0.0
0
VERTEX
8
PATTERN
10
37.2107
20
133.7045
30
0.0
0
VERTEX
8
PATTERN
10
38.1464
20
132.9534
30
0.0
0
VERTEX
8
PATTERN
10
39.0938
20
132.2170
30
0.0
0
VERTEX
8
PATTERN
10
40.0295
20
131.4660
30
0.0
0
VERTEX
8
PATTERN
10
40.9371
20
130.6812
30
0.0
0
VERTEX
8
PATTERN
10
41.8138
20
129.8621
30
0.0
0
VERTEX
8
PATTERN
10
42.6834
20
129.0354
30
0.0
0
VERTEX
8
PATTERN
10
43.6047
20
128.2676
30
0.0
0
VERTEX
8
PATTERN
10
44.6443
20
127.6743
30
0.0
0
VERTEX
8
PATTERN
10
45.8029
20
127.3766
30
0.0
0
VERTEX
8
PATTERN
10
47.0009
20
127.3539
30
0.0
0
VERTEX
8
PATTERN
10
48.1928
20
127.4886
30
0.0
0
VERTEX
8
PATTERN
10
49.3715
20
127.7120
30
0.0
0
VERTEX
8
PATTERN
10
50.5222
20
128.0483
30
0.0
0
VERTEX
8
PATTERN
10
51.5724
20
128.6183
30
0.0
0
VERTEX
8
PATTERN
10
52.3151
20
129.5458
30
0.0
0
VERTEX
8
PATTERN
10
52.5417
20
130.7128
30
0.0
0
VERTEX
8
PATTERN
10
52.2444
20
131.8651
30
0.0
0
VERTEX
8
PATTERN
10
51.4626
20
132.7577
30
0.0
0
VERTEX
8
PATTERN
10
50.3348
20
133.1267
30
0.0
0
VERTEX
8
PATTERN
10
49.1406
20
133.0493
30
0.0
0
VERTEX
8
PATTERN
10
47.9542
20
132.8728
30
0.0
0
VERTEX
8
PATTERN
10
46.7599
20
132.9222
30
0.0
0
VERTEX
8
PATTERN
10
45.6317
20
133.3194
30
0.0
0
VERTEX
8
PATTERN
10
44.5965
20
133.9244
30
0.0
0
VERTEX
8
PATTERN
10
43.6073
20
134.6034
30
0.0
0
VERTEX
8
PATTERN
10
42.6303
20
135.3000
30
0.0
0
VERTEX
8
PATTERN
10
41.6588
20
136.0041
30
0.0
0
VERTEX
8
PATTERN
10
40.7040
20
136.7308
30
0.0
0
VERTEX
8
PATTERN
10
39.7872
20
137.5046
30
0.0
0
VERTEX
8
PATTERN
10
38.9346
20
138.3482
30
0.0
0
VERTEX
8
PATTERN
10
38.1740
20
139.2753
30
0.0
0
VERTEX
8
PATTERN
10
37.5368
20
140.2907
30
0.0
0
VERTEX
8
PATTERN
10
37.0738
20
141.3955
30
0.0
0
VERTEX
8
PATTERN
10
36.9008
20
142.5771
30
0.0
0
VERTEX
8
PATTERN
10
37.2914
20
143.6858
30
0.0
0
VERTEX
8
PATTERN
10
38.3701
20
144.0999
30
0.0
0
VERTEX
8
PATTERN
10
39.4871
20
143.6961
30
0.0
0
VERTEX
8
PATTERN
10
40.4130
20
142.9367
30
0.0
0
VERTEX
8
PATTERN
10
41.2237
20
142.0525
30
0.0
0
VERTEX
8
PATTERN
10
42.0072
20
141.1437
30
0.0
0
VERTEX
8
PATTERN
10
42.8299
20
140.2707
30
0.0
0
VERTEX
8
PATTERN
10
43.7282
20
139.4762
30
0.0
0
VERTEX
8
PATTERN
10
44.7163
20
138.7973
30
0.0
0
VERTEX
8
PATTERN
10
45.7953
20
138.2756
30
0.0
0
VERTEX
8
PATTERN
10
46.9511
20
137.9610
30
0.0
0
VERTEX
8
PATTERN
10
48.1456
20
137.8659
30
0.0
0
VERTEX
8
PATTERN
10
49.3434
20
137.9293
30
0.0
0
VERTEX
8
PATTERN
10
50.5398
20
138.0176
30
0.0
0
VERTEX
8
PATTERN
10
51.7346
20
137.9438
30
0.0
0
VERTEX
8
PATTERN
10
52.8514
20
137.5239
30
0.0
0
VERTEX
8
PATTERN
10
53.7770
20
136.7670
30
0.0
0
VERTEX
8
PATTERN
10
54.5140
20
135.8222
30
0.0
0
VERTEX
8
PATTERN
10
55.1164
20
134.7853
30
0.0
0
VERTEX
8
PATTERN
10
55.6151
20
133.6943
30
0.0
0
VERTEX
8
PATTERN
10
56.0221
20
132.5659
30
0.0
0
VERTEX
8
PATTERN
10
56.3469
20
131.4110
30
0.0
0
VERTEX
8
PATTERN
10
56.6118
20
130.2408
30
0.0
0
VERTEX
8
PATTERN
10
56.8609
20
129.0671
30
0.0
0
VERTEX
8
PATTERN
10
57.1562
20
127.9043
30
0.0
0
VERTEX
8
PATTERN
10
57.5591
20
126.7749
30
0.0
0
VERTEX
8
PATTERN
10
58.0983
20
125.7039
30
0.0
0
VERTEX
8
PATTERN
10
58.7572
20
124.7016
30
0.0
0
VERTEX
8
PATTERN
10
59.4952
20
123.7558
30
0.0
0
VERTEX
8
PATTERN
10
60.2762
20
122.8449
30
0.0
0
VERTEX
8
PATTERN
10
61.0810
20
121.9549
30
0.0
0
VERTEX
8
PATTERN
10
61.9074
20
121.0851
30
0.0
0
VERTEX
8
PATTERN
10
62.7680
20
120.2492
30
0.0
0
VERTEX
8
PATTERN
10
63.6833
20
119.4740
30
0.0
0
VERTEX
8
PATTERN
10
64.6712
20
118.7943
30
0.0
0
VERTEX
8
PATTERN
10
65.7348
20
118.2407
30
0.0
0
VERTEX
8
PATTERN
10
66.8582
20
117.8211
30
0.0
0
VERTEX
8
PATTERN
10
68.0159
20
117.5065
30
0.0
0
VERTEX
8
PATTERN
10
69.1833
20
117.2290
30
0.0
0
VERTEX
8
PATTERN
10
70.3294
20
116.8768
30
0.0
0
VERTEX
8
PATTERN
10
71.3476
20
116.2578
30
0.0
0
VERTEX
8
PATTERN
10
71.7320
20
115.1750
30
0.0
0
VERTEX
8
PATTERN
10
71.0620
20
114.2135
30
0.0
0
VERTEX
8
PATTERN
10
69.9879
20
113.6931
30
0.0
0
VERTEX
8
PATTERN
10
68.8087
20
113.4860
30
0.0
0
VERTEX
8
PATTERN
10
67.6102
20
113.4987
30
0.0
0
VERTEX
8
PATTERN
10
66.4225
20
113.6650
30
0.0
0
VERTEX
8
PATTERN
10
65.2547
20
113.9394
30
0.0
0
VERTEX
8
PATTERN
10
64.1133
20
114.3080
30
0.0
0
VERTEX
8
PATTERN
10
63.0150
20
114.7894
30
0.0
0
VERTEX
8
PATTERN
10
61.9904
20
115.4117
30
0.0
0
VERTEX
8
PATTERN
10
61.0632
20
116.1721
30
0.0
0
VERTEX
8
PATTERN
10
60.2235
20
117.0287
30
0.0
0
VERTEX
8
PATTERN
10
59.4319
20
117.9304
30
0.0
0
VERTEX
8
PATTERN
10
58.6534
20
118.8435
30
0.0
0
VERTEX
8
PATTERN
10
57.8678
20
119.7504
30
0.0
0
VERTEX
8
PATTERN
10
57.0622
20
120.6396
30
0.0
0
VERTEX
8
PATTERN
10
56.2197
20
121.4936
30
0.0
0
VERTEX
8
PATTERN
10
55.3139
20
122.2797
30
0.0
0
VERTEX
8
PATTERN
10
54.3176
20
122.9462
30
0.0
0
VERTEX
8
PATTERN
10
53.2220
20
123.4306
30
0.0
0
VERTEX
8
PATTERN
10
52.0534
20
123.6939
30
0.0
0
VERTEX
8
PATTERN
10
50.8561
20
123.7472
30
0.0
0
VERTEX
8
PATTERN
10
49.6615
20
123.6413
30
0.0
0
VERTEX
8
PATTERN
10
48.4777
20
123.4462
30
0.0
0
VERTEX
8
PATTERN
10
47.2963
20
123.2364
30
0.0
0
VERTEX
8
PATTERN
10
46.1066
20
123.0825
30
0.0
0
VERTEX
8
PATTERN
10
44.9080
20
123.0445
30
0.0
0
VERTEX
8
PATTERN
10
43.7163
20
123.1721
30
0.0
0
VERTEX
8
PATTERN
10
42.5696
20
123.5174
30
0.0
0
VERTEX
8
PATTERN
10
41.5347
20
124.1184
30
0.0
0
VERTEX
8
PATTERN
10
40.6666
20
124.9438
30
0.0
0
VERTEX
8
PATTERN
10
39.9202
20
125.8829
30
0.0
0
VERTEX
8
PATTERN
10
39.1942
20
126.8382
30
0.0
0
VERTEX
8
PATTERN
10
38.4067
20
127.7428
30
0.0
0
VERTEX
8
PATTERN
10
37.5298
20
128.5608
30
0.0
0
VERTEX
8
PATTERN
10
36.5760
20
129.2882
30
0.0
0
VERTEX
8
PATTERN
10
35.5734
20
129.9471
30
0.0
0
VERTEX
8
PATTERN
10
34.5517
20
130.5762
30
0.0
0
VERTEX
8
PATTERN
10
33.5433
20
131.2264
30
0.0
0
VERTEX
8
PATTERN
10
32.5921
20
131.9567
30
0.0
0
VERTEX
8
PATTERN
10
31.7499
20
132.8096
30
0.0
0
VERTEX
8
PATTERN
10
31.0486
20
133.7818
30
0.0
0
VERTEX
8
PATTERN
10
30.4664
20
134.8305
30
0.0
0
VERTEX
8
PATTERN
10
29.9444
20
135.9109
30
0.0
0
VERTEX
8
PATTERN
10
29.4378
20
136.9986
30
0.0
0
VERTEX
8
PATTERN
10
28.9331
20
138.0872
30
0.0
0
VERTEX
8
PATTERN
10
28.4387
20
139.1805
30
0.0
0
VERTEX
8
PATTERN
10
27.9633
20
140.2821
30
0.0
0
VERTEX
8
PATTERN
10
27.5041
20
141.3907
30
0.0
0
VERTEX
8
PATTERN
10
27.0550
20
142.5034
30
0.0
0
VERTEX
8
PATTERN
10
26.6278
20
143.6245
30
0.0
0
VERTEX
8
PATTERN
10
26.2671
20
144.7685
30
0.0
0
VERTEX
8
PATTERN
10
26.0399
20
145.9457
30
0.0
0
VERTEX
8
PATTERN
10
25.9770
20
147.1431
30
0.0
0
VERTEX
8
PATTERN
10
26.0205
20
148.3421
30
0.0
0
VERTEX
8
PATTERN
10
26.0288
20
149.5414
30
0.0
0
VERTEX
8
PATTERN
10
25.8233
20
150.7201
30
0.0
0
VERTEX
8
PATTERN
10
25.2721
20
151.7786
30
0.0
0
VERTEX
8
PATTERN
10
24.3843
20
152.5757
30
0.0
0
VERTEX
8
PATTERN
10
23.2748
20
153.0169
30
0.0
0
VERTEX
8
PATTERN
10
22.0814
20
153.0608
30
0.0
0
VERTEX
8
PATTERN
10
20.9365
20
152.7205
30
0.0
0
VERTEX
8
PATTERN
10
19.9512
20
152.0446
30
0.0
0
VERTEX
8
PATTERN
10
19.2164
20
151.1020
30
0.0
0
VERTEX
8
PATTERN
10
18.8023
20
149.9813
30
0.0
0
VERTEX
8
PATTERN
10
18.7425
20
148.7875
30
0.0
0
VERTEX
8
PATTERN
10
19.0078
20
147.6205
30
0.0
0
VERTEX
8
PATTERN
10
19.4974
20
146.5265
30
0.0
0
VERTEX
8
PATTERN
10
20.1089
20
145.4944
30
0.0
0
VERTEX
8
PATTERN
10
20.7630
20
144.4885
30
0.0
0
VERTEX
8
PATTERN
10
21.4091
20
143.4775
30
0.0
0
VERTEX
8
PATTERN
10
22.0164
20
142.4428
30
0.0
0
VERTEX
8
PATTERN
10
22.5698
20
141.3783
30
0.0
0
VERTEX
8
PATTERN
10
23.0688
20
140.2872
30
0.0
0
VERTEX
8
PATTERN
10
23.5307
20
139.1798
30
0.0
0
VERTEX
8
PATTERN
10
23.9891
20
138.0709
30
0.0
0
VERTEX
8
PATTERN
10
24.4750
20
136.9739
30
0.0
0
VERTEX
8
PATTERN
10
24.9834
20
135.8870
30
0.0
0
VERTEX
8
PATTERN
10
25.4323
20
134.7752
30
0.0
0
VERTEX
8
PATTERN
10
25.5544
20
133.5938
30
0.0
0
VERTEX
8
PATTERN
10
24.9193
20
132.6095
30
0.0
0
VERTEX
8
PATTERN
10
23.8431
20
132.0933
30
0.0
0
VERTEX
8
PATTERN
10
22.6657
20
131.8737
30
0.0
0
VERTEX
8
PATTERN
10
21.4685
20
131.8996
30
0.0
0
VERTEX
8
PATTERN
10
20.3281
20
132.2507
30
0.0
0
VERTEX
8
PATTERN
10
19.4822
20
133.0768
30
0.0
0
VERTEX
8
PATTERN
10
19.1632
20
134.2240
30
0.0
0
VERTEX
8
PATTERN
10
19.1504
20
135.4230
30
0.0
0
VERTEX
8
PATTERN
10
19.1673
20
136.6225
30
0.0
0
VERTEX
8
PATTERN
10
19.0527
20
137.8156
30
0.0
0
VERTEX
8
PATTERN
10
18.7409
20
138.9726
30
0.0
0
VERTEX
8
PATTERN
10
18.2359
20
140.0595
30
0.0
0
VERTEX
8
PATTERN
10
17.5637
20
141.0517
30
0.0
0
VERTEX
8
PATTERN
10
16.7292
20
141.9113
30
0.0
0
VERTEX
8
PATTERN
10
15.7200
20
142.5534
30
0.0
0
VERTEX
8
PATTERN
10
14.5638
20
142.8461
30
0.0
0
VERTEX
8
PATTERN
10
13.3834
20
142.6816
30
0.0
0
VERTEX
8
PATTERN
10
12.3263
20
142.1238
30
0.0
0
VERTEX
8
PATTERN
10
11.4347
20
141.3237
30
0.0
0
VERTEX
8
PATTERN
10
10.6871
20
140.3866
30
0.0
0
VERTEX
8
PATTERN
10
10.0896
20
139.3477
30
0.0
0
VERTEX
8
PATTERN
10
9.7275
20
138.2081
30
0.0
0
VERTEX
8
PATTERN
10
9.8558
20
137.0313
30
0.0
0
VERTEX
8
PATTERN
10
10.6326
20
136.1360
30
0.0
0
VERTEX
8
PATTERN
10
11.6713
20
135.5378
30
0.0
0
VERTEX
8
PATTERN
10
12.7065
20
134.9337
30
0.0
0
VERTEX
8
PATTERN
10
13.5581
20
134.0964
30
0.0
0
VERTEX
8
PATTERN
10
14.1383
20
133.0493
30
0.0
0
VERTEX
8
PATTERN
10
14.5754
20
131.9320
30
0.0
0
VERTEX
8
PATTERN
10
15.0375
20
130.8252
30
0.0
0
VERTEX
8
PATTERN
10
15.6427
20
129.7910
30
0.0
0
VERTEX
8
PATTERN
10
16.4407
20
128.8984
30
0.0
0
VERTEX
8
PATTERN
10
17.4188
20
128.2079
30
0.0
0
VERTEX
8
PATTERN
10
18.5178
20
127.7311
30
0.0
0
VERTEX
8
PATTERN
10
19.6811
20
127.4418
30
0.0
0
VERTEX
8
PATTERN
10
20.8724
20
127.3034
30
0.0
0
VERTEX
8
PATTERN
10
22.0717
20
127.2850
30
0.0
0
VERTEX
8
PATTERN
10
23.2690
20
127.3610
30
0.0
0
VERTEX
8
PATTERN
10
24.4601
20
127.5052
30
0.0
0
VERTEX
8
PATTERN
10
25.6472
20
127.6798
30
0.0
0
VERTEX
8
PATTERN
10
26.8375
20
127.8298
30
0.0
0
VERTEX
8
PATTERN
10
28.0355
20
127.8851
30
0.0
0
VERTEX
8
PATTERN
10
29.2296
20
127.7798
30
0.0
0
VERTEX
8
PATTERN
10
30.3913
20
127.4849
30
0.0
0
VERTEX
8
PATTERN
10
31.4976
20
127.0226
30
0.0
0
VERTEX
8
PATTERN
10
32.5432
20
126.4352
30
0.0
0
VERTEX
8
PATTERN
10
33.5203
20
125.7401
30
0.0
0
VERTEX
8
PATTERN
10
34.3813
20
124.9076
30
0.0
0
VERTEX
8
PATTERN
10
34.9211
20
123.8523
30
0.0
0
VERTEX
8
PATTERN
10
34.4816
20
122.8070
30
0.0
0
VERTEX
8
PATTERN
10
33.3566
20
122.4353
30
0.0
0
VERTEX
8
PATTERN
10
32.1608
20
122.4865
30
0.0
0
VERTEX
8
PATTERN
10
30.9874
20
122.7351
30
0.0
0
VERTEX
8
PATTERN
10
29.8281
20
123.0443
30
0.0
0
VERTEX
8
PATTERN
10
28.6583
20
123.3099
30
0.0
0
VERTEX
8
PATTERN
10
27.4688
20
123.4625
30
0.0
0
VERTEX
8
PATTERN
10
26.2697
20
123.4892
30
0.0
0
VERTEX
8
PATTERN
10
25.0719
20
123.4227
30
0.0
0
VERTEX
8
PATTERN
10
23.8772
20
123.3105
30
0.0
0
VERTEX
8
PATTERN
10
22.6831
20
123.1932
30
0.0
0
VERTEX
8
PATTERN
10
21.4871
20
123.0972
30
0.0
0
VERTEX
8
PATTERN
10
20.2892
20
123.0278
30
0.0
0
VERTEX
8
PATTERN
10
19.0913
20
122.9597
30
0.0
0
VERTEX
8
PATTERN
10
17.8990
20
122.8276
30
0.0
0
VERTEX
8
PATTERN
10
16.7379
20
122.5319
30
0.0
0
VERTEX
8
PATTERN
10
15.6626
20
122.0051
30
0.0
0
VERTEX
8
PATTERN
10
14.7051
20
121.2838
30
0.0
0
VERTEX
8
PATTERN
10
13.8111
20
120.4836
30
0.0
0
VERTEX
8
PATTERN
10
12.8883
20
119.7176
30
0.0
0
VERTEX
8
PATTERN
10
11.8568
20
119.1101
30
0.0
0
VERTEX
8
PATTERN
10
10.6952
20
118.8433
30
0.0
0
VERTEX
8
PATTERN
10
9.5823
20
119.2161
30
0.0
0
VERTEX
8
PATTERN
10
9.0935
20
120.2749
30
0.0
0
VERTEX
8
PATTERN
10
9.2974
20
121.4488
30
0.0
0
VERTEX
8
PATTERN
10
9.8081
20
122.5334
30
0.0
0
VERTEX
8
PATTERN
10
10.3903
20
123.5826
30
0.0
0
VERTEX
8
PATTERN
10
10.8858
20
124.6740
30
0.0
0
VERTEX
8
PATTERN
10
11.1492
20
125.8411
30
0.0
0
VERTEX
8
PATTERN
10
11.1025
20
127.0366
30
0.0
0
VERTEX
8
PATTERN
10
10.7763
20
128.1888
30
0.0
0
VERTEX
8
PATTERN
10
10.2254
20
129.2524
30
0.0
0
VERTEX
8
PATTERN
10
9.4638
20
130.1756
30
0.0
0
VERTEX
8
PATTERN
10
8.4704
20
130.8359
30
0.0
0
VERTEX
8
PATTERN
10
7.2959
20
130.9734
30
0.0
0
VERTEX
8
PATTERN
10
6.2807
20
130.3739
30
0.0
0
VERTEX
8
PATTERN
10
5.7225
20
129.3223
30
0.0
0
VERTEX
8
PATTERN
10
5.5024
20
128.1449
30
0.0
0
VERTEX
8
PATTERN
10
5.4105
20
126.9486
30
0.0
0
VERTEX
8
PATTERN
10
5.2803
20
125.7562
30
0.0
0
VERTEX
8
PATTERN
10
5.0301
20
124.5832
30
0.0
0
VERTEX
8
PATTERN
10
4.6896
20
123.4328
30
0.0
0
VERTEX
8
PATTERN
10
4.3475
20
122.2828
30
0.0
0
VERTEX
8
PATTERN
10
4.0976
20
121.1099
30
0.0
0
VERTEX
8
PATTERN
10
4.0055
20
119.9149
30
0.0
0
VERTEX
8
PATTERN
10
4.1016
20
118.7203
30
0.0
0
VERTEX
8
PATTERN
10
4.3920
20
117.5575
30
0.0
0
VERTEX
8
PATTERN
10
4.8784
20
116.4624
30
0.0
0
VERTEX
8
PATTERN
10
5.5611
20
115.4783
30
0.0
0
VERTEX
8
PATTERN
10
6.4332
20
114.6579
30
0.0
0
VERTEX
8
PATTERN
10
7.4701
20
114.0599
30
0.0
0
VERTEX
8
PATTERN
10
8.6176
20
113.7190
30
0.0
0
VERTEX
8
PATTERN
10
9.8124
20
113.6345
30
0.0
0
VERTEX
8
PATTERN
10
11.0029
20
113.7730
30
0.0
0
VERTEX
8
PATTERN
10
12.1609
20
114.0838
30
0.0
0
VERTEX
8
PATTERN
10
13.2747
20
114.5286
30
0.0
0
VERTEX
8
PATTERN
10
14.3392
20
115.0813
30
0.0
0
VERTEX
8
PATTERN
10
15.3562
20
115.7175
30
0.0
0
VERTEX
8
PATTERN
10
16.3430
20
116.4002
30
0.0
0
VERTEX
8
PATTERN
10
17.3363
20
117.0730
30
0.0
0
VERTEX
8
PATTERN
10
18.3795
20
117.6645
30
0.0
0
VERTEX
8
PATTERN
10
19.4903
20
118.1153
30
0.0
0
VERTEX
8
PATTERN
10
20.6509
20
118.4168
30
0.0
0
VERTEX
8
PATTERN
10
21.8346
20
118.6117
30
0.0
0
VERTEX
8
PATTERN
10
23.0264
20
118.7503
30
0.0
0
VERTEX
8
PATTERN
10
24.2217
20
118.8551
30
0.0
0
VERTEX
8
PATTERN
10
25.4201
20
118.9115
30
0.0
0
VERTEX
8
PATTERN
10
26.6191
20
118.8786
30
0.0
0
VERTEX
8
PATTERN
10
27.8084
20
118.7240
30
0.0
0
VERTEX
8
PATTERN
10
28.9793
20
118.4631
30
0.0
0
VERTEX
8
PATTERN
10
30.1415
20
118.1650
30
0.0
0
VERTEX
8
PATTERN
10
31.3154
20
117.9181
30
0.0
0
VERTEX
8
PATTERN
10
32.5075
20
117.7876
30
0.0
0
VERTEX
8
PATTERN
10
33.7068
20
117.7936
30
0.0
0
VERTEX
8
PATTERN
10
34.9000
20
117.9160
30
0.0
0
VERTEX
8
PATTERN
10
36.0831
20
118.1157
30
0.0
0
VERTEX
8
PATTERN
10
37.2609
20
118.3449
30
0.0
0
VERTEX
8
PATTERN
10
38.4433
20
118.5481
30
0.0
0
VERTEX
8
PATTERN
10
39.6371
20
118.6643
30
0.0
0
VERTEX
8
PATTERN
10
40.8357
20
118.6411
30
0.0
0
VERTEX
8
PATTERN
10
42.0155
20
118.4319
30
0.0
0
VERTEX
8
PATTERN
10
43.1175
20
117.9673
30
0.0
0
VERTEX
8
PATTERN
10
43.9746
20
117.1451
30
0.0
0
VERTEX
8
PATTERN
10
44.1387
20
115.9942
30
0.0
0
VERTEX
8
PATTERN
10
43.3473
20
115.1315
30
0.0
0
VERTEX
8
PATTERN
10
42.2110
20
114.7625
30
0.0
0
VERTEX
8
PATTERN
10
41.0202
20
114.6207
30
0.0
0
VERTEX
8
PATTERN
10
39.8223
20
114.5523
30
0.0
0
VERTEX
8
PATTERN
10
38.6242
20
114.4866
30
0.0
0
VERTEX
8
PATTERN
10
37.4277
20
114.3958
30
0.0
0
VERTEX
8
PATTERN
10
36.2351
20
114.2647
30
0.0
0
VERTEX
8
PATTERN
10
35.0529
20
114.0618
30
0.0
0
VERTEX
8
PATTERN
10
33.9057
20
113.7153
30
0.0
0
VERTEX
8
PATTERN
10
32.8856
20
113.0950
30
0.0
0
VERTEX
8
PATTERN
10
32.2596
20
112.0920
30
0.0
0
VERTEX
8
PATTERN
10
32.4189
20
110.9318
30
0.0
0
VERTEX
8
PATTERN
10
33.2911
20
110.1341
30
0.0
0
VERTEX
8
PATTERN
10
34.4341
20
109.7857
30
0.0
0
VERTEX
8
PATTERN
10
35.6299
20
109.7049
30
0.0
0
VERTEX
8
PATTERN
10
36.8285
20
109.7557
30
0.0
0
VERTEX
8
PATTERN
10
38.0241
20
109.8571
30
0.0
0
VERTEX
8
PATTERN
10
39.2199
20
109.9557
30
0.0
0
VERTEX
8
PATTERN
10
40.4178
20
110.0241
30
0.0
0
VERTEX
8
PATTERN
10
41.6170
20
110.0651
30
0.0
0
VERTEX
8
PATTERN
10
42.8162
20
110.1059
30
0.0
0
VERTEX
8
PATTERN
10
44.0140
20
110.1748
30
0.0
0
VERTEX
8
PATTERN
10
45.2103
20
110.2675
30
0.0
0
VERTEX
8
PATTERN
10
46.4087
20
110.3196
30
0.0
0
VERTEX
8
PATTERN
10
47.5979
20
110.1873
30
0.0
0
VERTEX
8
PATTERN
10
48.6530
20
109.6438
30
0.0
0
VERTEX
8
PATTERN
10
49.1858
20
108.5984
30
0.0
0
VERTEX
8
PATTERN
10
48.8855
20
107.4636
30
0.0
0
VERTEX
8
PATTERN
10
47.9848
20
106.6889
30
0.0
0
VERTEX
8
PATTERN
10
46.8597
20
106.2820
30
0.0
0
VERTEX
8
PATTERN
10
45.6753
20
106.0959
30
0.0
0
VERTEX
8
PATTERN
10
44.4777
20
106.0263
30
0.0
0
VERTEX
8
PATTERN
10
43.2780
20
106.0138
30
0.0
0
VERTEX
8
PATTERN
10
42.0781
20
106.0219
30
0.0
0
VERTEX
8
PATTERN
10
40.8782
20
106.0258
30
0.0
0
VERTEX
8
PATTERN
10
39.6784
20
106.0111
30
0.0
0
VERTEX
8
PATTERN
10
38.4790
20
105.9767
30
0.0
0
VERTEX
8
PATTERN
10
37.2799
20
105.9346
30
0.0
0
VERTEX
8
PATTERN
10
36.0804
20
105.9032
30
0.0
0
VERTEX
8
PATTERN
10
34.8806
20
105.8979
30
0.0
0
VERTEX
8
PATTERN
10
33.6810
20
105.9248
30
0.0
0
VERTEX
8
PATTERN
10
32.4824
20
105.9795
30
0.0
0
VERTEX
8
PATTERN
10
31.2845
20
106.0495
30
0.0
0
VERTEX
8
PATTERN
10
30.0866
20
106.1181
30
0.0
0
VERTEX
8
PATTERN
10
28.8880
20
106.1729
30
0.0
0
VERTEX
8
PATTERN
10
27.6889
20
106.2187
30
0.0
0
VERTEX
8
PATTERN
10
26.4912
20
106.2891
30
0.0
0
VERTEX
8
PATTERN
10
25.3036
20
106.4550
30
0.0
0
VERTEX
8
PATTERN
10
24.1672
20
106.8303
30
0.0
0
VERTEX
8
PATTERN
10
23.2439
20
107.5768
30
0.0
0
VERTEX
8
PATTERN
10
23.0095
20
108.7122
30
0.0
0
VERTEX
8
PATTERN
10
23.7001
20
109.6674
30
0.0
0
VERTEX
8
PATTERN
10
24.7153
20
110.3032
30
0.0
0
VERTEX
8
PATTERN
10
25.7631
20
110.8872
30
0.0
0
VERTEX
8
PATTERN
10
26.6792
20
111.6534
30
0.0
0
VERTEX
8
PATTERN
10
27.1325
20
112.7409
30
0.0
0
VERTEX
8
PATTERN
10
26.7280
20
113.8365
30
0.0
0
VERTEX
8
PATTERN
10
25.7089
20
114.4418
30
0.0
0
VERTEX
8
PATTERN
10
24.5239
20
114.6006
30
0.0
0
VERTEX
8
PATTERN
10
23.3304
20
114.4928
30
0.0
0
VERTEX
8
PATTERN
10
22.1658
20
114.2080
30
0.0
0
VERTEX
8
PATTERN
10
21.0446
20
113.7827
30
0.0
0
VERTEX
8
PATTERN
10
19.9732
20
113.2434
30
0.0
0
VERTEX
8
PATTERN
10
18.9396
20
112.6342
30
0.0
0
VERTEX
8
PATTERN
10
17.9143
20
112.0108
30
0.0
0
VERTEX
8
PATTERN
10
16.8708
20
111.4187
30
0.0
0
VERTEX
8
PATTERN
10
15.8013
20
110.8749
30
0.0
0
VERTEX
8
PATTERN
10
14.7135
20
110.3687
30
0.0
0
VERTEX
8
PATTERN
10
13.6167
20
109.8822
30
0.0
0
VERTEX
8
PATTERN
10
12.5110
20
109.4162
30
0.0
0
VERTEX
8
PATTERN
10
11.3846
20
109.0034
30
0.0
0
VERTEX
8
PATTERN
10
10.2238
20
108.7030
30
0.0
0
VERTEX
8
PATTERN
10
9.0326
20
108.5677
30
0.0
0
VERTEX
8
PATTERN
10
7.8333
20
108.5846
30
0.0
0
VERTEX
8
PATTERN
10
6.6355
20
108.6542
30
0.0
0
VERTEX
8
PATTERN
10
5.4377
20
108.6204
30
0.0
0
VERTEX
8
PATTERN
10
4.2930
20
108.2846
30
0.0
0
VERTEX
8
PATTERN
10
3.4073
20
107.4957
30
0.0
0
VERTEX
8
PATTERN
10
3.0379
20
106.3681
30
0.0
0
VERTEX
8
PATTERN
10
3.2162
20
105.1912
30
0.0
0
VERTEX
8
PATTERN
10
3.8217
20
104.1626
30
0.0
0
VERTEX
8
PATTERN
10
4.7128
20
103.3649
30
0.0
0
VERTEX
8
PATTERN
10
5.7692
20
102.8006
30
0.0
0
VERTEX
8
PATTERN
10
6.9076
20
102.4251
30
0.0
0
VERTEX
8
PATTERN
10
8.0823
20
102.1826
30
0.0
0
VERTEX
8
PATTERN
10
9.2723
20
102.0307
30
0.0
0
VERTEX
8
PATTERN
10
10.4697
20
101.9583
30
0.0
0
VERTEX
8
PATTERN
10
11.6675
20
102.0071
30
0.0
0
VERTEX
8
PATTERN
10
12.8271
20
102.2974
30
0.0
0
VERTEX
8
PATTERN
10
13.7995
20
102.9844
30
0.0
0
VERTEX
8
PATTERN
10
14.5037
20
103.9534
30
0.0
0
VERTEX
8
PATTERN
10
15.1837
20
104.9406
30
0.0
0
VERTEX
8
PATTERN
10
16.1343
20
105.6496
30
0.0
0
VERTEX
8
PATTERN
10
17.3000
20
105.5811
30
0.0
0
VERTEX
8
PATTERN
10
18.2283
20
104.8348
30
0.0
0
VERTEX
8
PATTERN
10
18.9643
20
103.8876
30
0.0
0
VERTEX
8
PATTERN
10
19.7386
20
102.9727
30
0.0
0
VERTEX
8
PATTERN
10
20.7195
20
102.2911
30
0.0
0
VERTEX
8
PATTERN
10
21.8638
20
101.9416
30
0.0
0
VERTEX
8
PATTERN
10
23.0569
20
101.8215
30
0.0
0
VERTEX
8
PATTERN
10
24.2565
20
101.8016
30
0.0
0
VERTEX
8
PATTERN
10
25.4563
20
101.8102
30
0.0
0
VERTEX
8
PATTERN
10
26.6562
20
101.8105
30
0.0
0
VERTEX
8
PATTERN
10
27.8558
20
101.7838
30
0.0
0
VERTEX
8
PATTERN
10
29.0541
20
101.7230
30
0.0
0
VERTEX
8
PATTERN
10
30.2505
20
101.6321
30
0.0
0
VERTEX
8
PATTERN
10
31.4458
20
101.5269
30
0.0
0
VERTEX
8
PATTERN
10
32.6418
20
101.4303
30
0.0
0
VERTEX
8
PATTERN
10
33.8397
20
101.3634
30
0.0
0
VERTEX
8
PATTERN
10
35.0393
20
101.3393
30
0.0
0
VERTEX
8
PATTERN
10
36.2390
20
101.3598
30
0.0
0
VERTEX
8
PATTERN
10
37.4376
20
101.4155
30
0.0
0
VERTEX
8
PATTERN
10
38.6352
20
101.4892
30
0.0
0
VERTEX
8
PATTERN
10
39.8329
20
101.5607
30
0.0
0
VERTEX
8
PATTERN
10
41.0316
20
101.6149
30
0.0
0
VERTEX
8
PATTERN
10
42.2311
20
101.6468
30
0.0
0
VERTEX
8
PATTERN
10
43.4309
20
101.6606
30
0.0
0
VERTEX
8
PATTERN
10
44.6308
20
101.6657
30
0.0
0
VERTEX
8
PATTERN
10
45.8306
20
101.6721
30
0.0
0
VERTEX
8
PATTERN
10
47.0303
20
101.6920
30
0.0
0
VERTEX
8
PATTERN
10
48.2288
20
101.7488
30
0.0
0
VERTEX
8
PATTERN
10
49.4196
20
101.8915
30
0.0
0
VERTEX
8
PATTERN
10
50.5756
20
102.2053
30
0.0
0
VERTEX
8
PATTERN
10
51.6193
20
102.7884
30
0.0
0
VERTEX
8
PATTERN
10
52.4593
20
103.6399
30
0.0
0
VERTEX
8
PATTERN
10
53.0930
20
104.6570
30
0.0
0
VERTEX
8
PATTERN
10
53.5809
20
105.7524
30
0.0
0
VERTEX
8
PATTERN
10
53.9482
20
106.8940
30
0.0
0
VERTEX
8
PATTERN
10
54.1632
20
108.0732
30
0.0
0
VERTEX
8
PATTERN
10
54.1603
20
109.2707
30
0.0
0
VERTEX
8
PATTERN
10
53.8911
20
110.4371
30
0.0
0
VERTEX
8
PATTERN
10
53.3795
20
111.5203
30
0.0
0
VERTEX
8
PATTERN
10
52.7004
20
112.5083
30
0.0
0
VERTEX
8
PATTERN
10
51.9314
20
113.4291
30
0.0
0
VERTEX
8
PATTERN
10
51.1521
20
114.3414
30
0.0
0
VERTEX
8
PATTERN
10
50.4569
20
115.3182
30
0.0
0
VERTEX
8
PATTERN
10
49.9860
20
116.4174
30
0.0
0
VERTEX
8
PATTERN
10
49.9557
20
117.6041
30
0.0
0
VERTEX
8
PATTERN
10
50.6583
20
118.5273
30
0.0
0
VERTEX
8
PATTERN
10
51.8293
20
118.5833
30
0.0
0
VERTEX
8
PATTERN
10
52.9031
20
118.0600
30
0.0
0
VERTEX
8
PATTERN
10
53.8409
20
117.3132
30
0.0
0
VERTEX
8
PATTERN
10
54.6985
20
116.4744
30
0.0
0
VERTEX
8
PATTERN
10
55.5127
20
115.5931
30
0.0
0
VERTEX
8
PATTERN
10
56.3027
20
114.6900
30
0.0
0
VERTEX
8
PATTERN
10
57.0860
20
113.7810
30
0.0
0
VERTEX
8
PATTERN
10
57.8913
20
112.8917
30
0.0
0
VERTEX
8
PATTERN
10
58.7584
20
112.0632
30
0.0
0
VERTEX
8
PATTERN
10
59.7189
20
111.3457
30
0.0
0
VERTEX
8
PATTERN
10
60.7686
20
110.7660
30
0.0
0
VERTEX
8
PATTERN
10
61.8688
20
110.2876
30
0.0
0
VERTEX
8
PATTERN
10
62.9735
20
109.8195
30
0.0
0
VERTEX
8
PATTERN
10
64.0104
20
109.2201
30
0.0
0
VERTEX
8
PATTERN
10
64.7694
20
108.3089
30
0.0
0
VERTEX
8
PATTERN
10
64.7791
20
107.1432
30
0.0
0
VERTEX
8
PATTERN
10
63.9526
20
106.3077
30
0.0
0
VERTEX
8
PATTERN
10
62.8025
20
105.9897
30
0.0
0
VERTEX
8
PATTERN
10
61.6051
20
105.9224
30
0.0
0
VERTEX
8
PATTERN
10
60.4080
20
105.8505
30
0.0
0
VERTEX
8
PATTERN
10
59.2529
20
105.5447
30
0.0
0
VERTEX
8
PATTERN
10
58.3157
20
104.8156
30
0.0
0
VERTEX
8
PATTERN
10
57.8886
20
103.7135
30
0.0
0
VERTEX
8
PATTERN
10
58.2244
20
102.5902
30
0.0
0
VERTEX
8
PATTERN
10
59.1986
20
101.9136
30
0.0
0
VERTEX
8
PATTERN
10
60.3559
20
101.6040
30
0.0
0
VERTEX
8
PATTERN
10
61.5397
20
101.4082
30
0.0
0
VERTEX
8
PATTERN
10
62.7179
20
101.1825
30
0.0
0
VERTEX
8
PATTERN
10
63.8669
20
100.8397
30
0.0
0
VERTEX
8
PATTERN
10
64.9531
20
100.3331
30
0.0
0
VERTEX
8
PATTERN
10
65.9464
20
99.6619
30
0.0
0
VERTEX
8
PATTERN
10
66.8430
20
98.8655
30
0.0
0
VERTEX
8
PATTERN
10
67.6700
20
97.9964
30
0.0
0
VERTEX
8
PATTERN
10
68.4729
20
97.1047
30
0.0
0
VERTEX
8
PATTERN
10
69.3124
20
96.2480
30
0.0
0
VERTEX
8
PATTERN
10
70.2553
20
95.5086
30
0.0
0
VERTEX
8
PATTERN
10
71.3239
20
94.9677
30
0.0
0
VERTEX
8
PATTERN
10
72.4734
20
94.6268
30
0.0
0
VERTEX
8
PATTERN
10
73.6455
20
94.3702
30
0.0
0
VERTEX
8
PATTERN
10
74.7980
20
94.0398
30
0.0
0
VERTEX
8
PATTERN
10
75.8328
20
93.4459
30
0.0
0
VERTEX
8
PATTERN
10
76.4370
20
92.4353
30
0.0
0
VERTEX
8
PATTERN
10
76.2143
20
91.2854
30
0.0
0
VERTEX
8
PATTERN
10
75.3235
20
90.5032
30
0.0
0
VERTEX
8
PATTERN
10
74.1927
20
90.1130
30
0.0
0
VERTEX
8
PATTERN
10
73.0136
20
89.8920
30
0.0
0
VERTEX
8
PATTERN
10
71.8465
20
89.6180
30
0.0
0
VERTEX
8
PATTERN
10
70.7726
20
89.0928
30
0.0
0
VERTEX
8
PATTERN
10
69.8858
20
88.2888
30
0.0
0
VERTEX
8
PATTERN
10
69.1306
20
87.3568
30
0.0
0
VERTEX
8
PATTERN
10
68.3868
20
86.4153
30
0.0
0
VERTEX
8
PATTERN
10
67.5769
20
85.5306
30
0.0
0
VERTEX
8
PATTERN
10
66.6729
20
84.7428
30
0.0
0
VERTEX
8
PATTERN
10
65.6803
20
84.0699
30
0.0
0
VERTEX
8
PATTERN
10
64.6160
20
83.5174
30
0.0
0
VERTEX
8
PATTERN
10
63.4974
20
83.0848
30
0.0
0
VERTEX
8
PATTERN
10
62.3414
20
82.7649
30
0.0
0
VERTEX
8
PATTERN
10
61.1628
20
82.5416
30
0.0
0
VERTEX
8
PATTERN
10
59.9723
20
82.3929
30
0.0
0
VERTEX
8
PATTERN
10
58.7763
20
82.2968
30
0.0
0
VERTEX
8
PATTERN
10
57.5780
20
82.2357
30
0.0
0
VERTEX
8
PATTERN
10
56.3789
20
82.1931
30
0.0
0
VERTEX
8
PATTERN
10
55.1801
20
82.1416
30
0.0
0
VERTEX
8
PATTERN
10
53.9868
20
82.0218
30
0.0
0
VERTEX
8
PATTERN
10
52.8312
20
81.7112
30
0.0
0
VERTEX
8
PATTERN
10
51.8657
20
81.0179
30
0.0
0
VERTEX
8
PATTERN
10
51.2835
20
79.9764
30
0.0
0
VERTEX
8
PATTERN
10
50.9213
20
78.8327
30
0.0
0
VERTEX
8
PATTERN
10
50.4814
20
77.7186
30
0.0
0
VERTEX
8
PATTERN
10
49.7004
20
76.8241
30
0.0
0
VERTEX
8
PATTERN
10
48.5592
20
76.5554
30
0.0
0
VERTEX
8
PATTERN
10
47.5206
20
77.1089
30
0.0
0
VERTEX
8
PATTERN
10
46.9004
20
78.1272
30
0.0
0
VERTEX
8
PATTERN
10
46.5376
20
79.2703
30
0.0
0
VERTEX
8
PATTERN
10
46.1337
20
80.3985
30
0.0
0
VERTEX
8
PATTERN
10
45.3986
20
81.3333
30
0.0
0
VERTEX
8
PATTERN
10
44.3278
20
81.8575
30
0.0
0
VERTEX
8
PATTERN
10
43.1484
20
82.0687
30
0.0
0
VERTEX
8
PATTERN
10
41.9508
20
82.1353
30
0.0
0
VERTEX
8
PATTERN
10
40.7509
20
82.1398
30
0.0
0
VERTEX
8
PATTERN
10
39.5512
20
82.1179
30
0.0
0
VERTEX
8
PATTERN
10
38.3518
20
82.0850
30
0.0
0
VERTEX
8
PATTERN
10
37.1524
20
82.0517
30
0.0
0
VERTEX
8
PATTERN
10
35.9527
20
82.0282
30
0.0
0
VERTEX
8
PATTERN
10
34.7528
20
82.0205
30
0.0
0
VERTEX
8
PATTERN
10
33.5530
20
82.0270
30
0.0
0
VERTEX
8
PATTERN
10
32.3531
20
82.0405
30
0.0
0
VERTEX
8
PATTERN
10
31.1533
20
82.0538
30
0.0
0
VERTEX
8
PATTERN
10
29.9535
20
82.0627
30
0.0
0
VERTEX
8
PATTERN
10
28.7536
20
82.0658
30
0.0
0
VERTEX
8
PATTERN
10
27.5537
20
82.0631
30
0.0
0
VERTEX
8
PATTERN
10
26.3538
20
82.0546
30
0.0
0
VERTEX
8
PATTERN
10
25.1540
20
82.0404
30
0.0
0
VERTEX
8
PATTERN
10
23.9543
20
82.0198
30
0.0
0
VERTEX
8
PATTERN
10
22.7548
20
81.9885
30
0.0
0
VERTEX
8
PATTERN
10
21.5560
20
81.9367
30
0.0
0
VERTEX
8
PATTERN
10
20.3592
20
81.8521
30
0.0
0
VERTEX
8
PATTERN
10
19.1655
20
81.7303
30
0.0
0
VERTEX
8
PATTERN
10
17.9738
20
81.5902
30
0.0
0
VERTEX
8
PATTERN
10
16.7792
20
81.4790
30
0.0
0
VERTEX
8
PATTERN
10
15.5800
20
81.4527
30
0.0
0
VERTEX
8
PATTERN
10
14.3831
20
81.5329
30
0.0
0
VERTEX
8
PATTERN
10
13.1927
20
81.6829
30
0.0
0
VERTEX
8
PATTERN
10
12.0031
20
81.8397
30
0.0
0
VERTEX
8
PATTERN
10
10.8092
20
81.9587
30
0.0
0
VERTEX
8
PATTERN
10
9.6114
20
82.0276
30
0.0
0
VERTEX
8
PATTERN
10
8.4119
20
82.0552
30
0.0
0
VERTEX
8
PATTERN
10
7.2120
20
82.0496
30
0.0
0
VERTEX
8
PATTERN
10
6.0135
20
81.9970
30
0.0
0
VERTEX
8
PATTERN
10
4.8235
20
81.8483
30
0.0
0
VERTEX
8
PATTERN
10
3.6771
20
81.5037
30
0.0
0
VERTEX
8
PATTERN
10
2.7283
20
80.7907
30
0.0
0
VERTEX
8
PATTERN
10
2.5067
20
79.6591
30
0.0
0
VERTEX
8
PATTERN
10
3.2348
20
78.7339
30
0.0
0
VERTEX
8
PATTERN
10
4.3110
20
78.2142
30
0.0
0
VERTEX
8
PATTERN
10
5.4770
20
77.9366
30
0.0
0
VERTEX
8
PATTERN
10
6.6682
20
77.7962
30
0.0
0
VERTEX
8
PATTERN
10
7.8659
20
77.7246
30
0.0
0
VERTEX
8
PATTERN
10
9.0641
20
77.6615
30
0.0
0
VERTEX
8
PATTERN
10
10.2555
20
77.5241
30
0.0
0
VERTEX
8
PATTERN
10
11.3938
20
77.1592
30
0.0
0
VERTEX
8
PATTERN
10
12.2581
20
76.3517
30
0.0
0
VERTEX
8
PATTERN
10
12.6188
20
75.2158
30
0.0
0
VERTEX
8
PATTERN
10
12.7332
20
74.0216
30
0.0
0
VERTEX
8
PATTERN
10
12.9452
20
72.8435
30
0.0
0
VERTEX
8
PATTERN
10
13.5931
20
71.8552
30
0.0
0
VERTEX
8
PATTERN
10
14.7212
20
71.5499
30
0.0
0
VERTEX
8
PATTERN
10
15.8047
20
72.0268
30
0.0
0
VERTEX
8
PATTERN
10
16.6083
20
72.9118
30
0.0
0
VERTEX
8
PATTERN
10
17.2203
20
73.9432
30
0.0
0
VERTEX
8
PATTERN
10
17.7945
20
74.9966
30
0.0
0
VERTEX
8
PATTERN
10
18.4884
20
75.9729
30
0.0
0
VERTEX
8
PATTERN
10
19.4070
20
76.7375
30
0.0
0
VERTEX
8
PATTERN
10
20.5028
20
77.2181
30
0.0
0
VERTEX
8
PATTERN
10
21.6734
20
77.4763
30
0.0
0
VERTEX
8
PATTERN
10
22.8655
20
77.6099
30
0.0
0
VERTEX
8
PATTERN
10
24.0632
20
77.6823
30
0.0
0
VERTEX
8
PATTERN
10
25.2623
20
77.7264
30
0.0
0
VERTEX
8
PATTERN
10
26.4618
20
77.7566
30
0.0
0
VERTEX
8
PATTERN
10
27.6615
20
77.7779
30
0.0
0
VERTEX
8
PATTERN
10
28.8613
20
77.7907
30
0.0
0
VERTEX
8
PATTERN
10
30.0612
20
77.7939
30
0.0
0
VERTEX
8
PATTERN
10
31.2611
20
77.7875
30
0.0
0
VERTEX
8
PATTERN
10
32.4609
20
77.7749
30
0.0
0
VERTEX
8
PATTERN
10
33.6608
20
77.7656
30
0.0
0
VERTEX
8
PATTERN
10
34.8606
20
77.7741
30
0.0
0
VERTEX
8
PATTERN
10
36.0598
20
77.8144
30
0.0
0
VERTEX
8
PATTERN
10
37.2576
20
77.8853
30
0.0
0
VERTEX
8
PATTERN
10
38.4556
20
77.9515
30
0.0
0
VERTEX
8
PATTERN
10
39.6541
20
77.9236
30
0.0
0
VERTEX
8
PATTERN
10
40.8125
20
77.6344
30
0.0
0
VERTEX
8
PATTERN
10
41.6932
20
76.8519
30
0.0
0
VERTEX
8
PATTERN
10
41.8057
20
75.6891
30
0.0
0
VERTEX
8
PATTERN
10
41.1415
20
74.7086
30
0.0
0
VERTEX
8
PATTERN
10
40.1205
20
74.0886
30
0.0
0
VERTEX
8
PATTERN
10
38.9745
20
73.7396
30
0.0
0
VERTEX
8
PATTERN
10
37.7869
20
73.5736
30
0.0
0
VERTEX
8
PATTERN
10
36.5883
20
73.5241
30
0.0
0
VERTEX
8
PATTERN
10
35.3887
20
73.5424
30
0.0
0
VERTEX
8
PATTERN
10
34.1897
20
73.5896
30
0.0
0
VERTEX
8
PATTERN
10
32.9908
20
73.6391
30
0.0
0
VERTEX
8
PATTERN
10
31.7915
20
73.6766
30
0.0
0
VERTEX
8
PATTERN
10
30.5918
20
73.6969
30
0.0
0
VERTEX
8
PATTERN
10
29.3919
20
73.6983
30
0.0
0
VERTEX
8
PATTERN
10
28.1923
20
73.6767
30
0.0
0
VERTEX
8
PATTERN
10
26.9937
20
73.6213
30
0.0
0
VERTEX
8
PATTERN
10
25.7993
20
73.5085
30
0.0
0
VERTEX
8
PATTERN
10
24.6188
20
73.2969
30
0.0
0
VERTEX
8
PATTERN
10
23.4789
20
72.9268
30
0.0
0
VERTEX
8
PATTERN
10
22.4287
20
72.3509
30
0.0
0
VERTEX
8
PATTERN
10
21.5082
20
71.5839
30
0.0
0
VERTEX
8
PATTERN
10
20.7028
20
70.6951
30
0.0
0
VERTEX
8
PATTERN
10
19.9441
20
69.7656
30
0.0
0
VERTEX
8
PATTERN
10
19.1530
20
68.8638
30
0.0
0
VERTEX
8
PATTERN
10
18.2662
20
68.0573
30
0.0
0
VERTEX
8
PATTERN
10
17.2543
20
67.4162
30
0.0
0
VERTEX
8
PATTERN
10
16.1334
20
66.9944
30
0.0
0
VERTEX
8
PATTERN
10
14.9509
20
66.8019
30
0.0
0
VERTEX
8
PATTERN
10
13.7518
20
66.8000
30
0.0
0
VERTEX
8
PATTERN
10
12.5578
20
66.9163
30
0.0
0
VERTEX
8
PATTERN
10
11.3714
20
67.0958
30
0.0
0
VERTEX
8
PATTERN
10
10.1965
20
67.3382
30
0.0
0
VERTEX
8
PATTERN
10
9.0651
20
67.7317
30
0.0
0
VERTEX
8
PATTERN
10
8.1131
20
68.4469
30
0.0
0
VERTEX
8
PATTERN
10
7.5752
20
69.5093
30
0.0
0
VERTEX
8
PATTERN
10
7.3193
20
70.6810
30
0.0
0
VERTEX
8
PATTERN
10
6.9654
20
71.8237
30
0.0
0
VERTEX
8
PATTERN
10
6.2073
20
72.7376
30
0.0
0
VERTEX
8
PATTERN
10
5.1312
20
73.2555
30
0.0
0
VERTEX
8
PATTERN
10
3.9569
20
73.4933
30
0.0
0
VERTEX
8
PATTERN
10
2.7592
20
73.5330
30
0.0
0
VERTEX
8
PATTERN
10
1.5808
20
73.3275
30
0.0
0
VERTEX
8
PATTERN
10
0.5730
20
72.7017
30
0.0
0
VERTEX
8
PATTERN
10
0.0525
20
71.6376
30
0.0
0
VERTEX
8
PATTERN
10
0.0000
20
70.4429
30
0.0
0
VERTEX
8
PATTERN
10
0.1844
20
69.2581
30
0.0
0
VERTEX
8
PATTERN
10
0.4819
20
68.0960
30
0.0
0
VERTEX
8
PATTERN
10
0.8598
20
66.9574
30
0.0
0
VERTEX
8
PATTERN
10
1.3383
20
65.8576
30
0.0
0
VERTEX
8
PATTERN
10
1.9740
20
64.8420
30
0.0
0
VERTEX
8
PATTERN
10
2.8141
20
63.9898
30
0.0
0
VERTEX
8
PATTERN
10
3.8486
20
63.3892
30
0.0
0
VERTEX
8
PATTERN
10
4.9960
20
63.0454
30
0.0
0
VERTEX
8
PATTERN
10
6.1847
20
62.8869
30
0.0
0
VERTEX
8
PATTERN
10
7.3826
20
62.8181
30
0.0
0
VERTEX
8
PATTERN
10
8.5805
20
62.7506
30
0.0
0
VERTEX
8
PATTERN
10
9.7691
20
62.5929
30
0.0
0
VERTEX
8
PATTERN
10
10.9014
20
62.2092
30
0.0
0
VERTEX
8
PATTERN
10
11.7429
20
61.3839
30
0.0
0
VERTEX
8
PATTERN
10
11.7726
20
60.2167
30
0.0
0
VERTEX
8
PATTERN
10
11.0712
20
59.2603
30
0.0
0
VERTEX
8
PATTERN
10
10.0312
20
58.6731
30
0.0
0
VERTEX
8
PATTERN
10
8.8749
20
58.3576
30
0.0
0
VERTEX
8
PATTERN
10
7.6972
20
58.1277
30
0.0
0
VERTEX
8
PATTERN
10
6.5553
20
57.7667
30
0.0
0
VERTEX
8
PATTERN
10
5.6178
20
57.0372
30
0.0
0
VERTEX
8
PATTERN
10
5.1974
20
55.9312
30
0.0
0
VERTEX
8
PATTERN
10
5.3719
20
54.7543
30
0.0
0
VERTEX
8
PATTERN
10
5.9997
20
53.7411
30
0.0
0
VERTEX
8
PATTERN
10
6.9647
20
53.0423
30
0.0
0
VERTEX
8
PATTERN
10
8.1238
20
52.7627
30
0.0
0
VERTEX
8
PATTERN
10
9.3150
20
52.8690
30
0.0
0
VERTEX
8
PATTERN
10
10.4555
20
53.2367
30
0.0
0
VERTEX
8
PATTERN
10
11.5373
20
53.7543
30
0.0
0
VERTEX
8
PATTERN
10
12.5678
20
54.3683
30
0.0
0
VERTEX
8
PATTERN
10
13.5442
20
55.0650
30
0.0
0
VERTEX
8
PATTERN
10
14.4485
20
55.8528
30
0.0
0
VERTEX
8
PATTERN
10
15.2548
20
56.7403
30
0.0
0
VERTEX
8
PATTERN
10
15.9485
20
57.7186
30
0.0
0
VERTEX
8
PATTERN
10
16.5452
20
58.7593
30
0.0
0
VERTEX
8
PATTERN
10
17.0968
20
59.8249
30
0.0
0
VERTEX
8
PATTERN
10
17.6826
20
60.8717
30
0.0
0
VERTEX
8
PATTERN
10
18.3794
20
61.8472
30
0.0
0
VERTEX
8
PATTERN
10
19.2046
20
62.7170
30
0.0
0
VERTEX
8
PATTERN
10
20.1052
20
63.5097
30
0.0
0
VERTEX
8
PATTERN
10
21.0087
20
64.2992
30
0.0
0
VERTEX
8
PATTERN
10
21.8645
20
65.1398
30
0.0
0
VERTEX
8
PATTERN
10
22.6659
20
66.0327
30
0.0
0
VERTEX
8
PATTERN
10
23.4553
20
66.9363
30
0.0
0
VERTEX
8
PATTERN
10
24.3073
20
67.7802
30
0.0
0
VERTEX
8
PATTERN
10
25.2847
20
68.4724
30
0.0
0
VERTEX
8
PATTERN
10
26.3887
20
68.9361
30
0.0
0
VERTEX
8
PATTERN
10
27.5608
20
69.1873
30
0.0
0
VERTEX
8
PATTERN
10
28.7550
20
69.3010
30
0.0
0
VERTEX
8
PATTERN
10
29.9541
20
69.3409
30
0.0
0
VERTEX
8
PATTERN
10
31.1540
20
69.3421
30
0.0
0
VERTEX
8
PATTERN
10
32.3536
20
69.3188
30
0.0
0
VERTEX
8
PATTERN
10
33.5528
20
69.2766
30
0.0
0
VERTEX
8
PATTERN
10
34.7515
20
69.2228
30
0.0
0
VERTEX
8
PATTERN
10
35.9504
20
69.1761
30
0.0
0
VERTEX
8
PATTERN
10
37.1502
20
69.1721
30
0.0
0
VERTEX
8
PATTERN
10
38.3464
20
69.2592
30
0.0
0
VERTEX
8
PATTERN
10
39.5252
20
69.4786
30
0.0
0
VERTEX
8
PATTERN
10
40.6701
20
69.8354
30
0.0
0
VERTEX
8
PATTERN
10
41.7794
20
70.2921
30
0.0
0
VERTEX
8
PATTERN
10
42.8717
20
70.7887
30
0.0
0
VERTEX
8
PATTERN
10
43.9751
20
71.2598
30
0.0
0
VERTEX
8
PATTERN
10
45.1114
20
71.6438
30
0.0
0
VERTEX
8
PATTERN
10
46.2826
20
71.9010
30
0.0
0
VERTEX
8
PATTERN
10
47.4743
20
72.0379
30
0.0
0
VERTEX
8
PATTERN
10
48.6720
20
72.1093
30
0.0
0
VERTEX
8
PATTERN
10
49.8683
20
72.1994
30
0.0
0
VERTEX
8
PATTERN
10
51.0481
20
72.4116
30
0.0
0
VERTEX
8
PATTERN
10
52.1623
20
72.8490
30
0.0
0
VERTEX
8
PATTERN
10
53.1275
20
73.5565
30
0.0
0
VERTEX
8
PATTERN
10
53.9269
20
74.4496
30
0.0
0
VERTEX
8
PATTERN
10
54.6392
20
75.4152
30
0.0
0
VERTEX
8
PATTERN
10
55.3854
20
76.3542
30
0.0
0
VERTEX
8
PATTERN
10
56.2681
20
77.1636
30
0.0
0
VERTEX
8
PATTERN
10
57.3065
20
77.7597
30
0.0
0
VERTEX
8
PATTERN
10
58.4398
20
78.1504
30
0.0
0
VERTEX
8
PATTERN
10
59.6094
20
78.4167
30
0.0
0
VERTEX
8
PATTERN
10
60.7899
20
78.6315
30
0.0
0
VERTEX
8
PATTERN
10
61.9714
20
78.8408
30
0.0
0
VERTEX
8
PATTERN
10
63.1485
20
79.0733
30
0.0
0
VERTEX
8
PATTERN
10
64.3158
20
79.3506
30
0.0
0
VERTEX
8
PATTERN
10
65.4663
20
79.6906
30
0.0
0
VERTEX
8
PATTERN
10
66.5913
20
80.1070
30
0.0
0
VERTEX
8
PATTERN
10
67.6815
20
80.6074
30
0.0
0
VERTEX
8
PATTERN
10
68.7286
20
81.1926
30
0.0
0
VERTEX
8
PATTERN
10
69.7278
20
81.8565
30
0.0
0
VERTEX
8
PATTERN
10
70.6824
20
82.5833
30
0.0
0
VERTEX
8
PATTERN
10
71.6095
20
83.3450
30
0.0
0
VERTEX
8
PATTERN
10
72.5413
20
84.1008
30
0.0
0
VERTEX
8
PATTERN
10
73.5181
20
84.7968
30
0.0
0
VERTEX
8
PATTERN
10
74.5746
20
85.3624
30
0.0
0
VERTEX
8
PATTERN
10
75.7247
20
85.6900
30
0.0
0
VERTEX
8
PATTERN
10
76.9104
20
85.5984
30
0.0
0
VERTEX
8
PATTERN
10
77.8317
20
84.8715
30
0.0
0
VERTEX
8
PATTERN
10
77.9889
20
83.7109
30
0.0
0
VERTEX
8
PATTERN
10
77.4747
20
82.6363
30
0.0
0
VERTEX
8
PATTERN
10
76.6777
20
81.7414
30
0.0
0
VERTEX
8
PATTERN
10
75.7843
20
80.9407
30
0.0
0
VERTEX
8
PATTERN
10
74.8589
20
80.1769
30
0.0
0
VERTEX
8
PATTERN
10
73.9219
20
79.4275
30
0.0
0
VERTEX
8
PATTERN
10
72.9737
20
78.6922
30
0.0
0
VERTEX
8
PATTERN
10
72.0076
20
77.9806
30
0.0
0
VERTEX
8
PATTERN
10
71.0160
20
77.3051
30
0.0
0
VERTEX
8
PATTERN
10
69.9925
20
76.6792
30
0.0
0
VERTEX
8
PATTERN
10
68.9322
20
76.1179
30
0.0
0
VERTEX
8
PATTERN
10
67.8344
20
75.6342
30
0.0
0
VERTEX
8
PATTERN
10
66.7034
20
75.2345
30
0.0
0
VERTEX
8
PATTERN
10
65.5474
20
74.9135
30
0.0
0
VERTEX
8
PATTERN
10
64.3762
20
74.6531
30
0.0
0
VERTEX
8
PATTERN
10
63.1987
20
74.4227
30
0.0
0
VERTEX
8
PATTERN
10
62.0244
20
74.1763
30
0.0
0
VERTEX
8
PATTERN
10
60.8707
20
73.8488
30
0.0
0
VERTEX
8
PATTERN
10
59.7752
20
73.3631
30
0.0
0
VERTEX
8
PATTERN
10
58.7970
20
72.6717
30
0.0
0
VERTEX
8
PATTERN
10
57.9525
20
71.8207
30
0.0
0
VERTEX
8
PATTERN
10
57.1818
20
70.9011
30
0.0
0
VERTEX
8
PATTERN
10
56.3873
20
70.0025
30
0.0
0
VERTEX
8
PATTERN
10
55.4943
20
69.2030
30
0.0
0
VERTEX
8
PATTERN
10
54.4797
20
68.5655
30
0.0
0
VERTEX
8
PATTERN
10
53.3698
20
68.1133
30
0.0
0
VERTEX
8
PATTERN
10
52.2058
20
67.8256
30
0.0
0
VERTEX
8
PATTERN
10
51.0180
20
67.6582
30
0.0
0
VERTEX
8
PATTERN
10
49.8226
20
67.5554
30
0.0
0
VERTEX
8
PATTERN
10
48.6266
20
67.4587
30
0.0
0
VERTEX
8
PATTERN
10
47.4356
20
67.3141
30
0.0
0
VERTEX
8
PATTERN
10
46.2589
20
67.0813
30
0.0
0
VERTEX
8
PATTERN
10
45.1082
20
66.7427
30
0.0
0
VERTEX
8
PATTERN
10
43.9892
20
66.3105
30
0.0
0
VERTEX
8
PATTERN
10
42.8937
20
65.8210
30
0.0
0
VERTEX
8
PATTERN
10
41.7983
20
65.3315
30
0.0
0
VERTEX
8
PATTERN
10
40.6725
20
64.9178
30
0.0
0
VERTEX
8
PATTERN
10
39.5018
20
64.6609
30
0.0
0
VERTEX
8
PATTERN
10
38.3046
20
64.6008
30
0.0
0
VERTEX
8
PATTERN
10
37.1085
20
64.6893
30
0.0
0
VERTEX
8
PATTERN
10
35.9187
20
64.8444
30
0.0
0
VERTEX
8
PATTERN
10
34.7286
20
64.9972
30
0.0
0
VERTEX
8
PATTERN
10
33.5339
20
65.1083
30
0.0
0
VERTEX
8
PATTERN
10
32.3353
20
65.1611
30
0.0
0
VERTEX
8
PATTERN
10
31.1358
20
65.1436
30
0.0
0
VERTEX
8
PATTERN
10
29.9419
20
65.0287
30
0.0
0
VERTEX
8
PATTERN
10
28.7726
20
64.7655
30
0.0
0
VERTEX
8
PATTERN
10
27.6697
20
64.2985
30
0.0
0
VERTEX
8
PATTERN
10
26.6831
20
63.6188
30
0.0
0
VERTEX
8
PATTERN
10
25.8096
20
62.7972
30
0.0
0
VERTEX
8
PATTERN
10
24.9949
20
61.9164
30
0.0
0
VERTEX
8
PATTERN
10
24.1831
20
61.0328
30
0.0
0
VERTEX
8
PATTERN
10
23.3504
20
60.1690
30
0.0
0
VERTEX
8
PATTERN
10
22.5077
20
59.3148
30
0.0
0
VERTEX
8
PATTERN
10
21.6839
20
58.4425
30
0.0
0
VERTEX
8
PATTERN
10
20.9048
20
57.5301
30
0.0
0
VERTEX
8
PATTERN
10
20.1783
20
56.5754
30
0.0
0
VERTEX
8
PATTERN
10
19.4895
20
55.5929
30
0.0
0
VERTEX
8
PATTERN
10
18.8063
20
54.6066
30
0.0
0
VERTEX
8
PATTERN
10
18.0891
20
53.6447
30
0.0
0
VERTEX
8
PATTERN
10
17.3063
20
52.7358
30
0.0
0
VERTEX
8
PATTERN
10
16.4484
20
51.8975
30
0.0
0
VERTEX
8
PATTERN
10
15.5310
20
51.1244
30
0.0
0
VERTEX
8
PATTERN
10
14.5853
20
50.3859
30
0.0
0
VERTEX
8
PATTERN
10
13.6519
20
49.6321
30
0.0
0
VERTEX
8
PATTERN
10
12.7875
20
48.8012
30
0.0
0
VERTEX
8
PATTERN
10
12.0906
20
47.8284
30
0.0
0
VERTEX
8
PATTERN
10
11.7510
20
46.6874
30
0.0
0
VERTEX
8
PATTERN
10
12.0206
20
45.5382
30
0.0
0
VERTEX
8
PATTERN
10
12.9371
20
44.8007
30
0.0
0
VERTEX
8
PATTERN
10
14.1204
20
44.7325
30
0.0
0
VERTEX
8
PATTERN
10
15.2428
20
45.1442
30
0.0
0
VERTEX
8
PATTERN
10
16.2738
20
45.7573
30
0.0
0
VERTEX
8
PATTERN
10
17.3025
20
46.3740
30
0.0
0
VERTEX
8
PATTERN
10
18.4204
20
46.7987
30
0.0
0
VERTEX
8
PATTERN
10
19.6072
20
46.7665
30
0.0
0
VERTEX
8
PATTERN
10
20.5767
20
46.0976
30
0.0
0
VERTEX
8
PATTERN
10
20.9285
20
44.9737
30
0.0
0
VERTEX
8
PATTERN
10
20.6316
20
43.8217
30
0.0
0
VERTEX
8
PATTERN
10
19.9685
20
42.8253
30
0.0
0
VERTEX
8
PATTERN
10
19.1493
20
41.9493
30
0.0
0
VERTEX
8
PATTERN
10
18.2859
20
41.1161
30
0.0
0
VERTEX
8
PATTERN
10
17.4564
20
40.2495
30
0.0
0
VERTEX
8
PATTERN
10
16.7433
20
39.2864
30
0.0
0
VERTEX
8
PATTERN
10
16.2476
20
38.1972
30
0.0
0
VERTEX
8
PATTERN
10
16.0880
20
37.0131
30
0.0
0
VERTEX
8
PATTERN
10
16.3279
20
35.8440
30
0.0
0
VERTEX
8
PATTERN
10
16.9596
20
34.8325
30
0.0
0
VERTEX
8
PATTERN
10
17.9354
20
34.1528
30
0.0
0
VERTEX
8
PATTERN
10
19.1134
20
34.0845
30
0.0
0
VERTEX
8
PATTERN
10
20.1244
20
34.7036
30
0.0
0
VERTEX
8
PATTERN
10
20.8483
20
35.6567
30
0.0
0
VERTEX
8
PATTERN
10
21.4371
20
36.7019
30
0.0
0
VERTEX
8
PATTERN
10
22.0261
20
37.7472
30
0.0
0
VERTEX
8
PATTERN
10
22.6797
20
38.7532
30
0.0
0
VERTEX
8
PATTERN
10
23.3899
20
39.7202
30
0.0
0
VERTEX
8
PATTERN
10
24.1120
20
40.6785
30
0.0
0
VERTEX
8
PATTERN
10
24.8037
20
41.6588
30
0.0
0
VERTEX
8
PATTERN
10
25.4517
20
42.6686
30
0.0
0
VERTEX
8
PATTERN
10
26.0769
20
43.6927
30
0.0
0
VERTEX
8
PATTERN
10
26.7143
20
44.7093
30
0.0
0
VERTEX
8
PATTERN
10
27.3798
20
45.7077
30
0.0
0
VERTEX
8
PATTERN
10
28.0399
20
46.7096
30
0.0
0
VERTEX
8
PATTERN
10
28.5935
20
47.7723
30
0.0
0
VERTEX
8
PATTERN
10
28.8303
20
48.9402
30
0.0
0
VERTEX
8
PATTERN
10
28.4395
20
50.0494
30
0.0
0
VERTEX
8
PATTERN
10
27.4205
20
50.6400
30
0.0
0
VERTEX
8
PATTERN
10
26.2259
20
50.7050
30
0.0
0
VERTEX
8
PATTERN
10
25.0270
20
50.6848
30
0.0
0
VERTEX
8
PATTERN
10
23.9346
20
51.1143
30
0.0
0
VERTEX
8
PATTERN
10
23.5791
20
52.2220
30
0.0
0
VERTEX
8
PATTERN
10
23.9012
20
53.3702
30
0.0
0
VERTEX
8
PATTERN
10
24.5194
20
54.3965
30
0.0
0
VERTEX
8
PATTERN
10
25.2667
20
55.3346
30
0.0
0
VERTEX
8
PATTERN
10
26.0612
20
56.2337
30
0.0
0
VERTEX
8
PATTERN
10
26.8593
20
57.1298
30
0.0
0
VERTEX
8
PATTERN
10
27.6585
20
58.0247
30
0.0
0
VERTEX
8
PATTERN
10
28.4975
20
58.8820
30
0.0
0
VERTEX
8
PATTERN
10
29.4332
20
59.6309
30
0.0
0
VERTEX
8
PATTERN
10
30.4940
20
60.1865
30
0.0
0
VERTEX
8
PATTERN
10
31.6474
20
60.5095
30
0.0
0
VERTEX
8
PATTERN
10
32.8412
20
60.6165
30
0.0
0
VERTEX
8
PATTERN
10
34.0381
20
60.5465
30
0.0
0
VERTEX
8
PATTERN
10
35.2143
20
60.3144
30
0.0
0
VERTEX
8
PATTERN
10
36.3437
20
59.9133
30
0.0
0
VERTEX
8
PATTERN
10
37.3920
20
59.3325
30
0.0
0
VERTEX
8
PATTERN
10
38.3270
20
58.5827
30
0.0
0
VERTEX
8
PATTERN
10
39.1346
20
57.6970
30
0.0
0
VERTEX
8
PATTERN
10
39.8029
20
56.7019
30
0.0
0
VERTEX
8
PATTERN
10
40.2732
20
55.6009
30
0.0
0
VERTEX
8
PATTERN
10
40.3768
20
54.4152
30
0.0
0
VERTEX
8
PATTERN
10
39.8090
20
53.3906
30
0.0
0
VERTEX
8
PATTERN
10
38.6828
20
53.0775
30
0.0
0
VERTEX
8
PATTERN
10
37.5704
20
53.4966
30
0.0
0
VERTEX
8
PATTERN
10
36.6297
20
54.2389
30
0.0
0
VERTEX
8
PATTERN
10
35.7471
20
55.0517
30
0.0
0
VERTEX
8
PATTERN
10
34.7887
20
55.7702
30
0.0
0
VERTEX
8
PATTERN
10
33.6675
20
56.1713
30
0.0
0
VERTEX
8
PATTERN
10
32.5255
20
55.8996
30
0.0
0
VERTEX
8
PATTERN
10
31.8892
20
54.9156
30
0.0
0
VERTEX
8
PATTERN
10
31.9064
20
53.7254
30
0.0
0
VERTEX
8
PATTERN
10
32.2697
20
52.5833
30
0.0
0
VERTEX
8
PATTERN
10
32.7190
20
51.4707
30
0.0
0
VERTEX
8
PATTERN
10
33.0809
20
50.3277
30
0.0
0
VERTEX
8
PATTERN
10
33.2234
20
49.1390
30
0.0
0
VERTEX
8
PATTERN
10
33.0835
20
47.9499
30
0.0
0
VERTEX
8
PATTERN
10
32.7134
20
46.8100
30
0.0
0
VERTEX
8
PATTERN
10
32.1995
20
45.7262
30
0.0
0
VERTEX
8
PATTERN
10
31.6148
20
44.6785
30
0.0
0
VERTEX
8
PATTERN
10
31.0073
20
43.6438
30
0.0
0
VERTEX
8
PATTERN
10
30.4033
20
42.6070
30
0.0
0
VERTEX
8
PATTERN
10
29.8099
20
41.5641
30
0.0
0
VERTEX
8
PATTERN
10
29.2178
20
40.5205
30
0.0
0
VERTEX
8
PATTERN
10
28.6103
20
39.4858
30
0.0
0
VERTEX
8
PATTERN
10
27.9796
20
38.4650
30
0.0
0
VERTEX
8
PATTERN
10
27.3459
20
37.4462
30
0.0
0
VERTEX
8
PATTERN
10
26.7708
20
36.3938
30
0.0
0
VERTEX
8
PATTERN
10
26.3757
20
35.2640
30
0.0
0
VERTEX
8
PATTERN
10
26.3087
20
34.0713
30
0.0
0
VERTEX
8
PATTERN
10
26.5509
20
32.8981
30
0.0
0
VERTEX
8
PATTERN
10
26.8830
20
31.7453
30
0.0
0
VERTEX
8
PATTERN
10
27.0704
20
30.5624
30
0.0
0
VERTEX
8
PATTERN
10
26.9921
20
29.3674
30
0.0
0
VERTEX
8
PATTERN
10
26.7629
20
28.1898
30
0.0
0
VERTEX
8
PATTERN
10
26.6453
20
26.9986
30
0.0
0
VERTEX
8
PATTERN
10
27.0188
20
25.8796
30
0.0
0
VERTEX
8
PATTERN
10
28.0374
20
25.3013
30
0.0
0
VERTEX
8
PATTERN
10
29.2228
20
25.3975
30
0.0
0
VERTEX
8
PATTERN
10
30.3097
20
25.8966
30
0.0
0
VERTEX
8
PATTERN
10
31.2542
20
26.6329
30
0.0
0
VERTEX
8
PATTERN
10
32.0197
20
27.5535
30
0.0
0
VERTEX
8
PATTERN
10
32.5345
20
28.6328
30
0.0
0
VERTEX
8
PATTERN
10
32.7255
20
29.8134
30
0.0
0
VERTEX
8
PATTERN
10
32.6305
20
31.0077
30
0.0
0
VERTEX
8
PATTERN
10
32.3952
20
32.1842
30
0.0
0
VERTEX
8
PATTERN
10
32.1726
20
33.3630
30
0.0
0
VERTEX
8
PATTERN
10
32.0871
20
34.5587
30
0.0
0
VERTEX
8
PATTERN
10
32.1940
20
35.7524
30
0.0
0
VERTEX
8
PATTERN
10
32.4745
20
36.9181
30
0.0
0
VERTEX
8
PATTERN
10
32.8790
20
38.0473
30
0.0
0
VERTEX
8
PATTERN
10
33.3703
20
39.1418
30
0.0
0
VERTEX
8
PATTERN
10
33.9284
20
40.2038
30
0.0
0
VERTEX
8
PATTERN
10
34.5373
20
41.2376
30
0.0
0
VERTEX
8
PATTERN
10
35.1775
20
42.2524
30
0.0
0
VERTEX
8
PATTERN
10
35.8300
20
43.2594
30
0.0
0
VERTEX
8
PATTERN
10
36.4871
20
44.2633
30
0.0
0
VERTEX
8
PATTERN
10
37.1636
20
45.2543
30
0.0
0
VERTEX
8
PATTERN
10
37.8949
20
46.2052
30
0.0
0
VERTEX
8
PATTERN
10
38.7160
20
47.0792
30
0.0
0
VERTEX
8
PATTERN
10
39.6322
20
47.8532
30
0.0
0
VERTEX
8
PATTERN
10
40.6110
20
48.5469
30
0.0
0
VERTEX
8
PATTERN
10
41.6131
20
49.2068
30
0.0
0
VERTEX
8
PATTERN
10
42.6076
20
49.8781
30
0.0
0
VERTEX
8
PATTERN
10
43.5755
20
50.5871
30
0.0
0
VERTEX
8
PATTERN
10
44.5128
20
51.3362
30
0.0
0
VERTEX
8
PATTERN
10
45.4324
20
52.1068
30
0.0
0
VERTEX
8
PATTERN
10
46.3581
20
52.8702
30
0.0
0
VERTEX
8
PATTERN
10
47.3066
20
53.6051
30
0.0
0
VERTEX
8
PATTERN
10
48.2711
20
54.3189
30
0.0
0
VERTEX
8
PATTERN
10
49.2159
20
55.0582
30
0.0
0
VERTEX
8
PATTERN
10
50.0618
20
55.9064
30
0.0
0
VERTEX
8
PATTERN
10
50.6149
20
56.9601
30
0.0
0
VERTEX
8
PATTERN
10
50.3978
20
58.0954
30
0.0
0
VERTEX
8
PATTERN
10
49.3509
20
58.6206
30
0.0
0
VERTEX
8
PATTERN
10
48.1550
20
58.5939
30
0.0
0
VERTEX
8
PATTERN
10
46.9706
20
58.4026
30
0.0
0
VERTEX
8
PATTERN
10
45.7763
20
58.3086
30
0.0
0
VERTEX
8
PATTERN
10
44.6309
20
58.6193
30
0.0
0
VERTEX
8
PATTERN
10
43.9173
20
59.5466
30
0.0
0
VERTEX
8
PATTERN
10
44.0099
20
60.7223
30
0.0
0
VERTEX
8
PATTERN
10
44.6746
20
61.7121
30
0.0
0
VERTEX
8
PATTERN
10
45.6115
20
62.4568
30
0.0
0
VERTEX
8
PATTERN
10
46.6830
20
62.9932
30
0.0
0
VERTEX
8
PATTERN
10
47.8289
20
63.3446
30
0.0
0
VERTEX
8
PATTERN
10
49.0142
20
63.5246
30
0.0
0
VERTEX
8
PATTERN
10
50.2131
20
63.5546
30
0.0
0
VERTEX
8
PATTERN
10
51.4113
20
63.4924
30
0.0
0
VERTEX
8
PATTERN
10
52.6101
20
63.4481
30
0.0
0
VERTEX
8
PATTERN
10
53.8031
20
63.5599
30
0.0
0
VERTEX
8
PATTERN
10
54.9630
20
63.8633
30
0.0
0
VERTEX
8
PATTERN
10
56.1127
20
64.2051
30
0.0
0
VERTEX
8
PATTERN
10
57.3017
20
64.3066
30
0.0
0
VERTEX
8
PATTERN
10
58.3795
20
63.8287
30
0.0
0
VERTEX
8
PATTERN
10
58.9124
20
62.7807
30
0.0
0
VERTEX
8
PATTERN
10
58.7562
20
61.6033
30
0.0
0
VERTEX
8
PATTERN
10
58.2095
20
60.5379
30
0.0
0
VERTEX
8
PATTERN
10
57.5433
20
59.5400
30
0.0
0
VERTEX
8
PATTERN
10
56.9189
20
58.5162
30
0.0
0
VERTEX
8
PATTERN
10
56.4498
20
57.4137
30
0.0
0
VERTEX
8
PATTERN
10
56.2235
20
56.2385
30
0.0
0
VERTEX
8
PATTERN
10
56.3383
20
55.0506
30
0.0
0
VERTEX
8
PATTERN
10
56.9950
20
54.0756
30
0.0
0
VERTEX
8
PATTERN
10
58.1457
20
53.9847
30
0.0
0
VERTEX
8
PATTERN
10
59.1286
20
54.6577
30
0.0
0
VERTEX
8
PATTERN
10
59.9112
20
55.5655
30
0.0
0
VERTEX
8
PATTERN
10
60.6058
20
56.5437
30
0.0
0
VERTEX
8
PATTERN
10
61.2808
20
57.5357
30
0.0
0
VERTEX
8
PATTERN
10
61.9737
20
58.5153
30
0.0
0
VERTEX
8
PATTERN
10
62.7084
20
59.4638
30
0.0
0
VERTEX
8
PATTERN
10
63.5063
20
60.3594
30
0.0
0
VERTEX
8
PATTERN
10
64.3874
20
61.1729
30
0.0
0
VERTEX
8
PATTERN
10
65.3616
20
61.8718
30
0.0
0
VERTEX
8
PATTERN
10
66.4269
20
62.4210
30
0.0
0
VERTEX
8
PATTERN
10
67.5737
20
62.7656
30
0.0
0
VERTEX
8
PATTERN
10
68.7670
20
62.7917
30
0.0
0
VERTEX
8
PATTERN
10
69.8358
20
62.2891
30
0.0
0
VERTEX
8
PATTERN
10
70.3168
20
61.2234
30
0.0
0
VERTEX
8
PATTERN
10
70.0137
20
60.0789
30
0.0
0
VERTEX
8
PATTERN
10
69.2746
20
59.1389
30
0.0
0
VERTEX
8
PATTERN
10
68.3761
20
58.3442
30
0.0
0
VERTEX
8
PATTERN
10
67.4481
20
57.5837
30
0.0
0
VERTEX
8
PATTERN
10
66.5609
20
56.7764
30
0.0
0
VERTEX
8
PATTERN
10
65.7520
20
55.8909
30
0.0
0
VERTEX
8
PATTERN
10
65.0257
20
54.9363
30
0.0
0
VERTEX
8
PATTERN
10
64.3570
20
53.9401
30
0.0
0
VERTEX
8
PATTERN
10
63.7055
20
52.9324
30
0.0
0
VERTEX
8
PATTERN
10
63.0279
20
51.9423
30
0.0
0
VERTEX
8
PATTERN
10
62.2914
20
50.9954
30
0.0
0
VERTEX
8
PATTERN
10
61.4884
20
50.1042
30
0.0
0
VERTEX
8
PATTERN
10
60.6403
20
49.2554
30
0.0
0
VERTEX
8
PATTERN
10
59.7864
20
48.4125
30
0.0
0
VERTEX
8
PATTERN
10
58.9643
20
47.5386
30
0.0
0
VERTEX
8
PATTERN
10
58.1917
20
46.6208
30
0.0
0
VERTEX
8
PATTERN
10
57.4570
20
45.6722
30
0.0
0
VERTEX
8
PATTERN
10
56.7291
20
44.7183
30
0.0
0
VERTEX
8
PATTERN
10
55.9742
20
43.7858
30
0.0
0
VERTEX
8
PATTERN
10
55.1665
20
42.8988
30
0.0
0
VERTEX
8
PATTERN
10
54.2922
20
42.0775
30
0.0
0
VERTEX
8
PATTERN
10
53.3524
20
41.3322
30
0.0
0
VERTEX
8
PATTERN
10
52.3629
20
40.6538
30
0.0
0
VERTEX
8
PATTERN
10
51.3482
20
40.0134
30
0.0
0
VERTEX
8
PATTERN
10
50.3349
20
39.3708
30
0.0
0
VERTEX
8
PATTERN
10
49.3492
20
38.6869
30
0.0
0
VERTEX
8
PATTERN
10
48.4150
20
37.9344
30
0.0
0
VERTEX
8
PATTERN
10
47.5462
20
37.1072
30
0.0
0
VERTEX
8
PATTERN
10
46.7329
20
36.2252
30
0.0
0
VERTEX
8
PATTERN
10
45.9293
20
35.3342
30
0.0
0
VERTEX
8
PATTERN
10
45.0561
20
34.5129
30
0.0
0
VERTEX
8
PATTERN
10
44.0222
20
33.9149
30
0.0
0
VERTEX
8
PATTERN
10
42.8427
20
33.8307
30
0.0
0
VERTEX
8
PATTERN
10
41.8904
20
34.5125
30
0.0
0
VERTEX
8
PATTERN
10
41.5790
20
35.6540
30
0.0
0
VERTEX
8
PATTERN
10
41.7938
20
36.8287
30
0.0
0
VERTEX
8
PATTERN
10
42.3030
20
37.9130
30
0.0
0
VERTEX
8
PATTERN
10
42.9741
20
38.9067
30
0.0
0
VERTEX
8
PATTERN
10
43.7452
20
39.8254
30
0.0
0
VERTEX
8
PATTERN
10
44.5912
20
40.6758
30
0.0
0
VERTEX
8
PATTERN
10
45.5009
20
41.4579
30
0.0
0
VERTEX
8
PATTERN
10
46.4634
20
42.1740
30
0.0
0
VERTEX
8
PATTERN
10
47.4635
20
42.8368
30
0.0
0
VERTEX
8
PATTERN
10
48.4819
20
43.4712
30
0.0
0
VERTEX
8
PATTERN
10
49.4970
20
44.1110
30
0.0
0
VERTEX
8
PATTERN
10
50.4833
20
44.7940
30
0.0
0
VERTEX
8
PATTERN
10
51.4089
20
45.5566
30
0.0
0
VERTEX
8
PATTERN
10
52.2301
20
46.4297
30
0.0
0
VERTEX
8
PATTERN
10
52.8712
20
47.4405
30
0.0
0
VERTEX
8
PATTERN
10
53.1486
20
48.5974
30
0.0
0
VERTEX
8
PATTERN
10
52.7027
20
49.6748
30
0.0
0
VERTEX
8
PATTERN
10
51.6032
20
50.0867
30
0.0
0
VERTEX
8
PATTERN
10
50.4308
20
49.8712
30
0.0
0
VERTEX
8
PATTERN
10
49.3616
20
49.3317
30
0.0
0
VERTEX
8
PATTERN
10
48.3812
20
48.6407
30
0.0
0
VERTEX
8
PATTERN
10
47.4419
20
47.8942
30
0.0
0
VERTEX
8
PATTERN
10
46.5042
20
47.1456
30
0.0
0
VERTEX
8
PATTERN
10
45.5469
20
46.4223
30
0.0
0
VERTEX
8
PATTERN
10
44.5688
20
45.7273
30
0.0
0
VERTEX
8
PATTERN
10
43.5841
20
45.0416
30
0.0
0
VERTEX
8
PATTERN
10
42.6175
20
44.3309
30
0.0
0
VERTEX
8
PATTERN
10
41.6981
20
43.5604
30
0.0
0
VERTEX
8
PATTERN
10
40.8501
20
42.7121
30
0.0
0
VERTEX
8
PATTERN
10
40.0811
20
41.7914
30
0.0
0
VERTEX
8
PATTERN
10
39.3826
20
40.8161
30
0.0
0
VERTEX
8
PATTERN
10
38.7442
20
39.8003
30
0.0
0
VERTEX
8
PATTERN
10
38.1684
20
38.7479
30
0.0
0
VERTEX
8
PATTERN
10
37.6760
20
37.6541
30
0.0
0
VERTEX
8
PATTERN
10
37.3070
20
36.5134
30
0.0
0
VERTEX
8
PATTERN
10
37.1149
20
35.3306
30
0.0
0
VERTEX
8
PATTERN
10
37.1518
20
34.1335
30
0.0
0
VERTEX
8
PATTERN
10
37.4464
20
32.9731
30
0.0
0
VERTEX
8
PATTERN
10
37.9966
20
31.9100
30
0.0
0
VERTEX
8
PATTERN
10
38.7861
20
31.0105
30
0.0
0
VERTEX
8
PATTERN
10
39.7603
20
30.3145
30
0.0
0
VERTEX
8
PATTERN
10
40.8537
20
29.8241
30
0.0
0
VERTEX
8
PATTERN
10
42.0107
20
29.5104
30
0.0
0
VERTEX
8
PATTERN
10
43.2006
20
29.3660
30
0.0
0
VERTEX
8
PATTERN
10
44.3965
20
29.4325
30
0.0
0
VERTEX
8
PATTERN
10
45.5433
20
29.7736
30
0.0
0
VERTEX
8
PATTERN
10
46.5686
20
30.3915
30
0.0
0
VERTEX
8
PATTERN
10
47.4616
20
31.1915
30
0.0
0
VERTEX
8
PATTERN
10
48.2751
20
32.0733
30
0.0
0
VERTEX
8
PATTERN
10
49.0727
20
32.9697
30
0.0
0
VERTEX
8
PATTERN
10
49.9025
20
33.8362
30
0.0
0
VERTEX
8
PATTERN
10
50.7926
20
34.6403
30
0.0
0
VERTEX
8
PATTERN
10
51.7519
20
35.3603
30
0.0
0
VERTEX
8
PATTERN
10
52.7720
20
35.9913
30
0.0
0
VERTEX
8
PATTERN
10
53.8310
20
36.5552
30
0.0
0
VERTEX
8
PATTERN
10
54.8982
20
37.1036
30
0.0
0
VERTEX
8
PATTERN
10
55.9354
20
37.7062
30
0.0
0
VERTEX
8
PATTERN
10
56.8985
20
38.4204
30
0.0
0
VERTEX
8
PATTERN
10
57.7599
20
39.2545
30
0.0
0
VERTEX
8
PATTERN
10
58.5318
20
40.1726
30
0.0
0
VERTEX
8
PATTERN
10
59.2514
20
41.1327
30
0.0
0
VERTEX
8
PATTERN
10
59.9578
20
42.1026
30
0.0
0
VERTEX
8
PATTERN
10
60.6807
20
43.0603
30
0.0
0
VERTEX
8
PATTERN
10
61.4391
20
43.9899
30
0.0
0
VERTEX
8
PATTERN
10
62.2395
20
44.8837
30
0.0
0
VERTEX
8
PATTERN
10
63.0733
20
45.7465
30
0.0
0
VERTEX
8
PATTERN
10
63.9171
20
46.5996
30
0.0
0
VERTEX
8
PATTERN
10
64.7383
20
47.4743
30
0.0
0
VERTEX
8
PATTERN
10
65.5057
20
48.3964
30
0.0
0
VERTEX
8
PATTERN
10
66.2060
20
49.3705
30
0.0
0
VERTEX
8
PATTERN
10
66.8556
20
50.3793
30
0.0
0
VERTEX
8
PATTERN
10
67.4946
20
51.3949
30
0.0
0
VERTEX
8
PATTERN
10
68.1673
20
52.3883
30
0.0
0
VERTEX
8
PATTERN
10
68.9056
20
53.3337
30
0.0
0
VERTEX
8
PATTERN
10
69.7202
20
54.2142
30
0.0
0
VERTEX
8
PATTERN
10
70.5998
20
55.0300
30
0.0
0
VERTEX
8
PATTERN
10
71.5164
20
55.8043
30
0.0
0
VERTEX
8
PATTERN
10
72.4283
20
56.5839
30
0.0
0
VERTEX
8
PATTERN
10
73.2771
20
57.4310
30
0.0
0
VERTEX
8
PATTERN
10
73.9794
20
58.4014
30
0.0
0
VERTEX
8
PATTERN
10
74.4677
20
59.4950
30
0.0
0
VERTEX
8
PATTERN
10
74.7580
20
60.6583
30
0.0
0
VERTEX
8
PATTERN
10
74.9529
20
61.8423
30
0.0
0
VERTEX
8
PATTERN
10
75.1758
20
63.0210
30
0.0
0
VERTEX
8
PATTERN
10
75.5193
20
64.1697
30
0.0
0
VERTEX
8
PATTERN
10
76.0107
20
65.2635
30
0.0
0
VERTEX
8
PATTERN
10
76.5985
20
66.3094
30
0.0
0
VERTEX
8
PATTERN
10
77.1958
20
67.3499
30
0.0
0
VERTEX
8
PATTERN
10
77.6791
20
68.4464
30
0.0
0
VERTEX
8
PATTERN
10
77.7922
20
69.6268
30
0.0
0
VERTEX
8
PATTERN
10
76.9862
20
70.4076
30
0.0
0
VERTEX
8
PATTERN
10
75.8151
20
70.2264
30
0.0
0
VERTEX
8
PATTERN
10
74.7508
20
69.6760
30
0.0
0
VERTEX
8
PATTERN
10
73.7481
20
69.0169
30
0.0
0
VERTEX
8
PATTERN
10
72.7392
20
68.3679
30
0.0
0
VERTEX
8
PATTERN
10
71.6765
20
67.8124
30
0.0
0
VERTEX
8
PATTERN
10
70.5510
20
67.3990
30
0.0
0
VERTEX
8
PATTERN
10
69.3884
20
67.1034
30
0.0
0
VERTEX
8
PATTERN
10
68.2128
20
66.8632
30
0.0
0
VERTEX
8
PATTERN
10
67.0350
20
66.6342
30
0.0
0
VERTEX
8
PATTERN
10
65.8543
20
66.4206
30
0.0
0
VERTEX
8
PATTERN
10
64.6628
20
66.2830
30
0.0
0
VERTEX
8
PATTERN
10
63.4663
20
66.3329
30
0.0
0
VERTEX
8
PATTERN
10
62.3431
20
66.7336
30
0.0
0
VERTEX
8
PATTERN
10
61.5474
20
67.6082
30
0.0
0
VERTEX
8
PATTERN
10
61.4664
20
68.7793
30
0.0
0
VERTEX
8
PATTERN
10
62.1292
20
69.7608
30
0.0
0
VERTEX
8
PATTERN
10
63.1457
20
70.3884
30
0.0
0
VERTEX
8
PATTERN
10
64.2793
20
70.7778
30
0.0
0
VERTEX
8
PATTERN
10
65.4481
20
71.0481
30
0.0
0
VERTEX
8
PATTERN
10
66.6241
20
71.2867
30
0.0
0
VERTEX
8
PATTERN
10
67.7934
20
71.5551
30
0.0
0
VERTEX
8
PATTERN
10
68.9425
20
71.8992
30
0.0
0
VERTEX
8
PATTERN
10
70.0565
20
72.3439
30
0.0
0
VERTEX
8
PATTERN
10
71.1282
20
72.8829
30
0.0
0
VERTEX
8
PATTERN
10
72.1668
20
73.4835
30
0.0
0
VERTEX
8
PATTERN
10
73.1918
20
74.1074
30
0.0
0
VERTEX
8
PATTERN
10
74.2163
20
74.7319
30
0.0
0
VERTEX
8
PATTERN
10
75.2386
20
75.3601
30
0.0
0
VERTEX
8
PATTERN
10
76.2440
20
76.0149
30
0.0
0
VERTEX
8
PATTERN
10
77.2168
20
76.7171
30
0.0
0
VERTEX
8
PATTERN
10
78.1577
20
77.4616
30
0.0
0
VERTEX
8
PATTERN
10
79.0979
20
78.2070
30
0.0
0
VERTEX
8
PATTERN
10
80.0982
20
78.8674
30
0.0
0
VERTEX
8
PATTERN
10
81.2218
20
79.2698
30
0.0
0
VERTEX
8
PATTERN
10
82.3922
20
79.1147
30
0.0
0
VERTEX
8
PATTERN
10
83.1739
20
78.2448
30
0.0
0
VERTEX
8
PATTERN
10
83.2361
20
77.0604
30
0.0
0
VERTEX
8
PATTERN
10
82.9216
20
75.9034
30
0.0
0
VERTEX
8
PATTERN
10
82.6101
20
74.7453
30
0.0
0
VERTEX
8
PATTERN
10
82.5188
20
73.5515
30
0.0
0
VERTEX
8
PATTERN
10
82.6624
20
72.3612
30
0.0
0
VERTEX
8
PATTERN
10
82.8780
20
71.1809
30
0.0
0
VERTEX
8
PATTERN
10
82.9793
20
69.9868
30
0.0
0
VERTEX
8
PATTERN
10
82.8467
20
68.7968
30
0.0
0
VERTEX
8
PATTERN
10
82.4847
20
67.6544
30
0.0
0
VERTEX
8
PATTERN
10
81.9760
20
66.5683
30
0.0
0
VERTEX
8
PATTERN
10
81.3986
20
65.5166
30
0.0
0
VERTEX
8
PATTERN
10
80.8161
20
64.4676
30
0.0
0
VERTEX
8
PATTERN
10
80.2886
20
63.3902
30
0.0
0
VERTEX
8
PATTERN
10
79.8702
20
62.2663
30
0.0
0
VERTEX
8
PATTERN
10
79.5850
20
61.1015
30
0.0
0
VERTEX
8
PATTERN
10
79.4090
20
59.9148
30
0.0
0
VERTEX
8
PATTERN
10
79.2784
20
58.7221
30
0.0
0
VERTEX
8
PATTERN
10
79.1081
20
57.5347
30
0.0
0
VERTEX
8
PATTERN
10
78.7976
20
56.3772
30
0.0
0
VERTEX
8
PATTERN
10
78.2642
20
55.3055
30
0.0
0
VERTEX
8
PATTERN
10
77.5010
20
54.3825
30
0.0
0
VERTEX
8
PATTERN
10
76.5939
20
53.5984
30
0.0
0
VERTEX
8
PATTERN
10
75.6243
20
52.8919
30
0.0
0
VERTEX
8
PATTERN
10
74.6460
20
52.1971
30
0.0
0
VERTEX
8
PATTERN
10
73.6973
20
51.4627
30
0.0
0
VERTEX
8
PATTERN
10
72.8096
20
50.6560
30
0.0
0
VERTEX
8
PATTERN
10
72.0035
20
49.7678
30
0.0
0
VERTEX
8
PATTERN
10
71.2803
20
48.8109
30
0.0
0
VERTEX
8
PATTERN
10
70.6157
20
47.8120
30
0.0
0
VERTEX
8
PATTERN
10
69.9666
20
46.8028
30
0.0
0
VERTEX
8
PATTERN
10
69.2866
20
45.8143
30
0.0
0
VERTEX
8
PATTERN
10
68.5451
20
44.8714
30
0.0
0
VERTEX
8
PATTERN
10
67.7394
20
43.9825
30
0.0
0
VERTEX
8
PATTERN
10
66.8909
20
43.1341
30
0.0
0
VERTEX
8
PATTERN
10
66.0310
20
42.2973
30
0.0
0
VERTEX
8
PATTERN
10
65.1886
20
41.4430
30
0.0
0
VERTEX
8
PATTERN
10
64.3839
20
40.5530
30
0.0
0
VERTEX
8
PATTERN
10
63.6254
20
39.6234
30
0.0
0
VERTEX
8
PATTERN
10
62.9091
20
38.6609
30
0.0
0
VERTEX
8
PATTERN
10
62.2206
20
37.6782
30
0.0
0
VERTEX
8
PATTERN
10
61.5358
20
36.6930
30
0.0
0
VERTEX
8
PATTERN
10
60.8180
20
35.7316
30
0.0
0
VERTEX
8
PATTERN
10
60.0209
20
34.8357
30
0.0
0
VERTEX
8
PATTERN
10
59.1073
20
34.0600
30
0.0
0
VERTEX
8
PATTERN
10
58.0821
20
33.4385
30
0.0
0
VERTEX
8
PATTERN
10
56.9934
20
32.9345
30
0.0
0
VERTEX
8
PATTERN
10
55.8951
20
32.4516
30
0.0
0
VERTEX
8
PATTERN
10
54.8316
20
31.8972
30
0.0
0
VERTEX
8
PATTERN
10
53.8432
20
31.2186
30
0.0
0
VERTEX
8
PATTERN
10
52.9561
20
30.4120
30
0.0
0
VERTEX
8
PATTERN
10
52.1729
20
29.5038
30
0.0
0
VERTEX
8
PATTERN
10
51.4776
20
28.5263
30
0.0
0
VERTEX
8
PATTERN
10
50.8376
20
27.5114
30
0.0
0
VERTEX
8
PATTERN
10
50.2008
20
26.4945
30
0.0
0
VERTEX
8
PATTERN
10
49.4911
20
25.5278
30
0.0
0
VERTEX
8
PATTERN
10
48.6177
20
24.7096
30
0.0
0
VERTEX
8
PATTERN
10
47.5466
20
24.1815
30
0.0
0
VERTEX
8
PATTERN
10
46.3637
20
24.0055
30
0.0
0
VERTEX
8
PATTERN
10
45.1677
20
24.0860
30
0.0
0
VERTEX
8
PATTERN
10
43.9858
20
24.2921
30
0.0
0
VERTEX
8
PATTERN
10
42.8116
20
24.5388
30
0.0
0
VERTEX
8
PATTERN
10
41.6353
20
24.7755
30
0.0
0
VERTEX
8
PATTERN
10
40.4503
20
24.9627
30
0.0
0
VERTEX
8
PATTERN
10
39.2542
20
25.0482
30
0.0
0
VERTEX
8
PATTERN
10
38.0593
20
24.9598
30
0.0
0
VERTEX
8
PATTERN
10
36.9053
20
24.6398
30
0.0
0
VERTEX
8
PATTERN
10
35.8343
20
24.1022
30
0.0
0
VERTEX
8
PATTERN
10
34.8468
20
23.4217
30
0.0
0
VERTEX
8
PATTERN
10
33.9303
20
22.6480
30
0.0
0
VERTEX
8
PATTERN
10
33.1087
20
21.7751
30
0.0
0
VERTEX
8
PATTERN
10
32.4880
20
20.7534
30
0.0
0
VERTEX
8
PATTERN
10
32.2888
20
19.5811
30
0.0
0
VERTEX
8
PATTERN
10
32.6013
20
18.4309
30
0.0
0
VERTEX
8
PATTERN
10
33.2462
20
17.4226
30
0.0
0
VERTEX
8
PATTERN
10
34.0775
20
16.5595
30
0.0
0
VERTEX
8
PATTERN
10
35.0506
20
15.8616
30
0.0
0
VERTEX
8
PATTERN
10
36.1770
20
15.4741
30
0.0
0
VERTEX
8
PATTERN
10
37.3055
20
15.7800
30
0.0
0
VERTEX
8
PATTERN
10
37.9820
20
16.7549
30
0.0
0
VERTEX
8
PATTERN
10
38.3409
20
17.8988
30
0.0
0
VERTEX
8
PATTERN
10
38.7135
20
19.0380
30
0.0
0
VERTEX
8
PATTERN
10
39.4170
20
19.9941
30
0.0
0
VERTEX
8
PATTERN
10
40.5232
20
20.4163
30
0.0
0
VERTEX
8
PATTERN
10
41.7180
20
20.3637
30
0.0
0
VERTEX
8
PATTERN
10
42.8876
20
20.0985
30
0.0
0
VERTEX
8
PATTERN
10
44.0417
20
19.7701
30
0.0
0
VERTEX
8
PATTERN
10
45.2029
20
19.4686
30
0.0
0
VERTEX
8
PATTERN
10
46.3851
20
19.2678
30
0.0
0
VERTEX
8
PATTERN
10
47.5831
20
19.2367
30
0.0
0
VERTEX
8
PATTERN
10
48.7667
20
19.4219
30
0.0
0
VERTEX
8
PATTERN
10
49.8971
20
19.8193
30
0.0
0
VERTEX
8
PATTERN
10
50.9463
20
20.3987
30
0.0
0
VERTEX
8
PATTERN
10
51.8880
20
21.1400
30
0.0
0
VERTEX
8
PATTERN
10
52.6932
20
22.0277
30
0.0
0
VERTEX
8
PATTERN
10
53.3505
20
23.0303
30
0.0
0
VERTEX
8
PATTERN
10
53.8890
20
24.1021
30
0.0
0
VERTEX
8
PATTERN
10
54.3794
20
25.1972
30
0.0
0
VERTEX
8
PATTERN
10
54.9193
20
26.2681
30
0.0
0
VERTEX
8
PATTERN
10
55.6209
20
27.2380
30
0.0
0
VERTEX
8
PATTERN
10
56.5929
20
27.9245
30
0.0
0
VERTEX
8
PATTERN
10
57.7649
20
27.9685
30
0.0
0
VERTEX
8
PATTERN
10
58.6306
20
27.1812
30
0.0
0
VERTEX
8
PATTERN
10
58.9033
20
26.0230
30
0.0
0
VERTEX
8
PATTERN
10
58.7975
20
24.8301
30
0.0
0
VERTEX
8
PATTERN
10
58.5082
20
23.6661
30
0.0
0
VERTEX
8
PATTERN
10
58.1303
20
22.5274
30
0.0
0
VERTEX
8
PATTERN
10
57.6967
20
21.4087
30
0.0
0
VERTEX
8
PATTERN
10
57.1905
20
20.3213
30
0.0
0
VERTEX
8
PATTERN
10
56.5660
20
19.2979
30
0.0
0
VERTEX
8
PATTERN
10
55.7903
20
18.3844
30
0.0
0
VERTEX
8
PATTERN
10
54.8811
20
17.6031
30
0.0
0
VERTEX
8
PATTERN
10
53.8912
20
16.9256
30
0.0
0
VERTEX
8
PATTERN
10
52.8639
20
16.3059
30
0.0
0
VERTEX
8
PATTERN
10
51.8203
20
15.7138
30
0.0
0
VERTEX
8
PATTERN
10
50.7604
20
15.1515
30
0.0
0
VERTEX
8
PATTERN
10
49.6674
20
14.6572
30
0.0
0
VERTEX
8
PATTERN
10
48.5217
20
14.3051
30
0.0
0
VERTEX
8
PATTERN
10
47.3323
20
14.1607
30
0.0
0
VERTEX
8
PATTERN
10
46.1335
20
14.2010
30
0.0
0
VERTEX
8
PATTERN
10
44.9357
20
14.2623
30
0.0
0
VERTEX
8
PATTERN
10
43.7585
20
14.0688
30
0.0
0
VERTEX
8
PATTERN
10
42.8569
20
13.3123
30
0.0
0
VERTEX
8
PATTERN
10
42.6602
20
12.1514
30
0.0
0
VERTEX
8
PATTERN
10
43.1267
20
11.0574
30
0.0
0
VERTEX
8
PATTERN
10
43.9524
20
10.1924
30
0.0
0
VERTEX
8
PATTERN
10
44.9552
20
9.5370
30
0.0
0
VERTEX
8
PATTERN
10
46.0616
20
9.0773
30
0.0
0
VERTEX
8
PATTERN
10
47.2383
20
8.8566
30
0.0
0
VERTEX
8
PATTERN
10
48.4326
20
8.9282
30
0.0
0
VERTEX
8
PATTERN
10
49.5752
20
9.2865
30
0.0
0
VERTEX
8
PATTERN
10
50.6427
20
9.8326
30
0.0
0
VERTEX
8
PATTERN
10
51.6606
20
10.4676
30
0.0
0
VERTEX
8
PATTERN
10
52.6661
20
11.1225
30
0.0
0
VERTEX
8
PATTERN
10
53.6871
20
11.7525
30
0.0
0
VERTEX
8
PATTERN
10
54.7453
20
12.3174
30
0.0
0
VERTEX
8
PATTERN
10
55.8628
20
12.7501
30
0.0
0
VERTEX
8
PATTERN
10
57.0468
20
12.9061
30
0.0
0
VERTEX
8
PATTERN
10
58.1832
20
12.5648
30
0.0
0
VERTEX
8
PATTERN
10
59.0058
20
11.7085
30
0.0
0
VERTEX
8
PATTERN
10
59.3668
20
10.5745
30
0.0
0
VERTEX
8
PATTERN
10
59.1798
20
9.4025
30
0.0
0
VERTEX
8
PATTERN
10
58.4262
20
8.4869
30
0.0
0
VERTEX
8
PATTERN
10
57.3683
20
7.9286
30
0.0
0
VERTEX
8
PATTERN
10
56.2458
20
7.5049
30
0.0
0
VERTEX
8
PATTERN
10
55.1809
20
6.9589
30
0.0
0
VERTEX
8
PATTERN
10
54.4557
20
6.0328
30
0.0
0
VERTEX
8
PATTERN
10
54.6876
20
4.8965
30
0.0
0
VERTEX
8
PATTERN
10
55.5613
20
4.0858
30
0.0
0
VERTEX
8
PATTERN
10
56.6293
20
3.5433
30
0.0
0
VERTEX
8
PATTERN
10
57.7722
20
3.1816
30
0.0
0
VERTEX
8
PATTERN
10
58.9569
20
3.0018
30
0.0
0
VERTEX
8
PATTERN
10
60.1515
20
3.0699
30
0.0
0
VERTEX
8
PATTERN
10
61.2756
20
3.4736
30
0.0
0
VERTEX
8
PATTERN
10
62.2193
20
4.2067
30
0.0
0
VERTEX
8
PATTERN
10
62.9426
20
5.1608
30
0.0
0
VERTEX
8
PATTERN
10
63.4791
20
6.2326
30
0.0
0
VERTEX
8
PATTERN
10
63.8632
20
7.3685
30
0.0
0
VERTEX
8
PATTERN
10
64.1091
20
8.5422
30
0.0
0
VERTEX
8
PATTERN
10
64.2097
20
9.7370
30
0.0
0
VERTEX
8
PATTERN
10
64.1491
20
10.9343
30
0.0
0
VERTEX
8
PATTERN
10
63.9235
20
12.1118
30
0.0
0
VERTEX
8
PATTERN
10
63.5575
20
13.2539
30
0.0
0
VERTEX
8
PATTERN
10
63.1031
20
14.3643
30
0.0
0
VERTEX
8
PATTERN
10
62.6318
20
15.4678
30
0.0
0
VERTEX
8
PATTERN
10
62.2263
20
16.5965
30
0.0
0
VERTEX
8
PATTERN
10
61.9653
20
17.7663
30
0.0
0
VERTEX
8
PATTERN
10
61.8890
20
18.9626
30
0.0
0
VERTEX
8
PATTERN
10
61.9767
20
20.1587
30
0.0
0
VERTEX
8
PATTERN
10
62.1644
20
21.3436
30
0.0
0
VERTEX
8
PATTERN
10
62.3906
20
22.5220
30
0.0
0
VERTEX
8
PATTERN
10
62.6078
20
23.7021
30
0.0
0
VERTEX
8
PATTERN
10
62.7869
20
24.8884
30
0.0
0
VERTEX
8
PATTERN
10
62.9187
20
26.0810
30
0.0
0
VERTEX
8
PATTERN
10
63.0162
20
27.2769
30
0.0
0
VERTEX
8
PATTERN
10
63.1136
20
28.4728
30
0.0
0
VERTEX
8
PATTERN
10
63.2598
20
29.6635
30
0.0
0
VERTEX
8
PATTERN
10
63.5039
20
30.8378
30
0.0
0
VERTEX
8
PATTERN
10
63.8726
20
31.9790
30
0.0
0
VERTEX
8
PATTERN
10
64.3589
20
33.0754
30
0.0
0
VERTEX
8
PATTERN
10
64.9320
20
34.1293
30
0.0
0
VERTEX
8
PATTERN
10
65.5626
20
35.1500
30
0.0
0
VERTEX
8
PATTERN
10
66.2357
20
36.1432
30
0.0
0
VERTEX
8
PATTERN
10
66.9562
20
37.1025
30
0.0
0
VERTEX
8
PATTERN
10
67.7465
20
38.0047
30
0.0
0
VERTEX
8
PATTERN
10
68.6403
20
38.8034
30
0.0
0
VERTEX
8
PATTERN
10
69.6651
20
39.4229
30
0.0
0
VERTEX
8
PATTERN
10
70.8083
20
39.7759
30
0.0
0
VERTEX
8
PATTERN
10
72.0038
20
39.8390
30
0.0
0
VERTEX
8
PATTERN
10
73.1906
20
39.6707
30
0.0
0
VERTEX
8
PATTERN
10
74.3460
20
39.3496
30
0.0
0
VERTEX
8
PATTERN
10
75.4625
20
38.9115
30
0.0
0
VERTEX
8
PATTERN
10
76.5175
20
38.3422
30
0.0
0
VERTEX
8
PATTERN
10
77.4531
20
37.5950
30
0.0
0
VERTEX
8
PATTERN
10
78.1824
20
36.6468
30
0.0
0
VERTEX
8
PATTERN
10
78.6492
20
35.5446
30
0.0
0
VERTEX
8
PATTERN
10
78.8863
20
34.3701
30
0.0
0
VERTEX
8
PATTERN
10
78.9466
20
33.1725
30
0.0
0
VERTEX
8
PATTERN
10
78.8613
20
31.9764
30
0.0
0
VERTEX
8
PATTERN
10
78.6342
20
30.7990
30
0.0
0
VERTEX
8
PATTERN
10
78.2669
20
29.6575
30
0.0
0
VERTEX
8
PATTERN
10
77.7886
20
28.5574
30
0.0
0
VERTEX
8
PATTERN
10
77.2619
20
27.4793
30
0.0
0
VERTEX
8
PATTERN
10
76.7630
20
26.3882
30
0.0
0
VERTEX
8
PATTERN
10
76.3511
20
25.2617
30
0.0
0
VERTEX
8
PATTERN
10
76.0459
20
24.1018
30
0.0
0
VERTEX
8
PATTERN
10
75.8434
20
22.9195
30
0.0
0
VERTEX
8
PATTERN
10
75.7566
20
21.7234
30
0.0
0
VERTEX
8
PATTERN
10
75.8559
20
20.5298
30
0.0
0
VERTEX
8
PATTERN
10
76.2448
20
19.3995
30
0.0
0
VERTEX
8
PATTERN
10
76.9144
20
18.4068
30
0.0
0
VERTEX
8
PATTERN
10
77.6808
20
17.4838
30
0.0
0
VERTEX
8
PATTERN
10
78.2837
20
16.4530
30
0.0
0
VERTEX
8
PATTERN
10
78.3129
20
15.2757
30
0.0
0
VERTEX
8
PATTERN
10
77.5677
20
14.3663
30
0.0
0
VERTEX
8
PATTERN
10
76.4326
20
14.0145
30
0.0
0
VERTEX
8
PATTERN
10
75.2420
20
14.1142
30
0.0
0
VERTEX
8
PATTERN
10
74.1236
20
14.5390
30
0.0
0
VERTEX
8
PATTERN
10
73.1418
20
15.2236
30
0.0
0
VERTEX
8
PATTERN
10
72.3405
20
16.1133
30
0.0
0
VERTEX
8
PATTERN
10
71.7371
20
17.1481
30
0.0
0
VERTEX
8
PATTERN
10
71.3356
20
18.2770
30
0.0
0
VERTEX
8
PATTERN
10
71.1344
20
19.4585
30
0.0
0
VERTEX
8
PATTERN
10
71.1049
20
20.6573
30
0.0
0
VERTEX
8
PATTERN
10
71.1910
20
21.8538
30
0.0
0
VERTEX
8
PATTERN
10
71.3317
20
23.0453
30
0.0
0
VERTEX
8
PATTERN
10
71.4843
20
24.2355
30
0.0
0
VERTEX
8
PATTERN
10
71.6393
20
25.4253
30
0.0
0
VERTEX
8
PATTERN
10
71.8260
20
26.6105
30
0.0
0
VERTEX
8
PATTERN
10
72.1046
20
27.7769
30
0.0
0
VERTEX
8
PATTERN
10
72.5300
20
28.8979
30
0.0
0
VERTEX
8
PATTERN
10
73.0811
20
29.9634
30
0.0
0
VERTEX
8
PATTERN
10
73.6495
20
31.0199
30
0.0
0
VERTEX
8
PATTERN
10
74.0494
20
32.1475
30
0.0
0
VERTEX
8
PATTERN
10
74.0190
20
33.3354
30
0.0
0
VERTEX
8
PATTERN
10
73.3643
20
34.3182
30
0.0
0
VERTEX
8
PATTERN
10
72.2572
20
34.7256
30
0.0
0
VERTEX
8
PATTERN
10
71.1041
20
34.4479
30
0.0
0
VERTEX
8
PATTERN
10
70.1498
20
33.7292
30
0.0
0
VERTEX
8
PATTERN
10
69.3867
20
32.8054
30
0.0
0
VERTEX
8
PATTERN
10
68.7719
20
31.7761
30
0.0
0
VERTEX
8
PATTERN
10
68.2982
20
30.6747
30
0.0
0
VERTEX
8
PATTERN
10
67.9750
20
29.5201
30
0.0
0
VERTEX
8
PATTERN
10
67.7900
20
28.3351
30
0.0
0
VERTEX
8
PATTERN
10
67.6908
20
27.1394
30
0.0
0
VERTEX
8
PATTERN
10
67.6080
20
25.9424
30
0.0
0
VERTEX
8
PATTERN
10
67.4846
20
24.7490
30
0.0
0
VERTEX
8
PATTERN
10
67.2949
20
23.5643
30
0.0
0
VERTEX
8
PATTERN
10
67.0494
20
22.3899
30
0.0
0
VERTEX
8
PATTERN
10
66.7908
20
21.2182
30
0.0
0
VERTEX
8
PATTERN
10
66.5881
20
20.0360
30
0.0
0
VERTEX
8
PATTERN
10
66.5231
20
18.8390
30
0.0
0
VERTEX
8
PATTERN
10
66.6563
20
17.6482
30
0.0
0
VERTEX
8
PATTERN
10
66.9757
20
16.4926
30
0.0
0
VERTEX
8
PATTERN
10
67.4101
20
15.3744
30
0.0
0
VERTEX
8
PATTERN
10
67.8773
20
14.2692
30
0.0
0
VERTEX
8
PATTERN
10
68.3006
20
13.1467
30
0.0
0
VERTEX
8
PATTERN
10
68.6118
20
11.9886
30
0.0
0
VERTEX
8
PATTERN
10
68.7677
20
10.7999
30
0.0
0
VERTEX
8
PATTERN
10
68.7702
20
9.6007
30
0.0
0
VERTEX
8
PATTERN
10
68.6519
20
8.4071
30
0.0
0
VERTEX
8
PATTERN
10
68.4496
20
7.2246
30
0.0
0
VERTEX
8
PATTERN
10
68.1914
20
6.0529
30
0.0
0
VERTEX
8
PATTERN
10
67.9087
20
4.8868
30
0.0
0
VERTEX
8
PATTERN
10
67.6592
20
3.7133
30
0.0
0
VERTEX
8
PATTERN
10
67.5542
20
2.5199
30
0.0
0
VERTEX
8
PATTERN
10
67.7807
20
1.3492
30
0.0
0
VERTEX
8
PATTERN
10
68.5100
20
0.4157
30
0.0
0
VERTEX
8
PATTERN
10
69.6194
20
0.0000
30
0.0
0
VERTEX
8
PATTERN
10
70.7899
20
0.1979
30
0.0
0
VERTEX
8
PATTERN
10
71.7465
20
0.9053
30
0.0
0
VERTEX
8
PATTERN
10
72.3716
20
1.9228
30
0.0
0
VERTEX
8
PATTERN
10
72.7113
20
3.0713
30
0.0
0
VERTEX
8
PATTERN
10
72.8786
20
4.2591
30
0.0
0
VERTEX
8
PATTERN
10
73.0031
20
5.4525
30
0.0
0
VERTEX
8
PATTERN
10
73.2190
20
6.6316
30
0.0
0
VERTEX
8
PATTERN
10
73.6887
20
7.7303
30
0.0
0
VERTEX
8
PATTERN
10
74.5418
20
8.5575
30
0.0
0
VERTEX
8
PATTERN
10
75.6875
20
8.8641
30
0.0
0
VERTEX
8
PATTERN
10
76.8328
20
8.5588
30
0.0
0
VERTEX
8
PATTERN
10
77.6664
20
7.7151
30
0.0
0
VERTEX
8
PATTERN
10
78.0495
20
6.5855
30
0.0
0
VERTEX
8
PATTERN
10
78.1068
20
5.3889
30
0.0
0
VERTEX
8
PATTERN
10
78.0317
20
4.1914
30
0.0
0
VERTEX
8
PATTERN
10
77.9956
20
2.9926
30
0.0
0
VERTEX
8
PATTERN
10
78.1685
20
1.8084
30
0.0
0
VERTEX
8
PATTERN
10
78.7307
20
0.7597
30
0.0
0
VERTEX
8
PATTERN
10
79.7354
20
0.1390
30
0.0
0
VERTEX
8
PATTERN
10
80.9105
20
0.2380
30
0.0
0
VERTEX
8
PATTERN
10
81.8362
20
0.9802
30
0.0
0
VERTEX
8
PATTERN
10
82.3902
20
2.0382
30
0.0
0
VERTEX
8
PATTERN
10
82.6763
20
3.2017
30
0.0
0
VERTEX
8
PATTERN
10
82.8072
20
4.3939
30
0.0
0
VERTEX
8
PATTERN
10
82.8511
20
5.5929
30
0.0
0
VERTEX
8
PATTERN
10
82.8442
20
6.7927
30
0.0
0
VERTEX
8
PATTERN
10
82.8100
20
7.9921
30
0.0
0
VERTEX
8
PATTERN
10
82.7753
20
9.1915
30
0.0
0
VERTEX
8
PATTERN
10
82.7712
20
10.3913
30
0.0
0
VERTEX
8
PATTERN
10
82.8175
20
11.5902
30
0.0
0
VERTEX
8
PATTERN
10
82.9084
20
12.7866
30
0.0
0
VERTEX
8
PATTERN
10
83.0146
20
13.9818
30
0.0
0
VERTEX
8
PATTERN
10
83.0997
20
15.1786
30
0.0
0
VERTEX
8
PATTERN
10
83.1308
20
16.3779
30
0.0
0
VERTEX
8
PATTERN
10
83.0719
20
17.5759
30
0.0
0
VERTEX
8
PATTERN
10
82.8644
20
18.7563
30
0.0
0
VERTEX
8
PATTERN
10
82.4375
20
19.8750
30
0.0
0
VERTEX
8
PATTERN
10
81.7905
20
20.8838
30
0.0
0
VERTEX
8
PATTERN
10
81.0966
20
21.8621
30
0.0
0
VERTEX
8
PATTERN
10
80.6707
20
22.9737
30
0.0
0
VERTEX
8
PATTERN
10
80.8221
20
24.1517
30
0.0
0
VERTEX
8
PATTERN
10
81.3655
20
25.2194
30
0.0
0
VERTEX
8
PATTERN
10
81.9887
20
26.2445
30
0.0
0
VERTEX
8
PATTERN
10
82.5060
20
27.3257
30
0.0
0
VERTEX
8
PATTERN
10
82.8410
20
28.4764
30
0.0
0
VERTEX
8
PATTERN
10
83.0213
20
29.6621
30
0.0
0
VERTEX
8
PATTERN
10
83.1116
20
30.8584
30
0.0
0
VERTEX
8
PATTERN
10
83.1551
20
32.0575
30
0.0
0
VERTEX
8
PATTERN
10
83.1685
20
33.2573
30
0.0
0
VERTEX
8
PATTERN
10
83.1518
20
34.4570
30
0.0
0
VERTEX
8
PATTERN
10
83.1006
20
35.6558
30
0.0
0
VERTEX
8
PATTERN
10
83.0193
20
36.8529
30
0.0
0
VERTEX
8
PATTERN
10
82.9295
20
38.0494
30
0.0
0
VERTEX
8
PATTERN
10
82.8683
20
39.2477
30
0.0
0
VERTEX
8
PATTERN
10
82.8697
20
40.4474
30
0.0
0
VERTEX
8
PATTERN
10
82.9343
20
41.6455
30
0.0
0
VERTEX
8
PATTERN
10
83.0105
20
42.8429
30
0.0
0
VERTEX
8
PATTERN
10
82.9923
20
44.0416
30
0.0
0
VERTEX
8
PATTERN
10
82.6581
20
45.1834
30
0.0
0
VERTEX
8
PATTERN
10
81.6703
20
45.7555
30
0.0
0
VERTEX
8
PATTERN
10
80.5538
20
45.3600
30
0.0
0
VERTEX
8
PATTERN
10
79.6029
20
44.6300
30
0.0
0
VERTEX
8
PATTERN
10
78.6697
20
43.8767
30
0.0
0
VERTEX
8
PATTERN
10
77.6108
20
43.3238
30
0.0
0
VERTEX
8
PATTERN
10
76.4260
20
43.2340
30
0.0
0
VERTEX
8
PATTERN
10
75.3449
20
43.7222
30
0.0
0
VERTEX
8
PATTERN
10
74.6776
20
44.6981
30
0.0
0
VERTEX
8
PATTERN
10
74.6379
20
45.8833
30
0.0
0
VERTEX
8
PATTERN
10
75.0982
20
46.9857
30
0.0
0
VERTEX
8
PATTERN
10
75.8243
20
47.9384
30
0.0
0
VERTEX
8
PATTERN
10
76.6941
20
48.7636
30
0.0
0
VERTEX
8
PATTERN
10
77.6552
20
49.4809
30
0.0
0
VERTEX
8
PATTERN
10
78.6801
20
50.1041
30
0.0
0
VERTEX
8
PATTERN
10
79.7419
20
50.6628
30
0.0
0
VERTEX
8
PATTERN
10
80.8014
20
51.2257
30
0.0
0
VERTEX
8
PATTERN
10
81.7858
20
51.9086
30
0.0
0
VERTEX
8
PATTERN
10
82.5466
20
52.8293
30
0.0
0
VERTEX
8
PATTERN
10
82.9752
20
53.9459
30
0.0
0
VERTEX
8
PATTERN
10
83.1590
20
55.1306
30
0.0
0
VERTEX
8
PATTERN
10
83.2310
20
56.3282
30
0.0
0
VERTEX
8
PATTERN
10
83.2759
20
57.5273
30
0.0
0
VERTEX
8
PATTERN
10
83.3485
20
58.7249
30
0.0
0
VERTEX
8
PATTERN
10
83.4915
20
59.9159
30
0.0
0
VERTEX
8
PATTERN
10
83.7387
20
61.0896
30
0.0
0
VERTEX
8
PATTERN
10
84.1091
20
62.2302
30
0.0
0
VERTEX
8
PATTERN
10
84.6012
20
63.3239
30
0.0
0
VERTEX
8
PATTERN
10
85.1928
20
64.3674
30
0.0
0
VERTEX
8
PATTERN
10
85.8467
20
65.3734
30
0.0
0
VERTEX
8
PATTERN
10
86.5114
20
66.3723
30
0.0
0
VERTEX
8
PATTERN
10
87.1145
20
67.4090
30
0.0
0
VERTEX
8
PATTERN
10
87.5606
20
68.5211
30
0.0
0
VERTEX
8
PATTERN
10
87.7676
20
69.7007
30
0.0
0
VERTEX
8
PATTERN
10
87.7614
20
70.8996
30
0.0
0
VERTEX
8
PATTERN
10
87.6588
20
72.0950
30
0.0
0
VERTEX
8
PATTERN
10
87.6231
20
73.2933
30
0.0
0
VERTEX
8
PATTERN
10
87.8748
20
74.4593
30
0.0
0
VERTEX
8
PATTERN
10
88.6709
20
75.3238
30
0.0
0
VERTEX
8
PATTERN
10
89.8375
20
75.3935
30
0.0
0
VERTEX
8
PATTERN
10
90.8078
20
74.7127
30
0.0
0
VERTEX
8
PATTERN
10
91.4655
20
73.7127
30
0.0
0
VERTEX
8
PATTERN
10
91.9854
20
72.6315
30
0.0
0
VERTEX
8
PATTERN
10
92.5346
20
71.5651
30
0.0
0
VERTEX
8
PATTERN
10
93.2232
20
70.5843
30
0.0
0
VERTEX
8
PATTERN
10
94.0861
20
69.7534
30
0.0
0
VERTEX
8
PATTERN
10
95.0739
20
69.0739
30
0.0
0
VERTEX
8
PATTERN
10
96.1166
20
68.4804
30
0.0
0
VERTEX
8
PATTERN
10
97.1620
20
67.8914
30
0.0
0
VERTEX
8
PATTERN
10
98.1699
20
67.2412
30
0.0
0
VERTEX
8
PATTERN
10
99.1046
20
66.4899
30
0.0
0
VERTEX
8
PATTERN
10
99.9363
20
65.6262
30
0.0
0
VERTEX
8
PATTERN
10
100.6497
20
64.6625
30
0.0
0
VERTEX
8
PATTERN
10
101.2441
20
63.6209
30
0.0
0
VERTEX
8
PATTERN
10
101.7270
20
62.5231
30
0.0
0
VERTEX
8
PATTERN
10
102.1052
20
61.3848
30
0.0
0
VERTEX
8
PATTERN
10
102.3802
20
60.2173
30
0.0
0
VERTEX
8
PATTERN
10
102.5514
20
59.0301
30
0.0
0
VERTEX
8
PATTERN
10
102.6247
20
57.8327
30
0.0
0
VERTEX
8
PATTERN
10
102.6235
20
56.6329
30
0.0
0
VERTEX
8
PATTERN
10
102.5979
20
55.4333
30
0.0
0
VERTEX
8
PATTERN
10
102.6358
20
54.2346
30
0.0
0
VERTEX
8
PATTERN
10
102.9038
20
53.0702
30
0.0
0
VERTEX
8
PATTERN
10
103.7511
20
52.2899
30
0.0
0
VERTEX
8
PATTERN
10
104.8454
20
52.6756
30
0.0
0
VERTEX
8
PATTERN
10
105.5866
20
53.6120
30
0.0
0
VERTEX
8
PATTERN
10
106.0841
20
54.7021
30
0.0
0
VERTEX
8
PATTERN
10
106.4218
20
55.8527
30
0.0
0
VERTEX
8
PATTERN
10
106.6296
20
57.0339
30
0.0
0
VERTEX
8
PATTERN
10
106.7185
20
58.2301
30
0.0
0
VERTEX
8
PATTERN
10
106.7019
20
59.4295
30
0.0
0
VERTEX
8
PATTERN
10
106.5988
20
60.6247
30
0.0
0
VERTEX
8
PATTERN
10
106.4214
20
61.8112
30
0.0
0
VERTEX
8
PATTERN
10
106.1675
20
62.9837
30
0.0
0
VERTEX
8
PATTERN
10
105.8259
20
64.1336
30
0.0
0
VERTEX
8
PATTERN
10
105.3889
20
65.2506
30
0.0
0
VERTEX
8
PATTERN
10
104.8582
20
66.3263
30
0.0
0
VERTEX
8
PATTERN
10
104.2383
20
67.3532
30
0.0
0
VERTEX
8
PATTERN
10
103.5291
20
68.3205
30
0.0
0
VERTEX
8
PATTERN
10
102.7288
20
69.2139
30
0.0
0
VERTEX
8
PATTERN
10
101.8421
20
70.0216
30
0.0
0
VERTEX
8
PATTERN
10
100.8866
20
70.7468
30
0.0
0
VERTEX
8
PATTERN
10
99.8870
20
71.4104
30
0.0
0
VERTEX
8
PATTERN
10
98.8738
20
72.0532
30
0.0
0
VERTEX
8
PATTERN
10
97.8926
20
72.7430
30
0.0
0
VERTEX
8
PATTERN
10
97.0438
20
73.5862
30
0.0
0
VERTEX
8
PATTERN
10
96.6178
20
74.6881
30
0.0
0
VERTEX
8
PATTERN
10
97.0827
20
75.7532
30
0.0
0
VERTEX
8
PATTERN
10
98.1565
20
76.2480
30
0.0
0
VERTEX
8
PATTERN
10
99.3485
20
76.2097
30
0.0
0
VERTEX
8
PATTERN
10
100.4834
20
75.8287
30
0.0
0
VERTEX
8
PATTERN
10
101.5440
20
75.2690
30
0.0
0
VERTEX
8
PATTERN
10
102.5643
20
74.6377
30
0.0
0
VERTEX
8
PATTERN
10
103.5714
20
73.9854
30
0.0
0
VERTEX
8
PATTERN
10
104.5658
20
73.3140
30
0.0
0
VERTEX
8
PATTERN
10
105.5187
20
72.5854
30
0.0
0
VERTEX
8
PATTERN
10
106.3780
20
71.7495
30
0.0
0
VERTEX
8
PATTERN
10
107.0996
20
70.7923
30
0.0
0
VERTEX
8
PATTERN
10
107.6955
20
69.7513
30
0.0
0
VERTEX
8
PATTERN
10
108.2259
20
68.6751
30
0.0
0
VERTEX
8
PATTERN
10
108.7361
20
67.5891
30
0.0
0
VERTEX
8
PATTERN
10
109.2324
20
66.4967
30
0.0
0
VERTEX
8
PATTERN
10
109.6918
20
65.3883
30
0.0
0
VERTEX
8
PATTERN
10
110.0895
20
64.2565
30
0.0
0
VERTEX
8
PATTERN
10
110.4202
20
63.1032
30
0.0
0
VERTEX
8
PATTERN
10
110.6981
20
61.9360
30
0.0
0
VERTEX
8
PATTERN
10
110.9373
20
60.7602
30
0.0
0
VERTEX
8
PATTERN
10
111.1316
20
59.5763
30
0.0
0
VERTEX
8
PATTERN
10
111.2501
20
58.3826
30
0.0
0
VERTEX
8
PATTERN
10
111.2537
20
57.1834
30
0.0
0
VERTEX
8
PATTERN
10
111.1278
20
55.9907
30
0.0
0
VERTEX
8
PATTERN
10
110.9008
20
54.8127
30
0.0
0
VERTEX
8
PATTERN
10
110.6287
20
53.6441
30
0.0
0
VERTEX
8
PATTERN
10
110.3757
20
52.4713
30
0.0
0
VERTEX
8
PATTERN
10
110.2060
20
51.2839
30
0.0
0
VERTEX
8
PATTERN
10
110.1740
20
50.0854
30
0.0
0
VERTEX
8
PATTERN
10
110.2969
20
48.8926
30
0.0
0
VERTEX
8
PATTERN
10
110.5353
20
47.7170
30
0.0
0
VERTEX
8
PATTERN
10
110.8131
20
46.5497
30
0.0
0
VERTEX
8
PATTERN
10
111.0526
20
45.3741
30
0.0
0
VERTEX
8
PATTERN
10
111.2071
20
44.1845
30
0.0
0
VERTEX
8
PATTERN
10
111.2750
20
42.9867
30
0.0
0
VERTEX
8
PATTERN
10
111.2907
20
41.7870
30
0.0
0
VERTEX
8
PATTERN
10
111.2993
20
40.5871
30
0.0
0
VERTEX
8
PATTERN
10
111.3381
20
39.3879
30
0.0
0
VERTEX
8
PATTERN
10
111.4280
20
38.1915
30
0.0
0
VERTEX
8
PATTERN
10
111.5654
20
36.9996
30
0.0
0
VERTEX
8
PATTERN
10
111.7119
20
35.8087
30
0.0
0
VERTEX
8
PATTERN
10
111.7744
20
34.6114
30
0.0
0
VERTEX
8
PATTERN
10
111.5771
20
33.4339
30
0.0
0
VERTEX
8
PATTERN
10
110.8852
20
32.4754
30
0.0
0
VERTEX
8
PATTERN
10
109.7695
20
32.0892
30
0.0
0
VERTEX
8
PATTERN
10
108.6288
20
32.3977
30
0.0
0
VERTEX
8
PATTERN
10
107.8315
20
33.2769
30
0.0
0
VERTEX
8
PATTERN
10
107.4242
20
34.4013
30
0.0
0
VERTEX
8
PATTERN
10
107.2337
20
35.5851
30
0.0
0
VERTEX
8
PATTERN
10
107.1369
20
36.7810
30
0.0
0
VERTEX
8
PATTERN
10
107.0751
20
37.9793
30
0.0
0
VERTEX
8
PATTERN
10
107.0273
20
39.1782
30
0.0
0
VERTEX
8
PATTERN
10
106.9862
20
40.3774
30
0.0
0
VERTEX
8
PATTERN
10
106.9379
20
41.5764
30
0.0
0
VERTEX
8
PATTERN
10
106.8481
20
42.7727
30
0.0
0
VERTEX
8
PATTERN
10
106.6551
20
43.9562
30
0.0
0
VERTEX
8
PATTERN
10
106.2626
20
45.0871
30
0.0
0
VERTEX
8
PATTERN
10
105.5395
20
46.0329
30
0.0
0
VERTEX
8
PATTERN
10
104.4365
20
46.4265
30
0.0
0
VERTEX
8
PATTERN
10
103.4296
20
45.8455
30
0.0
0
VERTEX
8
PATTERN
10
102.9504
20
44.7552
30
0.0
0
VERTEX
8
PATTERN
10
102.7807
20
43.5688
30
0.0
0
VERTEX
8
PATTERN
10
102.7401
20
42.3698
30
0.0
0
VERTEX
8
PATTERN
10
102.7469
20
41.1699
30
0.0
0
VERTEX
8
PATTERN
10
102.7651
20
39.9702
30
0.0
0
VERTEX
8
PATTERN
10
102.7834
20
38.7704
30
0.0
0
VERTEX
8
PATTERN
10
102.8016
20
37.5707
30
0.0
0
VERTEX
8
PATTERN
10
102.8243
20
36.3710
30
0.0
0
VERTEX
8
PATTERN
10
102.8575
20
35.1716
30
0.0
0
VERTEX
8
PATTERN
10
102.9045
20
33.9726
30
0.0
0
VERTEX
8
PATTERN
10
102.9603
20
32.7740
30
0.0
0
VERTEX
8
PATTERN
10
103.0082
20
31.5751
30
0.0
0
VERTEX
8
PATTERN
10
103.0249
20
30.3753
30
0.0
0
VERTEX
8
PATTERN
10
102.9952
20
29.1759
30
0.0
0
VERTEX
8
PATTERN
10
102.9272
20
27.9779
30
0.0
0
VERTEX
8
PATTERN
10
102.8515
20
26.7804
30
0.0
0
VERTEX
8
PATTERN
10
102.8029
20
25.5816
30
0.0
0
VERTEX
8
PATTERN
10
102.7990
20
24.3818
30
0.0
0
VERTEX
8
PATTERN
10
102.8320
20
23.1824
30
0.0
0
VERTEX
8
PATTERN
10
102.8798
20
21.9834
30
0.0
0
VERTEX
8
PATTERN
10
102.9273
20
20.7845
30
0.0
0
VERTEX
8
PATTERN
10
102.9866
20
19.5861
30
0.0
0
VERTEX
8
PATTERN
10
103.1090
20
18.3929
30
0.0
0
VERTEX
8
PATTERN
10
103.4003
20
17.2313
30
0.0
0
VERTEX
8
PATTERN
10
104.0370
20
16.2273
30
0.0
0
VERTEX
8
PATTERN
10
105.1350
20
15.8503
30
0.0
0
VERTEX
8
PATTERN
10
106.1579
20
16.4272
30
0.0
0
VERTEX
8
PATTERN
10
106.7721
20
17.4507
30
0.0
0
VERTEX
8
PATTERN
10
107.0907
20
18.6055
30
0.0
0
VERTEX
8
PATTERN
10
107.2260
20
19.7969
30
0.0
0
VERTEX
8
PATTERN
10
107.2481
20
20.9963
30
0.0
0
VERTEX
8
PATTERN
10
107.2174
20
22.1958
30
0.0
0
VERTEX
8
PATTERN
10
107.2050
20
23.3955
30
0.0
0
VERTEX
8
PATTERN
10
107.3152
20
24.5890
30
0.0
0
VERTEX
8
PATTERN
10
107.7177
20
25.7123
30
0.0
0
VERTEX
8
PATTERN
10
108.6142
20
26.4730
30
0.0
0
VERTEX
8
PATTERN
10
109.7736
20
26.3584
30
0.0
0
VERTEX
8
PATTERN
10
110.6115
20
25.5198
30
0.0
0
VERTEX
8
PATTERN
10
111.0885
20
24.4225
30
0.0
0
VERTEX
8
PATTERN
10
111.3575
20
23.2540
30
0.0
0
VERTEX
8
PATTERN
10
111.5171
20
22.0650
30
0.0
0
VERTEX
8
PATTERN
10
111.6075
20
20.8687
30
0.0
0
VERTEX
8
PATTERN
10
111.6359
20
19.6693
30
0.0
0
VERTEX
8
PATTERN
10
111.5926
20
18.4704
30
0.0
0
VERTEX
8
PATTERN
10
111.4621
20
17.2780
30
0.0
0
VERTEX
8
PATTERN
10
111.2271
20
16.1019
30
0.0
0
VERTEX
8
PATTERN
10
110.8692
20
14.9573
30
0.0
0
VERTEX
8
PATTERN
10
110.3753
20
13.8646
30
0.0
0
VERTEX
8
PATTERN
10
109.7535
20
12.8391
30
0.0
0
VERTEX
8
PATTERN
10
109.0474
20
11.8691
30
0.0
0
VERTEX
8
PATTERN
10
108.3335
20
10.9048
30
0.0
0
VERTEX
8
PATTERN
10
107.7327
20
9.8686
30
0.0
0
VERTEX
8
PATTERN
10
107.4525
20
8.7106
30
0.0
0
VERTEX
8
PATTERN
10
107.7687
20
7.5731
30
0.0
0
VERTEX
8
PATTERN
10
108.6918
20
6.8376
30
0.0
0
VERTEX
8
PATTERN
10
109.8709
20
6.6888
30
0.0
0
VERTEX
8
PATTERN
10
111.0207
20
7.0099
30
0.0
0
VERTEX
8
PATTERN
10
112.0340
20
7.6466
30
0.0
0
VERTEX
8
PATTERN
10
112.8838
20
8.4910
30
0.0
0
VERTEX
8
PATTERN
10
113.5795
20
9.4672
30
0.0
0
VERTEX
8
PATTERN
10
114.1426
20
10.5259
30
0.0
0
VERTEX
8
PATTERN
10
114.5985
20
11.6355
30
0.0
0
VERTEX
8
PATTERN
10
114.9692
20
12.7764
30
0.0
0
VERTEX
8
PATTERN
10
115.2721
20
13.9373
30
0.0
0
VERTEX
8
PATTERN
10
115.5195
20
15.1113
30
0.0
0
VERTEX
8
PATTERN
10
115.7180
20
16.2946
30
0.0
0
VERTEX
8
PATTERN
10
115.8665
20
17.4851
30
0.0
0
VERTEX
8
PATTERN
10
115.9573
20
18.6815
30
0.0
0
VERTEX
8
PATTERN
10
115.9825
20
19.8809
30
0.0
0
VERTEX
8
PATTERN
10
115.9433
20
21.0801
30
0.0
0
VERTEX
8
PATTERN
10
115.8540
20
22.2766
30
0.0
0
VERTEX
8
PATTERN
10
115.7366
20
23.4707
30
0.0
0
VERTEX
8
PATTERN
10
115.6151
20
24.6644
30
0.0
0
VERTEX
8
PATTERN
10
115.5181
20
25.8603
30
0.0
0
VERTEX
8
PATTERN
10
115.4839
20
27.0595
30
0.0
0
VERTEX
8
PATTERN
10
115.5540
20
28.2568
30
0.0
0
VERTEX
8
PATTERN
10
115.7450
20
29.4409
30
0.0
0
VERTEX
8
PATTERN
10
116.0212
20
30.6084
30
0.0
0
VERTEX
8
PATTERN
10
116.3015
20
31.7750
30
0.0
0
VERTEX
8
PATTERN
10
116.4934
20
32.9588
30
0.0
0
VERTEX
8
PATTERN
10
116.5316
20
34.1571
30
0.0
0
VERTEX
8
PATTERN
10
116.4135
20
35.3506
30
0.0
0
VERTEX
8
PATTERN
10
116.2011
20
36.5315
30
0.0
0
VERTEX
8
PATTERN
10
115.9716
20
37.7092
30
0.0
0
VERTEX
8
PATTERN
10
115.7917
20
38.8952
30
0.0
0
VERTEX
8
PATTERN
10
115.7172
20
40.0921
30
0.0
0
VERTEX
8
PATTERN
10
115.8058
20
41.2873
30
0.0
0
VERTEX
8
PATTERN
10
116.1279
20
42.4402
30
0.0
0
VERTEX
8
PATTERN
10
116.7245
20
43.4770
30
0.0
0
VERTEX
8
PATTERN
10
117.5403
20
44.3544
30
0.0
0
VERTEX
8
PATTERN
10
118.4476
20
45.1394
30
0.0
0
VERTEX
8
PATTERN
10
119.3143
20
45.9676
30
0.0
0
VERTEX
8
PATTERN
10
119.9210
20
46.9915
30
0.0
0
VERTEX
8
PATTERN
10
119.7736
20
48.1400
30
0.0
0
VERTEX
8
PATTERN
10
118.7849
20
48.7727
30
0.0
0
VERTEX
8
PATTERN
10
117.5962
20
48.9137
30
0.0
0
VERTEX
8
PATTERN
10
116.3977
20
48.9613
30
0.0
0
VERTEX
8
PATTERN
10
115.2480
20
49.2735
30
0.0
0
VERTEX
8
PATTERN
10
114.4526
20
50.1407
30
0.0
0
VERTEX
8
PATTERN
10
114.3063
20
51.3167
30
0.0
0
VERTEX
8
PATTERN
10
114.7053
20
52.4384
30
0.0
0
VERTEX
8
PATTERN
10
115.5162
20
53.3114
30
0.0
0
VERTEX
8
PATTERN
10
116.5927
20
53.8269
30
0.0
0
VERTEX
8
PATTERN
10
117.7750
20
54.0119
30
0.0
0
VERTEX
8
PATTERN
10
118.9721
20
53.9547
30
0.0
0
VERTEX
8
PATTERN
10
120.1469
20
53.7164
30
0.0
0
VERTEX
8
PATTERN
10
121.2750
20
53.3110
30
0.0
0
VERTEX
8
PATTERN
10
122.3247
20
52.7325
30
0.0
0
VERTEX
8
PATTERN
10
123.2590
20
51.9824
30
0.0
0
VERTEX
8
PATTERN
10
124.0445
20
51.0777
30
0.0
0
VERTEX
8
PATTERN
10
124.6535
20
50.0458
30
0.0
0
VERTEX
8
PATTERN
10
125.0622
20
48.9195
30
0.0
0
VERTEX
8
PATTERN
10
125.2539
20
47.7371
30
0.0
0
VERTEX
8
PATTERN
10
125.2083
20
46.5404
30
0.0
0
VERTEX
8
PATTERN
10
124.9050
20
45.3821
30
0.0
0
VERTEX
8
PATTERN
10
124.3595
20
44.3160
30
0.0
0
VERTEX
8
PATTERN
10
123.6291
20
43.3657
30
0.0
0
VERTEX
8
PATTERN
10
122.7901
20
42.5085
30
0.0
0
VERTEX
8
PATTERN
10
121.9241
20
41.6779
30
0.0
0
VERTEX
8
PATTERN
10
121.1358
20
40.7752
30
0.0
0
VERTEX
8
PATTERN
10
120.5967
20
39.7095
30
0.0
0
VERTEX
8
PATTERN
10
120.4391
20
38.5252
30
0.0
0
VERTEX
8
PATTERN
10
120.5661
20
37.3335
30
0.0
0
VERTEX
8
PATTERN
10
120.8003
20
36.1567
30
0.0
0
VERTEX
8
PATTERN
10
121.0048
20
34.9746
30
0.0
0
VERTEX
8
PATTERN
10
121.0813
20
33.7781
30
0.0
0
VERTEX
8
PATTERN
10
120.9875
20
32.5829
30
0.0
0
VERTEX
8
PATTERN
10
120.7566
20
31.4059
30
0.0
0
VERTEX
8
PATTERN
10
120.4668
20
30.2415
30
0.0
0
VERTEX
8
PATTERN
10
120.1956
20
29.0728
30
0.0
0
VERTEX
8
PATTERN
10
120.0020
20
27.8890
30
0.0
0
VERTEX
8
PATTERN
10
119.9152
20
26.6927
30
0.0
0
VERTEX
8
PATTERN
10
119.9293
20
25.4931
30
0.0
0
VERTEX
8
PATTERN
10
120.0142
20
24.2964
30
0.0
0
VERTEX
8
PATTERN
10
120.1324
20
23.1023
30
0.0
0
VERTEX
8
PATTERN
10
120.2492
20
21.9081
30
0.0
0
VERTEX
8
PATTERN
10
120.3353
20
20.7114
30
0.0
0
VERTEX
8
PATTERN
10
120.3692
20
19.5121
30
0.0
0
VERTEX
8
PATTERN
10
120.3399
20
18.3127
30
0.0
0
VERTEX
8
PATTERN
10
120.2495
20
17.1163
30
0.0
0
VERTEX
8
PATTERN
10
120.1098
20
15.9246
30
0.0
0
VERTEX
8
PATTERN
10
119.9355
20
14.7375
30
0.0
0
VERTEX
8
PATTERN
10
119.7423
20
13.5532
30
0.0
0
VERTEX
8
PATTERN
10
119.5550
20
12.3681
30
0.0
0
VERTEX
8
PATTERN
10
119.4220
20
11.1759
30
0.0
0
VERTEX
8
PATTERN
10
119.4295
20
9.9776
30
0.0
0
VERTEX
8
PATTERN
10
119.7072
20
8.8151
30
0.0
0
VERTEX
8
PATTERN
10
120.3559
20
7.8149
30
0.0
0
VERTEX
8
PATTERN
10
121.3175
20
7.1069
30
0.0
0
VERTEX
8
PATTERN
10
122.4368
20
6.6813
30
0.0
0
VERTEX
8
PATTERN
10
123.6119
20
6.4422
30
0.0
0
VERTEX
8
PATTERN
10
124.8033
20
6.3003
30
0.0
0
VERTEX
8
PATTERN
10
125.9981
20
6.1902
30
0.0
0
VERTEX
8
PATTERN
10
127.1924
20
6.0742
30
0.0
0
VERTEX
8
PATTERN
10
128.3849
20
5.9414
30
0.0
0
VERTEX
8
PATTERN
10
129.5773
20
5.8076
30
0.0
0
VERTEX
8
PATTERN
10
130.7733
20
5.7129
30
0.0
0
VERTEX
8
PATTERN
10
131.9724
20
5.7183
30
0.0
0
VERTEX
8
PATTERN
10
133.1561
20
5.9022
30
0.0
0
VERTEX
8
PATTERN
10
134.2566
20
6.3684
30
0.0
0
VERTEX
8
PATTERN
10
135.0867
20
7.2165
30
0.0
0
VERTEX
8
PATTERN
10
135.2549
20
8.3750
30
0.0
0
VERTEX
8
PATTERN
10
134.5889
20
9.3445
30
0.0
0
VERTEX
8
PATTERN
10
133.5198
20
9.8746
30
0.0
0
VERTEX
8
PATTERN
10
132.3484
20
10.1285
30
0.0
0
VERTEX
8
PATTERN
10
131.1563
20
10.2638
30
0.0
0
VERTEX
8
PATTERN
10
129.9615
20
10.3744
30
0.0
0
VERTEX
8
PATTERN
10
128.7705
20
10.5190
30
0.0
0
VERTEX
8
PATTERN
10
127.5943
20
10.7536
30
0.0
0
VERTEX
8
PATTERN
10
126.4683
20
11.1623
30
0.0
0
VERTEX
8
PATTERN
10
125.4941
20
11.8523
30
0.0
0
VERTEX
8
PATTERN
10
124.8447
20
12.8517
30
0.0
0
VERTEX
8
PATTERN
10
124.5631
20
14.0143
30
0.0
0
VERTEX
8
PATTERN
10
124.5249
20
15.2127
30
0.0
0
VERTEX
8
PATTERN
10
124.5955
20
16.4104
30
0.0
0
VERTEX
8
PATTERN
10
124.6886
20
17.6067
30
0.0
0
VERTEX
8
PATTERN
10
124.7485
20
18.8050
30
0.0
0
VERTEX
8
PATTERN
10
124.7456
20
20.0047
30
0.0
0
VERTEX
8
PATTERN
10
124.6767
20
21.2024
30
0.0
0
VERTEX
8
PATTERN
10
124.5606
20
22.3966
30
0.0
0
VERTEX
8
PATTERN
10
124.4293
20
23.5893
30
0.0
0
VERTEX
8
PATTERN
10
124.3209
20
24.7843
30
0.0
0
VERTEX
8
PATTERN
10
124.2771
20
25.9831
30
0.0
0
VERTEX
8
PATTERN
10
124.3392
20
27.1809
30
0.0
0
VERTEX
8
PATTERN
10
124.5357
20
28.3639
30
0.0
0
VERTEX
8
PATTERN
10
124.8623
20
29.5179
30
0.0
0
VERTEX
8
PATTERN
10
125.2743
20
30.6447
30
0.0
0
VERTEX
8
PATTERN
10
125.6905
20
31.7700
30
0.0
0
VERTEX
8
PATTERN
10
125.9965
20
32.9290
30
0.0
0
VERTEX
8
PATTERN
10
126.0756
20
34.1239
30
0.0
0
VERTEX
8
PATTERN
10
125.9112
20
35.3110
30
0.0
0
VERTEX
8
PATTERN
10
125.6338
20
36.4784
30
0.0
0
VERTEX
8
PATTERN
10
125.4503
20
37.6623
30
0.0
0
VERTEX
8
PATTERN
10
125.6686
20
38.8296
30
0.0
0
VERTEX
8
PATTERN
10
126.5218
20
39.6328
30
0.0
0
VERTEX
8
PATTERN
10
127.6967
20
39.6348
30
0.0
0
VERTEX
8
PATTERN
10
128.7024
20
38.9968
30
0.0
0
VERTEX
8
PATTERN
10
129.4913
20
38.0952
30
0.0
0
VERTEX
8
PATTERN
10
130.1794
20
37.1124
30
0.0
0
VERTEX
8
PATTERN
10
130.8690
20
36.1306
30
0.0
0
VERTEX
8
PATTERN
10
131.6274
20
35.2013
30
0.0
0
VERTEX
8
PATTERN
10
132.4763
20
34.3540
30
0.0
0
VERTEX
8
PATTERN
10
133.3907
20
33.5774
30
0.0
0
VERTEX
8
PATTERN
10
134.3271
20
32.8271
30
0.0
0
VERTEX
8
PATTERN
10
135.2390
20
32.0476
30
0.0
0
VERTEX
8
PATTERN
10
136.0742
20
31.1873
30
0.0
0
VERTEX
8
PATTERN
10
136.7646
20
30.2082
30
0.0
0
VERTEX
8
PATTERN
10
137.2364
20
29.1077
30
0.0
0
VERTEX
8
PATTERN
10
137.4692
20
27.9325
30
0.0
0
VERTEX
8
PATTERN
10
137.5328
20
26.7347
30
0.0
0
VERTEX
8
PATTERN
10
137.5398
20
25.5348
30
0.0
0
VERTEX
8
PATTERN
10
137.5626
20
24.3352
30
0.0
0
VERTEX
8
PATTERN
10
137.6039
20
23.1360
30
0.0
0
VERTEX
8
PATTERN
10
137.5852
20
21.9368
30
0.0
0
VERTEX
8
PATTERN
10
137.3279
20
20.7703
30
0.0
0
VERTEX
8
PATTERN
10
136.5434
20
19.8976
30
0.0
0
VERTEX
8
PATTERN
10
135.3759
20
19.8599
30
0.0
0
VERTEX
8
PATTERN
10
134.4167
20
20.5558
30
0.0
0
VERTEX
8
PATTERN
10
133.8141
20
21.5875
30
0.0
0
VERTEX
8
PATTERN
10
133.4655
20
22.7341
30
0.0
0
VERTEX
8
PATTERN
10
133.2579
20
23.9156
30
0.0
0
VERTEX
8
PATTERN
10
133.1096
20
25.1062
30
0.0
0
VERTEX
8
PATTERN
10
132.9421
20
26.2942
30
0.0
0
VERTEX
8
PATTERN
10
132.6526
20
27.4571
30
0.0
0
VERTEX
8
PATTERN
10
132.0848
20
28.5067
30
0.0
0
VERTEX
8
PATTERN
10
131.0873
20
29.1312
30
0.0
0
VERTEX
8
PATTERN
10
129.9473
20
28.8798
30
0.0
0
VERTEX
8
PATTERN
10
129.1871
20
27.9688
30
0.0
0
VERTEX
8
PATTERN
10
128.8212
20
26.8301
30
0.0
0
VERTEX
8
PATTERN
10
128.7054
20
25.6370
30
0.0
0
VERTEX
8
PATTERN
10
128.7309
20
24.4378
30
0.0
0
VERTEX
8
PATTERN
10
128.8284
20
23.2419
30
0.0
0
VERTEX
8
PATTERN
10
128.9510
20
22.0483
30
0.0
0
VERTEX
8
PATTERN
10
129.0682
20
20.8542
30
0.0
0
VERTEX
8
PATTERN
10
129.1714
20
19.6587
30
0.0
0
VERTEX
8
PATTERN
10
129.2877
20
18.4645
30
0.0
0
VERTEX
8
PATTERN
10
129.5005
20
17.2846
30
0.0
0
VERTEX
8
PATTERN
10
129.9619
20
16.1824
30
0.0
0
VERTEX
8
PATTERN
10
130.8078
20
15.3462
30
0.0
0
VERTEX
8
PATTERN
10
131.9133
20
14.8926
30
0.0
0
VERTEX
8
PATTERN
10
133.0909
20
14.6660
30
0.0
0
VERTEX
8
PATTERN
10
134.2778
20
14.4897
30
0.0
0
VERTEX
8
PATTERN
10
135.4557
20
14.2620
30
0.0
0
VERTEX
8
PATTERN
10
136.6143
20
13.9511
30
0.0
0
VERTEX
8
PATTERN
10
137.7570
20
13.5852
30
0.0
0
VERTEX
8
PATTERN
10
138.9050
20
13.2368
30
0.0
0
VERTEX
8
PATTERN
10
140.0835
20
13.0193
30
0.0
0
VERTEX
8
PATTERN
10
141.2769
20
13.0809
30
0.0
0
VERTEX
8
PATTERN
10
142.3644
20
13.5659
30
0.0
0
VERTEX
8
PATTERN
10
143.1618
20
14.4513
30
0.0
0
VERTEX
8
PATTERN
10
143.6252
20
15.5539
30
0.0
0
VERTEX
8
PATTERN
10
143.8450
20
16.7322
30
0.0
0
VERTEX
8
PATTERN
10
143.9156
20
17.9294
30
0.0
0
VERTEX
8
PATTERN
10
143.8706
20
19.1279
30
0.0
0
VERTEX
8
PATTERN
10
143.6899
20
20.3132
30
0.0
0
VERTEX
8
PATTERN
10
143.3532
20
21.4640
30
0.0
0
VERTEX
8
PATTERN
10
142.9051
20
22.5770
30
0.0
0
VERTEX
8
PATTERN
10
142.4728
20
23.6958
30
0.0
0
VERTEX
8
PATTERN
10
142.2814
20
24.8744
30
0.0
0
VERTEX
8
PATTERN
10
142.7228
20
25.9567
30
0.0
0
VERTEX
8
PATTERN
10
143.8100
20
26.4059
30
0.0
0
VERTEX
8
PATTERN
10
145.0024
20
26.3180
30
0.0
0
VERTEX
8
PATTERN
10
146.1532
20
25.9824
30
0.0
0
VERTEX
8
PATTERN
10
147.2547
20
25.5082
30
0.0
0
VERTEX
8
PATTERN
10
148.2873
20
24.8993
30
0.0
0
VERTEX
8
PATTERN
10
149.1696
20
24.0914
30
0.0
0
VERTEX
8
PATTERN
10
149.7099
20
23.0305
30
0.0
0
VERTEX
8
PATTERN
10
149.7593
20
21.8392
30
0.0
0
VERTEX
8
PATTERN
10
149.4850
20
20.6726
30
0.0
0
VERTEX
8
PATTERN
10
149.1561
20
19.5188
30
0.0
0
VERTEX
8
PATTERN
10
149.0377
20
18.3296
30
0.0
0
VERTEX
8
PATTERN
10
149.4692
20
17.2336
30
0.0
0
VERTEX
8
PATTERN
10
150.5276
20
16.7375
30
0.0
0
VERTEX
8
PATTERN
10
151.7007
20
16.9386
30
0.0
0
VERTEX
8
PATTERN
10
152.7660
20
17.4860
30
0.0
0
VERTEX
8
PATTERN
10
153.7384
20
18.1876
30
0.0
0
VERTEX
8
PATTERN
10
154.6294
20
18.9904
30
0.0
0
VERTEX
8
PATTERN
10
155.4038
20
19.9049
30
0.0
0
VERTEX
8
PATTERN
10
155.9476
20
20.9691
30
0.0
0
VERTEX
8
PATTERN
10
156.0961
20
22.1520
30
0.0
0
VERTEX
8
PATTERN
10
155.8465
20
23.3214
30
0.0
0
VERTEX
8
PATTERN
10
155.3644
20
24.4189
30
0.0
0
VERTEX
8
PATTERN
10
154.7650
20
25.4579
30
0.0
0
VERTEX
8
PATTERN
10
154.0723
20
26.4370
30
0.0
0
VERTEX
8
PATTERN
10
153.2643
20
27.3225
30
0.0
0
VERTEX
8
PATTERN
10
152.3257
20
28.0677
30
0.0
0
VERTEX
8
PATTERN
10
151.2831
20
28.6599
30
0.0
0
VERTEX
8
PATTERN
10
150.1853
20
29.1437
30
0.0
0
VERTEX
8
PATTERN
10
149.0659
20
29.5757
30
0.0
0
VERTEX
8
PATTERN
10
147.9405
20
29.9918
30
0.0
0
VERTEX
8
PATTERN
10
146.8129
20
30.4020
30
0.0
0
VERTEX
8
PATTERN
10
145.6825
20
30.8044
30
0.0
0
VERTEX
8
PATTERN
10
144.5524
20
31.2077
30
0.0
0
VERTEX
8
PATTERN
10
143.4336
20
31.6411
30
0.0
0
VERTEX
8
PATTERN
10
142.3440
20
32.1427
30
0.0
0
VERTEX
8
PATTERN
10
141.3012
20
32.7355
30
0.0
0
VERTEX
8
PATTERN
10
140.3120
20
33.4141
30
0.0
0
VERTEX
8
PATTERN
10
139.3669
20
34.1532
30
0.0
0
VERTEX
8
PATTERN
10
138.4498
20
34.9269
30
0.0
0
VERTEX
8
PATTERN
10
137.5488
20
35.7194
30
0.0
0
VERTEX
8
PATTERN
10
136.6623
20
36.5280
30
0.0
0
VERTEX
8
PATTERN
10
135.8004
20
37.3627
30
0.0
0
VERTEX
8
PATTERN
10
134.9800
20
38.2380
30
0.0
0
VERTEX
8
PATTERN
10
134.2131
20
39.1605
30
0.0
0
VERTEX
8
PATTERN
10
133.4958
20
40.1223
30
0.0
0
VERTEX
8
PATTERN
10
132.8108
20
41.1074
30
0.0
0
VERTEX
8
PATTERN
10
132.1447
20
42.1054
30
0.0
0
VERTEX
8
PATTERN
10
131.5046
20
43.1203
30
0.0
0
VERTEX
8
PATTERN
10
130.9203
20
44.1680
30
0.0
0
VERTEX
8
PATTERN
10
130.4290
20
45.2622
30
0.0
0
VERTEX
8
PATTERN
10
130.0493
20
46.3999
30
0.0
0
VERTEX
8
PATTERN
10
129.7586
20
47.5638
30
0.0
0
VERTEX
8
PATTERN
10
129.5023
20
48.7360
30
0.0
0
VERTEX
8
PATTERN
10
129.2132
20
49.9004
30
0.0
0
VERTEX
8
PATTERN
10
128.8299
20
51.0368
30
0.0
0
VERTEX
8
PATTERN
10
128.3167
20
52.1205
30
0.0
0
VERTEX
8
PATTERN
10
127.6750
20
53.1335
30
0.0
0
VERTEX
8
PATTERN
10
126.9302
20
54.0737
30
0.0
0
VERTEX
8
PATTERN
10
126.1073
20
54.9465
30
0.0
0
VERTEX
8
PATTERN
10
125.2148
20
55.7479
30
0.0
0
VERTEX
8
PATTERN
10
124.2454
20
56.4537
30
0.0
0
VERTEX
8
PATTERN
10
123.1928
20
57.0276
30
0.0
0
VERTEX
8
PATTERN
10
122.0711
20
57.4511
30
0.0
0
VERTEX
8
PATTERN
10
120.9106
20
57.7552
30
0.0
0
VERTEX
8
PATTERN
10
119.7394
20
58.0161
30
0.0
0
VERTEX
8
PATTERN
10
118.5812
20
58.3279
30
0.0
0
VERTEX
8
PATTERN
10
117.4735
20
58.7847
30
0.0
0
VERTEX
8
PATTERN
10
116.4870
20
59.4620
30
0.0
0
VERTEX
8
PATTERN
10
115.7079
20
60.3696
30
0.0
0
VERTEX
8
PATTERN
10
115.1715
20
61.4400
30
0.0
0
VERTEX
8
PATTERN
10
114.8359
20
62.5908
30
0.0
0
VERTEX
8
PATTERN
10
114.6213
20
63.7711
30
0.0
0
VERTEX
8
PATTERN
10
114.4405
20
64.9573
30
0.0
0
VERTEX
8
PATTERN
10
114.2098
20
66.1345
30
0.0
0
VERTEX
8
PATTERN
10
113.8718
20
67.2853
30
0.0
0
VERTEX
8
PATTERN
10
113.4361
20
68.4031
30
0.0
0
VERTEX
8
PATTERN
10
112.9845
20
69.5146
30
0.0
0
VERTEX
8
PATTERN
10
112.6927
20
70.6746
30
0.0
0
VERTEX
8
PATTERN
10
113.0011
20
71.7968
30
0.0
0
VERTEX
8
PATTERN
10
114.0996
20
72.1805
30
0.0
0
VERTEX
8
PATTERN
10
115.2677
20
71.9303
30
0.0
0
VERTEX
8
PATTERN
10
116.3722
20
71.4623
30
0.0
0
VERTEX
8
PATTERN
10
117.4814
20
71.0063
30
0.0
0
VERTEX
8
PATTERN
10
118.6543
20
70.7762
30
0.0
0
VERTEX
8
PATTERN
10
119.8197
20
71.0085
30
0.0
0
VERTEX
8
PATTERN
10
120.6917
20
71.8036
30
0.0
0
VERTEX
8
PATTERN
10
120.8764
20
72.9628
30
0.0
0
VERTEX
8
PATTERN
10
120.3640
20
74.0353
30
0.0
0
VERTEX
8
PATTERN
10
119.5162
20
74.8808
30
0.0
0
VERTEX
8
PATTERN
10
118.5377
20
75.5738
30
0.0
0
VERTEX
8
PATTERN
10
117.4898
20
76.1574
30
0.0
0
VERTEX
8
PATTERN
10
116.3877
20
76.6301
30
0.0
0
VERTEX
8
PATTERN
10
115.2353
20
76.9606
30
0.0
0
VERTEX
8
PATTERN
10
114.0475
20
77.1223
30
0.0
0
VERTEX
8
PATTERN
10
112.8482
20
77.1282
30
0.0
0
VERTEX
8
PATTERN
10
111.6519
20
77.0372
30
0.0
0
VERTEX
8
PATTERN
10
110.4563
20
76.9366
30
0.0
0
VERTEX
8
PATTERN
10
109.2572
20
76.9214
30
0.0
0
VERTEX
8
PATTERN
10
108.0690
20
77.0767
30
0.0
0
VERTEX
8
PATTERN
10
106.9346
20
77.4605
30
0.0
0
VERTEX
8
PATTERN
10
105.9226
20
78.0979
30
0.0
0
VERTEX
8
PATTERN
10
105.1906
20
79.0352
30
0.0
0
VERTEX
8
PATTERN
10
105.2018
20
80.1924
30
0.0
0
VERTEX
8
PATTERN
10
106.1271
20
80.9102
30
0.0
0
VERTEX
8
PATTERN
10
107.3078
20
81.0976
30
0.0
0
VERTEX
8
PATTERN
10
108.5072
20
81.0768
30
0.0
0
VERTEX
8
PATTERN
10
109.7062
20
81.0314
30
0.0
0
VERTEX
8
PATTERN
10
110.9059
20
81.0402
30
0.0
0
VERTEX
8
PATTERN
10
112.1039
20
81.1064
30
0.0
0
VERTEX
8
PATTERN
10
113.3015
20
81.1799
30
0.0
0
VERTEX
8
PATTERN
10
114.5010
20
81.1851
30
0.0
0
VERTEX
8
PATTERN
10
115.6924
20
81.0510
30
0.0
0
VERTEX
8
PATTERN
10
116.8541
20
80.7540
30
0.0
0
VERTEX
8
PATTERN
10
117.9775
20
80.3335
30
0.0
0
VERTEX
8
PATTERN
10
119.0761
20
79.8511
30
0.0
0
VERTEX
8
PATTERN
10
120.1679
20
79.3535
30
0.0
0
VERTEX
8
PATTERN
10
121.2584
20
78.8530
30
0.0
0
VERTEX
8
PATTERN
10
122.3332
20
78.3200
30
0.0
0
VERTEX
8
PATTERN
10
123.3492
20
77.6837
30
0.0
0
VERTEX
8
PATTERN
10
124.2312
20
76.8740
30
0.0
0
VERTEX
8
PATTERN
10
124.9145
20
75.8902
30
0.0
0
VERTEX
8
PATTERN
10
125.4501
20
74.8169
30
0.0
0
VERTEX
8
PATTERN
10
125.9587
20
73.7302
30
0.0
0
VERTEX
8
PATTERN
10
126.5491
20
72.6864
30
0.0
0
VERTEX
8
PATTERN
10
127.2686
20
71.7274
30
0.0
0
VERTEX
8
PATTERN
10
128.0973
20
70.8603
30
0.0
0
VERTEX
8
PATTERN
10
128.9844
20
70.0525
30
0.0
0
VERTEX
8
PATTERN
10
129.8889
20
69.2641
30
0.0
0
VERTEX
8
PATTERN
10
130.7893
20
68.4710
30
0.0
0
VERTEX
8
PATTERN
10
131.6791
20
67.6659
30
0.0
0
VERTEX
8
PATTERN
10
132.5589
20
66.8500
30
0.0
0
VERTEX
8
PATTERN
10
133.4307
20
66.0256
30
0.0
0
VERTEX
8
PATTERN
10
134.2978
20
65.1962
30
0.0
0
VERTEX
8
PATTERN
10
135.1698
20
64.3720
30
0.0
0
VERTEX
8
PATTERN
10
136.0686
20
63.5773
30
0.0
0
VERTEX
8
PATTERN
10
137.0260
20
62.8551
30
0.0
0
VERTEX
8
PATTERN
10
138.0659
20
62.2585
30
0.0
0
VERTEX
8
PATTERN
10
139.1804
20
61.8160
30
0.0
0
VERTEX
8
PATTERN
10
140.3312
20
61.4767
30
0.0
0
VERTEX
8
PATTERN
10
141.4748
20
61.1154
30
0.0
0
VERTEX
8
PATTERN
10
142.5185
20
60.5352
30
0.0
0
VERTEX
8
PATTERN
10
143.1493
20
59.5422
30
0.0
0
VERTEX
8
PATTERN
10
142.9348
20
58.3925
30
0.0
0
VERTEX
8
PATTERN
10
142.0474
20
57.6061
30
0.0
0
VERTEX
8
PATTERN
10
140.9186
20
57.2108
30
0.0
0
VERTEX
8
PATTERN
10
139.7310
20
57.0476
30
0.0
0
VERTEX
8
PATTERN
10
138.5319
20
57.0387
30
0.0
0
VERTEX
8
PATTERN
10
137.3436
20
57.1954
30
0.0
0
VERTEX
8
PATTERN
10
136.2037
20
57.5636
30
0.0
0
VERTEX
8
PATTERN
10
135.1589
20
58.1501
30
0.0
0
VERTEX
8
PATTERN
10
134.2115
20
58.8853
30
0.0
0
VERTEX
8
PATTERN
10
133.3279
20
59.6968
30
0.0
0
VERTEX
8
PATTERN
10
132.4723
20
60.5380
30
0.0
0
VERTEX
8
PATTERN
10
131.6239
20
61.3866
30
0.0
0
VERTEX
8
PATTERN
10
130.7762
20
62.2358
30
0.0
0
VERTEX
8
PATTERN
10
129.9286
20
63.0851
30
0.0
0
VERTEX
8
PATTERN
10
129.0790
20
63.9324
30
0.0
0
VERTEX
8
PATTERN
10
128.2156
20
64.7655
30
0.0
0
VERTEX
8
PATTERN
10
127.3117
20
65.5543
30
0.0
0
VERTEX
8
PATTERN
10
126.3267
20
66.2371
30
0.0
0
VERTEX
8
PATTERN
10
125.2289
20
66.7136
30
0.0
0
VERTEX
8
PATTERN
10
124.0445
20
66.8795
30
0.0
0
VERTEX
8
PATTERN
10
122.8534
20
66.7554
30
0.0
0
VERTEX
8
PATTERN
10
121.7009
20
66.4261
30
0.0
0
VERTEX
8
PATTERN
10
120.6210
20
65.9079
30
0.0
0
VERTEX
8
PATTERN
10
119.7493
20
65.0985
30
0.0
0
VERTEX
8
PATTERN
10
119.5664
20
63.9526
30
0.0
0
VERTEX
8
PATTERN
10
120.3119
20
63.0445
30
0.0
0
VERTEX
8
PATTERN
10
121.4148
20
62.5850
30
0.0
0
VERTEX
8
PATTERN
10
122.5877
20
62.3335
30
0.0
0
VERTEX
8
PATTERN
10
123.7596
20
62.0779
30
0.0
0
VERTEX
8
PATTERN
10
124.8897
20
61.6789
30
0.0
0
VERTEX
8
PATTERN
10
125.9390
20
61.0998
30
0.0
0
VERTEX
8
PATTERN
10
126.9055
20
60.3896
30
0.0
0
VERTEX
8
PATTERN
10
127.8137
20
59.6057
30
0.0
0
VERTEX
8
PATTERN
10
128.6842
20
58.7801
30
0.0
0
VERTEX
8
PATTERN
10
129.5240
20
57.9231
30
0.0
0
VERTEX
8
PATTERN
10
130.3302
20
57.0345
30
0.0
0
VERTEX
8
PATTERN
10
131.0959
20
56.1108
30
0.0
0
VERTEX
8
PATTERN
10
131.8079
20
55.1453
30
0.0
0
VERTEX
8
PATTERN
10
132.4423
20
54.1273
30
0.0
0
VERTEX
8
PATTERN
10
132.9660
20
53.0486
30
0.0
0
VERTEX
8
PATTERN
10
133.3583
20
51.9154
30
0.0
0
VERTEX
8
PATTERN
10
133.6393
20
50.7492
30
0.0
0
VERTEX
8
PATTERN
10
133.8701
20
49.5717
30
0.0
0
VERTEX
8
PATTERN
10
134.1240
20
48.3991
30
0.0
0
VERTEX
8
PATTERN
10
134.4563
20
47.2465
30
0.0
0
VERTEX
8
PATTERN
10
134.8899
20
46.1282
30
0.0
0
VERTEX
8
PATTERN
10
135.4167
20
45.0505
30
0.0
0
VERTEX
8
PATTERN
10
136.0159
20
44.0111
30
0.0
0
VERTEX
8
PATTERN
10
136.6726
20
43.0071
30
0.0
0
VERTEX
8
PATTERN
10
137.3848
20
42.0417
30
0.0
0
VERTEX
8
PATTERN
10
138.1565
20
41.1231
30
0.0
0
VERTEX
8
PATTERN
10
138.9875
20
40.2579
30
0.0
0
VERTEX
8
PATTERN
10
139.8689
20
39.4439
30
0.0
0
VERTEX
8
PATTERN
10
140.7868
20
38.6712
30
0.0
0
VERTEX
8
PATTERN
10
141.7308
20
37.9306
30
0.0
0
VERTEX
8
PATTERN
10
142.7002
20
37.2237
30
0.0
0
VERTEX
8
PATTERN
10
143.7023
20
36.5640
30
0.0
0
VERTEX
8
PATTERN
10
144.7438
20
35.9687
30
0.0
0
VERTEX
8
PATTERN
10
145.8236
20
35.4460
30
0.0
0
VERTEX
8
PATTERN
10
146.9326
20
34.9882
30
0.0
0
VERTEX
8
PATTERN
10
148.0597
20
34.5768
30
0.0
0
VERTEX
8
PATTERN
10
149.1970
20
34.1944
30
0.0
0
VERTEX
8
PATTERN
10
150.3413
20
33.8334
30
0.0
0
VERTEX
8
PATTERN
10
151.4940
20
33.5002
30
0.0
0
VERTEX
8
PATTERN
10
152.6586
20
33.2121
30
0.0
0
VERTEX
8
PATTERN
10
153.8372
20
32.9877
30
0.0
0
VERTEX
8
PATTERN
10
155.0264
20
32.8288
30
0.0
0
VERTEX
8
PATTERN
10
156.2194
20
32.7005
30
0.0
0
VERTEX
8
PATTERN
10
157.4035
20
32.5110
30
0.0
0
VERTEX
8
PATTERN
10
158.5195
20
32.0854
30
0.0
0
VERTEX
8
PATTERN
10
159.3171
20
31.2135
30
0.0
0
VERTEX
8
PATTERN
10
159.5615
20
30.0478
30
0.0
0
VERTEX
8
PATTERN
10
159.5327
20
28.8487
30
0.0
0
VERTEX
8
PATTERN
10
159.5929
20
27.6531
30
0.0
0
VERTEX
8
PATTERN
10
160.1164
20
26.5962
30
0.0
0
VERTEX
8
PATTERN
10
161.2213
20
26.2345
30
0.0
0
VERTEX
8
PATTERN
10
162.3410
20
26.6344
30
0.0
0
VERTEX
8
PATTERN
10
163.2870
20
27.3691
30
0.0
0
VERTEX
8
PATTERN
10
164.1127
20
28.2388
30
0.0
0
VERTEX
8
PATTERN
10
164.8433
20
29.1899
30
0.0
0
VERTEX
8
PATTERN
10
165.4505
20
30.2233
30
0.0
0
VERTEX
8
PATTERN
10
165.8371
20
31.3553
30
0.0
0
VERTEX
8
PATTERN
10
165.8668
20
32.5486
30
0.0
0
VERTEX
8
PATTERN
10
165.4959
20
33.6843
30
0.0
0
VERTEX
8
PATTERN
10
164.8297
20
34.6789
30
0.0
0
VERTEX
8
PATTERN
10
163.9817
20
35.5255
30
0.0
0
VERTEX
8
PATTERN
10
163.0066
20
36.2224
30
0.0
0
VERTEX
8
PATTERN
10
161.9264
20
36.7407
30
0.0
0
VERTEX
8
PATTERN
10
160.7700
20
37.0545
30
0.0
0
VERTEX
8
PATTERN
10
159.5778
20
37.1822
30
0.0
0
VERTEX
8
PATTERN
10
158.3781
20
37.1953
30
0.0
0
VERTEX
8
PATTERN
10
157.1783
20
37.1757
30
0.0
0
VERTEX
8
PATTERN
10
155.9786
20
37.1853
30
0.0
0
VERTEX
8
PATTERN
10
154.7813
20
37.2611
30
0.0
0
VERTEX
8
PATTERN
10
153.5919
20
37.4171
30
0.0
0
VERTEX
8
PATTERN
10
152.4150
20
37.6501
30
0.0
0
VERTEX
8
PATTERN
10
151.2531
20
37.9489
30
0.0
0
VERTEX
8
PATTERN
10
150.1067
20
38.3027
30
0.0
0
VERTEX
8
PATTERN
10
148.9767
20
38.7059
30
0.0
0
VERTEX
8
PATTERN
10
147.8661
20
39.1598
30
0.0
0
VERTEX
8
PATTERN
10
146.7806
20
39.6707
30
0.0
0
VERTEX
8
PATTERN
10
145.7285
20
40.2472
30
0.0
0
VERTEX
8
PATTERN
10
144.7191
20
40.8955
30
0.0
0
VERTEX
8
PATTERN
10
143.7602
20
41.6162
30
0.0
0
VERTEX
8
PATTERN
10
142.8565
20
42.4052
30
0.0
0
VERTEX
8
PATTERN
10
142.0109
20
43.2561
30
0.0
0
VERTEX
8
PATTERN
10
141.2255
20
44.1629
30
0.0
0
VERTEX
8
PATTERN
10
140.5034
20
45.1210
30
0.0
0
VERTEX
8
PATTERN
10
139.8499
20
46.1270
30
0.0
0
VERTEX
8
PATTERN
10
139.2767
20
47.1807
30
0.0
0
VERTEX
8
PATTERN
10
138.8107
20
48.2857
30
0.0
0
VERTEX
8
PATTERN
10
138.5091
20
49.4453
30
0.0
0
VERTEX
8
PATTERN
10
138.4917
20
50.6400
30
0.0
0
VERTEX
8
PATTERN
10
138.9686
20
51.7226
30
0.0
0
VERTEX
8
PATTERN
10
140.0129
20
52.2463
30
0.0
0
VERTEX
8
PATTERN
10
141.1450
20
51.9209
30
0.0
0
VERTEX
8
PATTERN
10
141.9939
20
51.0818
30
0.0
0
VERTEX
8
PATTERN
10
142.6305
20
50.0657
30
0.0
0
VERTEX
8
PATTERN
10
143.2047
20
49.0122
30
0.0
0
VERTEX
8
PATTERN
10
143.8144
20
47.9790
30
0.0
0
VERTEX
8
PATTERN
10
144.5100
20
47.0019
30
0.0
0
VERTEX
8
PATTERN
10
145.3026
20
46.1018
30
0.0
0
VERTEX
8
PATTERN
10
146.1828
20
45.2871
30
0.0
0
VERTEX
8
PATTERN
10
147.1346
20
44.5571
30
0.0
0
VERTEX
8
PATTERN
10
148.1428
20
43.9071
30
0.0
0
VERTEX
8
PATTERN
10
149.1960
20
43.3329
30
0.0
0
VERTEX
8
PATTERN
10
150.2867
20
42.8333
30
0.0
0
VERTEX
8
PATTERN
10
151.4095
20
42.4110
30
0.0
0
VERTEX
8
PATTERN
10
152.5601
20
42.0716
30
0.0
0
VERTEX
8
PATTERN
10
153.7335
20
41.8228
30
0.0
0
VERTEX
8
PATTERN
10
154.9238
20
41.6744
30
0.0
0
VERTEX
8
PATTERN
10
156.1227
20
41.6410
30
0.0
0
VERTEX
8
PATTERN
10
157.3164
20
41.7520
30
0.0
0
VERTEX
8
PATTERN
10
158.4721
20
42.0653
30
0.0
0
VERTEX
8
PATTERN
10
159.4832
20
42.6969
30
0.0
0
VERTEX
8
PATTERN
10
159.9836
20
43.7557
30
0.0
0
VERTEX
8
PATTERN
10
159.5492
20
44.8390
30
0.0
0
VERTEX
8
PATTERN
10
158.5463
20
45.4789
30
0.0
0
VERTEX
8
PATTERN
10
157.3873
20
45.7810
30
0.0
0
VERTEX
8
PATTERN
10
156.1975
20
45.9348
30
0.0
0
VERTEX
8
PATTERN
10
155.0051
20
46.0686
30
0.0
0
VERTEX
8
PATTERN
10
153.8206
20
46.2588
30
0.0
0
VERTEX
8
PATTERN
10
152.6560
20
46.5456
30
0.0
0
VERTEX
8
PATTERN
10
151.5261
20
46.9476
30
0.0
0
VERTEX
8
PATTERN
10
150.4502
20
47.4770
30
0.0
0
VERTEX
8
PATTERN
10
149.4543
20
48.1445
30
0.0
0
VERTEX
8
PATTERN
10
148.5699
20
48.9536
30
0.0
0
VERTEX
8
PATTERN
10
147.8270
20
49.8939
30
0.0
0
VERTEX
8
PATTERN
10
147.2528
20
50.9457
30
0.0
0
VERTEX
8
PATTERN
10
146.8754
20
52.0828
30
0.0
0
VERTEX
8
PATTERN
10
146.7147
20
53.2702
30
0.0
0
VERTEX
8
PATTERN
10
146.7511
20
54.4684
30
0.0
0
VERTEX
8
PATTERN
10
146.9218
20
55.6558
30
0.0
0
VERTEX
8
PATTERN
10
147.1491
20
56.8340
30
0.0
0
VERTEX
8
PATTERN
10
147.3716
20
58.0131
30
0.0
0
VERTEX
8
PATTERN
10
147.5488
20
59.1996
30
0.0
0
VERTEX
8
PATTERN
10
147.6415
20
60.3955
30
0.0
0
VERTEX
8
PATTERN
10
147.5877
20
61.5929
30
0.0
0
VERTEX
8
PATTERN
10
147.2817
20
62.7494
30
0.0
0
VERTEX
8
PATTERN
10
146.6357
20
63.7527
30
0.0
0
VERTEX
8
PATTERN
10
145.6921
20
64.4857
30
0.0
0
VERTEX
8
PATTERN
10
144.5907
20
64.9568
30
0.0
0
VERTEX
8
PATTERN
10
143.4310
20
65.2627
30
0.0
0
VERTEX
8
PATTERN
10
142.2556
20
65.5042
30
0.0
0
VERTEX
8
PATTERN
10
141.0868
20
65.7746
30
0.0
0
VERTEX
8
PATTERN
10
139.9471
20
66.1474
30
0.0
0
VERTEX
8
PATTERN
10
138.8628
20
66.6590
30
0.0
0
VERTEX
8
PATTERN
10
137.8495
20
67.3002
30
0.0
0
VERTEX
8
PATTERN
10
136.9040
20
68.0384
30
0.0
0
VERTEX
8
PATTERN
10
136.0141
20
68.8430
30
0.0
0
VERTEX
8
PATTERN
10
135.1674
20
69.6931
30
0.0
0
VERTEX
8
PATTERN
10
134.3498
20
70.5712
30
0.0
0
VERTEX
8
PATTERN
10
133.5429
20
71.4593
30
0.0
0
VERTEX
8
PATTERN
10
132.7311
20
72.3429
30
0.0
0
VERTEX
8
PATTERN
10
131.9178
20
73.2251
30
0.0
0
VERTEX
8
PATTERN
10
131.1428
20
74.1407
30
0.0
0
VERTEX
8
PATTERN
10
130.5178
20
75.1617
30
0.0
0
VERTEX
8
PATTERN
10
130.3308
20
76.3296
30
0.0
0
VERTEX
8
PATTERN
10
130.9858
20
77.2917
30
0.0
0
VERTEX
8
PATTERN
10
132.1174
20
77.6532
30
0.0
0
VERTEX
8
PATTERN
10
133.3091
20
77.5641
30
0.0
0
VERTEX
8
PATTERN
10
134.4250
20
77.1341
30
0.0
0
VERTEX
8
PATTERN
10
135.3927
20
76.4297
30
0.0
0
VERTEX
8
PATTERN
10
136.2098
20
75.5523
30
0.0
0
VERTEX
8
PATTERN
10
136.9475
20
74.6060
30
0.0
0
VERTEX
8
PATTERN
10
137.6867
20
73.6610
30
0.0
0
VERTEX
8
PATTERN
10
138.4776
20
72.7591
30
0.0
0
VERTEX
8
PATTERN
10
139.3428
20
71.9285
30
0.0
0
VERTEX
8
PATTERN
10
140.2928
20
71.1967
30
0.0
0
VERTEX
8
PATTERN
10
141.3297
20
70.5949
30
0.0
0
VERTEX
8
PATTERN
10
142.4396
20
70.1412
30
0.0
0
VERTEX
8
PATTERN
10
143.5919
20
69.8082
30
0.0
0
VERTEX
8
PATTERN
10
144.7600
20
69.5339
30
0.0
0
VERTEX
8
PATTERN
10
145.9271
20
69.2553
30
0.0
0
VERTEX
8
PATTERN
10
147.0858
20
68.9438
30
0.0
0
VERTEX
8
PATTERN
10
148.2424
20
68.6244
30
0.0
0
VERTEX
8
PATTERN
10
149.4153
20
68.3741
30
0.0
0
VERTEX
8
PATTERN
10
150.6104
20
68.2829
30
0.0
0
VERTEX
8
PATTERN
10
151.8046
20
68.3869
30
0.0
0
VERTEX
8
PATTERN
10
152.9795
20
68.6293
30
0.0
0
VERTEX
8
PATTERN
10
154.1473
20
68.9049
30
0.0
0
VERTEX
8
PATTERN
10
155.3294
20
69.1066
30
0.0
0
VERTEX
8
PATTERN
10
156.5265
20
69.1115
30
0.0
0
VERTEX
8
PATTERN
10
157.6637
20
68.7569
30
0.0
0
VERTEX
8
PATTERN
10
158.4362
20
67.8719
30
0.0
0
VERTEX
8
PATTERN
10
158.3356
20
66.7100
30
0.0
0
VERTEX
8
PATTERN
10
157.5462
20
65.8199
30
0.0
0
VERTEX
8
PATTERN
10
156.5244
20
65.1933
30
0.0
0
VERTEX
8
PATTERN
10
155.4593
20
64.6409
30
0.0
0
VERTEX
8
PATTERN
10
154.4376
20
64.0134
30
0.0
0
VERTEX
8
PATTERN
10
153.5532
20
63.2067
30
0.0
0
VERTEX
8
PATTERN
10
152.9016
20
62.2030
30
0.0
0
VERTEX
8
PATTERN
10
152.4798
20
61.0814
30
0.0
0
VERTEX
8
PATTERN
10
152.2060
20
59.9135
30
0.0
0
VERTEX
8
PATTERN
10
151.9937
20
58.7326
30
0.0
0
VERTEX
8
PATTERN
10
151.7930
20
57.5496
30
0.0
0
VERTEX
8
PATTERN
10
151.5946
20
56.3662
30
0.0
0
VERTEX
8
PATTERN
10
151.4354
20
55.1772
30
0.0
0
VERTEX
8
PATTERN
10
151.4091
20
53.9792
30
0.0
0
VERTEX
8
PATTERN
10
151.6653
20
52.8122
30
0.0
0
VERTEX
8
PATTERN
10
152.3150
20
51.8124
30
0.0
0
VERTEX
8
PATTERN
10
153.2719
20
51.0964
30
0.0
0
VERTEX
8
PATTERN
10
154.3824
20
50.6478
30
0.0
0
VERTEX
8
PATTERN
10
155.5546
20
50.3963
30
0.0
0
VERTEX
8
PATTERN
10
156.7477
20
50.2722
30
0.0
0
VERTEX
8
PATTERN
10
157.9456
20
50.2029
30
0.0
0
VERTEX
8
PATTERN
10
159.1416
20
50.1084
30
0.0
0
VERTEX
8
PATTERN
10
160.3237
20
49.9071
30
0.0
0
VERTEX
8
PATTERN
10
161.4629
20
49.5354
30
0.0
0
VERTEX
8
PATTERN
10
162.5138
20
48.9608
30
0.0
0
VERTEX
8
PATTERN
10
163.4178
20
48.1758
30
0.0
0
VERTEX
8
PATTERN
10
164.1219
20
47.2076
30
0.0
0
VERTEX
8
PATTERN
10
164.6125
20
46.1145
30
0.0
0
VERTEX
8
PATTERN
10
164.9411
20
44.9611
30
0.0
0
VERTEX
8
PATTERN
10
165.1963
20
43.7887
30
0.0
0
VERTEX
8
PATTERN
10
165.4700
20
42.6206
30
0.0
0
VERTEX
8
PATTERN
10
165.8504
20
41.4836
30
0.0
0
VERTEX
8
PATTERN
10
166.4127
20
40.4259
30
0.0
0
VERTEX
8
PATTERN
10
167.1942
20
39.5198
30
0.0
0
VERTEX
8
PATTERN
10
168.1982
20
38.8723
30
0.0
0
VERTEX
8
PATTERN
10
169.3647
20
38.6334
30
0.0
0
VERTEX
8
PATTERN
10
170.4940
20
38.9865
30
0.0
0
VERTEX
8
PATTERN
10
171.2139
20
39.9207
30
0.0
0
VERTEX
8
PATTERN
10
171.3343
20
41.1034
30
0.0
0
VERTEX
8
PATTERN
10
171.0464
20
42.2658
30
0.0
0
VERTEX
8
PATTERN
10
170.6143
20
43.3851
30
0.0
0
VERTEX
8
PATTERN
10
170.2513
20
44.5274
30
0.0
0
VERTEX
8
PATTERN
10
170.2263
20
45.7180
30
0.0
0
VERTEX
8
PATTERN
10
170.8087
20
46.7445
30
0.0
0
VERTEX
8
PATTERN
10
171.8425
20
47.3357
30
0.0
0
VERTEX
8
PATTERN
10
173.0045
20
47.6292
30
0.0
0
VERTEX
8
PATTERN
10
174.1821
20
47.8585
30
0.0
0
VERTEX
8
PATTERN
10
175.3158
20
48.2419
30
0.0
0
VERTEX
8
PATTERN
10
176.2229
20
49.0050
30
0.0
0
VERTEX
8
PATTERN
10
176.4643
20
50.1488
30
0.0
0
VERTEX
8
PATTERN
10
175.8684
20
51.1652
30
0.0
0
VERTEX
8
PATTERN
10
174.8410
20
51.7705
30
0.0
0
VERTEX
8
PATTERN
10
173.6789
20
52.0606
30
0.0
0
VERTEX
8
PATTERN
10
172.4844
20
52.1672
30
0.0
0
VERTEX
8
PATTERN
10
171.2847
20
52.1809
30
0.0
0
VERTEX
8
PATTERN
10
170.0849
20
52.1699
30
0.0
0
VERTEX
8
PATTERN
10
168.8855
20
52.1965
30
0.0
0
VERTEX
8
PATTERN
10
167.6925
20
52.3196
30
0.0
0
VERTEX
8
PATTERN
10
166.5214
20
52.5772
30
0.0
0
VERTEX
8
PATTERN
10
165.3859
20
52.9634
30
0.0
0
VERTEX
8
PATTERN
10
164.2827
20
53.4349
30
0.0
0
VERTEX
8
PATTERN
10
163.1905
20
53.9317
30
0.0
0
VERTEX
8
PATTERN
10
162.0798
20
54.3852
30
0.0
0
VERTEX
8
PATTERN
10
160.9279
20
54.7176
30
0.0
0
VERTEX
8
PATTERN
10
159.7415
20
54.8917
30
0.0
0
VERTEX
8
PATTERN
10
158.5458
20
54.9901
30
0.0
0
VERTEX
8
PATTERN
10
157.3824
20
55.2625
30
0.0
0
VERTEX
8
PATTERN
10
156.4993
20
56.0431
30
0.0
0
VERTEX
8
PATTERN
10
156.2099
20
57.1946
30
0.0
0
VERTEX
8
PATTERN
10
156.3771
20
58.3775
30
0.0
0
VERTEX
8
PATTERN
10
156.8821
20
59.4607
30
0.0
0
VERTEX
8
PATTERN
10
157.7111
20
60.3178
30
0.0
0
VERTEX
8
PATTERN
10
158.8111
20
60.7709
30
0.0
0
VERTEX
8
PATTERN
10
160.0028
20
60.7381
30
0.0
0
VERTEX
8
PATTERN
10
161.1326
20
60.3433
30
0.0
0
VERTEX
8
PATTERN
10
162.1840
20
59.7663
30
0.0
0
VERTEX
8
PATTERN
10
163.2021
20
59.1313
30
0.0
0
VERTEX
8
PATTERN
10
164.2285
20
58.5100
30
0.0
0
VERTEX
8
PATTERN
10
165.2858
20
57.9431
30
0.0
0
VERTEX
8
PATTERN
10
166.3822
20
57.4565
30
0.0
0
VERTEX
8
PATTERN
10
167.5185
20
57.0727
30
0.0
0
VERTEX
8
PATTERN
10
168.6881
20
56.8074
30
0.0
0
VERTEX
8
PATTERN
10
169.8783
20
56.6588
30
0.0
0
VERTEX
8
PATTERN
10
171.0767
20
56.6026
30
0.0
0
VERTEX
8
PATTERN
10
172.2765
20
56.5995
30
0.0
0
VERTEX
8
PATTERN
10
173.4764
20
56.6085
30
0.0
0
VERTEX
8
PATTERN
10
174.6763
20
56.6039
30
0.0
0
VERTEX
8
PATTERN
10
175.8761
20
56.5925
30
0.0
0
VERTEX
8
PATTERN
10
177.0752
20
56.6265
30
0.0
0
VERTEX
8
PATTERN
10
178.2591
20
56.8102
30
0.0
0
VERTEX
8
PATTERN
10
179.3530
20
57.2880
30
0.0
0
VERTEX
8
PATTERN
10
180.1554
20
58.1634
30
0.0
0
VERTEX
8
PATTERN
10
180.3897
20
59.3231
30
0.0
0
VERTEX
8
PATTERN
10
179.9743
20
60.4329
30
0.0
0
VERTEX
8
PATTERN
10
179.0808
20
61.2197
30
0.0
0
VERTEX
8
PATTERN
10
177.9597
20
61.6338
30
0.0
0
VERTEX
8
PATTERN
10
176.7673
20
61.7468
30
0.0
0
VERTEX
8
PATTERN
10
175.5709
20
61.6675
30
0.0
0
VERTEX
8
PATTERN
10
174.3843
20
61.4898
30
0.0
0
VERTEX
8
PATTERN
10
173.2003
20
61.2954
30
0.0
0
VERTEX
8
PATTERN
10
172.0091
20
61.1527
30
0.0
0
VERTEX
8
PATTERN
10
170.8103
20
61.1159
30
0.0
0
VERTEX
8
PATTERN
10
169.6158
20
61.2201
30
0.0
0
VERTEX
8
PATTERN
10
168.4459
20
61.4820
30
0.0
0
VERTEX
8
PATTERN
10
167.3233
20
61.9027
30
0.0
0
VERTEX
8
PATTERN
10
166.2726
20
62.4796
30
0.0
0
VERTEX
8
PATTERN
10
165.3302
20
63.2196
30
0.0
0
VERTEX
8
PATTERN
10
164.5602
20
64.1361
30
0.0
0
VERTEX
8
PATTERN
10
164.0525
20
65.2186
30
0.0
0
VERTEX
8
PATTERN
10
163.8650
20
66.4000
30
0.0
0
VERTEX
8
PATTERN
10
163.9599
20
67.5942
30
0.0
0
VERTEX
8
PATTERN
10
164.2225
20
68.7645
30
0.0
0
VERTEX
8
PATTERN
10
164.5174
20
69.9275
30
0.0
0
VERTEX
8
PATTERN
10
164.6610
20
71.1160
30
0.0
0
VERTEX
8
PATTERN
10
164.3449
20
72.2567
30
0.0
0
VERTEX
8
PATTERN
10
163.4191
20
72.9922
30
0.0
0
VERTEX
8
PATTERN
10
162.2606
20
73.2908
30
0.0
0
VERTEX
8
PATTERN
10
161.0659
20
73.3989
30
0.0
0
VERTEX
8
PATTERN
10
159.8675
20
73.4573
30
0.0
0
VERTEX
8
PATTERN
10
158.6688
20
73.5122
30
0.0
0
VERTEX
8
PATTERN
10
157.4697
20
73.5529
30
0.0
0
VERTEX
8
PATTERN
10
156.2699
20
73.5466
30
0.0
0
VERTEX
8
PATTERN
10
155.0725
20
73.4722
30
0.0
0
VERTEX
8
PATTERN
10
153.8800
20
73.3396
30
0.0
0
VERTEX
8
PATTERN
10
152.6894
20
73.1905
30
0.0
0
VERTEX
8
PATTERN
10
151.4946
20
73.0830
30
0.0
0
VERTEX
8
PATTERN
10
150.2952
20
73.0668
30
0.0
0
VERTEX
8
PATTERN
10
149.0989
20
73.1540
30
0.0
0
VERTEX
8
PATTERN
10
147.9100
20
73.3157
30
0.0
0
VERTEX
8
PATTERN
10
146.7265
20
73.5129
30
0.0
0
VERTEX
8
PATTERN
10
145.5464
20
73.7301
30
0.0
0
VERTEX
8
PATTERN
10
144.3754
20
73.9911
30
0.0
0
VERTEX
8
PATTERN
10
143.2340
20
74.3587
30
0.0
0
VERTEX
8
PATTERN
10
142.1737
20
74.9152
30
0.0
0
VERTEX
8
PATTERN
10
141.3198
20
75.7484
30
0.0
0
VERTEX
8
PATTERN
10
140.9835
20
76.8766
30
0.0
0
VERTEX
8
PATTERN
10
141.5748
20
77.8766
30
0.0
0
VERTEX
8
PATTERN
10
142.6837
20
78.3050
30
0.0
0
VERTEX
8
PATTERN
10
143.8798
20
78.3630
30
0.0
0
VERTEX
8
PATTERN
10
145.0736
20
78.2472
30
0.0
0
VERTEX
8
PATTERN
10
146.2594
20
78.0638
30
0.0
0
VERTEX
8
PATTERN
10
147.4444
20
77.8756
30
0.0
0
VERTEX
8
PATTERN
10
148.6343
20
77.7212
30
0.0
0
VERTEX
8
PATTERN
10
149.8301
20
77.6252
30
0.0
0
VERTEX
8
PATTERN
10
151.0296
20
77.5992
30
0.0
0
VERTEX
8
PATTERN
10
152.2288
20
77.6361
30
0.0
0
VERTEX
8
PATTERN
10
153.4264
20
77.7100
30
0.0
0
VERTEX
8
PATTERN
10
154.6238
20
77.7867
30
0.0
0
VERTEX
8
PATTERN
10
155.8226
20
77.8384
30
0.0
0
VERTEX
8
PATTERN
10
157.0223
20
77.8540
30
0.0
0
VERTEX
8
PATTERN
10
158.2221
20
77.8399
30
0.0
0
VERTEX
8
PATTERN
10
159.4217
20
77.8125
30
0.0
0
VERTEX
8
PATTERN
10
160.6213
20
77.7861
30
0.0
0
VERTEX
8
PATTERN
10
161.8209
20
77.7614
30
0.0
0
VERTEX
8
PATTERN
10
163.0201
20
77.7205
30
0.0
0
VERTEX
8
PATTERN
10
164.2161
20
77.6267
30
0.0
0
VERTEX
8
PATTERN
10
165.3987
20
77.4279
30
0.0
0
VERTEX
8
PATTERN
10
166.5382
20
77.0574
30
0.0
0
VERTEX
8
PATTERN
10
167.5738
20
76.4577
30
0.0
0
VERTEX
8
PATTERN
10
168.4195
20
75.6119
30
0.0
0
VERTEX
8
PATTERN
10
169.0264
20
74.5803
30
0.0
0
VERTEX
8
PATTERN
10
169.4052
20
73.4437
30
0.0
0
VERTEX
8
PATTERN
10
169.5845
20
72.2587
30
0.0
0
VERTEX
8
PATTERN
10
169.5832
20
71.0599
30
0.0
0
VERTEX
8
PATTERN
10
169.4362
20
69.8695
30
0.0
0
VERTEX
8
PATTERN
10
169.2417
20
68.6855
30
0.0
0
VERTEX
8
PATTERN
10
169.1886
20
67.4898
30
0.0
0
VERTEX
8
PATTERN
10
169.6152
20
66.3887
30
0.0
0
VERTEX
8
PATTERN
10
170.6429
20
65.8122
30
0.0
0
VERTEX
8
PATTERN
10
171.8374
20
65.7703
30
0.0
0
VERTEX
8
PATTERN
10
173.0219
20
65.9579
30
0.0
0
VERTEX
8
PATTERN
10
174.1970
20
66.2006
30
0.0
0
VERTEX
8
PATTERN
10
175.3758
20
66.4247
30
0.0
0
VERTEX
8
PATTERN
10
176.5577
20
66.6315
30
0.0
0
VERTEX
8
PATTERN
10
177.7288
20
66.8906
30
0.0
0
VERTEX
8
PATTERN
10
178.8450
20
67.3236
30
0.0
0
VERTEX
8
PATTERN
10
179.7509
20
68.0937
30
0.0
0
VERTEX
8
PATTERN
10
180.0596
20
69.2238
30
0.0
0
VERTEX
8
PATTERN
10
179.5082
20
70.2619
30
0.0
0
VERTEX
8
PATTERN
10
178.5025
20
70.9052
30
0.0
0
VERTEX
8
PATTERN
10
177.3834
20
71.3370
30
0.0
0
VERTEX
8
PATTERN
10
176.2742
20
71.7920
30
0.0
0
VERTEX
8
PATTERN
10
175.2996
20
72.4814
30
0.0
0
VERTEX
8
PATTERN
10
174.6849
20
73.4989
30
0.0
0
VERTEX
8
PATTERN
10
174.5957
20
74.6850
30
0.0
0
VERTEX
8
PATTERN
10
175.0329
20
75.7904
30
0.0
0
VERTEX
8
PATTERN
10
175.9278
20
76.5714
30
0.0
0
VERTEX
8
PATTERN
10
177.0794
20
76.8790
30
0.0
0
VERTEX
8
PATTERN
10
178.2741
20
76.8037
30
0.0
0
VERTEX
8
PATTERN
10
179.4437
20
76.5374
30
0.0
0
VERTEX
8
PATTERN
10
180.6137
20
76.2727
30
0.0
0
VERTEX
8
PATTERN
10
181.8089
20
76.2282
30
0.0
0
VERTEX
8
PATTERN
10
182.9176
20
76.6510
30
0.0
0
VERTEX
8
PATTERN
10
183.6149
20
77.6025
30
0.0
0
VERTEX
8
PATTERN
10
183.6459
20
78.7854
30
0.0
0
VERTEX
8
PATTERN
10
183.0922
20
79.8391
30
0.0
0
VERTEX
8
PATTERN
10
182.1903
20
80.6230
30
0.0
0
VERTEX
8
PATTERN
10
181.1138
20
81.1475
30
0.0
0
VERTEX
8
PATTERN
10
179.9599
20
81.4720
30
0.0
0
VERTEX
8
PATTERN
10
178.7735
20
81.6463
30
0.0
0
VERTEX
8
PATTERN
10
177.5752
20
81.6966
30
0.0
0
VERTEX
8
PATTERN
10
176.3777
20
81.6277
30
0.0
0
VERTEX
8
PATTERN
10
175.1922
20
81.4448
30
0.0
0
VERTEX
8
PATTERN
10
174.0209
20
81.1851
30
0.0
0
VERTEX
8
PATTERN
10
172.8481
20
80.9324
30
0.0
0
VERTEX
8
PATTERN
10
171.6560
20
80.8092
30
0.0
0
VERTEX
8
PATTERN
10
170.4614
20
80.9017
30
0.0
0
VERTEX
8
PATTERN
10
169.2920
20
81.1685
30
0.0
0
VERTEX
8
PATTERN
10
168.1336
20
81.4812
30
0.0
0
VERTEX
8
PATTERN
10
166.9625
20
81.7413
30
0.0
0
VERTEX
8
PATTERN
10
165.7748
20
81.9098
30
0.0
0
VERTEX
8
PATTERN
10
164.5782
20
81.9954
30
0.0
0
VERTEX
8
PATTERN
10
163.3788
20
82.0281
30
0.0
0
VERTEX
8
PATTERN
10
162.1789
20
82.0374
30
0.0
0
VERTEX
8
PATTERN
10
160.9790
20
82.0433
30
0.0
0
VERTEX
8
PATTERN
10
159.7792
20
82.0540
30
0.0
0
VERTEX
8
PATTERN
10
158.5794
20
82.0678
30
0.0
0
VERTEX
8
PATTERN
10
157.3795
20
82.0757
30
0.0
0
VERTEX
8
PATTERN
10
156.1796
20
82.0679
30
0.0
0
VERTEX
8
PATTERN
10
154.9801
20
82.0401
30
0.0
0
VERTEX
8
PATTERN
10
153.7809
20
81.9978
30
0.0
0
VERTEX
8
PATTERN
10
152.5818
20
81.9547
30
0.0
0
VERTEX
8
PATTERN
10
151.3823
20
81.9270
30
0.0
0
VERTEX
8
PATTERN
10
150.1824
20
81.9275
30
0.0
0
VERTEX
8
PATTERN
10
148.9830
20
81.9617
30
0.0
0
VERTEX
8
PATTERN
10
147.7849
20
82.0269
30
0.0
0
VERTEX
8
PATTERN
10
146.5881
20
82.1117
30
0.0
0
VERTEX
8
PATTERN
10
145.3912
20
82.1967
30
0.0
0
VERTEX
8
PATTERN
10
144.1929
20
82.2572
30
0.0
0
VERTEX
8
PATTERN
10
142.9931
20
82.2710
30
0.0
0
VERTEX
8
PATTERN
10
141.7941
20
82.2283
30
0.0
0
VERTEX
8
PATTERN
10
140.5976
20
82.1387
30
0.0
0
VERTEX
8
PATTERN
10
139.4027
20
82.0301
30
0.0
0
VERTEX
8
PATTERN
10
138.2062
20
81.9407
30
0.0
0
VERTEX
8
PATTERN
10
137.0070
20
81.9028
30
0.0
0
VERTEX
8
PATTERN
10
135.8074
20
81.9261
30
0.0
0
VERTEX
8
PATTERN
10
134.6093
20
81.9913
30
0.0
0
VERTEX
8
PATTERN
10
133.4115
20
82.0616
30
0.0
0
VERTEX
8
PATTERN
10
132.2124
20
82.1039
30
0.0
0
VERTEX
8
PATTERN
10
131.0126
20
82.1031
30
0.0
0
VERTEX
8
PATTERN
10
129.8132
20
82.0688
30
0.0
0
VERTEX
8
PATTERN
10
128.6139
20
82.0313
30
0.0
0
VERTEX
8
PATTERN
10
127.4141
20
82.0328
30
0.0
0
VERTEX
8
PATTERN
10
126.2173
20
82.1137
30
0.0
0
VERTEX
8
PATTERN
10
125.0323
20
82.2993
30
0.0
0
VERTEX
8
PATTERN
10
123.8696
20
82.5938
30
0.0
0
VERTEX
8
PATTERN
10
122.7357
20
82.9852
30
0.0
0
VERTEX
8
PATTERN
10
121.6315
20
83.4543
30
0.0
0
VERTEX
8
PATTERN
10
120.5511
20
83.9762
30
0.0
0
VERTEX
8
PATTERN
10
119.4796
20
84.5162
30
0.0
0
VERTEX
8
PATTERN
10
118.3930
20
85.0247
30
0.0
0
VERTEX
8
PATTERN
10
117.2671
20
85.4376
30
0.0
0
VERTEX
8
PATTERN
10
116.0972
20
85.6992
30
0.0
0
VERTEX
8
PATTERN
10
114.9024
20
85.8009
30
0.0
0
VERTEX
8
PATTERN
10
113.7028
20
85.7896
30
0.0
0
VERTEX
8
PATTERN
10
112.5038
20
85.7418
30
0.0
0
VERTEX
8
PATTERN
10
111.3044
20
85.7498
30
0.0
0
VERTEX
8
PATTERN
10
110.1228
20
85.9414
30
0.0
0
VERTEX
8
PATTERN
10
109.1057
20
86.5485
30
0.0
0
VERTEX
8
PATTERN
10
108.8283
20
87.6694
30
0.0
0
VERTEX
8
PATTERN
10
109.4811
20
88.6520
30
0.0
0
VERTEX
8
PATTERN
10
110.5118
20
89.2580
30
0.0
0
VERTEX
8
PATTERN
10
111.6392
20
89.6674
30
0.0
0
VERTEX
8
PATTERN
10
112.7747
20
90.0548
30
0.0
0
VERTEX
8
PATTERN
10
113.8557
20
90.5716
30
0.0
0
VERTEX
8
PATTERN
10
114.7855
20
91.3238
30
0.0
0
VERTEX
8
PATTERN
10
115.4827
20
92.2969
30
0.0
0
VERTEX
8
PATTERN
10
115.9960
20
93.3806
30
0.0
0
VERTEX
8
PATTERN
10
116.4351
20
94.4973
30
0.0
0
VERTEX
8
PATTERN
10
116.8921
20
95.6066
30
0.0
0
VERTEX
8
PATTERN
10
117.4227
20
96.6824
30
0.0
0
VERTEX
8
PATTERN
10
118.0548
20
97.7015
30
0.0
0
VERTEX
8
PATTERN
10
118.8010
20
98.6401
30
0.0
0
VERTEX
8
PATTERN
10
119.6671
20
99.4688
30
0.0
0
VERTEX
8
PATTERN
10
120.6484
20
100.1573
30
0.0
0
VERTEX
8
PATTERN
10
121.7146
20
100.7060
30
0.0
0
VERTEX
8
PATTERN
10
122.8190
20
101.1749
30
0.0
0
VERTEX
8
PATTERN
10
123.9011
20
101.6915
30
0.0
0
SEQEND
8
PATTERN
0
ENDSEC
0
EOF
